<?xml version="1.0" encoding="UTF-8" standalone="no"?>
<svg
   xmlns:dc="http://purl.org/dc/elements/1.1/"
   xmlns:cc="http://creativecommons.org/ns#"
   xmlns:rdf="http://www.w3.org/1999/02/22-rdf-syntax-ns#"
   xmlns:svg="http://www.w3.org/2000/svg"
   xmlns="http://www.w3.org/2000/svg"
   xmlns:sodipodi="http://sodipodi.sourceforge.net/DTD/sodipodi-0.dtd"
   xmlns:inkscape="http://www.inkscape.org/namespaces/inkscape"
   style="font-style:normal;font-weight:normal;font-size:12px;font-family:Dialog;color-interpolation:auto;fill:#000000;fill-opacity:1;stroke:#000000;stroke-width:1;stroke-linecap:square;stroke-linejoin:miter;stroke-miterlimit:10;stroke-dasharray:none;stroke-dashoffset:0;stroke-opacity:1;color-rendering:auto;image-rendering:auto;shape-rendering:auto;text-rendering:auto"
   width="862.35742"
   height="412.6192"
   version="1.1"
   id="svg253"
   sodipodi:docname="spinpop.svg"
   inkscape:version="1.0.1 (3bc2e813f5, 2020-09-07)">
  <metadata
     id="metadata257">
    <rdf:RDF>
      <cc:Work
         rdf:about="">
        <dc:format>image/svg+xml</dc:format>
        <dc:type
           rdf:resource="http://purl.org/dc/dcmitype/StillImage" />
        <dc:title></dc:title>
      </cc:Work>
    </rdf:RDF>
  </metadata>
  <sodipodi:namedview
     pagecolor="#ffffff"
     bordercolor="#666666"
     borderopacity="1"
     objecttolerance="10"
     gridtolerance="10"
     guidetolerance="10"
     inkscape:pageopacity="0"
     inkscape:pageshadow="2"
     inkscape:window-width="3840"
     inkscape:window-height="2097"
     id="namedview255"
     showgrid="false"
     inkscape:zoom="2.5617498"
     inkscape:cx="451.6434"
     inkscape:cy="195.5845"
     inkscape:window-x="-8"
     inkscape:window-y="-8"
     inkscape:window-maximized="1"
     inkscape:current-layer="svg253" />
  <!--Generated by the Batik Graphics2D SVG Generator-->
  <defs
     id="genericDefs">
    <defs
       id="defs1">
      <clipPath
         clipPathUnits="userSpaceOnUse"
         id="clipPath1">
        <path
           d="M 0,0 H 958 V 434 H 0 Z"
           id="path3" />
      </clipPath>
    </defs>
  </defs>
  <g
     style="color-interpolation:linearRGB;fill:#262626;stroke:#262626;stroke-width:0.6667;stroke-linejoin:round;color-rendering:optimizeQuality;image-rendering:optimizeQuality;text-rendering:geometricPrecision"
     id="g33"
     transform="translate(-27.3566,-21.4155)">
    <line
       y2="358"
       style="fill:none"
       x1="124.9998"
       x2="866.99982"
       y1="358"
       id="line17" />
    <line
       y2="350.57999"
       style="fill:none"
       x1="124.9998"
       x2="124.9998"
       y1="358"
       id="line19" />
    <line
       y2="350.57999"
       style="fill:none"
       x1="248.66631"
       x2="248.66631"
       y1="358"
       id="line21" />
    <line
       y2="350.57999"
       style="fill:none"
       x1="372.33359"
       x2="372.33359"
       y1="358"
       id="line23" />
    <line
       y2="350.57999"
       style="fill:none"
       x1="496.00021"
       x2="496.00021"
       y1="358"
       id="line25" />
    <line
       y2="350.57999"
       style="fill:none"
       x1="619.66669"
       x2="619.66669"
       y1="358"
       id="line27" />
    <line
       y2="350.57999"
       style="fill:none"
       x1="743.33331"
       x2="743.33331"
       y1="358"
       id="line29" />
    <line
       y2="350.57999"
       style="fill:none"
       x1="866.99982"
       x2="866.99982"
       y1="358"
       id="line31" />
  </g>
  <g
     transform="translate(97.6432,344.5845)"
     style="font-size:26.6667px;font-family:mwa_cmr10;color-interpolation:linearRGB;fill:#262626;stroke:#262626;color-rendering:optimizeQuality;image-rendering:optimizeQuality;text-rendering:geometricPrecision"
     id="g43">
    <path
       style="stroke:none"
       d="m -16.9538,22.9937 q -3.3125,0 -4.5,-2.7266 -1.1875,-2.7266 -1.1875,-6.4766 0,-2.3437 0.4219,-4.414 0.4219,-2.0703 1.6953,-3.5157 1.2734,-1.4453 3.5703,-1.4453 1.7813,0 2.9141,0.8672 1.1328,0.8672 1.7265,2.25 0.5938,1.3828 0.8125,2.9531 0.2188,1.5704 0.2188,3.3047 0,2.3282 -0.4297,4.3516 -0.4297,2.0234 -1.6797,3.4375 -1.25,1.4141 -3.5625,1.4141 z m 0,-0.7032 q 1.5,0 2.2422,-1.539 0.7422,-1.5391 0.9141,-3.4141 0.1718,-1.875 0.1718,-3.9844 0,-2.0312 -0.1718,-3.7422 -0.1719,-1.7109 -0.9063,-3.1015 -0.7344,-1.3906 -2.25,-1.3906 -1.5312,0 -2.2656,1.3984 -0.7344,1.3984 -0.9063,3.1016 -0.1718,1.7031 -0.1718,3.7343 0,1.5 0.0703,2.836 0.0703,1.3359 0.3828,2.75 0.3125,1.414 1.0234,2.3828 0.711,0.9687 1.8672,0.9687 z"
       id="path35" />
    <path
       style="stroke:none"
       d="m -8.1048,20.9155 q 0,-0.6093 0.4531,-1.0468 0.4532,-0.4375 1.0313,-0.4375 0.375,0 0.7344,0.1953 0.3593,0.1953 0.5547,0.5547 0.1953,0.3593 0.1953,0.7343 0,0.5938 -0.4375,1.0391 -0.4375,0.4453 -1.0469,0.4453 -0.5781,0 -1.0313,-0.4453 -0.4531,-0.4453 -0.4531,-1.0391 z"
       id="path37" />
    <path
       style="stroke:none"
       d="m -0.6192,19.3218 q 0.2812,0.7969 0.8515,1.4453 0.5704,0.6484 1.3594,1.0078 0.7891,0.3594 1.6328,0.3594 1.9532,0 2.6875,-1.5156 0.7344,-1.5157 0.7344,-3.6719 0,-0.9375 -0.0312,-1.5781 Q 6.5839,14.728 6.4433,14.1343 6.1933,13.1812 5.5605,12.4702 4.9277,11.7593 4.0214,11.7593 q -0.9062,0 -1.5625,0.2812 -0.6562,0.2813 -1.0625,0.6485 -0.4062,0.3672 -0.7187,0.7734 -0.3125,0.4063 -0.3907,0.4375 h -0.3125 q -0.0625,0 -0.164,-0.0859 -0.1016,-0.086 -0.1016,-0.1641 V 4.6343 q 0,-0.0781 0.0859,-0.1485 0.086,-0.0703 0.1797,-0.0703 h 0.0782 q 1.8281,0.875 3.8593,0.875 2.0157,0 3.875,-0.875 h 0.0782 q 0.0937,0 0.1718,0.0703 0.0782,0.0704 0.0782,0.1485 v 0.25 q 0,0.125 -0.0625,0.125 Q 7.1308,6.2437 5.7402,6.9233 4.3495,7.603 2.8652,7.603 1.787,7.603 0.6464,7.3062 v 5.0937 q 0.9063,-0.7187 1.6094,-1.0312 0.7031,-0.3125 1.7969,-0.3125 1.4843,0 2.664,0.8593 1.1797,0.8594 1.8125,2.2344 0.6328,1.375 0.6328,2.8125 0,1.625 -0.7968,3.0078 -0.7969,1.3828 -2.1641,2.2031 -1.3672,0.8204 -2.9766,0.8204 -1.3281,0 -2.4453,-0.6875 -1.1172,-0.6875 -1.7578,-1.8438 -0.6406,-1.1562 -0.6406,-2.4687 0,-0.6094 0.3984,-0.9922 0.3985,-0.3828 0.9922,-0.3828 0.5938,0 0.9922,0.3906 0.3984,0.3906 0.3984,0.9844 0,0.5781 -0.3984,0.9843 -0.3984,0.4063 -0.9922,0.4063 -0.0937,0 -0.2109,-0.0235 -0.1172,-0.0234 -0.1797,-0.039 z"
       id="path39" />
    <path
       style="stroke:none"
       d="m 11.7142,22.3999 v -0.7187 q 0,-0.0782 0.0468,-0.1563 l 4.2032,-4.6406 q 0.9531,-1.0313 1.539,-1.7266 0.586,-0.6953 1.1719,-1.6015 0.5859,-0.9063 0.9219,-1.8516 0.3359,-0.9453 0.3359,-2.0078 0,-1.0938 -0.4141,-2.1094 -0.414,-1.0156 -1.2187,-1.6172 -0.8047,-0.6015 -1.9609,-0.6015 -1.1719,0 -2.1094,0.7031 -0.9375,0.7031 -1.3125,1.8281 0.1094,-0.0312 0.2812,-0.0312 0.6094,0 1.0391,0.4062 0.4297,0.4063 0.4297,1.0625 0,0.6094 -0.4297,1.0391 -0.4297,0.4297 -1.0391,0.4297 -0.625,0 -1.0547,-0.4375 -0.4296,-0.4375 -0.4296,-1.0313 0,-1.0156 0.3828,-1.9062 0.3828,-0.8907 1.1015,-1.586 0.7188,-0.6953 1.625,-1.0625 0.9063,-0.3672 1.9219,-0.3672 1.5313,0 2.8672,0.6563 1.3359,0.6562 2.1094,1.8437 0.7734,1.1875 0.7734,2.7813 0,1.1875 -0.5156,2.2422 -0.5156,1.0547 -1.3125,1.914 -0.7969,0.8594 -2.0547,1.9532 -1.2578,1.0937 -1.6484,1.4687 l -3.0625,2.9375 h 2.5937 q 1.9219,0 3.2031,-0.0312 1.2813,-0.0313 1.3594,-0.1094 0.3281,-0.3281 0.6563,-2.4844 h 0.7812 l -0.7656,4.8125 z"
       id="path41" />
  </g>
  <g
     transform="translate(221.3097,344.5845)"
     style="font-size:26.6667px;font-family:mwa_cmr10;color-interpolation:linearRGB;fill:#262626;stroke:#262626;color-rendering:optimizeQuality;image-rendering:optimizeQuality;text-rendering:geometricPrecision"
     id="g53">
    <path
       style="stroke:none"
       d="m -16.9538,22.9937 q -3.3125,0 -4.5,-2.7266 -1.1875,-2.7266 -1.1875,-6.4766 0,-2.3437 0.4219,-4.414 0.4219,-2.0703 1.6953,-3.5157 1.2734,-1.4453 3.5703,-1.4453 1.7813,0 2.9141,0.8672 1.1328,0.8672 1.7265,2.25 0.5938,1.3828 0.8125,2.9531 0.2188,1.5704 0.2188,3.3047 0,2.3282 -0.4297,4.3516 -0.4297,2.0234 -1.6797,3.4375 -1.25,1.4141 -3.5625,1.4141 z m 0,-0.7032 q 1.5,0 2.2422,-1.539 0.7422,-1.5391 0.9141,-3.4141 0.1718,-1.875 0.1718,-3.9844 0,-2.0312 -0.1718,-3.7422 -0.1719,-1.7109 -0.9063,-3.1015 -0.7344,-1.3906 -2.25,-1.3906 -1.5312,0 -2.2656,1.3984 -0.7344,1.3984 -0.9063,3.1016 -0.1718,1.7031 -0.1718,3.7343 0,1.5 0.0703,2.836 0.0703,1.3359 0.3828,2.75 0.3125,1.414 1.0234,2.3828 0.711,0.9687 1.8672,0.9687 z"
       id="path45" />
    <path
       style="stroke:none"
       d="m -8.1048,20.9155 q 0,-0.6093 0.4531,-1.0468 0.4532,-0.4375 1.0313,-0.4375 0.375,0 0.7344,0.1953 0.3593,0.1953 0.5547,0.5547 0.1953,0.3593 0.1953,0.7343 0,0.5938 -0.4375,1.0391 -0.4375,0.4453 -1.0469,0.4453 -0.5781,0 -1.0313,-0.4453 -0.4531,-0.4453 -0.4531,-1.0391 z"
       id="path47" />
    <path
       style="stroke:none"
       d="m -0.6192,19.3218 q 0.2812,0.7969 0.8515,1.4453 0.5704,0.6484 1.3594,1.0078 0.7891,0.3594 1.6328,0.3594 1.9532,0 2.6875,-1.5156 0.7344,-1.5157 0.7344,-3.6719 0,-0.9375 -0.0312,-1.5781 Q 6.5839,14.728 6.4433,14.1343 6.1933,13.1812 5.5605,12.4702 4.9277,11.7593 4.0214,11.7593 q -0.9062,0 -1.5625,0.2812 -0.6562,0.2813 -1.0625,0.6485 -0.4062,0.3672 -0.7187,0.7734 -0.3125,0.4063 -0.3907,0.4375 h -0.3125 q -0.0625,0 -0.164,-0.0859 -0.1016,-0.086 -0.1016,-0.1641 V 4.6343 q 0,-0.0781 0.0859,-0.1485 0.086,-0.0703 0.1797,-0.0703 h 0.0782 q 1.8281,0.875 3.8593,0.875 2.0157,0 3.875,-0.875 h 0.0782 q 0.0937,0 0.1718,0.0703 0.0782,0.0704 0.0782,0.1485 v 0.25 q 0,0.125 -0.0625,0.125 Q 7.1308,6.2437 5.7402,6.9233 4.3495,7.603 2.8652,7.603 1.787,7.603 0.6464,7.3062 v 5.0937 q 0.9063,-0.7187 1.6094,-1.0312 0.7031,-0.3125 1.7969,-0.3125 1.4843,0 2.664,0.8593 1.1797,0.8594 1.8125,2.2344 0.6328,1.375 0.6328,2.8125 0,1.625 -0.7968,3.0078 -0.7969,1.3828 -2.1641,2.2031 -1.3672,0.8204 -2.9766,0.8204 -1.3281,0 -2.4453,-0.6875 -1.1172,-0.6875 -1.7578,-1.8438 -0.6406,-1.1562 -0.6406,-2.4687 0,-0.6094 0.3984,-0.9922 0.3985,-0.3828 0.9922,-0.3828 0.5938,0 0.9922,0.3906 0.3984,0.3906 0.3984,0.9844 0,0.5781 -0.3984,0.9843 -0.3984,0.4063 -0.9922,0.4063 -0.0937,0 -0.2109,-0.0235 -0.1172,-0.0234 -0.1797,-0.039 z"
       id="path49" />
    <path
       style="stroke:none"
       d="m 12.9485,20.3218 q 0.625,0.9219 1.6953,1.3672 1.0704,0.4453 2.2891,0.4453 1.5781,0 2.2344,-1.336 0.6562,-1.3359 0.6562,-3.039 0,-0.7656 -0.1406,-1.5313 Q 19.5423,15.4624 19.2142,14.8062 18.886,14.1499 18.3157,13.7515 17.7454,13.353 16.9173,13.353 h -1.7969 q -0.2344,0 -0.2344,-0.25 v -0.2343 q 0,-0.2188 0.2344,-0.2188 l 1.4844,-0.1094 q 0.9531,0 1.5781,-0.7109 0.625,-0.7109 0.9141,-1.7344 0.289,-1.0234 0.289,-1.9453 0,-1.2969 -0.6015,-2.125 -0.6016,-0.8281 -1.8516,-0.8281 -1.0312,0 -1.9609,0.3906 -0.9297,0.3906 -1.4922,1.1719 0.0625,-0.0156 0.1015,-0.0156 0.0391,0 0.086,0 0.6094,0 1.0156,0.4218 0.4063,0.4219 0.4063,1.0157 0,0.5781 -0.4063,1 -0.4062,0.4218 -1.0156,0.4218 -0.5938,0 -1.0156,-0.4218 -0.4219,-0.4219 -0.4219,-1 0,-1.1719 0.6953,-2.0235 0.6953,-0.8515 1.7969,-1.2969 1.1015,-0.4453 2.2109,-0.4453 0.8281,0 1.7344,0.2422 0.9062,0.2422 1.6406,0.7031 0.7344,0.461 1.2031,1.1719 0.4688,0.711 0.4688,1.6172 0,1.125 -0.5078,2.0938 -0.5078,0.9687 -1.3907,1.664 -0.8828,0.6953 -1.9296,1.0391 1.1718,0.2187 2.2265,0.8828 1.0547,0.6641 1.6953,1.6875 0.6407,1.0234 0.6407,2.2109 0,1.5 -0.8204,2.7032 -0.8203,1.2031 -2.1484,1.8828 -1.3281,0.6797 -2.8125,0.6797 -1.2656,0 -2.5391,-0.4844 -1.2734,-0.4844 -2.0781,-1.4453 -0.8047,-0.961 -0.8047,-2.3047 0,-0.6719 0.4453,-1.1172 0.4454,-0.4453 1.1172,-0.4453 0.4375,0 0.7969,0.2031 0.3594,0.2031 0.5625,0.5703 0.2031,0.3672 0.2031,0.7891 0,0.6562 -0.4609,1.1094 -0.4609,0.4531 -1.1016,0.4531 z"
       id="path51" />
  </g>
  <g
     transform="translate(344.977,344.5845)"
     style="font-size:26.6667px;font-family:mwa_cmr10;color-interpolation:linearRGB;fill:#262626;stroke:#262626;color-rendering:optimizeQuality;image-rendering:optimizeQuality;text-rendering:geometricPrecision"
     id="g63">
    <path
       style="stroke:none"
       d="m -16.9538,22.9937 q -3.3125,0 -4.5,-2.7266 -1.1875,-2.7266 -1.1875,-6.4766 0,-2.3437 0.4219,-4.414 0.4219,-2.0703 1.6953,-3.5157 1.2734,-1.4453 3.5703,-1.4453 1.7813,0 2.9141,0.8672 1.1328,0.8672 1.7265,2.25 0.5938,1.3828 0.8125,2.9531 0.2188,1.5704 0.2188,3.3047 0,2.3282 -0.4297,4.3516 -0.4297,2.0234 -1.6797,3.4375 -1.25,1.4141 -3.5625,1.4141 z m 0,-0.7032 q 1.5,0 2.2422,-1.539 0.7422,-1.5391 0.9141,-3.4141 0.1718,-1.875 0.1718,-3.9844 0,-2.0312 -0.1718,-3.7422 -0.1719,-1.7109 -0.9063,-3.1015 -0.7344,-1.3906 -2.25,-1.3906 -1.5312,0 -2.2656,1.3984 -0.7344,1.3984 -0.9063,3.1016 -0.1718,1.7031 -0.1718,3.7343 0,1.5 0.0703,2.836 0.0703,1.3359 0.3828,2.75 0.3125,1.414 1.0234,2.3828 0.711,0.9687 1.8672,0.9687 z"
       id="path55" />
    <path
       style="stroke:none"
       d="m -8.1048,20.9155 q 0,-0.6093 0.4531,-1.0468 0.4532,-0.4375 1.0313,-0.4375 0.375,0 0.7344,0.1953 0.3593,0.1953 0.5547,0.5547 0.1953,0.3593 0.1953,0.7343 0,0.5938 -0.4375,1.0391 -0.4375,0.4453 -1.0469,0.4453 -0.5781,0 -1.0313,-0.4453 -0.4531,-0.4453 -0.4531,-1.0391 z"
       id="path57" />
    <path
       style="stroke:none"
       d="m -0.6192,19.3218 q 0.2812,0.7969 0.8515,1.4453 0.5704,0.6484 1.3594,1.0078 0.7891,0.3594 1.6328,0.3594 1.9532,0 2.6875,-1.5156 0.7344,-1.5157 0.7344,-3.6719 0,-0.9375 -0.0312,-1.5781 Q 6.5839,14.728 6.4433,14.1343 6.1933,13.1812 5.5605,12.4702 4.9277,11.7593 4.0214,11.7593 q -0.9062,0 -1.5625,0.2812 -0.6562,0.2813 -1.0625,0.6485 -0.4062,0.3672 -0.7187,0.7734 -0.3125,0.4063 -0.3907,0.4375 h -0.3125 q -0.0625,0 -0.164,-0.0859 -0.1016,-0.086 -0.1016,-0.1641 V 4.6343 q 0,-0.0781 0.0859,-0.1485 0.086,-0.0703 0.1797,-0.0703 h 0.0782 q 1.8281,0.875 3.8593,0.875 2.0157,0 3.875,-0.875 h 0.0782 q 0.0937,0 0.1718,0.0703 0.0782,0.0704 0.0782,0.1485 v 0.25 q 0,0.125 -0.0625,0.125 Q 7.1308,6.2437 5.7402,6.9233 4.3495,7.603 2.8652,7.603 1.787,7.603 0.6464,7.3062 v 5.0937 q 0.9063,-0.7187 1.6094,-1.0312 0.7031,-0.3125 1.7969,-0.3125 1.4843,0 2.664,0.8593 1.1797,0.8594 1.8125,2.2344 0.6328,1.375 0.6328,2.8125 0,1.625 -0.7968,3.0078 -0.7969,1.3828 -2.1641,2.2031 -1.3672,0.8204 -2.9766,0.8204 -1.3281,0 -2.4453,-0.6875 -1.1172,-0.6875 -1.7578,-1.8438 -0.6406,-1.1562 -0.6406,-2.4687 0,-0.6094 0.3984,-0.9922 0.3985,-0.3828 0.9922,-0.3828 0.5938,0 0.9922,0.3906 0.3984,0.3906 0.3984,0.9844 0,0.5781 -0.3984,0.9843 -0.3984,0.4063 -0.9922,0.4063 -0.0937,0 -0.2109,-0.0235 -0.1172,-0.0234 -0.1797,-0.039 z"
       id="path59" />
    <path
       style="stroke:none"
       d="M 11.1204,17.9468 V 16.9937 L 19.4642,4.5562 q 0.0937,-0.1407 0.2812,-0.1407 h 0.3906 q 0.3125,0 0.3125,0.3125 v 12.2657 h 2.6407 v 0.9531 h -2.6407 v 2.6406 q 0,0.5625 0.7891,0.7109 0.7891,0.1485 1.8359,0.1485 v 0.9531 H 15.636 v -0.9531 q 1.0313,0 1.8282,-0.1485 0.7968,-0.1484 0.7968,-0.7109 v -2.6406 z m 0.8906,-0.9531 h 6.4063 V 7.4312 Z"
       id="path61" />
  </g>
  <g
     transform="translate(468.6436,344.5845)"
     style="font-size:26.6667px;font-family:mwa_cmr10;color-interpolation:linearRGB;fill:#262626;stroke:#262626;color-rendering:optimizeQuality;image-rendering:optimizeQuality;text-rendering:geometricPrecision"
     id="g73">
    <path
       style="stroke:none"
       d="m -16.9538,22.9937 q -3.3125,0 -4.5,-2.7266 -1.1875,-2.7266 -1.1875,-6.4766 0,-2.3437 0.4219,-4.414 0.4219,-2.0703 1.6953,-3.5157 1.2734,-1.4453 3.5703,-1.4453 1.7813,0 2.9141,0.8672 1.1328,0.8672 1.7265,2.25 0.5938,1.3828 0.8125,2.9531 0.2188,1.5704 0.2188,3.3047 0,2.3282 -0.4297,4.3516 -0.4297,2.0234 -1.6797,3.4375 -1.25,1.4141 -3.5625,1.4141 z m 0,-0.7032 q 1.5,0 2.2422,-1.539 0.7422,-1.5391 0.9141,-3.4141 0.1718,-1.875 0.1718,-3.9844 0,-2.0312 -0.1718,-3.7422 -0.1719,-1.7109 -0.9063,-3.1015 -0.7344,-1.3906 -2.25,-1.3906 -1.5312,0 -2.2656,1.3984 -0.7344,1.3984 -0.9063,3.1016 -0.1718,1.7031 -0.1718,3.7343 0,1.5 0.0703,2.836 0.0703,1.3359 0.3828,2.75 0.3125,1.414 1.0234,2.3828 0.711,0.9687 1.8672,0.9687 z"
       id="path65" />
    <path
       style="stroke:none"
       d="m -8.1048,20.9155 q 0,-0.6093 0.4531,-1.0468 0.4532,-0.4375 1.0313,-0.4375 0.375,0 0.7344,0.1953 0.3593,0.1953 0.5547,0.5547 0.1953,0.3593 0.1953,0.7343 0,0.5938 -0.4375,1.0391 -0.4375,0.4453 -1.0469,0.4453 -0.5781,0 -1.0313,-0.4453 -0.4531,-0.4453 -0.4531,-1.0391 z"
       id="path67" />
    <path
       style="stroke:none"
       d="m -0.6192,19.3218 q 0.2812,0.7969 0.8515,1.4453 0.5704,0.6484 1.3594,1.0078 0.7891,0.3594 1.6328,0.3594 1.9532,0 2.6875,-1.5156 0.7344,-1.5157 0.7344,-3.6719 0,-0.9375 -0.0312,-1.5781 Q 6.5839,14.728 6.4433,14.1343 6.1933,13.1812 5.5605,12.4702 4.9277,11.7593 4.0214,11.7593 q -0.9062,0 -1.5625,0.2812 -0.6562,0.2813 -1.0625,0.6485 -0.4062,0.3672 -0.7187,0.7734 -0.3125,0.4063 -0.3907,0.4375 h -0.3125 q -0.0625,0 -0.164,-0.0859 -0.1016,-0.086 -0.1016,-0.1641 V 4.6343 q 0,-0.0781 0.0859,-0.1485 0.086,-0.0703 0.1797,-0.0703 h 0.0782 q 1.8281,0.875 3.8593,0.875 2.0157,0 3.875,-0.875 h 0.0782 q 0.0937,0 0.1718,0.0703 0.0782,0.0704 0.0782,0.1485 v 0.25 q 0,0.125 -0.0625,0.125 Q 7.1308,6.2437 5.7402,6.9233 4.3495,7.603 2.8652,7.603 1.787,7.603 0.6464,7.3062 v 5.0937 q 0.9063,-0.7187 1.6094,-1.0312 0.7031,-0.3125 1.7969,-0.3125 1.4843,0 2.664,0.8593 1.1797,0.8594 1.8125,2.2344 0.6328,1.375 0.6328,2.8125 0,1.625 -0.7968,3.0078 -0.7969,1.3828 -2.1641,2.2031 -1.3672,0.8204 -2.9766,0.8204 -1.3281,0 -2.4453,-0.6875 -1.1172,-0.6875 -1.7578,-1.8438 -0.6406,-1.1562 -0.6406,-2.4687 0,-0.6094 0.3984,-0.9922 0.3985,-0.3828 0.9922,-0.3828 0.5938,0 0.9922,0.3906 0.3984,0.3906 0.3984,0.9844 0,0.5781 -0.3984,0.9843 -0.3984,0.4063 -0.9922,0.4063 -0.0937,0 -0.2109,-0.0235 -0.1172,-0.0234 -0.1797,-0.039 z"
       id="path69" />
    <path
       style="stroke:none"
       d="m 12.7142,19.3218 q 0.2812,0.7969 0.8515,1.4453 0.5703,0.6484 1.3594,1.0078 0.7891,0.3594 1.6328,0.3594 1.9531,0 2.6875,-1.5156 0.7344,-1.5157 0.7344,-3.6719 0,-0.9375 -0.0313,-1.5781 -0.0312,-0.6407 -0.1718,-1.2344 -0.25,-0.9531 -0.8829,-1.6641 -0.6328,-0.7109 -1.539,-0.7109 -0.9063,0 -1.5625,0.2812 -0.6563,0.2813 -1.0625,0.6485 -0.4063,0.3672 -0.7188,0.7734 -0.3125,0.4063 -0.3906,0.4375 h -0.3125 q -0.0625,0 -0.1641,-0.0859 -0.1015,-0.086 -0.1015,-0.1641 V 4.6343 q 0,-0.0781 0.0859,-0.1485 0.086,-0.0703 0.1797,-0.0703 h 0.0781 q 1.8282,0.875 3.8594,0.875 2.0156,0 3.875,-0.875 h 0.0781 q 0.0938,0 0.1719,0.0703 0.0781,0.0704 0.0781,0.1485 v 0.25 q 0,0.125 -0.0625,0.125 -0.9218,1.2344 -2.3125,1.914 -1.3906,0.6797 -2.875,0.6797 -1.0781,0 -2.2187,-0.2968 v 5.0937 q 0.9062,-0.7187 1.6094,-1.0312 0.7031,-0.3125 1.7968,-0.3125 1.4844,0 2.6641,0.8593 1.1797,0.8594 1.8125,2.2344 0.6328,1.375 0.6328,2.8125 0,1.625 -0.7969,3.0078 -0.7968,1.3828 -2.164,2.2031 -1.3672,0.8204 -2.9766,0.8204 -1.3281,0 -2.4453,-0.6875 -1.1172,-0.6875 -1.7578,-1.8438 -0.6406,-1.1562 -0.6406,-2.4687 0,-0.6094 0.3984,-0.9922 0.3984,-0.3828 0.9922,-0.3828 0.5937,0 0.9922,0.3906 0.3984,0.3906 0.3984,0.9844 0,0.5781 -0.3984,0.9843 -0.3985,0.4063 -0.9922,0.4063 -0.0938,0 -0.211,-0.0235 -0.1171,-0.0234 -0.1796,-0.039 z"
       id="path71" />
  </g>
  <g
     transform="translate(592.3101,344.5845)"
     style="font-size:26.6667px;font-family:mwa_cmr10;color-interpolation:linearRGB;fill:#262626;stroke:#262626;color-rendering:optimizeQuality;image-rendering:optimizeQuality;text-rendering:geometricPrecision"
     id="g83">
    <path
       style="stroke:none"
       d="m -16.9538,22.9937 q -3.3125,0 -4.5,-2.7266 -1.1875,-2.7266 -1.1875,-6.4766 0,-2.3437 0.4219,-4.414 0.4219,-2.0703 1.6953,-3.5157 1.2734,-1.4453 3.5703,-1.4453 1.7813,0 2.9141,0.8672 1.1328,0.8672 1.7265,2.25 0.5938,1.3828 0.8125,2.9531 0.2188,1.5704 0.2188,3.3047 0,2.3282 -0.4297,4.3516 -0.4297,2.0234 -1.6797,3.4375 -1.25,1.4141 -3.5625,1.4141 z m 0,-0.7032 q 1.5,0 2.2422,-1.539 0.7422,-1.5391 0.9141,-3.4141 0.1718,-1.875 0.1718,-3.9844 0,-2.0312 -0.1718,-3.7422 -0.1719,-1.7109 -0.9063,-3.1015 -0.7344,-1.3906 -2.25,-1.3906 -1.5312,0 -2.2656,1.3984 -0.7344,1.3984 -0.9063,3.1016 -0.1718,1.7031 -0.1718,3.7343 0,1.5 0.0703,2.836 0.0703,1.3359 0.3828,2.75 0.3125,1.414 1.0234,2.3828 0.711,0.9687 1.8672,0.9687 z"
       id="path75" />
    <path
       style="stroke:none"
       d="m -8.1048,20.9155 q 0,-0.6093 0.4531,-1.0468 0.4532,-0.4375 1.0313,-0.4375 0.375,0 0.7344,0.1953 0.3593,0.1953 0.5547,0.5547 0.1953,0.3593 0.1953,0.7343 0,0.5938 -0.4375,1.0391 -0.4375,0.4453 -1.0469,0.4453 -0.5781,0 -1.0313,-0.4453 -0.4531,-0.4453 -0.4531,-1.0391 z"
       id="path77" />
    <path
       style="stroke:none"
       d="m -0.6192,19.3218 q 0.2812,0.7969 0.8515,1.4453 0.5704,0.6484 1.3594,1.0078 0.7891,0.3594 1.6328,0.3594 1.9532,0 2.6875,-1.5156 0.7344,-1.5157 0.7344,-3.6719 0,-0.9375 -0.0312,-1.5781 Q 6.5839,14.728 6.4433,14.1343 6.1933,13.1812 5.5605,12.4702 4.9277,11.7593 4.0214,11.7593 q -0.9062,0 -1.5625,0.2812 -0.6562,0.2813 -1.0625,0.6485 -0.4062,0.3672 -0.7187,0.7734 -0.3125,0.4063 -0.3907,0.4375 h -0.3125 q -0.0625,0 -0.164,-0.0859 -0.1016,-0.086 -0.1016,-0.1641 V 4.6343 q 0,-0.0781 0.0859,-0.1485 0.086,-0.0703 0.1797,-0.0703 h 0.0782 q 1.8281,0.875 3.8593,0.875 2.0157,0 3.875,-0.875 h 0.0782 q 0.0937,0 0.1718,0.0703 0.0782,0.0704 0.0782,0.1485 v 0.25 q 0,0.125 -0.0625,0.125 Q 7.1308,6.2437 5.7402,6.9233 4.3495,7.603 2.8652,7.603 1.787,7.603 0.6464,7.3062 v 5.0937 q 0.9063,-0.7187 1.6094,-1.0312 0.7031,-0.3125 1.7969,-0.3125 1.4843,0 2.664,0.8593 1.1797,0.8594 1.8125,2.2344 0.6328,1.375 0.6328,2.8125 0,1.625 -0.7968,3.0078 -0.7969,1.3828 -2.1641,2.2031 -1.3672,0.8204 -2.9766,0.8204 -1.3281,0 -2.4453,-0.6875 -1.1172,-0.6875 -1.7578,-1.8438 -0.6406,-1.1562 -0.6406,-2.4687 0,-0.6094 0.3984,-0.9922 0.3985,-0.3828 0.9922,-0.3828 0.5938,0 0.9922,0.3906 0.3984,0.3906 0.3984,0.9844 0,0.5781 -0.3984,0.9843 -0.3984,0.4063 -0.9922,0.4063 -0.0937,0 -0.2109,-0.0235 -0.1172,-0.0234 -0.1797,-0.039 z"
       id="path79" />
    <path
       style="stroke:none"
       d="m 17.1204,22.9937 q -1.6719,0 -2.7969,-0.8907 -1.125,-0.8906 -1.7343,-2.3047 -0.6094,-1.414 -0.8438,-2.9687 -0.2344,-1.5547 -0.2344,-3.1641 0,-2.125 0.8282,-4.2734 0.8281,-2.1484 2.4453,-3.5625 1.6172,-1.4141 3.8203,-1.4141 0.9219,0 1.7265,0.3516 0.8047,0.3516 1.2579,1.0312 0.4531,0.6797 0.4531,1.6329 0,0.5625 -0.375,0.9375 -0.375,0.375 -0.9375,0.375 -0.5313,0 -0.9063,-0.3829 -0.375,-0.3828 -0.375,-0.9296 0,-0.5157 0.375,-0.8985 0.375,-0.3828 0.9063,-0.3828 h 0.1406 q -0.3281,-0.5 -0.9609,-0.7266 -0.6328,-0.2265 -1.3047,-0.2265 -0.8125,0 -1.5078,0.3515 -0.6953,0.3516 -1.2422,0.961 -0.5469,0.6094 -0.9219,1.3437 -0.375,0.7344 -0.5781,1.6719 -0.2031,0.9375 -0.2578,1.75 -0.0547,0.8125 -0.0547,2.0469 0.4844,-1.0938 1.3515,-1.8047 0.8672,-0.7109 1.961,-0.7109 1.2031,0 2.1953,0.4921 0.9922,0.4922 1.7031,1.3516 0.711,0.8594 1.086,1.9688 0.375,1.1093 0.375,2.25 0,1.5781 -0.711,3.0078 -0.7109,1.4297 -1.9844,2.2734 -1.2734,0.8438 -2.8984,0.8438 z m 0,-0.8594 q 1.0469,0 1.6797,-0.4766 0.6328,-0.4765 0.9297,-1.2578 0.2969,-0.7812 0.3672,-1.5781 0.0703,-0.7969 0.0703,-1.9531 0,-1.5313 -0.1485,-2.6172 -0.1484,-1.086 -0.789,-1.9063 -0.6406,-0.8203 -1.9844,-0.8203 -1.0937,0 -1.7969,0.7344 -0.7031,0.7344 -1.0234,1.8672 -0.3203,1.1328 -0.3203,2.164 0,0.3594 0.0156,0.5469 0,0.0313 0,0.0625 0,0.0313 -0.0156,0.0625 0,1.1719 0.2344,2.3516 0.2343,1.1797 0.9062,2 0.6719,0.8203 1.875,0.8203 z"
       id="path81" />
  </g>
  <g
     transform="translate(715.9767,344.5845)"
     style="font-size:26.6667px;font-family:mwa_cmr10;color-interpolation:linearRGB;fill:#262626;stroke:#262626;color-rendering:optimizeQuality;image-rendering:optimizeQuality;text-rendering:geometricPrecision"
     id="g93">
    <path
       style="stroke:none"
       d="m -16.9538,22.9937 q -3.3125,0 -4.5,-2.7266 -1.1875,-2.7266 -1.1875,-6.4766 0,-2.3437 0.4219,-4.414 0.4219,-2.0703 1.6953,-3.5157 1.2734,-1.4453 3.5703,-1.4453 1.7813,0 2.9141,0.8672 1.1328,0.8672 1.7265,2.25 0.5938,1.3828 0.8125,2.9531 0.2188,1.5704 0.2188,3.3047 0,2.3282 -0.4297,4.3516 -0.4297,2.0234 -1.6797,3.4375 -1.25,1.4141 -3.5625,1.4141 z m 0,-0.7032 q 1.5,0 2.2422,-1.539 0.7422,-1.5391 0.9141,-3.4141 0.1718,-1.875 0.1718,-3.9844 0,-2.0312 -0.1718,-3.7422 -0.1719,-1.7109 -0.9063,-3.1015 -0.7344,-1.3906 -2.25,-1.3906 -1.5312,0 -2.2656,1.3984 -0.7344,1.3984 -0.9063,3.1016 -0.1718,1.7031 -0.1718,3.7343 0,1.5 0.0703,2.836 0.0703,1.3359 0.3828,2.75 0.3125,1.414 1.0234,2.3828 0.711,0.9687 1.8672,0.9687 z"
       id="path85" />
    <path
       style="stroke:none"
       d="m -8.1048,20.9155 q 0,-0.6093 0.4531,-1.0468 0.4532,-0.4375 1.0313,-0.4375 0.375,0 0.7344,0.1953 0.3593,0.1953 0.5547,0.5547 0.1953,0.3593 0.1953,0.7343 0,0.5938 -0.4375,1.0391 -0.4375,0.4453 -1.0469,0.4453 -0.5781,0 -1.0313,-0.4453 -0.4531,-0.4453 -0.4531,-1.0391 z"
       id="path87" />
    <path
       style="stroke:none"
       d="m -0.6192,19.3218 q 0.2812,0.7969 0.8515,1.4453 0.5704,0.6484 1.3594,1.0078 0.7891,0.3594 1.6328,0.3594 1.9532,0 2.6875,-1.5156 0.7344,-1.5157 0.7344,-3.6719 0,-0.9375 -0.0312,-1.5781 Q 6.5839,14.728 6.4433,14.1343 6.1933,13.1812 5.5605,12.4702 4.9277,11.7593 4.0214,11.7593 q -0.9062,0 -1.5625,0.2812 -0.6562,0.2813 -1.0625,0.6485 -0.4062,0.3672 -0.7187,0.7734 -0.3125,0.4063 -0.3907,0.4375 h -0.3125 q -0.0625,0 -0.164,-0.0859 -0.1016,-0.086 -0.1016,-0.1641 V 4.6343 q 0,-0.0781 0.0859,-0.1485 0.086,-0.0703 0.1797,-0.0703 h 0.0782 q 1.8281,0.875 3.8593,0.875 2.0157,0 3.875,-0.875 h 0.0782 q 0.0937,0 0.1718,0.0703 0.0782,0.0704 0.0782,0.1485 v 0.25 q 0,0.125 -0.0625,0.125 Q 7.1308,6.2437 5.7402,6.9233 4.3495,7.603 2.8652,7.603 1.787,7.603 0.6464,7.3062 v 5.0937 q 0.9063,-0.7187 1.6094,-1.0312 0.7031,-0.3125 1.7969,-0.3125 1.4843,0 2.664,0.8593 1.1797,0.8594 1.8125,2.2344 0.6328,1.375 0.6328,2.8125 0,1.625 -0.7968,3.0078 -0.7969,1.3828 -2.1641,2.2031 -1.3672,0.8204 -2.9766,0.8204 -1.3281,0 -2.4453,-0.6875 -1.1172,-0.6875 -1.7578,-1.8438 -0.6406,-1.1562 -0.6406,-2.4687 0,-0.6094 0.3984,-0.9922 0.3985,-0.3828 0.9922,-0.3828 0.5938,0 0.9922,0.3906 0.3984,0.3906 0.3984,0.9844 0,0.5781 -0.3984,0.9843 -0.3984,0.4063 -0.9922,0.4063 -0.0937,0 -0.2109,-0.0235 -0.1172,-0.0234 -0.1797,-0.039 z"
       id="path89" />
    <path
       style="stroke:none"
       d="m 15.0579,21.6968 q 0,-1.5 0.2656,-2.9375 0.2657,-1.4375 0.7735,-2.8438 0.5078,-1.4062 1.2265,-2.7578 0.7188,-1.3515 1.5782,-2.5234 l 2.4687,-3.4375 h -3.0937 q -4.7969,0 -4.9375,0.1406 -0.3594,0.4219 -0.6719,2.4844 H 11.886 l 0.8907,-5.6719 h 0.7812 V 4.228 q 0,0.5 1.6484,0.6407 1.6485,0.1406 3.2266,0.1406 h 5.0313 v 0.7031 q 0,0.0156 -0.0079,0.0313 -0.0078,0.0156 -0.0234,0.0468 l -3.7187,5.2188 q -1.375,2.0312 -1.711,4.5078 -0.3359,2.4766 -0.3359,6.1797 0,0.5312 -0.3828,0.914 -0.3828,0.3829 -0.9141,0.3829 -0.5469,0 -0.9297,-0.3829 -0.3828,-0.3828 -0.3828,-0.914 z"
       id="path91" />
  </g>
  <g
     transform="translate(839.6432,344.5845)"
     style="font-size:26.6667px;font-family:mwa_cmr10;color-interpolation:linearRGB;fill:#262626;stroke:#262626;color-rendering:optimizeQuality;image-rendering:optimizeQuality;text-rendering:geometricPrecision"
     id="g103">
    <path
       style="stroke:none"
       d="m -16.9538,22.9937 q -3.3125,0 -4.5,-2.7266 -1.1875,-2.7266 -1.1875,-6.4766 0,-2.3437 0.4219,-4.414 0.4219,-2.0703 1.6953,-3.5157 1.2734,-1.4453 3.5703,-1.4453 1.7813,0 2.9141,0.8672 1.1328,0.8672 1.7265,2.25 0.5938,1.3828 0.8125,2.9531 0.2188,1.5704 0.2188,3.3047 0,2.3282 -0.4297,4.3516 -0.4297,2.0234 -1.6797,3.4375 -1.25,1.4141 -3.5625,1.4141 z m 0,-0.7032 q 1.5,0 2.2422,-1.539 0.7422,-1.5391 0.9141,-3.4141 0.1718,-1.875 0.1718,-3.9844 0,-2.0312 -0.1718,-3.7422 -0.1719,-1.7109 -0.9063,-3.1015 -0.7344,-1.3906 -2.25,-1.3906 -1.5312,0 -2.2656,1.3984 -0.7344,1.3984 -0.9063,3.1016 -0.1718,1.7031 -0.1718,3.7343 0,1.5 0.0703,2.836 0.0703,1.3359 0.3828,2.75 0.3125,1.414 1.0234,2.3828 0.711,0.9687 1.8672,0.9687 z"
       id="path95" />
    <path
       style="stroke:none"
       d="m -8.1048,20.9155 q 0,-0.6093 0.4531,-1.0468 0.4532,-0.4375 1.0313,-0.4375 0.375,0 0.7344,0.1953 0.3593,0.1953 0.5547,0.5547 0.1953,0.3593 0.1953,0.7343 0,0.5938 -0.4375,1.0391 -0.4375,0.4453 -1.0469,0.4453 -0.5781,0 -1.0313,-0.4453 -0.4531,-0.4453 -0.4531,-1.0391 z"
       id="path97" />
    <path
       style="stroke:none"
       d="m -0.6192,19.3218 q 0.2812,0.7969 0.8515,1.4453 0.5704,0.6484 1.3594,1.0078 0.7891,0.3594 1.6328,0.3594 1.9532,0 2.6875,-1.5156 0.7344,-1.5157 0.7344,-3.6719 0,-0.9375 -0.0312,-1.5781 Q 6.5839,14.728 6.4433,14.1343 6.1933,13.1812 5.5605,12.4702 4.9277,11.7593 4.0214,11.7593 q -0.9062,0 -1.5625,0.2812 -0.6562,0.2813 -1.0625,0.6485 -0.4062,0.3672 -0.7187,0.7734 -0.3125,0.4063 -0.3907,0.4375 h -0.3125 q -0.0625,0 -0.164,-0.0859 -0.1016,-0.086 -0.1016,-0.1641 V 4.6343 q 0,-0.0781 0.0859,-0.1485 0.086,-0.0703 0.1797,-0.0703 h 0.0782 q 1.8281,0.875 3.8593,0.875 2.0157,0 3.875,-0.875 h 0.0782 q 0.0937,0 0.1718,0.0703 0.0782,0.0704 0.0782,0.1485 v 0.25 q 0,0.125 -0.0625,0.125 Q 7.1308,6.2437 5.7402,6.9233 4.3495,7.603 2.8652,7.603 1.787,7.603 0.6464,7.3062 v 5.0937 q 0.9063,-0.7187 1.6094,-1.0312 0.7031,-0.3125 1.7969,-0.3125 1.4843,0 2.664,0.8593 1.1797,0.8594 1.8125,2.2344 0.6328,1.375 0.6328,2.8125 0,1.625 -0.7968,3.0078 -0.7969,1.3828 -2.1641,2.2031 -1.3672,0.8204 -2.9766,0.8204 -1.3281,0 -2.4453,-0.6875 -1.1172,-0.6875 -1.7578,-1.8438 -0.6406,-1.1562 -0.6406,-2.4687 0,-0.6094 0.3984,-0.9922 0.3985,-0.3828 0.9922,-0.3828 0.5938,0 0.9922,0.3906 0.3984,0.3906 0.3984,0.9844 0,0.5781 -0.3984,0.9843 -0.3984,0.4063 -0.9922,0.4063 -0.0937,0 -0.2109,-0.0235 -0.1172,-0.0234 -0.1797,-0.039 z"
       id="path99" />
    <path
       style="stroke:none"
       d="m 11.511,18.3062 q 0,-1.625 1.0625,-2.875 1.0625,-1.25 2.7344,-2.0782 l -1,-0.6406 q -0.9219,-0.6094 -1.5,-1.6172 -0.5781,-1.0078 -0.5781,-2.1172 0,-1.2968 0.6797,-2.3359 0.6797,-1.0391 1.8047,-1.6328 1.125,-0.5938 2.4062,-0.5938 1.2031,0 2.3125,0.4922 1.1094,0.4922 1.8281,1.3985 0.7188,0.9062 0.7188,2.1562 0,0.9063 -0.4219,1.6875 -0.4219,0.7813 -1.1719,1.3984 -0.75,0.6172 -1.5937,1.0547 l 1.5469,0.9844 q 1.0625,0.7031 1.7187,1.8359 0.6563,1.1329 0.6563,2.3829 0,1.4687 -0.7891,2.6718 -0.7891,1.2032 -2.0781,1.8594 -1.2891,0.6563 -2.7266,0.6563 -1.3906,0 -2.6953,-0.5704 Q 13.1204,21.853 12.3157,20.7827 11.511,19.7124 11.511,18.3062 Z m 1.4532,0 q 0,1.0625 0.5859,1.9453 0.5859,0.8828 1.5547,1.3828 0.9687,0.5 2.0156,0.5 1.5625,0 2.8438,-0.9141 1.2812,-0.914 1.2812,-2.4297 0,-0.5156 -0.2031,-1.0234 -0.2031,-0.5078 -0.5625,-0.9219 -0.3594,-0.414 -0.8125,-0.6797 l -3.625,-2.3437 q -0.8438,0.4375 -1.5469,1.125 -0.7031,0.6875 -1.1172,1.5469 -0.414,0.8593 -0.414,1.8125 z m 1.8593,-8.25 3.2657,2.1093 q 1.1406,-0.6562 1.8671,-1.5937 0.7266,-0.9375 0.7266,-2.1094 0,-0.9062 -0.5078,-1.6641 Q 19.6673,6.0405 18.847,5.6187 18.0267,5.1968 17.0892,5.1968 q -0.8125,0 -1.6407,0.3125 -0.8281,0.3125 -1.3672,0.9453 -0.539,0.6328 -0.539,1.4766 0,1.2656 1.2812,2.125 z"
       id="path101" />
  </g>
  <g
     transform="translate(468.6436,377.3845)"
     style="font-size:29.3333px;font-family:mwa_cmmi10;color-interpolation:linearRGB;fill:#262626;stroke:#262626;color-rendering:optimizeQuality;image-rendering:optimizeQuality;text-rendering:geometricPrecision"
     id="g123">
    <path
       style="stroke:none"
       d="m -65.8734,22.2961 q 0,-0.4375 0.0937,-0.8125 l 2.0938,-8.3281 h -3.0469 q -0.2969,0 -0.2969,-0.375 0.1094,-0.6406 0.375,-0.6406 h 3.2188 l 1.1562,-4.7344 q 0.125,-0.375 0.461,-0.6484 0.3359,-0.2735 0.7578,-0.2735 0.375,0 0.625,0.2188 0.25,0.2187 0.25,0.5937 0,0.0782 -0.0078,0.1329 -0.0078,0.0546 -0.0235,0.1015 l -1.1718,4.6094 h 3 q 0.2968,0 0.2968,0.375 -0.0156,0.0781 -0.0625,0.25 -0.0468,0.1719 -0.1171,0.2812 -0.0704,0.1094 -0.211,0.1094 h -3.1562 l -2.0782,8.3906 q -0.2187,0.8125 -0.2187,1.4063 0,1.25 0.8594,1.25 1.2656,0 2.25,-1.1953 0.9843,-1.1953 1.5156,-2.6328 0.1094,-0.1719 0.2187,-0.1719 h 0.3594 q 0.1094,0 0.1797,0.0781 0.0703,0.0781 0.0703,0.1875 0,0.0469 -0.0312,0.0781 -0.625,1.75 -1.8438,3.086 -1.2187,1.3359 -2.7969,1.3359 -1.1406,0 -1.9296,-0.75 -0.7891,-0.75 -0.7891,-1.9219 z"
       id="path105" />
    <path
       style="stroke:none"
       d="m -47.6062,17.968 q -0.2344,0 -0.3906,-0.1797 -0.1563,-0.1797 -0.1563,-0.3984 0,-0.2188 0.1563,-0.3984 0.1562,-0.1797 0.3906,-0.1797 h 16.6406 q 0.2344,0 0.3828,0.1797 0.1485,0.1796 0.1485,0.3984 0,0.2187 -0.1485,0.3984 -0.1484,0.1797 -0.3828,0.1797 z"
       id="path107" />
    <path
       style="stroke:none"
       d="m -19.4292,22.2961 q 0,-0.4375 0.0938,-0.8125 l 2.0937,-8.3281 h -3.0469 q -0.2968,0 -0.2968,-0.375 0.1093,-0.6406 0.375,-0.6406 h 3.2187 l 1.1563,-4.7344 q 0.125,-0.375 0.4609,-0.6484 0.3359,-0.2735 0.7578,-0.2735 0.375,0 0.625,0.2188 0.25,0.2187 0.25,0.5937 0,0.0782 -0.0078,0.1329 -0.0078,0.0546 -0.0234,0.1015 l -1.1719,4.6094 h 3 q 0.2969,0 0.2969,0.375 -0.0157,0.0781 -0.0625,0.25 -0.0469,0.1719 -0.1172,0.2812 -0.0703,0.1094 -0.211,0.1094 h -3.1562 l -2.0781,8.3906 q -0.2188,0.8125 -0.2188,1.4063 0,1.25 0.8594,1.25 1.2656,0 2.25,-1.1953 0.9844,-1.1953 1.5156,-2.6328 0.1094,-0.1719 0.2188,-0.1719 h 0.3593 q 0.1094,0 0.1797,0.0781 0.0703,0.0781 0.0703,0.1875 0,0.0469 -0.0312,0.0781 -0.625,1.75 -1.8438,3.086 -1.2187,1.3359 -2.7968,1.3359 -1.1407,0 -1.9297,-0.75 -0.7891,-0.75 -0.7891,-1.9219 z"
       id="path109" />
    <path
       style="stroke:none"
       d="M -9.8835,34.9066 V 33.891 q 0.9844,0 1.625,-0.1563 0.6407,-0.1562 0.6407,-0.7656 v -7.9219 q 0,-0.7812 -0.2344,-1.125 -0.2344,-0.3437 -0.6719,-0.4218 -0.4375,-0.0782 -1.3594,-0.0782 v -1.0156 l 4.1563,-0.3125 v 2.8281 q 0.4531,-1.2656 1.3203,-2.0468 0.8672,-0.7813 2.1016,-0.7813 0.8593,0 1.539,0.5078 0.6797,0.5078 0.6797,1.3516 0,0.5156 -0.375,0.9062 -0.375,0.3907 -0.9219,0.3907 -0.5468,0 -0.9297,-0.3829 -0.3828,-0.3828 -0.3828,-0.914 0,-0.7813 0.5625,-1.1094 h -0.1718 q -1.1719,0 -1.9141,0.8516 -0.7422,0.8515 -1.0547,2.1093 -0.3125,1.2579 -0.3125,2.3985 v 4.7656 q 0,0.9219 2.8125,0.9219 v 1.0156 z"
       id="path111" />
    <path
       style="stroke:none"
       d="m 8.0742,35.2347 q -1.7656,0 -3.2422,-0.9297 -1.4766,-0.9296 -2.3203,-2.4765 -0.8438,-1.5469 -0.8438,-3.2813 0,-1.7031 0.7657,-3.2265 0.7656,-1.5235 2.1484,-2.4688 1.3828,-0.9453 3.0859,-0.9453 1.3282,0 2.3125,0.4453 0.9844,0.4453 1.625,1.2422 0.6407,0.7969 0.961,1.8672 0.3203,1.0703 0.3203,2.3672 0,0.375 -0.2969,0.375 H 4.1992 v 0.3125 q 0,2.4062 0.9687,4.1328 0.9688,1.7266 3.1719,1.7266 0.8906,0 1.6484,-0.3907 0.7579,-0.3906 1.3125,-1.1015 0.5547,-0.711 0.7579,-1.5235 0.0312,-0.0937 0.1093,-0.1718 0.0782,-0.0782 0.1719,-0.0782 h 0.25 q 0.2969,0 0.2969,0.375 -0.4063,1.6407 -1.7656,2.6953 -1.3594,1.0547 -3.0469,1.0547 z m -3.8438,-7.75 h 6.6094 q 0,-1.0937 -0.3047,-2.2109 -0.3047,-1.1172 -1.0156,-1.8594 -0.7109,-0.7422 -1.8516,-0.7422 -1.6406,0 -2.539,1.5391 -0.8985,1.5391 -0.8985,3.2734 z"
       id="path113" />
    <path
       style="stroke:none"
       d="M 14.7831,34.9066 V 33.891 q 1,0 1.6328,-0.1563 0.6328,-0.1562 0.6328,-0.7656 V 17.7504 q 0,-0.7813 -0.2344,-1.1329 Q 16.58,16.266 16.1425,16.1879 15.705,16.1097 14.7831,16.1097 v -1.0156 l 4.3125,-0.3125 v 18.1875 q 0,0.6094 0.6328,0.7656 0.6328,0.1563 1.6172,0.1563 v 1.0156 z"
       id="path115" />
    <path
       style="stroke:none"
       d="m 42.2694,31.8274 q -1.6093,-1.2656 -2.7734,-2.9141 -1.1641,-1.6484 -1.9141,-3.5234 -0.75,-1.875 -1.1171,-3.9141 -0.3672,-2.039 -0.3672,-4.0859 0,-2.0781 0.3672,-4.1172 0.3671,-2.0391 1.125,-3.9219 0.7578,-1.8828 1.9375,-3.5312 1.1796,-1.6485 2.7421,-2.8672 0,-0.0625 0.1563,-0.0625 h 0.2656 q 0.0781,0 0.1485,0.0781 0.0703,0.0781 0.0703,0.1719 0,0.125 -0.0469,0.1875 -1.4219,1.3906 -2.3672,2.9766 -0.9453,1.5859 -1.5156,3.375 -0.5703,1.789 -0.8281,3.7109 -0.2579,1.9219 -0.2579,4 0,9.2187 4.9375,14 0.0782,0.0937 0.0782,0.25 0,0.0625 -0.0782,0.1562 -0.0781,0.0938 -0.1406,0.0938 h -0.2656 q -0.1563,0 -0.1563,-0.0625 z"
       id="path117" />
    <path
       style="stroke:none"
       d="m 45.6613,24.718 v -4.7187 q 0,-0.2344 0.25,-0.2344 h 0.3593 q 0.1563,0 0.2188,0.2344 0.8125,4.2031 3.9062,4.2031 1.375,0 2.3047,-0.625 0.9297,-0.625 0.9297,-1.9219 0,-0.9375 -0.7265,-1.5937 -0.7266,-0.6563 -1.711,-0.9063 l -1.9375,-0.375 q -0.9844,-0.2187 -1.7812,-0.6562 -0.7969,-0.4375 -1.3047,-1.1641 -0.5078,-0.7266 -0.5078,-1.6953 0,-1.2813 0.6718,-2.0938 0.6719,-0.8125 1.7422,-1.1718 1.0703,-0.3594 2.3203,-0.3594 1.4844,0 2.5938,0.7969 l 0.8437,-0.7188 q 0,-0.0781 0.1407,-0.0781 h 0.2031 q 0.0937,0 0.1641,0.0781 0.0703,0.0781 0.0703,0.1563 v 3.7968 q 0,0.2813 -0.2344,0.2813 h -0.3438 q -0.2656,0 -0.2656,-0.2813 0,-1.5156 -0.8437,-2.4296 -0.8438,-0.9141 -2.3594,-0.9141 -1.2969,0 -2.25,0.4766 -0.9531,0.4765 -0.9531,1.6484 0,0.8125 0.6875,1.3281 0.6875,0.5156 1.6093,0.75 l 1.9532,0.3594 q 1,0.2344 1.8593,0.7734 0.8594,0.5391 1.3594,1.3594 0.5,0.8203 0.5,1.8516 0,1.0468 -0.3594,1.8203 -0.3593,0.7734 -1.0078,1.2812 -0.6484,0.5078 -1.5234,0.75 -0.875,0.2422 -1.8438,0.2422 -1.8125,0 -3.0937,-1.2187 l -1.0625,1.1406 q 0,0.0781 -0.1563,0.0781 h -0.1718 q -0.25,0 -0.25,-0.25 z"
       id="path119" />
    <path
       style="stroke:none"
       d="m 58.1535,31.8899 q -0.2656,0 -0.2656,-0.25 0,-0.125 0.0625,-0.1875 4.9531,-4.8438 4.9531,-14.0625 0,-9.2188 -4.9062,-14 -0.1094,-0.0781 -0.1094,-0.25 0,-0.0938 0.0781,-0.1719 0.0781,-0.0781 0.1875,-0.0781 h 0.2656 q 0.0782,0 0.1407,0.0625 2.0781,1.6406 3.4687,3.9922 1.3906,2.3515 2.0313,5.0078 0.6406,2.6562 0.6406,5.4375 0,2.0469 -0.3438,4.0391 -0.3437,1.9921 -1.1015,3.9218 -0.7578,1.9297 -1.9219,3.5703 -1.1641,1.6407 -2.7734,2.9063 -0.0625,0.0625 -0.1407,0.0625 z"
       id="path121" />
  </g>
  <g
     style="color-interpolation:linearRGB;fill:#262626;stroke:#262626;stroke-width:0.6667;stroke-linejoin:round;color-rendering:optimizeQuality;image-rendering:optimizeQuality;text-rendering:geometricPrecision"
     id="g139"
     transform="translate(-27.3566,-21.4155)">
    <line
       y2="33"
       style="fill:none"
       x1="124.9998"
       x2="124.9998"
       y1="358"
       id="line125" />
    <line
       y2="358"
       style="fill:none"
       x1="124.9998"
       x2="132.41949"
       y1="358"
       id="line127" />
    <line
       y2="293"
       style="fill:none"
       x1="124.9998"
       x2="132.41949"
       y1="293"
       id="line129" />
    <line
       y2="228"
       style="fill:none"
       x1="124.9998"
       x2="132.41949"
       y1="228"
       id="line131" />
    <line
       y2="163"
       style="fill:none"
       x1="124.9998"
       x2="132.41949"
       y1="163"
       id="line133" />
    <line
       y2="98"
       style="fill:none"
       x1="124.9998"
       x2="132.41949"
       y1="98"
       id="line135" />
    <line
       y2="33"
       style="fill:none"
       x1="124.9998"
       x2="132.41949"
       y1="33"
       id="line137" />
  </g>
  <g
     transform="translate(89.6433,336.5845)"
     style="font-size:26.6667px;font-family:mwa_cmr10;color-interpolation:linearRGB;fill:#262626;stroke:#262626;color-rendering:optimizeQuality;image-rendering:optimizeQuality;text-rendering:geometricPrecision"
     id="g143">
    <path
       style="stroke:none"
       d="m -6.5834,6.9937 q -3.3125,0 -4.5,-2.7266 -1.1875,-2.7266 -1.1875,-6.4766 0,-2.3437 0.4219,-4.414 0.4219,-2.0703 1.6953,-3.5157 1.2735,-1.4453 3.5703,-1.4453 1.7813,0 2.9141,0.8672 1.1328,0.8672 1.7266,2.25 0.5937,1.3828 0.8125,2.9531 0.2187,1.5704 0.2187,3.3047 0,2.3282 -0.4297,4.3516 -0.4297,2.0234 -1.6797,3.4375 -1.25,1.4141 -3.5625,1.4141 z m 0,-0.7032 q 1.5,0 2.2422,-1.539 0.7422,-1.5391 0.9141,-3.4141 0.1719,-1.875 0.1719,-3.9844 0,-2.0312 -0.1719,-3.7422 -0.1719,-1.7109 -0.9063,-3.1015 -0.7343,-1.3906 -2.25,-1.3906 -1.5312,0 -2.2656,1.3984 -0.7344,1.3984 -0.9062,3.1016 -0.1719,1.7031 -0.1719,3.7343 0,1.5 0.0703,2.836 0.0703,1.3359 0.3828,2.75 0.3125,1.414 1.0234,2.3828 0.711,0.9687 1.8672,0.9687 z"
       id="path141" />
  </g>
  <g
     transform="translate(89.6433,271.5845)"
     style="font-size:26.6667px;font-family:mwa_cmr10;color-interpolation:linearRGB;fill:#262626;stroke:#262626;color-rendering:optimizeQuality;image-rendering:optimizeQuality;text-rendering:geometricPrecision"
     id="g151">
    <path
       style="stroke:none"
       d="M -38.6564,6.3999 V 5.6812 q 0,-0.0782 0.0469,-0.1563 l 4.2031,-4.6406 q 0.9532,-1.0313 1.5391,-1.7266 0.5859,-0.6953 1.1719,-1.6015 0.5859,-0.9063 0.9218,-1.8516 0.336,-0.9453 0.336,-2.0078 0,-1.0938 -0.4141,-2.1094 -0.414,-1.0156 -1.2187,-1.6172 -0.8047,-0.6015 -1.961,-0.6015 -1.1718,0 -2.1093,0.7031 -0.9375,0.7031 -1.3125,1.8281 0.1093,-0.0312 0.2812,-0.0312 0.6094,0 1.0391,0.4062 0.4297,0.4063 0.4297,1.0625 0,0.6094 -0.4297,1.0391 -0.4297,0.4297 -1.0391,0.4297 -0.625,0 -1.0547,-0.4375 -0.4297,-0.4375 -0.4297,-1.0313 0,-1.0156 0.3828,-1.9062 0.3829,-0.8907 1.1016,-1.586 0.7188,-0.6953 1.625,-1.0625 0.9063,-0.3672 1.9219,-0.3672 1.5312,0 2.8672,0.6563 1.3359,0.6562 2.1093,1.8437 0.7735,1.1875 0.7735,2.7813 0,1.1875 -0.5156,2.2422 -0.5157,1.0547 -1.3125,1.914 -0.7969,0.8594 -2.0547,1.9532 -1.2578,1.0937 -1.6485,1.4687 l -3.0625,2.9375 h 2.5938 q 1.9219,0 3.2031,-0.0312 1.2813,-0.0313 1.3594,-0.1094 0.3281,-0.3281 0.6562,-2.4844 h 0.7813 l -0.7656,4.8125 z"
       id="path145" />
    <path
       style="stroke:none"
       d="m -19.9167,6.9937 q -3.3125,0 -4.5,-2.7266 -1.1875,-2.7266 -1.1875,-6.4766 0,-2.3437 0.4218,-4.414 0.4219,-2.0703 1.6953,-3.5157 1.2735,-1.4453 3.5704,-1.4453 1.7812,0 2.914,0.8672 1.1328,0.8672 1.7266,2.25 0.5937,1.3828 0.8125,2.9531 0.2187,1.5704 0.2187,3.3047 0,2.3282 -0.4297,4.3516 -0.4296,2.0234 -1.6796,3.4375 -1.25,1.4141 -3.5625,1.4141 z m 0,-0.7032 q 1.5,0 2.2421,-1.539 0.7422,-1.5391 0.9141,-3.4141 0.1719,-1.875 0.1719,-3.9844 0,-2.0312 -0.1719,-3.7422 -0.1719,-1.7109 -0.9062,-3.1015 -0.7344,-1.3906 -2.25,-1.3906 -1.5313,0 -2.2657,1.3984 -0.7343,1.3984 -0.9062,3.1016 -0.1719,1.7031 -0.1719,3.7343 0,1.5 0.0703,2.836 0.0703,1.3359 0.3828,2.75 0.3125,1.414 1.0235,2.3828 0.7109,0.9687 1.8672,0.9687 z"
       id="path147" />
    <path
       style="stroke:none"
       d="m -6.5834,6.9937 q -3.3125,0 -4.5,-2.7266 -1.1875,-2.7266 -1.1875,-6.4766 0,-2.3437 0.4219,-4.414 0.4219,-2.0703 1.6953,-3.5157 1.2735,-1.4453 3.5703,-1.4453 1.7813,0 2.9141,0.8672 1.1328,0.8672 1.7266,2.25 0.5937,1.3828 0.8125,2.9531 0.2187,1.5704 0.2187,3.3047 0,2.3282 -0.4297,4.3516 -0.4297,2.0234 -1.6797,3.4375 -1.25,1.4141 -3.5625,1.4141 z m 0,-0.7032 q 1.5,0 2.2422,-1.539 0.7422,-1.5391 0.9141,-3.4141 0.1719,-1.875 0.1719,-3.9844 0,-2.0312 -0.1719,-3.7422 -0.1719,-1.7109 -0.9063,-3.1015 -0.7343,-1.3906 -2.25,-1.3906 -1.5312,0 -2.2656,1.3984 -0.7344,1.3984 -0.9062,3.1016 -0.1719,1.7031 -0.1719,3.7343 0,1.5 0.0703,2.836 0.0703,1.3359 0.3828,2.75 0.3125,1.414 1.0234,2.3828 0.711,0.9687 1.8672,0.9687 z"
       id="path149" />
  </g>
  <g
     transform="translate(89.6433,206.5845)"
     style="font-size:26.6667px;font-family:mwa_cmr10;color-interpolation:linearRGB;fill:#262626;stroke:#262626;color-rendering:optimizeQuality;image-rendering:optimizeQuality;text-rendering:geometricPrecision"
     id="g159">
    <path
       style="stroke:none"
       d="M -39.2501,1.9468 V 0.9937 l 8.3437,-12.4375 q 0.0938,-0.1407 0.2813,-0.1407 h 0.3906 q 0.3125,0 0.3125,0.3125 V 0.9937 h 2.6406 v 0.9531 h -2.6406 v 2.6406 q 0,0.5625 0.7891,0.7109 0.789,0.1485 1.8359,0.1485 v 0.9531 h -7.4375 V 5.4468 q 1.0313,0 1.8281,-0.1485 0.7969,-0.1484 0.7969,-0.7109 V 1.9468 Z m 0.8906,-0.9531 h 6.4063 v -9.5625 z"
       id="path153" />
    <path
       style="stroke:none"
       d="m -19.9167,6.9937 q -3.3125,0 -4.5,-2.7266 -1.1875,-2.7266 -1.1875,-6.4766 0,-2.3437 0.4218,-4.414 0.4219,-2.0703 1.6953,-3.5157 1.2735,-1.4453 3.5704,-1.4453 1.7812,0 2.914,0.8672 1.1328,0.8672 1.7266,2.25 0.5937,1.3828 0.8125,2.9531 0.2187,1.5704 0.2187,3.3047 0,2.3282 -0.4297,4.3516 -0.4296,2.0234 -1.6796,3.4375 -1.25,1.4141 -3.5625,1.4141 z m 0,-0.7032 q 1.5,0 2.2421,-1.539 0.7422,-1.5391 0.9141,-3.4141 0.1719,-1.875 0.1719,-3.9844 0,-2.0312 -0.1719,-3.7422 -0.1719,-1.7109 -0.9062,-3.1015 -0.7344,-1.3906 -2.25,-1.3906 -1.5313,0 -2.2657,1.3984 -0.7343,1.3984 -0.9062,3.1016 -0.1719,1.7031 -0.1719,3.7343 0,1.5 0.0703,2.836 0.0703,1.3359 0.3828,2.75 0.3125,1.414 1.0235,2.3828 0.7109,0.9687 1.8672,0.9687 z"
       id="path155" />
    <path
       style="stroke:none"
       d="m -6.5834,6.9937 q -3.3125,0 -4.5,-2.7266 -1.1875,-2.7266 -1.1875,-6.4766 0,-2.3437 0.4219,-4.414 0.4219,-2.0703 1.6953,-3.5157 1.2735,-1.4453 3.5703,-1.4453 1.7813,0 2.9141,0.8672 1.1328,0.8672 1.7266,2.25 0.5937,1.3828 0.8125,2.9531 0.2187,1.5704 0.2187,3.3047 0,2.3282 -0.4297,4.3516 -0.4297,2.0234 -1.6797,3.4375 -1.25,1.4141 -3.5625,1.4141 z m 0,-0.7032 q 1.5,0 2.2422,-1.539 0.7422,-1.5391 0.9141,-3.4141 0.1719,-1.875 0.1719,-3.9844 0,-2.0312 -0.1719,-3.7422 -0.1719,-1.7109 -0.9063,-3.1015 -0.7343,-1.3906 -2.25,-1.3906 -1.5312,0 -2.2656,1.3984 -0.7344,1.3984 -0.9062,3.1016 -0.1719,1.7031 -0.1719,3.7343 0,1.5 0.0703,2.836 0.0703,1.3359 0.3828,2.75 0.3125,1.414 1.0234,2.3828 0.711,0.9687 1.8672,0.9687 z"
       id="path157" />
  </g>
  <g
     transform="translate(89.6433,141.5845)"
     style="font-size:26.6667px;font-family:mwa_cmr10;color-interpolation:linearRGB;fill:#262626;stroke:#262626;color-rendering:optimizeQuality;image-rendering:optimizeQuality;text-rendering:geometricPrecision"
     id="g167">
    <path
       style="stroke:none"
       d="m -33.2501,6.9937 q -1.6719,0 -2.7969,-0.8907 -1.125,-0.8906 -1.7344,-2.3047 -0.6093,-1.414 -0.8437,-2.9687 -0.2344,-1.5547 -0.2344,-3.1641 0,-2.125 0.8281,-4.2734 0.8282,-2.1484 2.4453,-3.5625 1.6172,-1.4141 3.8204,-1.4141 0.9218,0 1.7265,0.3516 0.8047,0.3516 1.2578,1.0312 0.4532,0.6797 0.4532,1.6329 0,0.5625 -0.375,0.9375 -0.375,0.375 -0.9375,0.375 -0.5313,0 -0.9063,-0.3829 -0.375,-0.3828 -0.375,-0.9296 0,-0.5157 0.375,-0.8985 0.375,-0.3828 0.9063,-0.3828 h 0.1406 q -0.3281,-0.5 -0.961,-0.7266 -0.6328,-0.2265 -1.3046,-0.2265 -0.8125,0 -1.5079,0.3515 -0.6953,0.3516 -1.2421,0.961 -0.5469,0.6094 -0.9219,1.3437 -0.375,0.7344 -0.5781,1.6719 -0.2032,0.9375 -0.2579,1.75 -0.0546,0.8125 -0.0546,2.0469 0.4843,-1.0938 1.3515,-1.8047 0.8672,-0.7109 1.961,-0.7109 1.2031,0 2.1953,0.4921 0.9922,0.4922 1.7031,1.3516 0.7109,0.8594 1.0859,1.9688 0.375,1.1093 0.375,2.25 0,1.5781 -0.7109,3.0078 -0.7109,1.4297 -1.9844,2.2734 -1.2734,0.8438 -2.8984,0.8438 z m 0,-0.8594 q 1.0469,0 1.6797,-0.4766 0.6328,-0.4765 0.9297,-1.2578 0.2968,-0.7812 0.3671,-1.5781 0.0704,-0.7969 0.0704,-1.9531 0,-1.5313 -0.1485,-2.6172 -0.1484,-1.086 -0.789,-1.9063 -0.6407,-0.8203 -1.9844,-0.8203 -1.0938,0 -1.7969,0.7344 -0.7031,0.7344 -1.0234,1.8672 -0.3203,1.1328 -0.3203,2.164 0,0.3594 0.0156,0.5469 0,0.0313 0,0.0625 0,0.0313 -0.0156,0.0625 0,1.1719 0.2343,2.3516 0.2344,1.1797 0.9063,2 0.6719,0.8203 1.875,0.8203 z"
       id="path161" />
    <path
       style="stroke:none"
       d="m -19.9167,6.9937 q -3.3125,0 -4.5,-2.7266 -1.1875,-2.7266 -1.1875,-6.4766 0,-2.3437 0.4218,-4.414 0.4219,-2.0703 1.6953,-3.5157 1.2735,-1.4453 3.5704,-1.4453 1.7812,0 2.914,0.8672 1.1328,0.8672 1.7266,2.25 0.5937,1.3828 0.8125,2.9531 0.2187,1.5704 0.2187,3.3047 0,2.3282 -0.4297,4.3516 -0.4296,2.0234 -1.6796,3.4375 -1.25,1.4141 -3.5625,1.4141 z m 0,-0.7032 q 1.5,0 2.2421,-1.539 0.7422,-1.5391 0.9141,-3.4141 0.1719,-1.875 0.1719,-3.9844 0,-2.0312 -0.1719,-3.7422 -0.1719,-1.7109 -0.9062,-3.1015 -0.7344,-1.3906 -2.25,-1.3906 -1.5313,0 -2.2657,1.3984 -0.7343,1.3984 -0.9062,3.1016 -0.1719,1.7031 -0.1719,3.7343 0,1.5 0.0703,2.836 0.0703,1.3359 0.3828,2.75 0.3125,1.414 1.0235,2.3828 0.7109,0.9687 1.8672,0.9687 z"
       id="path163" />
    <path
       style="stroke:none"
       d="m -6.5834,6.9937 q -3.3125,0 -4.5,-2.7266 -1.1875,-2.7266 -1.1875,-6.4766 0,-2.3437 0.4219,-4.414 0.4219,-2.0703 1.6953,-3.5157 1.2735,-1.4453 3.5703,-1.4453 1.7813,0 2.9141,0.8672 1.1328,0.8672 1.7266,2.25 0.5937,1.3828 0.8125,2.9531 0.2187,1.5704 0.2187,3.3047 0,2.3282 -0.4297,4.3516 -0.4297,2.0234 -1.6797,3.4375 -1.25,1.4141 -3.5625,1.4141 z m 0,-0.7032 q 1.5,0 2.2422,-1.539 0.7422,-1.5391 0.9141,-3.4141 0.1719,-1.875 0.1719,-3.9844 0,-2.0312 -0.1719,-3.7422 -0.1719,-1.7109 -0.9063,-3.1015 -0.7343,-1.3906 -2.25,-1.3906 -1.5312,0 -2.2656,1.3984 -0.7344,1.3984 -0.9062,3.1016 -0.1719,1.7031 -0.1719,3.7343 0,1.5 0.0703,2.836 0.0703,1.3359 0.3828,2.75 0.3125,1.414 1.0234,2.3828 0.711,0.9687 1.8672,0.9687 z"
       id="path165" />
  </g>
  <g
     transform="translate(89.6433,76.5845)"
     style="font-size:26.6667px;font-family:mwa_cmr10;color-interpolation:linearRGB;fill:#262626;stroke:#262626;color-rendering:optimizeQuality;image-rendering:optimizeQuality;text-rendering:geometricPrecision"
     id="g175">
    <path
       style="stroke:none"
       d="m -38.8595,2.3062 q 0,-1.625 1.0625,-2.875 1.0625,-1.25 2.7344,-2.0782 l -1,-0.6406 q -0.9219,-0.6094 -1.5,-1.6172 -0.5781,-1.0078 -0.5781,-2.1172 0,-1.2968 0.6796,-2.3359 0.6797,-1.0391 1.8047,-1.6328 1.125,-0.5938 2.4063,-0.5938 1.2031,0 2.3125,0.4922 1.1094,0.4922 1.8281,1.3985 0.7188,0.9062 0.7188,2.1562 0,0.9063 -0.4219,1.6875 -0.4219,0.7813 -1.1719,1.3984 -0.75,0.6172 -1.5937,1.0547 l 1.5468,0.9844 q 1.0625,0.7031 1.7188,1.8359 0.6562,1.1329 0.6562,2.3829 0,1.4687 -0.789,2.6718 -0.7891,1.2032 -2.0782,1.8594 -1.289,0.6563 -2.7265,0.6563 -1.3906,0 -2.6953,-0.5704 -1.3047,-0.5703 -2.1094,-1.6406 -0.8047,-1.0703 -0.8047,-2.4765 z m 1.4531,0 q 0,1.0625 0.586,1.9453 0.5859,0.8828 1.5547,1.3828 0.9687,0.5 2.0156,0.5 1.5625,0 2.8437,-0.9141 1.2813,-0.914 1.2813,-2.4297 0,-0.5156 -0.2031,-1.0234 -0.2032,-0.5078 -0.5625,-0.9219 -0.3594,-0.414 -0.8125,-0.6797 l -3.625,-2.3437 q -0.8438,0.4375 -1.5469,1.125 -0.7031,0.6875 -1.1172,1.5469 -0.4141,0.8593 -0.4141,1.8125 z m 1.8594,-8.25 3.2656,2.1093 q 1.1407,-0.6562 1.8672,-1.5937 0.7266,-0.9375 0.7266,-2.1094 0,-0.9062 -0.5078,-1.6641 -0.5078,-0.7578 -1.3282,-1.1796 -0.8203,-0.4219 -1.7578,-0.4219 -0.8125,0 -1.6406,0.3125 -0.8281,0.3125 -1.3672,0.9453 -0.539,0.6328 -0.539,1.4766 0,1.2656 1.2812,2.125 z"
       id="path169" />
    <path
       style="stroke:none"
       d="m -19.9167,6.9937 q -3.3125,0 -4.5,-2.7266 -1.1875,-2.7266 -1.1875,-6.4766 0,-2.3437 0.4218,-4.414 0.4219,-2.0703 1.6953,-3.5157 1.2735,-1.4453 3.5704,-1.4453 1.7812,0 2.914,0.8672 1.1328,0.8672 1.7266,2.25 0.5937,1.3828 0.8125,2.9531 0.2187,1.5704 0.2187,3.3047 0,2.3282 -0.4297,4.3516 -0.4296,2.0234 -1.6796,3.4375 -1.25,1.4141 -3.5625,1.4141 z m 0,-0.7032 q 1.5,0 2.2421,-1.539 0.7422,-1.5391 0.9141,-3.4141 0.1719,-1.875 0.1719,-3.9844 0,-2.0312 -0.1719,-3.7422 -0.1719,-1.7109 -0.9062,-3.1015 -0.7344,-1.3906 -2.25,-1.3906 -1.5313,0 -2.2657,1.3984 -0.7343,1.3984 -0.9062,3.1016 -0.1719,1.7031 -0.1719,3.7343 0,1.5 0.0703,2.836 0.0703,1.3359 0.3828,2.75 0.3125,1.414 1.0235,2.3828 0.7109,0.9687 1.8672,0.9687 z"
       id="path171" />
    <path
       style="stroke:none"
       d="m -6.5834,6.9937 q -3.3125,0 -4.5,-2.7266 -1.1875,-2.7266 -1.1875,-6.4766 0,-2.3437 0.4219,-4.414 0.4219,-2.0703 1.6953,-3.5157 1.2735,-1.4453 3.5703,-1.4453 1.7813,0 2.9141,0.8672 1.1328,0.8672 1.7266,2.25 0.5937,1.3828 0.8125,2.9531 0.2187,1.5704 0.2187,3.3047 0,2.3282 -0.4297,4.3516 -0.4297,2.0234 -1.6797,3.4375 -1.25,1.4141 -3.5625,1.4141 z m 0,-0.7032 q 1.5,0 2.2422,-1.539 0.7422,-1.5391 0.9141,-3.4141 0.1719,-1.875 0.1719,-3.9844 0,-2.0312 -0.1719,-3.7422 -0.1719,-1.7109 -0.9063,-3.1015 -0.7343,-1.3906 -2.25,-1.3906 -1.5312,0 -2.2656,1.3984 -0.7344,1.3984 -0.9062,3.1016 -0.1719,1.7031 -0.1719,3.7343 0,1.5 0.0703,2.836 0.0703,1.3359 0.3828,2.75 0.3125,1.414 1.0234,2.3828 0.711,0.9687 1.8672,0.9687 z"
       id="path173" />
  </g>
  <g
     transform="translate(89.6433,11.5845)"
     style="font-size:26.6667px;font-family:mwa_cmr10;color-interpolation:linearRGB;fill:#262626;stroke:#262626;color-rendering:optimizeQuality;image-rendering:optimizeQuality;text-rendering:geometricPrecision"
     id="g185">
    <path
       style="stroke:none"
       d="M -50.8335,6.3999 V 5.4468 q 3.375,0 3.375,-0.8594 V -9.5845 q -1.3906,0.6719 -3.5312,0.6719 v -0.9375 q 3.3125,0 5,-1.7344 h 0.375 q 0.0937,0 0.1796,0.0703 0.086,0.0704 0.086,0.1641 V 4.5874 q 0,0.8594 3.375,0.8594 v 0.9531 z"
       id="path177" />
    <path
       style="stroke:none"
       d="m -33.2501,6.9937 q -3.3125,0 -4.5,-2.7266 -1.1875,-2.7266 -1.1875,-6.4766 0,-2.3437 0.4219,-4.414 0.4218,-2.0703 1.6953,-3.5157 1.2734,-1.4453 3.5703,-1.4453 1.7812,0 2.914,0.8672 1.1329,0.8672 1.7266,2.25 0.5938,1.3828 0.8125,2.9531 0.2188,1.5704 0.2188,3.3047 0,2.3282 -0.4297,4.3516 -0.4297,2.0234 -1.6797,3.4375 -1.25,1.4141 -3.5625,1.4141 z m 0,-0.7032 q 1.5,0 2.2422,-1.539 0.7422,-1.5391 0.914,-3.4141 0.1719,-1.875 0.1719,-3.9844 0,-2.0312 -0.1719,-3.7422 -0.1718,-1.7109 -0.9062,-3.1015 -0.7344,-1.3906 -2.25,-1.3906 -1.5313,0 -2.2656,1.3984 -0.7344,1.3984 -0.9063,3.1016 -0.1719,1.7031 -0.1719,3.7343 0,1.5 0.0703,2.836 0.0704,1.3359 0.3829,2.75 0.3125,1.414 1.0234,2.3828 0.7109,0.9687 1.8672,0.9687 z"
       id="path179" />
    <path
       style="stroke:none"
       d="m -19.9167,6.9937 q -3.3125,0 -4.5,-2.7266 -1.1875,-2.7266 -1.1875,-6.4766 0,-2.3437 0.4218,-4.414 0.4219,-2.0703 1.6953,-3.5157 1.2735,-1.4453 3.5704,-1.4453 1.7812,0 2.914,0.8672 1.1328,0.8672 1.7266,2.25 0.5937,1.3828 0.8125,2.9531 0.2187,1.5704 0.2187,3.3047 0,2.3282 -0.4297,4.3516 -0.4296,2.0234 -1.6796,3.4375 -1.25,1.4141 -3.5625,1.4141 z m 0,-0.7032 q 1.5,0 2.2421,-1.539 0.7422,-1.5391 0.9141,-3.4141 0.1719,-1.875 0.1719,-3.9844 0,-2.0312 -0.1719,-3.7422 -0.1719,-1.7109 -0.9062,-3.1015 -0.7344,-1.3906 -2.25,-1.3906 -1.5313,0 -2.2657,1.3984 -0.7343,1.3984 -0.9062,3.1016 -0.1719,1.7031 -0.1719,3.7343 0,1.5 0.0703,2.836 0.0703,1.3359 0.3828,2.75 0.3125,1.414 1.0235,2.3828 0.7109,0.9687 1.8672,0.9687 z"
       id="path181" />
    <path
       style="stroke:none"
       d="m -6.5834,6.9937 q -3.3125,0 -4.5,-2.7266 -1.1875,-2.7266 -1.1875,-6.4766 0,-2.3437 0.4219,-4.414 0.4219,-2.0703 1.6953,-3.5157 1.2735,-1.4453 3.5703,-1.4453 1.7813,0 2.9141,0.8672 1.1328,0.8672 1.7266,2.25 0.5937,1.3828 0.8125,2.9531 0.2187,1.5704 0.2187,3.3047 0,2.3282 -0.4297,4.3516 -0.4297,2.0234 -1.6797,3.4375 -1.25,1.4141 -3.5625,1.4141 z m 0,-0.7032 q 1.5,0 2.2422,-1.539 0.7422,-1.5391 0.9141,-3.4141 0.1719,-1.875 0.1719,-3.9844 0,-2.0312 -0.1719,-3.7422 -0.1719,-1.7109 -0.9063,-3.1015 -0.7343,-1.3906 -2.25,-1.3906 -1.5312,0 -2.2656,1.3984 -0.7344,1.3984 -0.9062,3.1016 -0.1719,1.7031 -0.1719,3.7343 0,1.5 0.0703,2.836 0.0703,1.3359 0.3828,2.75 0.3125,1.414 1.0234,2.3828 0.711,0.9687 1.8672,0.9687 z"
       id="path183" />
  </g>
  <g
     transform="rotate(-90,103.1972,70.8871)"
     style="font-size:29.3333px;font-family:mwa_cmr10;color-interpolation:linearRGB;fill:#262626;stroke:#262626;color-rendering:optimizeQuality;image-rendering:optimizeQuality;text-rendering:geometricPrecision"
     id="g203">
    <path
       style="stroke:none"
       d="m -62.4614,-10.5601 v -1.0156 q 2.9844,0 2.9844,-0.9219 v -15.9375 q 0,-0.9219 -2.9844,-0.9219 v -1.0156 h 15.9844 l 0.8125,6.6406 h -0.8438 q -0.1875,-1.8281 -0.5234,-2.8828 -0.3359,-1.0547 -0.9687,-1.6562 -0.6329,-0.6016 -1.7032,-0.8438 -1.0703,-0.2422 -2.9453,-0.2422 h -2.6406 q -0.5313,0 -0.8203,0.0469 -0.2891,0.0469 -0.4766,0.25 -0.1875,0.2031 -0.1875,0.625 v 7.4687 h 2.0625 q 1.4844,0 2.1797,-0.2656 0.6953,-0.2656 0.9531,-0.9531 0.2578,-0.6875 0.2578,-2.1875 h 0.8438 v 7.8125 h -0.8438 q 0,-1.4844 -0.2578,-2.1797 -0.2578,-0.6953 -0.9531,-0.9609 -0.6953,-0.2657 -2.1797,-0.2657 h -2.0625 v 7.4688 q 0,0.9219 3.7188,0.9219 v 1.0156 z"
       id="path187" />
    <path
       style="stroke:none"
       d="m -43.3132,-10.5601 v -1.0156 q 1,0 1.6328,-0.1563 0.6329,-0.1562 0.6329,-0.7656 v -15.2188 q 0,-0.7812 -0.2344,-1.1328 -0.2344,-0.3515 -0.6719,-0.4297 -0.4375,-0.0781 -1.3594,-0.0781 v -1.0156 l 4.3125,-0.3125 v 18.1875 q 0,0.6094 0.6328,0.7656 0.6329,0.1563 1.6172,0.1563 v 1.0156 z"
       id="path189" />
    <path
       style="stroke:none"
       d="m -32.9306,-14.0132 v -6.4063 q 0,-0.7812 -0.2344,-1.125 -0.2344,-0.3437 -0.6719,-0.4219 -0.4375,-0.0781 -1.3593,-0.0781 v -1.0156 l 4.3906,-0.3125 v 9.3594 q 0,1.125 0.164,1.7578 0.1641,0.6328 0.6954,0.9453 0.5312,0.3125 1.6875,0.3125 1.5625,0 2.4843,-1.3047 0.9219,-1.3047 0.9219,-2.9609 v -5.1563 q 0,-0.7812 -0.2422,-1.125 -0.2422,-0.3437 -0.6719,-0.4219 -0.4296,-0.0781 -1.3515,-0.0781 v -1.0156 l 4.375,-0.3125 v 10.1719 q 0,0.7656 0.2344,1.1172 0.2343,0.3515 0.6718,0.4296 0.4375,0.0782 1.3594,0.0782 v 1.0156 l -4.2969,0.3281 v -2.4531 q -0.5312,1.0937 -1.4922,1.7734 -0.9609,0.6797 -2.1328,0.6797 -2.0781,0 -3.3047,-0.8828 -1.2265,-0.8828 -1.2265,-2.8984 z"
       id="path191" />
    <path
       style="stroke:none"
       d="m -19.3999,-10.5601 v -1.0156 q 1.0938,0 2.0703,-0.4375 0.9766,-0.4375 1.6641,-1.2813 l 2.625,-3.3594 -3.4219,-4.4531 q -0.5,-0.6406 -1.1016,-0.789 -0.6015,-0.1485 -1.6953,-0.1485 v -1.0156 h 6.0313 v 1.0156 q -0.3906,0 -0.7188,0.1719 -0.3281,0.1719 -0.3281,0.5 0,0.1094 0.0781,0.2656 l 2.3282,3.0156 1.7343,-2.2343 q 0.3594,-0.4375 0.3594,-0.8594 0,-0.3438 -0.2344,-0.6016 -0.2343,-0.2578 -0.6093,-0.2578 v -1.0156 h 5.3281 v 1.0156 q -1.1094,0 -2.0938,0.4297 -0.9843,0.4297 -1.6718,1.2891 l -2.2969,2.9218 3.7187,4.9063 q 0.5469,0.6406 1.1407,0.7812 0.5937,0.1407 1.7031,0.1407 v 1.0156 h -6.0313 v -1.0156 q 0.3594,0 0.6797,-0.1719 0.3203,-0.1719 0.3203,-0.5 0,-0.125 -0.0781,-0.25 l -2.6094,-3.4531 -2.0781,2.6562 q -0.3281,0.375 -0.3281,0.8438 0,0.3593 0.2422,0.6172 0.2422,0.2578 0.5703,0.2578 v 1.0156 z"
       id="path193" />
    <path
       style="stroke:none"
       d="M 14.4844,-3.3726 Q 12.875,-4.6382 11.711,-6.2867 10.5469,-7.9351 9.7969,-9.8101 q -0.75,-1.875 -1.1172,-3.9141 -0.3672,-2.039 -0.3672,-4.0859 0,-2.0781 0.3672,-4.1172 0.3672,-2.0391 1.125,-3.9219 0.7578,-1.8828 1.9375,-3.5312 1.1797,-1.6485 2.7422,-2.8672 0,-0.0625 0.1563,-0.0625 h 0.2656 q 0.0781,0 0.1484,0.0781 0.0703,0.0781 0.0703,0.1719 0,0.125 -0.0468,0.1875 -1.4219,1.3906 -2.3672,2.9766 -0.9453,1.5859 -1.5156,3.375 -0.5704,1.789 -0.8282,3.7109 -0.2578,1.9219 -0.2578,4 0,9.2187 4.9375,14 0.0781,0.0937 0.0781,0.25 0,0.0625 -0.0781,0.1562 -0.0781,0.0938 -0.1406,0.0938 h -0.2656 q -0.1563,0 -0.1563,-0.0625 z"
       id="path195" />
    <path
       style="stroke:none"
       d="m 17.7981,-10.5601 v -1.0156 q 2.9844,0 2.9844,-0.9219 v -15.9375 q 0,-0.9219 -2.9844,-0.9219 v -1.0156 h 8.6875 v 1.0156 q -3,0 -3,0.9219 v 7.0625 h 8.5625 v -7.0625 q 0,-0.9219 -2.9844,-0.9219 v -1.0156 H 37.72 v 1.0156 q -2.9688,0 -2.9688,0.9219 v 15.9375 q 0,0.9219 2.9688,0.9219 v 1.0156 h -8.6563 v -1.0156 q 2.9844,0 2.9844,-0.9219 v -7.8594 h -8.5625 v 7.8594 q 0,0.9219 3,0.9219 v 1.0156 z"
       id="path197" />
    <path
       style="stroke:none"
       d="m 40.0482,-10.5601 q -0.3282,0 -0.3282,-0.3281 v -0.2188 q 0,-0.125 0.0782,-0.2031 l 8.0937,-10.9844 h -2.5937 q -1.2344,0 -2.0391,0.1563 -0.8047,0.1562 -1.3203,0.5859 -0.5156,0.4297 -0.75,1.1875 -0.2344,0.7578 -0.2344,2.0859 h -0.8281 l 0.3281,-4.7812 h 9.7031 q 0.1407,0 0.2266,0.0937 0.0859,0.0938 0.0859,0.2344 v 0.1563 q 0,0.0937 -0.0468,0.2031 l -8.1094,10.9844 h 2.7656 q 1.2656,0 2.1094,-0.1563 0.8437,-0.1562 1.4375,-0.75 0.5469,-0.5625 0.75,-1.4922 0.2031,-0.9297 0.3281,-2.3047 h 0.8281 l -0.5,5.5313 z"
       id="path199" />
    <path
       style="stroke:none"
       d="m 53.8352,-3.3101 q -0.2656,0 -0.2656,-0.25 0,-0.125 0.0625,-0.1875 4.9531,-4.8438 4.9531,-14.0625 0,-9.2188 -4.9063,-14 -0.1093,-0.0781 -0.1093,-0.25 0,-0.0938 0.0781,-0.1719 0.0781,-0.0781 0.1875,-0.0781 h 0.2656 q 0.0781,0 0.1406,0.0625 2.0782,1.6406 3.4688,3.9922 1.3906,2.3515 2.0312,5.0078 0.6407,2.6562 0.6407,5.4375 0,2.0469 -0.3438,4.0391 -0.3437,1.9921 -1.1015,3.9218 -0.7579,1.9297 -1.9219,3.5703 -1.1641,1.6407 -2.7735,2.9063 -0.0625,0.0625 -0.1406,0.0625 z"
       id="path201" />
  </g>
  <g
     style="color-interpolation:linearRGB;fill:#721f81;stroke:#721f81;stroke-width:2.6667;stroke-linecap:butt;stroke-linejoin:round;color-rendering:optimizeQuality;image-rendering:optimizeQuality;text-rendering:geometricPrecision"
     id="g209"
     transform="translate(-27.3566,-21.4155)">
    <path
       d="m 126.3981,342.0988 2.7118,1.6738 2.7118,0.5022 h 2.7119 l 2.711,-0.5022 2.7119,-0.7532 2.7118,-0.2511 2.7118,0.1674 2.7119,0.6696 2.7118,0.3347 2.7111,1.3391 2.7118,0.7532 h 2.7119 l 2.7118,-0.0837 h 2.7118 l 2.7119,-0.0837 2.711,-0.2511 2.7119,-0.9206 2.7118,0.1674 2.7118,-1.0043 2.7119,-1.1716 2.7111,0.3347 2.7118,-0.6695 2.7118,-0.7532 2.7118,-0.0837 2.7119,0.0837 2.7118,-1.088 2.7111,1.088 2.7118,0.8369 2.7119,1.0043 2.7118,-0.3348 2.7118,-0.5858 2.7119,-0.3348 2.711,-0.5021 2.7119,-1.3391 2.7118,0.1674 2.7118,0.3348 2.7119,-0.2511 2.7118,-0.7532 2.7111,1.2553 2.7118,1.1717 2.7119,-0.6695 2.7118,-1.0043 2.7118,-1.1717 2.7111,-0.5858 2.7118,-0.7532 2.7119,1.5064 2.7118,1.5064 2.7118,1.5065 2.7119,-1.0043 2.7111,-0.5022 2.7118,-1.0879 2.7118,-0.7532 2.7118,-0.0837 2.7119,-0.2511 h 2.7118 l 2.7111,-0.7532 2.7118,-0.8369 2.7118,-1.8412 2.7119,0.6695 2.7118,-1.088 2.7118,-2.8454 2.7111,-1.4228 2.7119,-0.4184 2.7118,-0.9206 2.7118,-0.2511 2.7119,2.427 2.7111,1.1717 2.7118,-0.3347 2.7118,-1.088 2.7118,-0.7533 2.7119,-1.0042 2.7118,-0.3348 2.7111,1.5064 2.7118,-1.339 2.7119,0.5021 2.7118,-0.2511 2.7118,0.2511 2.7119,-2.9291 2.711,-0.3348 2.7119,-1.088 2.7118,-0.6695 2.7118,-1.7575 2.7119,0.3348 2.7118,0.7532 2.7111,-0.6695 2.7118,0.1674 2.7119,-0.837 2.7118,-1.5064 2.7118,-2.1759 2.7111,-0.4185 2.7118,-2.0922 2.7119,-0.0837 2.7118,0.2511 2.7118,0.9205 2.7119,-1.9249 2.7111,-1.0042 2.7118,-5.3562 2.7118,-2.7618 2.7119,-2.5107 2.7118,-5.6073 2.7118,-5.4398 2.7111,-5.6073 2.7118,-8.8712 2.7119,-12.8046 2.7118,-11.1308 2.7118,-17.6587 2.7119,-18.5792 2.711,-23.2659 2.7119,-24.2702 2.7118,-24.5213 2.7118,-19.8346 2.7119,-23.266 2.7111,-13.4741 2.7118,-10.545 2.7118,-9.2896 2.7119,-3.7661 2.7118,0.9206 2.7118,-2.9292 2.7111,7.8669 2.7118,10.3776 2.7119,8.9549 2.7118,17.0728 2.7118,18.9141 2.7119,18.5792 2.7111,20.8389 2.7118,21.0063 2.7118,18.8303 2.7119,18.914 2.7118,13.1394 2.7118,11.1308 2.7111,11.1309 2.7118,5.8583 2.7119,7.03 2.7118,3.1802 2.7118,5.2725 2.7111,2.427 2.7119,7.8669 2.7118,3.5987 2.7118,6.1094 2.7119,2.5107 2.7118,3.0129 2.7111,1.0043 2.7118,3.2639 2.7118,3.0128 2.7119,3.5987 2.7118,5.3562 2.7118,2.427 2.7111,2.8455 2.7119,0.5858 2.7118,1.2554 2.7118,0.4184 2.7118,1.5065 2.7118,1.0042 2.7112,1.6738 2.7118,1.4228 2.7118,0.7532 2.7119,1.7575 2.7118,0.1674 2.7111,0.0837 2.7118,-0.0837 2.7118,-0.6696 2.7119,-0.7532 2.7118,1.6739 2.7118,1.7574 2.7111,0.9206 2.7118,1.3391 2.7119,1.4227 2.7118,-0.3347 2.7118,-0.3348 2.7119,0.3348 2.7111,-0.0837 h 2.7118 l 2.7118,0.0837 2.7118,-1.4228 2.7119,0.8369 2.7118,-0.5021 2.7111,0.5858 2.7119,-1.0043 2.7118,1.088 2.7118,-0.9206 2.7119,1.2554 2.7117,-0.5022 2.7112,1.4227 2.7118,-0.9205 2.7118,-0.5022 2.7119,0.1674 2.7118,-1.088 2.7111,-0.1673 2.7118,2.0922 2.7118,0.5858 2.7119,-0.5021 2.7118,0.4185 2.7118,-0.1674 2.7111,-0.7532 h 2.7118 l 2.7119,-0.4185 2.7118,0.3348 2.7118,0.0837 2.7119,-0.5022 2.711,-0.6695 2.7119,-0.5858 h 2.7118 l 2.7118,0.5021 2.7119,0.3348 2.7118,1.088 2.7111,0.8368 2.7119,-0.5858 2.7118,-1.4227 2.7118,0.3347 2.7119,-1.0879 2.711,-0.5022 2.7119,0.2511 2.7118,0.5021 2.7118,0.0837 2.7119,1.088 2.7118,0.7532 2.7111,0.7532 2.7118,0.5022 2.7118,0.4184 2.7119,-0.8369 2.7118,0.3348 2.7118,-0.5859 2.7111,-0.0836 2.7118,-0.7532 h 2.7119 l 2.7118,-0.0838 2.7118,1.0043 2.7119,-0.3347 2.711,0.5021 2.7119,0.0837 2.7119,-0.6695 2.7117,-0.3348 2.7119,0.4185 2.7111,-0.1674 2.7118,0.6695 2.7119,1.2554 h 2.7118 l 2.7118,-0.5859 2.7119,-0.1674 2.711,0.4185 2.7119,-0.7532 h 2.7118 l 2.7118,0.1674 2.7119,0.251 h 2.7118 l 2.7111,0.0837 2.7118,0.0837 2.7118,0.9206 2.7119,0.5022 2.7118,-0.2511 2.7118,-0.2511 h 2.7111 l 2.7118,-0.3347 2.7119,0.1673 2.7118,0.3348 2.7118,0.7532 2.7112,0.7532 2.7118,0.5858 2.7118,0.5022 h 2.7119 l 2.7117,0.0837 2.7119,-0.7532 2.7111,-0.5859 2.7118,-0.9206 2.7119,0.1674 2.7118,0.2511 2.7118,1.2553 2.7119,0.5022 2.711,0.7532 2.7119,0.0837 2.7118,0.0837 2.7118,0.8369 2.7119,1.5064 0.3951,0.1707"
       style="fill:none;fill-rule:evenodd"
       id="path205" />
    <path
       d="m 127.9939,351.0699 2.9123,2.772 2.9131,1.1089 2.9131,0.4158 2.913,0.2772 2.9131,0.1386 2.9123,0.2772 2.9131,-0.2772 2.913,0.4158 2.9131,0.1386 2.913,-0.2772 2.9124,-0.693 2.913,-0.1386 2.9131,-1.2474 2.9131,-0.2773 2.9123,0.2773 2.913,-0.1387 h 2.9131 l 2.9131,1.1089 2.913,-0.5544 h 2.9124 l 2.913,0.4158 h 2.9131 l 2.913,-0.5544 2.9131,0.693 2.9123,-0.1386 2.9131,0.2772 2.9131,0.693 2.913,0.2772 2.9123,0.1386 2.9131,-0.2772 2.9131,-0.2772 2.913,-0.8316 2.9131,0.2772 2.9123,-0.1386 2.9131,-0.5544 2.913,0.1386 2.9131,-0.1386 2.9131,0.4158 h 2.9123 l 2.9131,0.2772 2.913,-0.2772 2.9131,0.4158 2.913,-0.2772 2.9124,-0.4158 2.913,-0.4159 2.9131,-0.9701 2.9131,-0.5545 2.9123,0.2772 2.913,-0.4158 2.9131,0.8316 2.913,1.1089 2.9131,0.693 2.9123,-0.693 2.9131,0.4158 2.9131,-0.2772 2.913,0.1386 2.9131,-0.4158 2.9123,0.5544 2.9131,0.1386 2.913,0.2772 2.9131,-0.1386 2.9123,-0.1386 2.9131,0.1386 2.9131,-0.2772 2.913,-0.1386 2.9131,-0.5545 2.9123,-0.1385 h 2.913 l 2.9131,-0.1387 2.9131,0.4159 2.913,0.5544 2.9124,0.8316 h 2.913 l 2.9131,0.4158 2.9131,-0.1386 h 2.913 l 2.9123,-0.1386 2.9131,-0.1386 2.9131,0.1386 2.913,-0.4158 2.9123,-0.1386 2.9131,0.2772 2.9131,0.1386 2.913,0.1386 2.9131,0.2772 2.9123,-0.2772 h 2.9131 l 2.913,-0.9702 2.9131,-0.2772 2.9131,0.4158 2.9123,0.4158 2.913,-0.4158 2.9131,0.9702 2.9131,0.1386 2.9123,-0.2772 h 2.9131 2.913 l 2.9131,-0.1386 2.9131,0.5544 2.9123,-0.4158 2.913,-0.9702 h 2.9131 l 2.913,-0.6931 2.9131,-0.693 2.9123,0.2772 2.9131,0.4158 2.9131,0.1387 2.913,0.5544 2.9131,0.2772 2.9123,-0.1386 2.9131,0.8316 2.913,-0.2772 2.9131,0.2772 2.9123,0.2772 2.9131,0.4158 2.9131,-0.5544 2.913,0.4158 2.9131,-0.4158 2.9123,-0.4158 2.913,0.1386 2.9131,0.1386 2.9131,-0.1386 2.913,0.4158 2.9124,-0.2772 2.913,-0.2772 h 2.9131 l 2.9131,-0.1386 2.913,-0.8316 2.9123,-0.5544 2.9131,-0.2773 2.9131,-0.1385 h 2.913 l 2.9123,0.5543 2.9131,0.9703 2.9131,0.2772 h 2.913 2.9131 l 2.9123,0.2772 2.9131,-0.9702 2.913,-0.693 2.9131,0.1385 h 2.9131 l 2.9123,-0.1385 2.9131,0.4158 2.913,0.5544 2.9131,0.1386 2.9123,-0.4158 2.9131,-0.1386 2.913,0.2772 2.9131,-0.4158 2.9131,-0.1386 2.9122,0.4158 2.9131,-0.2772 2.9131,-0.8316 2.913,0.693 h 2.9131 l 2.9123,0.1386 2.9131,-0.1386 2.9131,0.4158 2.913,-0.1386 2.9131,-0.2772 2.9123,0.1386 2.9131,0.2772 2.9131,0.693 2.913,-0.2772 2.9123,0.5544 2.9131,-0.4158 2.9131,0.1386 2.913,-0.5544 2.9131,-0.1386 2.9123,-0.4158 2.913,0.2772 2.9131,-0.1386 2.9131,0.5544 h 2.913 l 2.9124,-0.1386 2.913,-0.1386 2.9131,0.2772 2.913,-0.1386 2.9124,0.2772 2.9131,-0.4158 2.913,0.4158 2.9131,-0.4158 h 2.913 l 2.9124,0.4158 2.913,-0.1386 2.9131,-0.4158 2.9131,0.1386 2.913,0.1386 2.9123,-0.9703 2.9131,0.2772 2.913,-0.1385 2.9131,-0.2773 2.9131,-0.2772 2.9123,0.2772 2.913,0.8317 2.9131,0.2772 2.9131,0.4158 2.9123,-0.1386 2.9131,0.2772 2.913,-0.1386 2.9131,0.1386 2.9131,0.2772 2.9123,0.4158 2.9131,-0.4158 2.913,-0.5544 2.9131,0.1386 2.913,-0.2772 2.9123,0.1386 2.9131,-0.4158 2.9131,0.4158 2.913,-0.1386 2.9131,-0.2772 h 2.9123 l 2.9131,0.5544 2.913,-0.4158 2.9131,-0.1386 2.9123,0.1386 2.9131,-0.2772 2.913,0.2772 2.9131,0.8316 2.9131,0.2772 h 2.9123 2.9131 l 2.913,-0.1386 2.9131,-0.5544 2.9131,-0.2772 2.9123,0.4158 2.9131,-0.1386 2.913,0.1386 h 2.9131 l 2.9123,-0.4158 2.913,-0.1386 2.9131,-0.1386 2.9131,0.1386 2.913,0.1386 2.9123,-0.2772 2.9131,0.1386 2.9131,0.2772 h 2.913 l 2.9131,-0.2772 2.9123,0.5544 2.9131,-0.4158 2.9131,0.1386 h 2.913 l 2.9131,0.1386 2.9123,0.2772 2.9131,0.5544 2.9131,0.1386 h 2.913 l 2.9123,0.1386 2.9131,0.1386 2.913,0.1386 2.1296,0.2026"
       style="fill:none;fill-rule:evenodd;stroke:#f1605d"
       id="path207" />
  </g>
  <g
     style="color-interpolation:sRGB;fill:#ffffff;stroke:#ffffff;color-rendering:optimizeSpeed;image-rendering:optimizeSpeed;shape-rendering:crispEdges;text-rendering:optimizeSpeed"
     id="g213"
     transform="translate(-27.3566,-21.4155)">
    <path
       style="stroke:none"
       d="M 856,106 V 44 H 753 v 62 z"
       id="path211" />
  </g>
  <g
     transform="translate(772.4615,38.9581)"
     style="font-size:24px;font-family:mwa_cmr10;color-interpolation:linearRGB;color-rendering:optimizeQuality;image-rendering:optimizeQuality;text-rendering:geometricPrecision"
     id="g217">
    <path
       style="stroke:none"
       d="M 1.3438,6.1037 V 0.4943 q 0,-0.1875 0.2187,-0.1875 h 0.2969 q 0.0625,0 0.125,0.0625 0.0625,0.0625 0.0625,0.125 0,2.3594 1.4531,3.6562 1.4531,1.2969 3.8281,1.2969 0.8281,0 1.5313,-0.4844 0.7031,-0.4843 1.0937,-1.2656 0.3907,-0.7812 0.3907,-1.6094 0,-0.7187 -0.2891,-1.4062 Q 9.7656,-0.0057 9.2109,-0.5135 8.6562,-1.0213 7.9688,-1.1776 L 4.8594,-1.9432 Q 3.3125,-2.3495 2.3281,-3.6229 1.3438,-4.8963 1.3438,-6.4745 q 0,-1.25 0.6328,-2.3359 0.6328,-1.0859 1.7109,-1.7188 Q 4.7656,-11.162 6,-11.162 q 2.4062,0 3.8281,1.625 l 0.9844,-1.5625 q 0.0625,-0.0625 0.1563,-0.0625 h 0.1718 q 0.0625,0 0.125,0.0547 0.0625,0.0547 0.0625,0.1485 v 5.5625 q 0,0.2031 -0.1875,0.2031 h -0.2812 q -0.2344,0 -0.2344,-0.2031 0,-0.6094 -0.2031,-1.336 Q 10.2188,-7.4588 9.8594,-8.1307 9.5,-8.8026 9.0781,-9.2245 7.9062,-10.3963 6,-10.3963 q -0.8125,0 -1.5078,0.4218 -0.6953,0.4219 -1.1016,1.1328 -0.4062,0.711 -0.4062,1.4922 0,1.0313 0.6328,1.875 0.6328,0.8438 1.664,1.1094 l 3.125,0.7656 q 0.7657,0.1875 1.4532,0.6719 0.6875,0.4844 1.1484,1.125 0.461,0.6406 0.7188,1.4375 0.2578,0.7969 0.2578,1.6406 0,1.2969 -0.6016,2.4532 Q 10.7812,4.8849 9.6953,5.588 8.6094,6.2912 7.3281,6.2912 6.5312,6.2912 5.6953,6.1115 4.8594,5.9318 4.1562,5.5724 3.4531,5.213 2.8906,4.6349 L 1.875,6.213 Q 1.8125,6.2912 1.7031,6.2912 H 1.5625 q -0.2187,0 -0.2187,-0.1875 z"
       id="path215" />
  </g>
  <g
     transform="translate(772.4615,38.9581)"
     style="font-size:24px;font-family:mwa_cmr10;color-interpolation:linearRGB;color-rendering:optimizeQuality;image-rendering:optimizeQuality;text-rendering:geometricPrecision"
     id="g225">
    <path
       style="stroke:none"
       d="M 13.9584,10.4162 V 9.588 q 0.8125,0 1.3437,-0.1406 0.5313,-0.1406 0.5313,-0.6406 V -2.7557 q 0,-0.6563 -0.4688,-0.8203 -0.4687,-0.1641 -1.4062,-0.1641 v -0.8437 l 3.5468,-0.2657 v 1.4844 q 0.6563,-0.7187 1.5313,-1.1016 0.875,-0.3828 1.8594,-0.3828 1.4218,0 2.5547,0.7657 1.1328,0.7656 1.7734,2.0156 0.6406,1.25 0.6406,2.6406 0,1.4531 -0.7109,2.7109 -0.711,1.2579 -1.9375,2 -1.2266,0.7422 -2.6797,0.7422 -1.75,0 -2.9531,-1.4218 v 4.2031 q 0,0.5 0.5312,0.6406 0.5313,0.1406 1.3438,0.1406 v 0.8282 z m 3.625,-6.9844 q 0.4218,0.8437 1.1718,1.4062 0.75,0.5625 1.6407,0.5625 0.8281,0 1.4687,-0.4453 0.6406,-0.4453 1.0703,-1.1953 0.4297,-0.75 0.6328,-1.5781 0.2032,-0.8281 0.2032,-1.6094 0,-0.9531 -0.3438,-2.0703 -0.3437,-1.1172 -1.0547,-1.8906 -0.7109,-0.7735 -1.7109,-0.7735 -0.9688,0 -1.7891,0.5 -0.8203,0.5 -1.289,1.3594 z"
       id="path219" />
    <path
       style="stroke:none"
       d="M 27.4011,5.7599 V 4.9162 q 0.8281,0 1.3516,-0.1329 0.5234,-0.1328 0.5234,-0.6328 v -6.5468 q 0,-0.9219 -0.3515,-1.1329 -0.3516,-0.2109 -1.4141,-0.2109 v -0.8437 l 3.4531,-0.2657 v 9 q 0,0.5 0.461,0.6328 0.4609,0.1329 1.2265,0.1329 v 0.8437 z m 1.0313,-14.7344 q 0,-0.5312 0.3984,-0.9297 0.3984,-0.3984 0.9141,-0.3984 0.3281,0 0.6484,0.1797 0.3203,0.1797 0.4922,0.4922 0.1719,0.3125 0.1719,0.6562 0,0.5157 -0.3985,0.9141 -0.3984,0.3984 -0.914,0.3984 -0.5157,0 -0.9141,-0.3984 -0.3984,-0.3984 -0.3984,-0.9141 z"
       id="path221" />
    <path
       style="stroke:none"
       d="M 34.0522,5.7599 V 4.9162 q 0.8125,0 1.3437,-0.1329 0.5313,-0.1328 0.5313,-0.6328 v -6.5468 q 0,-0.6407 -0.1953,-0.9297 -0.1953,-0.2891 -0.5547,-0.3516 -0.3594,-0.0625 -1.125,-0.0625 v -0.8437 l 3.4844,-0.2657 v 2.3438 q 0.4687,-1.0313 1.414,-1.6875 0.9453,-0.6563 2.0547,-0.6563 1.6719,0 2.5078,0.7969 0.836,0.7969 0.836,2.4375 v 5.7656 q 0,0.5 0.5312,0.6328 0.5313,0.1329 1.3438,0.1329 v 0.8437 h -5.5 V 4.9162 q 0.8281,0 1.3515,-0.1329 0.5235,-0.1328 0.5235,-0.6328 V -1.537 q 0,-1.1718 -0.336,-1.9297 -0.3359,-0.7578 -1.3984,-0.7578 -1.3906,0 -2.2891,1.1094 -0.8984,1.1094 -0.8984,2.5313 v 4.7343 q 0,0.5 0.5312,0.6328 0.5313,0.1329 1.3438,0.1329 v 0.8437 z"
       id="path223" />
  </g>
  <g
     style="color-interpolation:linearRGB;fill:#721f81;stroke:#721f81;stroke-width:2.6667;stroke-linecap:butt;stroke-linejoin:round;color-rendering:optimizeQuality;image-rendering:optimizeQuality;text-rendering:geometricPrecision"
     id="g229"
     transform="translate(-27.3566,-21.4155)">
    <line
       y2="60.3736"
       style="fill:none"
       x1="756.9845"
       x2="796.82971"
       y1="60.3736"
       id="line227" />
  </g>
  <g
     transform="translate(772.4615,68.2109)"
     style="font-size:24px;font-family:mwa_cmr10;color-interpolation:linearRGB;color-rendering:optimizeQuality;image-rendering:optimizeQuality;text-rendering:geometricPrecision"
     id="g233">
    <path
       style="stroke:none"
       d="M 0.7969,5.7599 V 4.9162 q 2.4687,0 2.4687,-0.7657 V -9.037 q 0,-0.75 -2.4687,-0.75 v -0.8437 h 8.8437 q 1.6406,0 3,0.7031 1.3594,0.7031 2.3203,1.8906 0.961,1.1875 1.4844,2.6875 0.5235,1.5 0.5235,3.0625 0,1.5313 -0.5235,2.9688 -0.5234,1.4375 -1.5156,2.5859 -0.9922,1.1485 -2.3438,1.8203 -1.3515,0.6719 -2.9453,0.6719 z m 4.625,-1.6094 q 0,0.5157 0.2969,0.6407 0.2968,0.125 0.9218,0.125 h 2.3906 q 1.2188,0 2.3282,-0.5313 1.1094,-0.5312 1.8437,-1.4844 0.75,-1.0156 1.0078,-2.2578 0.2579,-1.2422 0.2579,-2.9297 0,-1.7343 -0.2579,-3.0468 Q 13.9531,-6.6463 13.2031,-7.6776 12.4844,-8.7088 11.3828,-9.2479 10.2812,-9.787 9.0312,-9.787 H 6.6406 q -0.4218,0 -0.664,0.0313 -0.2422,0.0312 -0.3985,0.2031 -0.1562,0.1719 -0.1562,0.5156 z"
       id="path231" />
  </g>
  <g
     transform="translate(772.4615,68.2109)"
     style="font-size:24px;font-family:mwa_cmr10;color-interpolation:linearRGB;color-rendering:optimizeQuality;image-rendering:optimizeQuality;text-rendering:geometricPrecision"
     id="g241">
    <path
       style="stroke:none"
       d="m 19.3021,3.4005 q 0,-1.4218 1.125,-2.3203 1.125,-0.8984 2.6953,-1.2656 1.5703,-0.3672 2.9922,-0.3672 V -1.537 q 0,-0.7031 -0.3047,-1.3515 -0.3047,-0.6485 -0.875,-1.0625 -0.5703,-0.4141 -1.2734,-0.4141 -1.5938,0 -2.4219,0.7188 0.4531,0 0.7578,0.3437 0.3047,0.3438 0.3047,0.7969 0,0.4844 -0.3437,0.8203 -0.3438,0.3359 -0.8125,0.3359 -0.4844,0 -0.8203,-0.3359 -0.336,-0.3359 -0.336,-0.8203 0,-1.2656 1.1485,-1.8828 1.1484,-0.6172 2.5234,-0.6172 0.9844,0 1.9687,0.4219 0.9844,0.4218 1.6094,1.1953 0.625,0.7734 0.625,1.8047 v 5.3906 q 0,0.4687 0.1953,0.8672 0.1953,0.3984 0.6172,0.3984 0.4063,0 0.6016,-0.3984 Q 29.474,4.2755 29.474,3.8068 V 2.2755 h 0.7031 v 1.5313 q 0,0.5469 -0.2812,1.0312 -0.2813,0.4844 -0.7578,0.7735 -0.4766,0.289 -1.0235,0.289 -0.7031,0 -1.2187,-0.5468 -0.5157,-0.5469 -0.5625,-1.2969 -0.4532,0.9062 -1.3203,1.4375 -0.8672,0.5312 -1.8516,0.5312 -0.9063,0 -1.7969,-0.2656 Q 20.474,5.4943 19.8881,4.9083 19.3021,4.3224 19.3021,3.4005 Z m 1.9375,0 q 0,0.8438 0.625,1.4219 0.625,0.5781 1.4688,0.5781 0.7656,0 1.3984,-0.3906 0.6328,-0.3906 1.0078,-1.0547 0.375,-0.664 0.375,-1.414 V 0.0568 q -1.0937,0 -2.2344,0.3515 -1.1406,0.3516 -1.8906,1.1172 -0.75,0.7657 -0.75,1.875 z"
       id="path235" />
    <path
       style="stroke:none"
       d="M 30.9584,5.7599 V 4.9162 q 0.8125,0 1.3437,-0.1329 0.5313,-0.1328 0.5313,-0.6328 v -6.5468 q 0,-0.6407 -0.1953,-0.9297 -0.1953,-0.2891 -0.5547,-0.3516 -0.3594,-0.0625 -1.125,-0.0625 v -0.8437 l 3.4375,-0.2657 v 2.3438 q 0.375,-1.0469 1.0937,-1.6953 0.7188,-0.6485 1.7344,-0.6485 0.7188,0 1.2813,0.4219 0.5625,0.4219 0.5625,1.1094 0,0.4375 -0.3125,0.7578 -0.3125,0.3203 -0.7657,0.3203 -0.4531,0 -0.7656,-0.3125 -0.3125,-0.3125 -0.3125,-0.7656 0,-0.6406 0.4531,-0.9063 H 37.224 q -0.9687,0 -1.5859,0.7032 -0.6172,0.7031 -0.875,1.7421 -0.2578,1.0391 -0.2578,1.9922 v 3.9375 q 0,0.7657 2.3281,0.7657 v 0.8437 z"
       id="path237" />
    <path
       style="stroke:none"
       d="M 40.3584,5.7599 V 4.9162 q 0.8125,0 1.3438,-0.1329 0.5312,-0.1328 0.5312,-0.6328 V -8.4432 q 0,-0.6406 -0.1953,-0.9297 Q 41.8428,-9.662 41.4834,-9.7245 41.124,-9.787 40.3584,-9.787 v -0.8437 l 3.5469,-0.2656 V 0.4943 l 3.2187,-2.8281 q 0.4844,-0.4532 0.4844,-0.8438 0,-0.2812 -0.1953,-0.4219 -0.1953,-0.1406 -0.4766,-0.1406 v -0.8437 h 4.5 v 0.8437 q -1.625,0 -3.25,1.4063 l -1.7187,1.5 3.0625,4.3281 q 0.6406,0.9062 1.0625,1.164 0.4219,0.2579 1.4062,0.2579 V 5.7599 H 47.2178 V 4.9162 q 0.8281,0 0.8281,-0.5 0,-0.375 -0.4375,-0.9219 L 45.2959,0.213 43.8428,1.4787 v 2.6718 q 0,0.5 0.5312,0.6328 0.5313,0.1329 1.3438,0.1329 v 0.8437 z"
       id="path239" />
  </g>
  <g
     style="color-interpolation:linearRGB;fill:#f1605d;stroke:#f1605d;stroke-width:2.6667;stroke-linecap:butt;stroke-linejoin:round;color-rendering:optimizeQuality;image-rendering:optimizeQuality;text-rendering:geometricPrecision"
     id="g245"
     transform="translate(-27.3566,-21.4155)">
    <line
       y2="89.626404"
       style="fill:none"
       x1="756.9845"
       x2="796.82971"
       y1="89.626404"
       id="line243" />
  </g>
  <g
     style="color-interpolation:linearRGB;fill:#262626;stroke:#262626;stroke-width:0.6667;stroke-linecap:butt;color-rendering:optimizeQuality;image-rendering:optimizeQuality;text-rendering:geometricPrecision"
     id="g249"
     transform="translate(-27.3566,-21.4155)">
    <path
       d="M 753,106 V 44 h 103 v 62 z"
       style="fill:none;fill-rule:evenodd"
       id="path247" />
  </g>
</svg>
