<?xml version="1.0" encoding="UTF-8" standalone="no"?>
<svg
   xmlns:dc="http://purl.org/dc/elements/1.1/"
   xmlns:cc="http://creativecommons.org/ns#"
   xmlns:rdf="http://www.w3.org/1999/02/22-rdf-syntax-ns#"
   xmlns:svg="http://www.w3.org/2000/svg"
   xmlns="http://www.w3.org/2000/svg"
   xmlns:sodipodi="http://sodipodi.sourceforge.net/DTD/sodipodi-0.dtd"
   xmlns:inkscape="http://www.inkscape.org/namespaces/inkscape"
   width="88.270088mm"
   height="68.886971mm"
   viewBox="0 0 88.270088 68.886971"
   version="1.1"
   id="svg22291"
   sodipodi:docname="fig-init2_a.svg"
   inkscape:version="1.0.1 (3bc2e813f5, 2020-09-07)">
  <defs
     id="defs22285">
    <clipPath
       clipPathUnits="userSpaceOnUse"
       id="clipPath22872">
      <path
         d="M 61,137 V 1900 H 2460 V 137 Z"
         id="path22870" />
    </clipPath>
    <defs
       id="id-c4301db6-6cd8-44c6-b4e3-4115d15da549">
      <g
         id="id-d3e1ed61-1b5a-49ab-9221-28b782c24a63">
        <symbol
           overflow="visible"
           id="id-bb3a3e79-eb8b-450e-b939-639be38c3622">
          <path
             style="stroke:none"
             d=""
             id="id-f2233653-b828-464f-89c6-1bac00a18ffd" />
        </symbol>
        <symbol
           overflow="visible"
           id="id-309c952e-bf8e-4195-bb3e-31ec9c5a62b0">
          <path
             style="stroke:none"
             d="m 7.578125,-6.921875 c 0,-0.03125 -0.015625,-0.109375 -0.109375,-0.109375 -0.03125,0 -0.046875,0.015625 -0.15625,0.125 L 6.625,-6.140625 C 6.53125,-6.28125 6.078125,-7.03125 4.96875,-7.03125 2.734375,-7.03125 0.5,-4.828125 0.5,-2.515625 0.5,-0.875 1.671875,0.21875 3.203125,0.21875 c 0.859375,0 1.625,-0.390625 2.15625,-0.859375 0.921875,-0.8125 1.09375,-1.71875 1.09375,-1.75 C 6.453125,-2.5 6.34375,-2.5 6.328125,-2.5 c -0.0625,0 -0.109375,0.03125 -0.125,0.109375 -0.09375,0.28125 -0.328125,1 -1.015625,1.578125 -0.6875,0.546875 -1.3125,0.71875 -1.828125,0.71875 -0.890625,0 -1.953125,-0.515625 -1.953125,-2.0625 0,-0.578125 0.203125,-2.1875 1.203125,-3.359375 0.609375,-0.703125 1.546875,-1.203125 2.4375,-1.203125 1.015625,0 1.609375,0.765625 1.609375,1.921875 0,0.40625 -0.03125,0.40625 -0.03125,0.515625 0,0.09375 0.109375,0.09375 0.140625,0.09375 0.125,0 0.125,-0.015625 0.1875,-0.203125 z m 0,0"
             id="id-fb8af158-0490-4d01-ba89-6a87b7c43dcc" />
        </symbol>
        <symbol
           overflow="visible"
           id="id-26394d22-172f-416e-b0cc-22cf9ba311a4">
          <path
             style="stroke:none"
             d="m 2.046875,-3.984375 h 0.9375 c 0.203125,0 0.3125,0 0.3125,-0.203125 0,-0.109375 -0.109375,-0.109375 -0.28125,-0.109375 h -0.875 C 2.5,-5.71875 2.546875,-5.90625 2.546875,-5.96875 c 0,-0.171875 -0.125,-0.265625 -0.296875,-0.265625 -0.03125,0 -0.3125,0 -0.390625,0.359375 L 1.46875,-4.296875 h -0.9375 c -0.203125,0 -0.296875,0 -0.296875,0.1875 0,0.125 0.078125,0.125 0.28125,0.125 h 0.875 C 0.671875,-1.15625 0.625,-0.984375 0.625,-0.8125 0.625,-0.265625 1,0.109375 1.546875,0.109375 2.5625,0.109375 3.125,-1.34375 3.125,-1.421875 3.125,-1.53125 3.046875,-1.53125 3.015625,-1.53125 2.921875,-1.53125 2.90625,-1.5 2.859375,-1.390625 2.4375,-0.34375 1.90625,-0.109375 1.5625,-0.109375 c -0.203125,0 -0.3125,-0.125 -0.3125,-0.453125 0,-0.25 0.03125,-0.3125 0.0625,-0.484375 z m 0,0"
             id="id-a3ab5eb4-aa47-4226-b8c3-994251f85fb9" />
        </symbol>
        <symbol
           overflow="visible"
           id="id-38830895-470b-46ec-9582-0cf1d1675312">
          <path
             style="stroke:none"
             d="m 2.296875,-3.5 c 0.0625,-0.203125 0.15625,-0.59375 0.15625,-0.640625 0,-0.171875 -0.125,-0.265625 -0.296875,-0.265625 -0.015625,0 -0.296875,0.015625 -0.390625,0.359375 l -1.4375,5.765625 c -0.03125,0.125 -0.03125,0.140625 -0.03125,0.171875 0,0.140625 0.109375,0.265625 0.28125,0.265625 0.203125,0 0.328125,-0.1875 0.34375,-0.21875 C 0.96875,1.859375 1.09375,1.328125 1.46875,-0.203125 1.796875,0.0625 2.25,0.109375 2.4375,0.109375 c 0.703125,0 1.09375,-0.453125 1.328125,-0.734375 0.09375,0.453125 0.46875,0.734375 0.90625,0.734375 0.34375,0 0.578125,-0.234375 0.734375,-0.546875 0.171875,-0.359375 0.296875,-0.96875 0.296875,-0.984375 0,-0.109375 -0.09375,-0.109375 -0.125,-0.109375 -0.09375,0 -0.109375,0.046875 -0.140625,0.1875 -0.15625,0.640625 -0.34375,1.234375 -0.75,1.234375 -0.265625,0 -0.296875,-0.265625 -0.296875,-0.453125 0,-0.21875 0.109375,-0.6875 0.1875,-1.046875 L 4.859375,-2.6875 C 4.890625,-2.828125 5,-3.203125 5.03125,-3.359375 5.078125,-3.59375 5.1875,-3.96875 5.1875,-4.03125 c 0,-0.171875 -0.140625,-0.265625 -0.296875,-0.265625 -0.046875,0 -0.3125,0.015625 -0.390625,0.34375 l -0.46875,1.875 c -0.109375,0.5 -0.21875,0.90625 -0.25,1.015625 -0.015625,0.046875 -0.484375,0.953125 -1.296875,0.953125 -0.5,0 -0.734375,-0.328125 -0.734375,-0.875 0,-0.28125 0.0625,-0.5625 0.140625,-0.84375 z m 0,0"
             id="id-c5cfc4dd-1ab0-453e-802f-c36aefe2a746" />
        </symbol>
        <symbol
           overflow="visible"
           id="id-30c5c090-c861-42e2-b927-6df7ede46474">
          <path
             style="stroke:none"
             d=""
             id="id-196ad21c-670c-46d1-af21-bc291051696a" />
        </symbol>
        <symbol
           overflow="visible"
           id="id-9c35adbb-8170-40df-bb6c-18ab0b911098">
          <path
             style="stroke:none"
             d="m 2.078125,-1.9375 c 0.21875,0.046875 1.03125,0.203125 1.03125,0.921875 0,0.5 -0.34375,0.90625 -1.125,0.90625 -0.84375,0 -1.203125,-0.5625 -1.390625,-1.421875 C 0.5625,-1.65625 0.5625,-1.6875 0.453125,-1.6875 c -0.125,0 -0.125,0.0625 -0.125,0.234375 V -0.125 c 0,0.171875 0,0.234375 0.109375,0.234375 0.046875,0 0.0625,-0.015625 0.25,-0.203125 0.015625,-0.015625 0.015625,-0.03125 0.203125,-0.21875 0.4375,0.40625 0.890625,0.421875 1.09375,0.421875 1.140625,0 1.609375,-0.671875 1.609375,-1.390625 0,-0.515625 -0.296875,-0.828125 -0.421875,-0.9375 C 2.84375,-2.546875 2.453125,-2.625 2.03125,-2.703125 1.46875,-2.8125 0.8125,-2.9375 0.8125,-3.515625 c 0,-0.359375 0.25,-0.765625 1.109375,-0.765625 1.09375,0 1.15625,0.90625 1.171875,1.203125 0,0.09375 0.09375,0.09375 0.109375,0.09375 0.140625,0 0.140625,-0.046875 0.140625,-0.234375 v -1.015625 c 0,-0.15625 0,-0.234375 -0.109375,-0.234375 -0.046875,0 -0.078125,0 -0.203125,0.125 -0.03125,0.03125 -0.125,0.125 -0.171875,0.15625 -0.375,-0.28125 -0.78125,-0.28125 -0.9375,-0.28125 -1.21875,0 -1.59375,0.671875 -1.59375,1.234375 0,0.34375 0.15625,0.625 0.421875,0.84375 0.328125,0.25 0.609375,0.3125 1.328125,0.453125 z m 0,0"
             id="id-807dd366-02a2-4625-9d7c-093e0a82ffc6" />
        </symbol>
        <symbol
           overflow="visible"
           id="id-a912975a-4df0-42f0-926b-676b58523a58">
          <path
             style="stroke:none"
             d="M 1.765625,-4.40625 0.375,-4.296875 v 0.3125 c 0.640625,0 0.734375,0.0625 0.734375,0.546875 V -0.75 c 0,0.4375 -0.109375,0.4375 -0.78125,0.4375 V 0 C 0.640625,-0.015625 1.1875,-0.03125 1.421875,-0.03125 1.78125,-0.03125 2.125,-0.015625 2.46875,0 v -0.3125 c -0.671875,0 -0.703125,-0.046875 -0.703125,-0.4375 z m 0.03125,-1.734375 c 0,-0.3125 -0.234375,-0.53125 -0.515625,-0.53125 -0.3125,0 -0.53125,0.265625 -0.53125,0.53125 0,0.265625 0.21875,0.53125 0.53125,0.53125 0.28125,0 0.515625,-0.21875 0.515625,-0.53125 z m 0,0"
             id="id-f8d5345b-61a9-482c-ac7c-606541bd5ec2" />
        </symbol>
        <symbol
           overflow="visible"
           id="id-830db719-9fa8-4136-92c2-30294103c0b0">
          <path
             style="stroke:none"
             d="M 1.09375,-3.421875 V -0.75 c 0,0.4375 -0.109375,0.4375 -0.78125,0.4375 V 0 c 0.359375,-0.015625 0.859375,-0.03125 1.140625,-0.03125 0.25,0 0.765625,0.015625 1.109375,0.03125 v -0.3125 c -0.671875,0 -0.78125,0 -0.78125,-0.4375 V -2.59375 C 1.78125,-3.625 2.5,-4.1875 3.125,-4.1875 c 0.640625,0 0.75,0.53125 0.75,1.109375 V -0.75 c 0,0.4375 -0.109375,0.4375 -0.78125,0.4375 V 0 c 0.34375,-0.015625 0.859375,-0.03125 1.125,-0.03125 0.25,0 0.78125,0.015625 1.109375,0.03125 v -0.3125 c -0.65625,0 -0.765625,0 -0.765625,-0.4375 v -1.84375 c 0,-1.03125 0.703125,-1.59375 1.34375,-1.59375 0.625,0 0.734375,0.53125 0.734375,1.109375 V -0.75 c 0,0.4375 -0.109375,0.4375 -0.78125,0.4375 V 0 c 0.34375,-0.015625 0.859375,-0.03125 1.125,-0.03125 0.265625,0 0.78125,0.015625 1.125,0.03125 v -0.3125 c -0.515625,0 -0.765625,0 -0.78125,-0.296875 v -1.90625 c 0,-0.859375 0,-1.15625 -0.3125,-1.515625 -0.140625,-0.171875 -0.46875,-0.375 -1.046875,-0.375 -0.828125,0 -1.28125,0.59375 -1.4375,0.984375 C 4.390625,-4.296875 3.65625,-4.40625 3.203125,-4.40625 2.46875,-4.40625 2,-3.984375 1.71875,-3.359375 V -4.40625 L 0.3125,-4.296875 v 0.3125 c 0.703125,0 0.78125,0.0625 0.78125,0.5625 z m 0,0"
             id="id-34bdf8f4-fd54-4259-8540-b764319680c8" />
        </symbol>
        <symbol
           overflow="visible"
           id="id-74a0d41d-4400-4aa3-b404-d87b021c8e47">
          <path
             style="stroke:none"
             d="m 3.296875,2.390625 c 0,-0.03125 0,-0.046875 -0.171875,-0.21875 C 1.890625,0.921875 1.5625,-0.96875 1.5625,-2.5 c 0,-1.734375 0.375,-3.46875 1.609375,-4.703125 0.125,-0.125 0.125,-0.140625 0.125,-0.171875 0,-0.078125 -0.03125,-0.109375 -0.09375,-0.109375 -0.109375,0 -1,0.6875 -1.59375,1.953125 -0.5,1.09375 -0.625,2.203125 -0.625,3.03125 0,0.78125 0.109375,1.984375 0.65625,3.125 C 2.25,1.84375 3.09375,2.5 3.203125,2.5 c 0.0625,0 0.09375,-0.03125 0.09375,-0.109375 z m 0,0"
             id="id-93689df8-2936-48bd-bae5-34194e0dcd65" />
        </symbol>
        <symbol
           overflow="visible"
           id="id-66755e42-246b-4e1a-a348-4eec685fc5e8">
          <path
             style="stroke:none"
             d="m 1.71875,-3.75 v -0.65625 l -1.4375,0.109375 v 0.3125 c 0.703125,0 0.78125,0.0625 0.78125,0.5 v 4.65625 C 1.0625,1.625 0.953125,1.625 0.28125,1.625 V 1.9375 C 0.625,1.921875 1.140625,1.90625 1.390625,1.90625 c 0.28125,0 0.78125,0.015625 1.125,0.03125 V 1.625 C 1.859375,1.625 1.75,1.625 1.75,1.171875 V -0.59375 c 0.046875,0.171875 0.46875,0.703125 1.21875,0.703125 1.1875,0 2.21875,-0.984375 2.21875,-2.265625 0,-1.265625 -0.953125,-2.25 -2.078125,-2.25 -0.78125,0 -1.203125,0.4375 -1.390625,0.65625 z M 1.75,-1.140625 v -2.21875 C 2.03125,-3.875 2.515625,-4.15625 3.03125,-4.15625 c 0.734375,0 1.328125,0.875 1.328125,2 0,1.203125 -0.6875,2.046875 -1.421875,2.046875 -0.40625,0 -0.78125,-0.203125 -1.046875,-0.609375 C 1.75,-0.921875 1.75,-0.9375 1.75,-1.140625 Z m 0,0"
             id="id-cc4d6670-3d1b-4c43-9fc7-866bd5191d2b" />
        </symbol>
        <symbol
           overflow="visible"
           id="id-1bf456c2-0ccd-44d8-933e-84db48cec01f">
          <path
             style="stroke:none"
             d="m 2.875,-2.5 c 0,-0.765625 -0.109375,-1.96875 -0.65625,-3.109375 -0.59375,-1.21875 -1.453125,-1.875 -1.546875,-1.875 -0.0625,0 -0.109375,0.046875 -0.109375,0.109375 0,0.03125 0,0.046875 0.1875,0.234375 0.984375,0.984375 1.546875,2.5625 1.546875,4.640625 0,1.71875 -0.359375,3.46875 -1.59375,4.71875 C 0.5625,2.34375 0.5625,2.359375 0.5625,2.390625 0.5625,2.453125 0.609375,2.5 0.671875,2.5 0.765625,2.5 1.671875,1.8125 2.25,0.546875 2.765625,-0.546875 2.875,-1.65625 2.875,-2.5 Z m 0,0"
             id="id-2be02cb9-cf81-4f8c-af6c-4da2bdfcdcc4" />
        </symbol>
        <symbol
           overflow="visible"
           id="id-089ca182-7a49-4e14-a5cf-826150f63a5d">
          <path
             style="stroke:none"
             d=""
             id="id-35ae5d9c-b796-456f-899e-9cac0a04d497" />
        </symbol>
        <symbol
           overflow="visible"
           id="id-cedb44ee-fb77-40a3-91ef-4a35f21c76f9">
          <path
             style="stroke:none"
             d="m 5.1875,-1.578125 c 0.109375,0 0.28125,0 0.28125,-0.15625 0,-0.1875 -0.171875,-0.1875 -0.28125,-0.1875 H 1.03125 c -0.109375,0 -0.28125,0 -0.28125,0.171875 0,0.171875 0.15625,0.171875 0.28125,0.171875 z m 0,0"
             id="id-1f14cf62-616b-47a6-97c2-c4c2d4e182c6" />
        </symbol>
        <symbol
           overflow="visible"
           id="id-e88c9aab-953b-48ff-ac2e-920993135faa">
          <path
             style="stroke:none"
             d=""
             id="id-214d44b8-af45-41f7-bf47-d4c1b2090290" />
        </symbol>
        <symbol
           overflow="visible"
           id="id-a079cf4d-c365-4d77-af9a-59fa3ff5415d">
          <path
             style="stroke:none"
             d="m 2.328125,-4.4375 c 0,-0.1875 0,-0.1875 -0.203125,-0.1875 -0.453125,0.4375 -1.078125,0.4375 -1.359375,0.4375 v 0.25 c 0.15625,0 0.625,0 1,-0.1875 v 3.546875 c 0,0.234375 0,0.328125 -0.6875,0.328125 H 0.8125 V 0 c 0.125,0 0.984375,-0.03125 1.234375,-0.03125 0.21875,0 1.09375,0.03125 1.25,0.03125 V -0.25 H 3.03125 c -0.703125,0 -0.703125,-0.09375 -0.703125,-0.328125 z m 0,0"
             id="id-7c68e091-8017-4dd2-abe6-7536f354f952" />
        </symbol>
      </g>
    </defs>
  </defs>
  <sodipodi:namedview
     id="base"
     pagecolor="#ffffff"
     bordercolor="#666666"
     borderopacity="1.0"
     inkscape:pageopacity="0.0"
     inkscape:pageshadow="2"
     inkscape:zoom="1.54068"
     inkscape:cx="124.25368"
     inkscape:cy="263.86265"
     inkscape:document-units="mm"
     inkscape:current-layer="layer1"
     inkscape:document-rotation="0"
     showgrid="false"
     inkscape:window-width="1918"
     inkscape:window-height="2088"
     inkscape:window-x="1913"
     inkscape:window-y="0"
     inkscape:window-maximized="0" />
  <metadata
     id="metadata22288">
    <rdf:RDF>
      <cc:Work
         rdf:about="">
        <dc:format>image/svg+xml</dc:format>
        <dc:type
           rdf:resource="http://purl.org/dc/dcmitype/StillImage" />
        <dc:title></dc:title>
      </cc:Work>
    </rdf:RDF>
  </metadata>
  <g
     inkscape:label="Layer 1"
     inkscape:groupmode="layer"
     id="layer1"
     transform="translate(-82.006693,-41.825398)">
    <g
       id="g22866"
       transform="matrix(0.03527778,0,0,-0.03527778,83.493439,108.85318)">
      <g
         id="g22868"
         clip-path="url(#clipPath22872)">
        <path
           d="M 9.90625,34.4531 H 2695.2963 v 2014.04 H 9.90625 Z"
           style="fill:#ffffff;fill-opacity:1;fill-rule:nonzero;stroke:none"
           id="path22874" />
        <path
           d="M 9.90625,34.4531 H 2695.2963 v 2014.04 H 9.90625 Z"
           style="fill:#ffffff;fill-opacity:1;fill-rule:nonzero;stroke:none"
           id="path22876" />
        <path
           d="M 359.008,255.996 H 2440.18 L 359.008,1897.44"
           style="fill:#ffffff;fill-opacity:1;fill-rule:nonzero;stroke:none"
           id="path22878" />
        <path
           d="M 2440.18,255.996 V 1897.44 H 359.008"
           style="fill:#ffffff;fill-opacity:1;fill-rule:nonzero;stroke:none"
           id="path22880" />
        <path
           d="M 550.477,1892.81 359.008,255.996 V 1892.81"
           style="fill:#e6e6ff;fill-opacity:1;fill-rule:nonzero;stroke:none"
           id="path22882" />
        <path
           d="M 359.008,255.996 550.477,1892.81 V 255.996"
           style="fill:#e6e6ff;fill-opacity:1;fill-rule:nonzero;stroke:none"
           id="path22884" />
        <path
           d="m 379.82,256.316 v 0.758 l -20.812,-1.078"
           style="fill:#fee6df;fill-opacity:1;fill-rule:nonzero;stroke:none"
           id="path22886" />
        <path
           d="m 379.82,257.074 v -0.758 l 20.809,4.262"
           style="fill:#fee6df;fill-opacity:1;fill-rule:nonzero;stroke:none"
           id="path22888" />
        <path
           d="m 379.82,257.074 20.809,3.504 v 11.914"
           style="fill:#fee6df;fill-opacity:1;fill-rule:nonzero;stroke:none"
           id="path22890" />
        <path
           d="m 400.629,272.492 v -11.914 l 20.812,18.445"
           style="fill:#fee6df;fill-opacity:1;fill-rule:nonzero;stroke:none"
           id="path22892" />
        <path
           d="m 400.629,272.492 20.812,6.531 v 49.649"
           style="fill:#fee6df;fill-opacity:1;fill-rule:nonzero;stroke:none"
           id="path22894" />
        <path
           d="m 421.441,328.672 v -49.649 l 20.813,44.618"
           style="fill:#fee6df;fill-opacity:1;fill-rule:nonzero;stroke:none"
           id="path22896" />
        <path
           d="m 421.441,328.672 20.813,-5.031 v 133.32"
           style="fill:#fee6df;fill-opacity:1;fill-rule:nonzero;stroke:none"
           id="path22898" />
        <path
           d="m 442.254,456.961 v -133.32 l 20.812,84.66"
           style="fill:#fee6df;fill-opacity:1;fill-rule:nonzero;stroke:none"
           id="path22900" />
        <path
           d="m 442.254,456.961 20.812,-48.66 v 219.117"
           style="fill:#fee6df;fill-opacity:1;fill-rule:nonzero;stroke:none"
           id="path22902" />
        <path
           d="M 463.066,627.418 V 408.301 l 20.813,130.941"
           style="fill:#fee6df;fill-opacity:1;fill-rule:nonzero;stroke:none"
           id="path22904" />
        <path
           d="m 463.066,627.418 20.813,-88.176 v 308.692"
           style="fill:#fee6df;fill-opacity:1;fill-rule:nonzero;stroke:none"
           id="path22906" />
        <path
           d="M 483.879,847.934 V 539.242 l 20.812,172.41"
           style="fill:#fee6df;fill-opacity:1;fill-rule:nonzero;stroke:none"
           id="path22908" />
        <path
           d="M 483.879,847.934 504.691,711.652 V 1053.86"
           style="fill:#fee6df;fill-opacity:1;fill-rule:nonzero;stroke:none"
           id="path22910" />
        <path
           d="M 504.691,1053.86 V 711.652 L 525.5,902.313"
           style="fill:#fee6df;fill-opacity:1;fill-rule:nonzero;stroke:none"
           id="path22912" />
        <path
           d="M 504.691,1053.86 525.5,902.313 V 1224.4"
           style="fill:#fee6df;fill-opacity:1;fill-rule:nonzero;stroke:none"
           id="path22914" />
        <path
           d="M 525.5,1224.4 V 902.313 l 20.813,181.527"
           style="fill:#fee6df;fill-opacity:1;fill-rule:nonzero;stroke:none"
           id="path22916" />
        <path
           d="m 525.5,1224.4 20.813,-140.56 v 306.51"
           style="fill:#fee6df;fill-opacity:1;fill-rule:nonzero;stroke:none"
           id="path22918" />
        <path
           d="m 546.313,1390.35 v -306.51 l 20.812,112.98"
           style="fill:#fee6df;fill-opacity:1;fill-rule:nonzero;stroke:none"
           id="path22920" />
        <path
           d="m 546.313,1390.35 20.812,-193.53 v 360.32"
           style="fill:#fee6df;fill-opacity:1;fill-rule:nonzero;stroke:none"
           id="path22922" />
        <path
           d="m 567.125,1557.14 v -360.32 l 20.813,68.96"
           style="fill:#fee6df;fill-opacity:1;fill-rule:nonzero;stroke:none"
           id="path22924" />
        <path
           d="m 567.125,1557.14 20.813,-291.36 v 428.29"
           style="fill:#fee6df;fill-opacity:1;fill-rule:nonzero;stroke:none"
           id="path22926" />
        <path
           d="m 587.938,1694.07 v -428.29 l 20.812,-27.89"
           style="fill:#fee6df;fill-opacity:1;fill-rule:nonzero;stroke:none"
           id="path22928" />
        <path
           d="m 587.938,1694.07 20.812,-456.18 v 535.59"
           style="fill:#fee6df;fill-opacity:1;fill-rule:nonzero;stroke:none"
           id="path22930" />
        <path
           d="m 608.75,1773.48 v -535.59 l 20.809,-47.54"
           style="fill:#fee6df;fill-opacity:1;fill-rule:nonzero;stroke:none"
           id="path22932" />
        <path
           d="m 608.75,1773.48 20.809,-583.13 v 608.63"
           style="fill:#fee6df;fill-opacity:1;fill-rule:nonzero;stroke:none"
           id="path22934" />
        <path
           d="m 629.559,1798.98 v -608.63 l 20.812,-100.46"
           style="fill:#fee6df;fill-opacity:1;fill-rule:nonzero;stroke:none"
           id="path22936" />
        <path
           d="m 629.559,1798.98 20.812,-709.09 v 693.65"
           style="fill:#fee6df;fill-opacity:1;fill-rule:nonzero;stroke:none"
           id="path22938" />
        <path
           d="M 650.371,1783.54 V 1089.89 L 671.184,978.875"
           style="fill:#fee6df;fill-opacity:1;fill-rule:nonzero;stroke:none"
           id="path22940" />
        <path
           d="M 650.371,1783.54 671.184,978.875 V 1739.27"
           style="fill:#fee6df;fill-opacity:1;fill-rule:nonzero;stroke:none"
           id="path22942" />
        <path
           d="M 671.184,1739.27 V 978.875 l 20.812,-98.687"
           style="fill:#fee6df;fill-opacity:1;fill-rule:nonzero;stroke:none"
           id="path22944" />
        <path
           d="M 671.184,1739.27 691.996,880.188 V 1685.3"
           style="fill:#fee6df;fill-opacity:1;fill-rule:nonzero;stroke:none"
           id="path22946" />
        <path
           d="M 691.996,1685.3 V 880.188 l 20.813,-56.309"
           style="fill:#fee6df;fill-opacity:1;fill-rule:nonzero;stroke:none"
           id="path22948" />
        <path
           d="M 691.996,1685.3 712.809,823.879 V 1601.38"
           style="fill:#fee6df;fill-opacity:1;fill-rule:nonzero;stroke:none"
           id="path22950" />
        <path
           d="M 712.809,1601.38 V 823.879 l 20.812,-41.871"
           style="fill:#fee6df;fill-opacity:1;fill-rule:nonzero;stroke:none"
           id="path22952" />
        <path
           d="M 712.809,1601.38 733.621,782.008 V 1520"
           style="fill:#fee6df;fill-opacity:1;fill-rule:nonzero;stroke:none"
           id="path22954" />
        <path
           d="M 733.621,1520 V 782.008 l 20.809,-22.692"
           style="fill:#fee6df;fill-opacity:1;fill-rule:nonzero;stroke:none"
           id="path22956" />
        <path
           d="M 733.621,1520 754.43,759.316 v 676.764"
           style="fill:#fee6df;fill-opacity:1;fill-rule:nonzero;stroke:none"
           id="path22958" />
        <path
           d="M 754.43,1436.08 V 759.316 l 20.812,14.86"
           style="fill:#fee6df;fill-opacity:1;fill-rule:nonzero;stroke:none"
           id="path22960" />
        <path
           d="M 754.43,1436.08 775.242,774.176 V 1355.14"
           style="fill:#fee6df;fill-opacity:1;fill-rule:nonzero;stroke:none"
           id="path22962" />
        <path
           d="M 775.242,1355.14 V 774.176 l 20.813,43.109"
           style="fill:#fee6df;fill-opacity:1;fill-rule:nonzero;stroke:none"
           id="path22964" />
        <path
           d="M 775.242,1355.14 796.055,817.285 V 1262.37"
           style="fill:#fee6df;fill-opacity:1;fill-rule:nonzero;stroke:none"
           id="path22966" />
        <path
           d="M 796.055,1262.37 V 817.285 l 20.812,35.215"
           style="fill:#fee6df;fill-opacity:1;fill-rule:nonzero;stroke:none"
           id="path22968" />
        <path
           d="M 796.055,1262.37 816.867,852.5 v 364.99"
           style="fill:#fee6df;fill-opacity:1;fill-rule:nonzero;stroke:none"
           id="path22970" />
        <path
           d="M 816.867,1217.49 V 852.5 l 20.813,-8.023"
           style="fill:#fee6df;fill-opacity:1;fill-rule:nonzero;stroke:none"
           id="path22972" />
        <path
           d="M 816.867,1217.49 837.68,844.477 v 373.943"
           style="fill:#fee6df;fill-opacity:1;fill-rule:nonzero;stroke:none"
           id="path22974" />
        <path
           d="M 837.68,1218.42 V 844.477 l 20.808,-30.575"
           style="fill:#fee6df;fill-opacity:1;fill-rule:nonzero;stroke:none"
           id="path22976" />
        <path
           d="M 837.68,1218.42 858.488,813.902 V 1245.4"
           style="fill:#fee6df;fill-opacity:1;fill-rule:nonzero;stroke:none"
           id="path22978" />
        <path
           d="M 858.488,1245.4 V 813.902 l 20.813,-67.343"
           style="fill:#fee6df;fill-opacity:1;fill-rule:nonzero;stroke:none"
           id="path22980" />
        <path
           d="M 858.488,1245.4 879.301,746.559 V 1330.47"
           style="fill:#fee6df;fill-opacity:1;fill-rule:nonzero;stroke:none"
           id="path22982" />
        <path
           d="M 879.301,1330.47 V 746.559 l 20.812,-38.668"
           style="fill:#fee6df;fill-opacity:1;fill-rule:nonzero;stroke:none"
           id="path22984" />
        <path
           d="M 879.301,1330.47 900.113,707.891 V 1396.95"
           style="fill:#fee6df;fill-opacity:1;fill-rule:nonzero;stroke:none"
           id="path22986" />
        <path
           d="M 900.113,1396.95 V 707.891 l 20.813,-5.84"
           style="fill:#fee6df;fill-opacity:1;fill-rule:nonzero;stroke:none"
           id="path22988" />
        <path
           d="M 900.113,1396.95 920.926,702.051 V 1425.23"
           style="fill:#fee6df;fill-opacity:1;fill-rule:nonzero;stroke:none"
           id="path22990" />
        <path
           d="M 920.926,1425.23 V 702.051 l 20.812,30.562"
           style="fill:#fee6df;fill-opacity:1;fill-rule:nonzero;stroke:none"
           id="path22992" />
        <path
           d="M 920.926,1425.23 941.738,732.613 V 1419.63"
           style="fill:#fee6df;fill-opacity:1;fill-rule:nonzero;stroke:none"
           id="path22994" />
        <path
           d="M 941.738,1419.63 V 732.613 l 20.809,90.215"
           style="fill:#fee6df;fill-opacity:1;fill-rule:nonzero;stroke:none"
           id="path22996" />
        <path
           d="M 941.738,1419.63 962.547,822.828 V 1387.33"
           style="fill:#fee6df;fill-opacity:1;fill-rule:nonzero;stroke:none"
           id="path22998" />
        <path
           d="M 962.547,1387.33 V 822.828 L 983.359,934.5"
           style="fill:#fee6df;fill-opacity:1;fill-rule:nonzero;stroke:none"
           id="path23000" />
        <path
           d="M 962.547,1387.33 983.359,934.5 v 397.47"
           style="fill:#fee6df;fill-opacity:1;fill-rule:nonzero;stroke:none"
           id="path23002" />
        <path
           d="M 983.359,1331.97 V 934.5 l 20.811,41.773"
           style="fill:#fee6df;fill-opacity:1;fill-rule:nonzero;stroke:none"
           id="path23004" />
        <path
           d="M 983.359,1331.97 1004.17,976.273 V 1348.27"
           style="fill:#fee6df;fill-opacity:1;fill-rule:nonzero;stroke:none"
           id="path23006" />
        <path
           d="M 1004.17,1348.27 V 976.273 l 20.81,28.437"
           style="fill:#fee6df;fill-opacity:1;fill-rule:nonzero;stroke:none"
           id="path23008" />
        <path
           d="m 1004.17,1348.27 20.81,-343.56 v 357.98"
           style="fill:#fee6df;fill-opacity:1;fill-rule:nonzero;stroke:none"
           id="path23010" />
        <path
           d="m 1024.98,1362.69 v -357.98 l 20.82,12.65"
           style="fill:#fee6df;fill-opacity:1;fill-rule:nonzero;stroke:none"
           id="path23012" />
        <path
           d="m 1024.98,1362.69 20.82,-345.33 v 353.84"
           style="fill:#fee6df;fill-opacity:1;fill-rule:nonzero;stroke:none"
           id="path23014" />
        <path
           d="m 1045.8,1371.2 v -353.84 l 20.81,-12.9"
           style="fill:#fee6df;fill-opacity:1;fill-rule:nonzero;stroke:none"
           id="path23016" />
        <path
           d="m 1045.8,1371.2 20.81,-366.74 V 1381"
           style="fill:#fee6df;fill-opacity:1;fill-rule:nonzero;stroke:none"
           id="path23018" />
        <path
           d="m 1066.61,1381 v -376.54 l 20.81,-34.632"
           style="fill:#fee6df;fill-opacity:1;fill-rule:nonzero;stroke:none"
           id="path23020" />
        <path
           d="m 1066.61,1381 20.81,-411.172 v 449.452"
           style="fill:#fee6df;fill-opacity:1;fill-rule:nonzero;stroke:none"
           id="path23022" />
        <path
           d="M 1087.42,1419.28 V 969.828 l 20.81,-8.18"
           style="fill:#fee6df;fill-opacity:1;fill-rule:nonzero;stroke:none"
           id="path23024" />
        <path
           d="m 1087.42,1419.28 20.81,-457.632 V 1435.6"
           style="fill:#fee6df;fill-opacity:1;fill-rule:nonzero;stroke:none"
           id="path23026" />
        <path
           d="M 1108.23,1435.6 V 961.648 l 20.81,10.348"
           style="fill:#fee6df;fill-opacity:1;fill-rule:nonzero;stroke:none"
           id="path23028" />
        <path
           d="m 1108.23,1435.6 20.81,-463.604 V 1428.5"
           style="fill:#fee6df;fill-opacity:1;fill-rule:nonzero;stroke:none"
           id="path23030" />
        <path
           d="M 1129.04,1428.5 V 971.996 l 20.82,15.203"
           style="fill:#fee6df;fill-opacity:1;fill-rule:nonzero;stroke:none"
           id="path23032" />
        <path
           d="m 1129.04,1428.5 20.82,-441.301 v 417.011"
           style="fill:#fee6df;fill-opacity:1;fill-rule:nonzero;stroke:none"
           id="path23034" />
        <path
           d="M 1149.86,1404.21 V 987.199 l 20.81,15.111"
           style="fill:#fee6df;fill-opacity:1;fill-rule:nonzero;stroke:none"
           id="path23036" />
        <path
           d="m 1149.86,1404.21 20.81,-401.9 v 371.52"
           style="fill:#fee6df;fill-opacity:1;fill-rule:nonzero;stroke:none"
           id="path23038" />
        <path
           d="m 1170.67,1373.83 v -371.52 l 20.81,0.82"
           style="fill:#fee6df;fill-opacity:1;fill-rule:nonzero;stroke:none"
           id="path23040" />
        <path
           d="m 1170.67,1373.83 20.81,-370.7 v 367.44"
           style="fill:#fee6df;fill-opacity:1;fill-rule:nonzero;stroke:none"
           id="path23042" />
        <path
           d="m 1191.48,1370.57 v -367.44 l 20.81,0.65"
           style="fill:#fee6df;fill-opacity:1;fill-rule:nonzero;stroke:none"
           id="path23044" />
        <path
           d="m 1191.48,1370.57 20.81,-366.79 v 355.72"
           style="fill:#fee6df;fill-opacity:1;fill-rule:nonzero;stroke:none"
           id="path23046" />
        <path
           d="m 1212.29,1359.5 v -355.72 l 20.81,7.98"
           style="fill:#fee6df;fill-opacity:1;fill-rule:nonzero;stroke:none"
           id="path23048" />
        <path
           d="m 1212.29,1359.5 20.81,-347.74 v 311.16"
           style="fill:#fee6df;fill-opacity:1;fill-rule:nonzero;stroke:none"
           id="path23050" />
        <path
           d="m 1233.1,1322.92 v -311.16 l 20.81,34.26"
           style="fill:#fee6df;fill-opacity:1;fill-rule:nonzero;stroke:none"
           id="path23052" />
        <path
           d="m 1233.1,1322.92 20.81,-276.9 v 242.75"
           style="fill:#fee6df;fill-opacity:1;fill-rule:nonzero;stroke:none"
           id="path23054" />
        <path
           d="m 1253.91,1288.77 v -242.75 l 20.82,-2.88"
           style="fill:#fee6df;fill-opacity:1;fill-rule:nonzero;stroke:none"
           id="path23056" />
        <path
           d="m 1253.91,1288.77 20.82,-245.63 v 225.92"
           style="fill:#fee6df;fill-opacity:1;fill-rule:nonzero;stroke:none"
           id="path23058" />
        <path
           d="m 1274.73,1269.06 v -225.92 l 20.81,34.29"
           style="fill:#fee6df;fill-opacity:1;fill-rule:nonzero;stroke:none"
           id="path23060" />
        <path
           d="m 1274.73,1269.06 20.81,-191.63 v 201.05"
           style="fill:#fee6df;fill-opacity:1;fill-rule:nonzero;stroke:none"
           id="path23062" />
        <path
           d="m 1295.54,1278.48 v -201.05 l 20.81,-4.88"
           style="fill:#fee6df;fill-opacity:1;fill-rule:nonzero;stroke:none"
           id="path23064" />
        <path
           d="m 1295.54,1278.48 20.81,-205.93 v 196.61"
           style="fill:#fee6df;fill-opacity:1;fill-rule:nonzero;stroke:none"
           id="path23066" />
        <path
           d="m 1316.35,1269.16 v -196.61 l 20.81,-14.68"
           style="fill:#fee6df;fill-opacity:1;fill-rule:nonzero;stroke:none"
           id="path23068" />
        <path
           d="m 1316.35,1269.16 20.81,-211.29 v 208.55"
           style="fill:#fee6df;fill-opacity:1;fill-rule:nonzero;stroke:none"
           id="path23070" />
        <path
           d="m 1337.16,1266.42 v -208.55 l 20.81,-41.04"
           style="fill:#fee6df;fill-opacity:1;fill-rule:nonzero;stroke:none"
           id="path23072" />
        <path
           d="m 1337.16,1266.42 20.81,-249.59 v 276.51"
           style="fill:#fee6df;fill-opacity:1;fill-rule:nonzero;stroke:none"
           id="path23074" />
        <path
           d="m 1357.97,1293.34 v -276.51 l 20.82,-13.72"
           style="fill:#fee6df;fill-opacity:1;fill-rule:nonzero;stroke:none"
           id="path23076" />
        <path
           d="m 1357.97,1293.34 20.82,-290.23 v 309.02"
           style="fill:#fee6df;fill-opacity:1;fill-rule:nonzero;stroke:none"
           id="path23078" />
        <path
           d="m 1378.79,1312.13 v -309.02 l 20.81,0.19"
           style="fill:#fee6df;fill-opacity:1;fill-rule:nonzero;stroke:none"
           id="path23080" />
        <path
           d="m 1378.79,1312.13 20.81,-308.83 v 308.39"
           style="fill:#fee6df;fill-opacity:1;fill-rule:nonzero;stroke:none"
           id="path23082" />
        <path
           d="M 1399.6,1311.69 V 1003.3 l 20.81,15.02"
           style="fill:#fee6df;fill-opacity:1;fill-rule:nonzero;stroke:none"
           id="path23084" />
        <path
           d="m 1399.6,1311.69 20.81,-293.37 v 282.57"
           style="fill:#fee6df;fill-opacity:1;fill-rule:nonzero;stroke:none"
           id="path23086" />
        <path
           d="m 1420.41,1300.89 v -282.57 l 20.81,29.21"
           style="fill:#fee6df;fill-opacity:1;fill-rule:nonzero;stroke:none"
           id="path23088" />
        <path
           d="m 1420.41,1300.89 20.81,-253.36 v 240.05"
           style="fill:#fee6df;fill-opacity:1;fill-rule:nonzero;stroke:none"
           id="path23090" />
        <path
           d="m 1441.22,1287.58 v -240.05 l 20.81,31.85"
           style="fill:#fee6df;fill-opacity:1;fill-rule:nonzero;stroke:none"
           id="path23092" />
        <path
           d="m 1441.22,1287.58 20.81,-208.2 v 196.39"
           style="fill:#fee6df;fill-opacity:1;fill-rule:nonzero;stroke:none"
           id="path23094" />
        <path
           d="m 1462.03,1275.77 v -196.39 l 20.81,19.45"
           style="fill:#fee6df;fill-opacity:1;fill-rule:nonzero;stroke:none"
           id="path23096" />
        <path
           d="m 1462.03,1275.77 20.81,-176.94 v 176.08"
           style="fill:#fee6df;fill-opacity:1;fill-rule:nonzero;stroke:none"
           id="path23098" />
        <path
           d="m 1482.84,1274.91 v -176.08 l 20.82,9.67"
           style="fill:#fee6df;fill-opacity:1;fill-rule:nonzero;stroke:none"
           id="path23100" />
        <path
           d="m 1482.84,1274.91 20.82,-166.41 v 165.45"
           style="fill:#fee6df;fill-opacity:1;fill-rule:nonzero;stroke:none"
           id="path23102" />
        <path
           d="M 1503.66,1273.95 V 1108.5 l 20.8,10.14"
           style="fill:#fee6df;fill-opacity:1;fill-rule:nonzero;stroke:none"
           id="path23104" />
        <path
           d="m 1503.66,1273.95 20.8,-155.31 v 156.02"
           style="fill:#fee6df;fill-opacity:1;fill-rule:nonzero;stroke:none"
           id="path23106" />
        <path
           d="m 1524.46,1274.66 v -156.02 l 20.82,15.03"
           style="fill:#fee6df;fill-opacity:1;fill-rule:nonzero;stroke:none"
           id="path23108" />
        <path
           d="m 1524.46,1274.66 20.82,-140.99 v 144.38"
           style="fill:#fee6df;fill-opacity:1;fill-rule:nonzero;stroke:none"
           id="path23110" />
        <path
           d="m 1545.28,1278.05 v -144.38 l 20.81,10.62"
           style="fill:#fee6df;fill-opacity:1;fill-rule:nonzero;stroke:none"
           id="path23112" />
        <path
           d="m 1545.28,1278.05 20.81,-133.76 v 136.84"
           style="fill:#fee6df;fill-opacity:1;fill-rule:nonzero;stroke:none"
           id="path23114" />
        <path
           d="m 1566.09,1281.13 v -136.84 l 20.81,9.42"
           style="fill:#fee6df;fill-opacity:1;fill-rule:nonzero;stroke:none"
           id="path23116" />
        <path
           d="m 1566.09,1281.13 20.81,-127.42 v 133.76"
           style="fill:#fee6df;fill-opacity:1;fill-rule:nonzero;stroke:none"
           id="path23118" />
        <path
           d="m 1586.9,1287.47 v -133.76 l 20.81,4.53"
           style="fill:#fee6df;fill-opacity:1;fill-rule:nonzero;stroke:none"
           id="path23120" />
        <path
           d="m 1586.9,1287.47 20.81,-129.23 v 132.8"
           style="fill:#fee6df;fill-opacity:1;fill-rule:nonzero;stroke:none"
           id="path23122" />
        <path
           d="m 1607.71,1291.04 v -132.8 l 20.82,8.84"
           style="fill:#fee6df;fill-opacity:1;fill-rule:nonzero;stroke:none"
           id="path23124" />
        <path
           d="m 1607.71,1291.04 20.82,-123.96 v 136.12"
           style="fill:#fee6df;fill-opacity:1;fill-rule:nonzero;stroke:none"
           id="path23126" />
        <path
           d="m 1628.53,1303.2 v -136.12 l 20.81,15.17"
           style="fill:#fee6df;fill-opacity:1;fill-rule:nonzero;stroke:none"
           id="path23128" />
        <path
           d="m 1628.53,1303.2 20.81,-120.95 v 130.33"
           style="fill:#fee6df;fill-opacity:1;fill-rule:nonzero;stroke:none"
           id="path23130" />
        <path
           d="m 1649.34,1312.58 v -130.33 l 20.81,6.06"
           style="fill:#fee6df;fill-opacity:1;fill-rule:nonzero;stroke:none"
           id="path23132" />
        <path
           d="m 1649.34,1312.58 20.81,-124.27 v 124.73"
           style="fill:#fee6df;fill-opacity:1;fill-rule:nonzero;stroke:none"
           id="path23134" />
        <path
           d="m 1670.15,1313.04 v -124.73 l 20.81,7.83"
           style="fill:#fee6df;fill-opacity:1;fill-rule:nonzero;stroke:none"
           id="path23136" />
        <path
           d="m 1670.15,1313.04 20.81,-116.9 v 120.66"
           style="fill:#fee6df;fill-opacity:1;fill-rule:nonzero;stroke:none"
           id="path23138" />
        <path
           d="m 1690.96,1316.8 v -120.66 l 20.81,-7.06"
           style="fill:#fee6df;fill-opacity:1;fill-rule:nonzero;stroke:none"
           id="path23140" />
        <path
           d="m 1690.96,1316.8 20.81,-127.72 v 120.12"
           style="fill:#fee6df;fill-opacity:1;fill-rule:nonzero;stroke:none"
           id="path23142" />
        <path
           d="m 1711.77,1309.2 v -120.12 l 20.82,-3.42"
           style="fill:#fee6df;fill-opacity:1;fill-rule:nonzero;stroke:none"
           id="path23144" />
        <path
           d="m 1711.77,1309.2 20.82,-123.54 v 120.54"
           style="fill:#fee6df;fill-opacity:1;fill-rule:nonzero;stroke:none"
           id="path23146" />
        <path
           d="m 1732.59,1306.2 v -120.54 l 20.8,-6.54"
           style="fill:#fee6df;fill-opacity:1;fill-rule:nonzero;stroke:none"
           id="path23148" />
        <path
           d="m 1732.59,1306.2 20.8,-127.08 v 119.45"
           style="fill:#fee6df;fill-opacity:1;fill-rule:nonzero;stroke:none"
           id="path23150" />
        <path
           d="m 1753.39,1298.57 v -119.45 l 20.82,-1.51"
           style="fill:#fee6df;fill-opacity:1;fill-rule:nonzero;stroke:none"
           id="path23152" />
        <path
           d="m 1753.39,1298.57 20.82,-120.96 v 121.19"
           style="fill:#fee6df;fill-opacity:1;fill-rule:nonzero;stroke:none"
           id="path23154" />
        <path
           d="m 1774.21,1298.8 v -121.19 l 20.81,-3.54"
           style="fill:#fee6df;fill-opacity:1;fill-rule:nonzero;stroke:none"
           id="path23156" />
        <path
           d="m 1774.21,1298.8 20.81,-124.73 v 115.26"
           style="fill:#fee6df;fill-opacity:1;fill-rule:nonzero;stroke:none"
           id="path23158" />
        <path
           d="m 1795.02,1289.33 v -115.26 l 20.81,-6.81"
           style="fill:#fee6df;fill-opacity:1;fill-rule:nonzero;stroke:none"
           id="path23160" />
        <path
           d="m 1795.02,1289.33 20.81,-122.07 v 111.13"
           style="fill:#fee6df;fill-opacity:1;fill-rule:nonzero;stroke:none"
           id="path23162" />
        <path
           d="m 1815.83,1278.39 v -111.13 l 20.81,2.61"
           style="fill:#fee6df;fill-opacity:1;fill-rule:nonzero;stroke:none"
           id="path23164" />
        <path
           d="m 1815.83,1278.39 20.81,-108.52 v 100.76"
           style="fill:#fee6df;fill-opacity:1;fill-rule:nonzero;stroke:none"
           id="path23166" />
        <path
           d="m 1836.64,1270.63 v -100.76 l 20.82,-2.72"
           style="fill:#fee6df;fill-opacity:1;fill-rule:nonzero;stroke:none"
           id="path23168" />
        <path
           d="m 1836.64,1270.63 20.82,-103.48 v 106.66"
           style="fill:#fee6df;fill-opacity:1;fill-rule:nonzero;stroke:none"
           id="path23170" />
        <path
           d="m 1857.46,1273.81 v -106.66 l 20.81,-3.77"
           style="fill:#fee6df;fill-opacity:1;fill-rule:nonzero;stroke:none"
           id="path23172" />
        <path
           d="m 1857.46,1273.81 20.81,-110.43 v 127.66"
           style="fill:#fee6df;fill-opacity:1;fill-rule:nonzero;stroke:none"
           id="path23174" />
        <path
           d="m 1878.27,1291.04 v -127.66 l 20.81,-1.37"
           style="fill:#fee6df;fill-opacity:1;fill-rule:nonzero;stroke:none"
           id="path23176" />
        <path
           d="m 1878.27,1291.04 20.81,-129.03 v 125.78"
           style="fill:#fee6df;fill-opacity:1;fill-rule:nonzero;stroke:none"
           id="path23178" />
        <path
           d="m 1899.08,1287.79 v -125.78 l 20.81,11.83"
           style="fill:#fee6df;fill-opacity:1;fill-rule:nonzero;stroke:none"
           id="path23180" />
        <path
           d="m 1899.08,1287.79 20.81,-113.95 v 116.81"
           style="fill:#fee6df;fill-opacity:1;fill-rule:nonzero;stroke:none"
           id="path23182" />
        <path
           d="m 1919.89,1290.65 v -116.81 l 20.81,15.25"
           style="fill:#fee6df;fill-opacity:1;fill-rule:nonzero;stroke:none"
           id="path23184" />
        <path
           d="m 1919.89,1290.65 20.81,-101.56 v 98.34"
           style="fill:#fee6df;fill-opacity:1;fill-rule:nonzero;stroke:none"
           id="path23186" />
        <path
           d="m 1940.7,1287.43 v -98.34 l 20.82,8.62"
           style="fill:#fee6df;fill-opacity:1;fill-rule:nonzero;stroke:none"
           id="path23188" />
        <path
           d="m 1940.7,1287.43 20.82,-89.72 v 87.23"
           style="fill:#fee6df;fill-opacity:1;fill-rule:nonzero;stroke:none"
           id="path23190" />
        <path
           d="m 1961.52,1284.94 v -87.23 l 20.8,4.69"
           style="fill:#fee6df;fill-opacity:1;fill-rule:nonzero;stroke:none"
           id="path23192" />
        <path
           d="m 1961.52,1284.94 20.8,-82.54 v 83.59"
           style="fill:#fee6df;fill-opacity:1;fill-rule:nonzero;stroke:none"
           id="path23194" />
        <path
           d="m 1982.32,1285.99 v -83.59 l 20.82,-3.82"
           style="fill:#fee6df;fill-opacity:1;fill-rule:nonzero;stroke:none"
           id="path23196" />
        <path
           d="m 1982.32,1285.99 20.82,-87.41 v 92.41"
           style="fill:#fee6df;fill-opacity:1;fill-rule:nonzero;stroke:none"
           id="path23198" />
        <path
           d="m 2003.14,1290.99 v -92.41 l 20.81,-0.78"
           style="fill:#fee6df;fill-opacity:1;fill-rule:nonzero;stroke:none"
           id="path23200" />
        <path
           d="m 2003.14,1290.99 20.81,-93.19 v 101.15"
           style="fill:#fee6df;fill-opacity:1;fill-rule:nonzero;stroke:none"
           id="path23202" />
        <path
           d="M 2023.95,1298.95 V 1197.8 l 20.81,-5.44"
           style="fill:#fee6df;fill-opacity:1;fill-rule:nonzero;stroke:none"
           id="path23204" />
        <path
           d="m 2023.95,1298.95 20.81,-106.59 v 105.46"
           style="fill:#fee6df;fill-opacity:1;fill-rule:nonzero;stroke:none"
           id="path23206" />
        <path
           d="m 2044.76,1297.82 v -105.46 l 20.81,7.88"
           style="fill:#fee6df;fill-opacity:1;fill-rule:nonzero;stroke:none"
           id="path23208" />
        <path
           d="m 2044.76,1297.82 20.81,-97.58 v 101.96"
           style="fill:#fee6df;fill-opacity:1;fill-rule:nonzero;stroke:none"
           id="path23210" />
        <path
           d="m 2065.57,1302.2 v -101.96 l 20.81,4.24"
           style="fill:#fee6df;fill-opacity:1;fill-rule:nonzero;stroke:none"
           id="path23212" />
        <path
           d="m 2065.57,1302.2 20.81,-97.72 v 93.82"
           style="fill:#fee6df;fill-opacity:1;fill-rule:nonzero;stroke:none"
           id="path23214" />
        <path
           d="m 2086.38,1298.3 v -93.82 l 20.82,-4.56"
           style="fill:#fee6df;fill-opacity:1;fill-rule:nonzero;stroke:none"
           id="path23216" />
        <path
           d="m 2086.38,1298.3 20.82,-98.38 v 90.69"
           style="fill:#fee6df;fill-opacity:1;fill-rule:nonzero;stroke:none"
           id="path23218" />
        <path
           d="m 2107.2,1290.61 v -90.69 l 20.81,7.62"
           style="fill:#fee6df;fill-opacity:1;fill-rule:nonzero;stroke:none"
           id="path23220" />
        <path
           d="m 2107.2,1290.61 20.81,-83.07 v 83.55"
           style="fill:#fee6df;fill-opacity:1;fill-rule:nonzero;stroke:none"
           id="path23222" />
        <path
           d="m 2128.01,1291.09 v -83.55 l 20.81,7.46"
           style="fill:#fee6df;fill-opacity:1;fill-rule:nonzero;stroke:none"
           id="path23224" />
        <path
           d="m 2128.01,1291.09 20.81,-76.09 v 75.43"
           style="fill:#fee6df;fill-opacity:1;fill-rule:nonzero;stroke:none"
           id="path23226" />
        <path
           d="M 2148.82,1290.43 V 1215 l 20.81,10.87"
           style="fill:#fee6df;fill-opacity:1;fill-rule:nonzero;stroke:none"
           id="path23228" />
        <path
           d="m 2148.82,1290.43 20.81,-64.56 v 71.94"
           style="fill:#fee6df;fill-opacity:1;fill-rule:nonzero;stroke:none"
           id="path23230" />
        <path
           d="m 2169.63,1297.81 v -71.94 l 20.82,6.63"
           style="fill:#fee6df;fill-opacity:1;fill-rule:nonzero;stroke:none"
           id="path23232" />
        <path
           d="m 2169.63,1297.81 20.82,-65.31 v 74.31"
           style="fill:#fee6df;fill-opacity:1;fill-rule:nonzero;stroke:none"
           id="path23234" />
        <path
           d="m 2190.45,1306.81 v -74.31 l 20.8,3.22"
           style="fill:#fee6df;fill-opacity:1;fill-rule:nonzero;stroke:none"
           id="path23236" />
        <path
           d="m 2190.45,1306.81 20.8,-71.09 v 77.83"
           style="fill:#fee6df;fill-opacity:1;fill-rule:nonzero;stroke:none"
           id="path23238" />
        <path
           d="m 2211.25,1313.55 v -77.83 l 20.82,1.82"
           style="fill:#fee6df;fill-opacity:1;fill-rule:nonzero;stroke:none"
           id="path23240" />
        <path
           d="m 2211.25,1313.55 20.82,-76.01 v 83.64"
           style="fill:#fee6df;fill-opacity:1;fill-rule:nonzero;stroke:none"
           id="path23242" />
        <path
           d="m 2232.07,1321.18 v -83.64 l 20.81,-1.33"
           style="fill:#fee6df;fill-opacity:1;fill-rule:nonzero;stroke:none"
           id="path23244" />
        <path
           d="m 2232.07,1321.18 20.81,-84.97 v 84.5"
           style="fill:#fee6df;fill-opacity:1;fill-rule:nonzero;stroke:none"
           id="path23246" />
        <path
           d="m 2252.88,1320.71 v -84.5 l 20.81,7.53"
           style="fill:#fee6df;fill-opacity:1;fill-rule:nonzero;stroke:none"
           id="path23248" />
        <path
           d="m 2252.88,1320.71 20.81,-76.97 v 78.53"
           style="fill:#fee6df;fill-opacity:1;fill-rule:nonzero;stroke:none"
           id="path23250" />
        <path
           d="m 2273.69,1322.27 v -78.53 l 20.81,-1.53"
           style="fill:#fee6df;fill-opacity:1;fill-rule:nonzero;stroke:none"
           id="path23252" />
        <path
           d="m 2273.69,1322.27 20.81,-80.06 v 73.26"
           style="fill:#fee6df;fill-opacity:1;fill-rule:nonzero;stroke:none"
           id="path23254" />
        <path
           d="m 2294.5,1315.47 v -73.26 l 20.81,-1.91"
           style="fill:#fee6df;fill-opacity:1;fill-rule:nonzero;stroke:none"
           id="path23256" />
        <path
           d="m 2294.5,1315.47 20.81,-75.17 v 70.55"
           style="fill:#fee6df;fill-opacity:1;fill-rule:nonzero;stroke:none"
           id="path23258" />
        <path
           d="m 2315.31,1310.85 v -70.55 l 20.82,-4.81"
           style="fill:#fee6df;fill-opacity:1;fill-rule:nonzero;stroke:none"
           id="path23260" />
        <path
           d="m 2315.31,1310.85 20.82,-75.36 v 71.73"
           style="fill:#fee6df;fill-opacity:1;fill-rule:nonzero;stroke:none"
           id="path23262" />
        <path
           d="m 2336.13,1307.22 v -71.73 l 20.81,-7.73"
           style="fill:#fee6df;fill-opacity:1;fill-rule:nonzero;stroke:none"
           id="path23264" />
        <path
           d="m 2336.13,1307.22 20.81,-79.46 v 72.88"
           style="fill:#fee6df;fill-opacity:1;fill-rule:nonzero;stroke:none"
           id="path23266" />
        <path
           d="m 2356.94,1300.64 v -72.88 l 20.81,-6.93"
           style="fill:#fee6df;fill-opacity:1;fill-rule:nonzero;stroke:none"
           id="path23268" />
        <path
           d="m 2356.94,1300.64 20.81,-79.81 v 75.52"
           style="fill:#fee6df;fill-opacity:1;fill-rule:nonzero;stroke:none"
           id="path23270" />
        <path
           d="m 2377.75,1296.35 v -75.52 l 20.81,7.9"
           style="fill:#fee6df;fill-opacity:1;fill-rule:nonzero;stroke:none"
           id="path23272" />
        <path
           d="m 2377.75,1296.35 20.81,-67.62 v 75.76"
           style="fill:#fee6df;fill-opacity:1;fill-rule:nonzero;stroke:none"
           id="path23274" />
        <path
           d="m 2398.56,1304.49 v -75.76 l 20.81,6.82"
           style="fill:#fee6df;fill-opacity:1;fill-rule:nonzero;stroke:none"
           id="path23276" />
        <path
           d="m 2398.56,1304.49 20.81,-68.94 v 73.64"
           style="fill:#fee6df;fill-opacity:1;fill-rule:nonzero;stroke:none"
           id="path23278" />
        <path
           d="m 2419.37,1309.19 v -73.64 l 20.81,7.78"
           style="fill:#fee6df;fill-opacity:1;fill-rule:nonzero;stroke:none"
           id="path23280" />
        <path
           d="m 2419.37,1309.19 20.81,-65.86 v 74.18"
           style="fill:#fee6df;fill-opacity:1;fill-rule:nonzero;stroke:none"
           id="path23282" />
        <path
           d="m 386.285,255.996 v 20.817"
           style="fill:none;stroke:#262626;stroke-width:4.66214;stroke-linecap:butt;stroke-linejoin:miter;stroke-miterlimit:10;stroke-dasharray:none;stroke-opacity:1"
           id="path23284" />
        <path
           d="m 386.285,1897.44 v -20.81"
           style="fill:none;stroke:#262626;stroke-width:4.66214;stroke-linecap:butt;stroke-linejoin:miter;stroke-miterlimit:10;stroke-dasharray:none;stroke-opacity:1"
           id="path23286" />
        <path
           d="m 797.066,255.996 v 20.817"
           style="fill:none;stroke:#262626;stroke-width:4.66214;stroke-linecap:butt;stroke-linejoin:miter;stroke-miterlimit:10;stroke-dasharray:none;stroke-opacity:1"
           id="path23288" />
        <path
           d="m 797.066,1897.44 v -20.81"
           style="fill:none;stroke:#262626;stroke-width:4.66214;stroke-linecap:butt;stroke-linejoin:miter;stroke-miterlimit:10;stroke-dasharray:none;stroke-opacity:1"
           id="path23290" />
        <path
           d="m 1207.85,255.996 v 20.817"
           style="fill:none;stroke:#262626;stroke-width:4.66214;stroke-linecap:butt;stroke-linejoin:miter;stroke-miterlimit:10;stroke-dasharray:none;stroke-opacity:1"
           id="path23292" />
        <path
           d="m 1207.85,1897.44 v -20.81"
           style="fill:none;stroke:#262626;stroke-width:4.66214;stroke-linecap:butt;stroke-linejoin:miter;stroke-miterlimit:10;stroke-dasharray:none;stroke-opacity:1"
           id="path23294" />
        <path
           d="m 1618.63,255.996 v 20.817"
           style="fill:none;stroke:#262626;stroke-width:4.66214;stroke-linecap:butt;stroke-linejoin:miter;stroke-miterlimit:10;stroke-dasharray:none;stroke-opacity:1"
           id="path23296" />
        <path
           d="m 1618.63,1897.44 v -20.81"
           style="fill:none;stroke:#262626;stroke-width:4.66214;stroke-linecap:butt;stroke-linejoin:miter;stroke-miterlimit:10;stroke-dasharray:none;stroke-opacity:1"
           id="path23298" />
        <path
           d="m 2029.4,255.996 v 20.817"
           style="fill:none;stroke:#262626;stroke-width:4.66214;stroke-linecap:butt;stroke-linejoin:miter;stroke-miterlimit:10;stroke-dasharray:none;stroke-opacity:1"
           id="path23300" />
        <path
           d="m 2029.4,1897.44 v -20.81"
           style="fill:none;stroke:#262626;stroke-width:4.66214;stroke-linecap:butt;stroke-linejoin:miter;stroke-miterlimit:10;stroke-dasharray:none;stroke-opacity:1"
           id="path23302" />
        <path
           d="m 2440.18,255.996 v 20.817"
           style="fill:none;stroke:#262626;stroke-width:4.66214;stroke-linecap:butt;stroke-linejoin:miter;stroke-miterlimit:10;stroke-dasharray:none;stroke-opacity:1"
           id="path23304" />
        <path
           d="m 2440.18,1897.44 v -20.81"
           style="fill:none;stroke:#262626;stroke-width:4.66214;stroke-linecap:butt;stroke-linejoin:miter;stroke-miterlimit:10;stroke-dasharray:none;stroke-opacity:1"
           id="path23306" />
        <g
           id="g23308"
           transform="scale(10)">
          <text
             transform="matrix(1,0,0,-1,29.3,13.9438)"
             style="font-variant:normal;font-weight:normal;font-size:9.32427px;font-family:Helvetica;-inkscape-font-specification:Helvetica;writing-mode:lr-tb;fill:#262626;fill-opacity:1;fill-rule:nonzero;stroke:none"
             id="text23312"><tspan
               x="0 3.1049819 8.2892761 13.47357 43.670311 46.775295 51.959587 84.748383 87.853363 93.037659 125.82608 128.93106 134.11536 166.90378 170.00876 175.19305 212.1264"
               y="0"
               sodipodi:role="line"
               id="tspan23310">-100-80-60-40-200</tspan></text>
        </g>
        <path
           d="m 359.008,255.996 h 20.828"
           style="fill:none;stroke:#262626;stroke-width:4.66214;stroke-linecap:butt;stroke-linejoin:miter;stroke-miterlimit:10;stroke-dasharray:none;stroke-opacity:1"
           id="path23314" />
        <path
           d="m 2440.18,255.996 h -20.82"
           style="fill:none;stroke:#262626;stroke-width:4.66214;stroke-linecap:butt;stroke-linejoin:miter;stroke-miterlimit:10;stroke-dasharray:none;stroke-opacity:1"
           id="path23316" />
        <path
           d="m 359.008,768.949 h 20.828"
           style="fill:none;stroke:#262626;stroke-width:4.66214;stroke-linecap:butt;stroke-linejoin:miter;stroke-miterlimit:10;stroke-dasharray:none;stroke-opacity:1"
           id="path23318" />
        <path
           d="m 2440.18,768.949 h -20.82"
           style="fill:none;stroke:#262626;stroke-width:4.66214;stroke-linecap:butt;stroke-linejoin:miter;stroke-miterlimit:10;stroke-dasharray:none;stroke-opacity:1"
           id="path23320" />
        <path
           d="m 359.008,1281.9 h 20.828"
           style="fill:none;stroke:#262626;stroke-width:4.66214;stroke-linecap:butt;stroke-linejoin:miter;stroke-miterlimit:10;stroke-dasharray:none;stroke-opacity:1"
           id="path23322" />
        <path
           d="m 2440.18,1281.9 h -20.82"
           style="fill:none;stroke:#262626;stroke-width:4.66214;stroke-linecap:butt;stroke-linejoin:miter;stroke-miterlimit:10;stroke-dasharray:none;stroke-opacity:1"
           id="path23324" />
        <path
           d="m 359.008,1794.85 h 20.828"
           style="fill:none;stroke:#262626;stroke-width:4.66214;stroke-linecap:butt;stroke-linejoin:miter;stroke-miterlimit:10;stroke-dasharray:none;stroke-opacity:1"
           id="path23326" />
        <path
           d="m 2440.18,1794.85 h -20.82"
           style="fill:none;stroke:#262626;stroke-width:4.66214;stroke-linecap:butt;stroke-linejoin:miter;stroke-miterlimit:10;stroke-dasharray:none;stroke-opacity:1"
           id="path23328" />
        <g
           id="g23330"
           transform="scale(10)">
          <text
             transform="matrix(1,0,0,-1,28.3836,20.9375)"
             style="font-variant:normal;font-weight:normal;font-size:9.32427px;font-family:Helvetica;-inkscape-font-specification:Helvetica;writing-mode:lr-tb;fill:#262626;fill-opacity:1;fill-rule:nonzero;stroke:none"
             id="text23340"><tspan
               x="0"
               y="0"
               id="tspan23332">0</tspan><tspan
               x="-12.9598 -7.775506 -5.1833587 0.00093530002"
               y="-51.2953"
               sodipodi:role="line"
               id="tspan23334">0.05</tspan><tspan
               x="-7.7758198 -2.5915258 0.00062117999"
               y="-102.5906"
               sodipodi:role="line"
               id="tspan23336">0.1</tspan><tspan
               x="-12.9598 -7.775506 -5.1833587 0.00093530002"
               y="-153.8855"
               sodipodi:role="line"
               id="tspan23338">0.15</tspan></text>
        </g>
        <path
           d="M 359.008,255.996 H 2440.18"
           style="fill:none;stroke:#262626;stroke-width:4.66214;stroke-linecap:butt;stroke-linejoin:miter;stroke-miterlimit:10;stroke-dasharray:74.5942, 0;stroke-dashoffset:0;stroke-opacity:1"
           id="path23342" />
        <path
           d="M 359.008,1897.44 H 2440.18"
           style="fill:none;stroke:#262626;stroke-width:4.66214;stroke-linecap:butt;stroke-linejoin:miter;stroke-miterlimit:10;stroke-dasharray:74.5942, 0;stroke-dashoffset:0;stroke-opacity:1"
           id="path23344" />
        <path
           d="M 359.008,255.996 V 1897.44"
           style="fill:none;stroke:#262626;stroke-width:4.66214;stroke-linecap:butt;stroke-linejoin:miter;stroke-miterlimit:10;stroke-dasharray:74.5942, 0;stroke-dashoffset:0;stroke-opacity:1"
           id="path23346" />
        <path
           d="M 2440.18,255.996 V 1897.44"
           style="fill:none;stroke:#262626;stroke-width:4.66214;stroke-linecap:butt;stroke-linejoin:miter;stroke-miterlimit:10;stroke-dasharray:74.5942, 0;stroke-dashoffset:0;stroke-opacity:1"
           id="path23348" />
        <path
           d="m 359.008,255.996 20.812,0.699 20.809,9.84 20.812,37.313 20.813,86.453 20.812,127.558 20.813,175.727 20.812,189.172 20.809,180.602 20.813,173.73 20.812,139.89 20.813,102.95 20.812,25.76 20.809,-11.03 20.812,-57.95 20.813,-77.64 20.812,-76.32 20.813,-70.12 20.812,-61.62 20.809,-53.31 20.812,-33.04 20.813,-24.83 20.812,-4.83 20.813,-3.55 20.808,-1.8 20.813,8.87 20.812,13.9 20.813,11.22 20.812,12.48 20.809,28.96 20.812,28.15 20.811,29.04 20.81,21.43 20.82,10.58 20.81,-1.55 20.81,1.82 20.81,4.08 20.81,1.62 20.82,-4.54 20.81,-7.64 20.81,-1.21 20.81,-5.22 20.81,-14.3 20.81,0.05 20.82,-11.29 20.81,21.86 20.81,-7.11 20.81,-8.71 20.81,-7.06 20.82,2.54 20.81,-0.12 20.81,2.11 20.81,7.95 20.81,10.01 20.81,9.3 20.82,4.35 20.8,5.43 20.82,9.21 20.81,6.85 20.81,7.88 20.81,4.05 20.82,10.5 20.81,12.27 20.81,3.27 20.81,5.79 20.81,-7.33 20.82,-3.21 20.8,-7.08 20.82,-0.65 20.81,-6.5 20.81,-8.88 20.81,-2.57 20.82,0.23 20.81,6.73 20.81,-2.31 20.81,7.35 20.81,6 20.82,3.07 20.8,2.88 20.82,0.59 20.81,3.59 20.81,-3.29 20.81,6.13 20.81,0.17 20.82,-6.12 20.81,4.05 20.81,3.39 20.81,9.13 20.82,7.81 20.8,4.98 20.82,4.73 20.81,-0.9 20.81,4.54 20.81,-4.16 20.81,-3.27 20.82,-4.21 20.81,-7.16 20.81,-5.61 20.81,8.02 20.81,5.76 20.81,8.05"
           style="fill:none;stroke:#fb8962;stroke-width:9.32427;stroke-linecap:butt;stroke-linejoin:miter;stroke-miterlimit:10;stroke-dasharray:none;stroke-opacity:1"
           id="path23350" />
      </g>
    </g>
    <text
       style="font-variant:normal;font-weight:normal;font-size:3.5146px;font-family:LMMathItalic10;-inkscape-font-specification:LMMathItalic10-Regular;writing-mode:lr-tb;fill:#231f20;fill-opacity:1;fill-rule:nonzero;stroke:none;stroke-width:0.352778"
       id="text23392"
       x="91.481384"
       y="106.01966"><tspan
         x="91.481384"
         y="106.01966"
         id="tspan23390"
         style="stroke-width:0.352778">t</tspan></text>
    <text
       style="font-variant:normal;font-weight:normal;font-size:2.46022px;font-family:LMRoman7;-inkscape-font-specification:LMRoman7-Regular;writing-mode:lr-tb;fill:#231f20;fill-opacity:1;fill-rule:nonzero;stroke:none;stroke-width:0.352778"
       id="text23396"
       x="92.751389"
       y="106.54676"><tspan
         x="92.751389 93.866844 94.96434 96.363434 97.460938"
         y="106.54676"
         sodipodi:role="line"
         id="tspan23394"
         style="stroke-width:0.352778">start</tspan></text>
    <g
       id="g24789"
       transform="matrix(0,-0.3844488,0.3844488,0,34.848635,107.62353)">
      <g
         style="fill:#000000;fill-opacity:1"
         id="id-e9a1dc0a-03a9-4cdf-9aec-062252a4847f"
         transform="matrix(1.1814,0,0,1.1814,-120.84029,-26.812555)">
        <g
           transform="translate(148.712,134.765)"
           id="g24517">
          <path
             style="stroke:none"
             d="m 7.578125,-6.921875 c 0,-0.03125 -0.015625,-0.109375 -0.109375,-0.109375 -0.03125,0 -0.046875,0.015625 -0.15625,0.125 L 6.625,-6.140625 C 6.53125,-6.28125 6.078125,-7.03125 4.96875,-7.03125 2.734375,-7.03125 0.5,-4.828125 0.5,-2.515625 0.5,-0.875 1.671875,0.21875 3.203125,0.21875 c 0.859375,0 1.625,-0.390625 2.15625,-0.859375 0.921875,-0.8125 1.09375,-1.71875 1.09375,-1.75 C 6.453125,-2.5 6.34375,-2.5 6.328125,-2.5 c -0.0625,0 -0.109375,0.03125 -0.125,0.109375 -0.09375,0.28125 -0.328125,1 -1.015625,1.578125 -0.6875,0.546875 -1.3125,0.71875 -1.828125,0.71875 -0.890625,0 -1.953125,-0.515625 -1.953125,-2.0625 0,-0.578125 0.203125,-2.1875 1.203125,-3.359375 0.609375,-0.703125 1.546875,-1.203125 2.4375,-1.203125 1.015625,0 1.609375,0.765625 1.609375,1.921875 0,0.40625 -0.03125,0.40625 -0.03125,0.515625 0,0.09375 0.109375,0.09375 0.140625,0.09375 0.125,0 0.125,-0.015625 0.1875,-0.203125 z m 0,0"
             id="id-f8226c27-bd11-47f2-907c-95725e38545f" />
        </g>
      </g>
      <g
         style="fill:#000000;fill-opacity:1"
         id="id-73294916-ca32-43d7-a39b-e685d1ef9515"
         transform="matrix(1.1814,0,0,1.1814,-120.84029,-26.812555)">
        <g
           transform="translate(155.833,137.987)"
           id="g24521">
          <path
             style="stroke:none"
             d="m 2.078125,-1.9375 c 0.21875,0.046875 1.03125,0.203125 1.03125,0.921875 0,0.5 -0.34375,0.90625 -1.125,0.90625 -0.84375,0 -1.203125,-0.5625 -1.390625,-1.421875 C 0.5625,-1.65625 0.5625,-1.6875 0.453125,-1.6875 c -0.125,0 -0.125,0.0625 -0.125,0.234375 V -0.125 c 0,0.171875 0,0.234375 0.109375,0.234375 0.046875,0 0.0625,-0.015625 0.25,-0.203125 0.015625,-0.015625 0.015625,-0.03125 0.203125,-0.21875 0.4375,0.40625 0.890625,0.421875 1.09375,0.421875 1.140625,0 1.609375,-0.671875 1.609375,-1.390625 0,-0.515625 -0.296875,-0.828125 -0.421875,-0.9375 C 2.84375,-2.546875 2.453125,-2.625 2.03125,-2.703125 1.46875,-2.8125 0.8125,-2.9375 0.8125,-3.515625 c 0,-0.359375 0.25,-0.765625 1.109375,-0.765625 1.09375,0 1.15625,0.90625 1.171875,1.203125 0,0.09375 0.09375,0.09375 0.109375,0.09375 0.140625,0 0.140625,-0.046875 0.140625,-0.234375 v -1.015625 c 0,-0.15625 0,-0.234375 -0.109375,-0.234375 -0.046875,0 -0.078125,0 -0.203125,0.125 -0.03125,0.03125 -0.125,0.125 -0.171875,0.15625 -0.375,-0.28125 -0.78125,-0.28125 -0.9375,-0.28125 -1.21875,0 -1.59375,0.671875 -1.59375,1.234375 0,0.34375 0.15625,0.625 0.421875,0.84375 0.328125,0.25 0.609375,0.3125 1.328125,0.453125 z m 0,0"
             id="id-5d70f2e2-d28f-4850-b5c9-c9444d37d317" />
        </g>
        <g
           transform="translate(159.762,137.987)"
           id="g24524">
          <path
             style="stroke:none"
             d="M 1.765625,-4.40625 0.375,-4.296875 v 0.3125 c 0.640625,0 0.734375,0.0625 0.734375,0.546875 V -0.75 c 0,0.4375 -0.109375,0.4375 -0.78125,0.4375 V 0 C 0.640625,-0.015625 1.1875,-0.03125 1.421875,-0.03125 1.78125,-0.03125 2.125,-0.015625 2.46875,0 v -0.3125 c -0.671875,0 -0.703125,-0.046875 -0.703125,-0.4375 z m 0.03125,-1.734375 c 0,-0.3125 -0.234375,-0.53125 -0.515625,-0.53125 -0.3125,0 -0.53125,0.265625 -0.53125,0.53125 0,0.265625 0.21875,0.53125 0.53125,0.53125 0.28125,0 0.515625,-0.21875 0.515625,-0.53125 z m 0,0"
             id="id-1d03afd9-1a20-462b-9b31-ddf49badad0f" />
        </g>
        <g
           transform="translate(162.53,137.987)"
           id="g24527">
          <path
             style="stroke:none"
             d="M 1.09375,-3.421875 V -0.75 c 0,0.4375 -0.109375,0.4375 -0.78125,0.4375 V 0 c 0.359375,-0.015625 0.859375,-0.03125 1.140625,-0.03125 0.25,0 0.765625,0.015625 1.109375,0.03125 v -0.3125 c -0.671875,0 -0.78125,0 -0.78125,-0.4375 V -2.59375 C 1.78125,-3.625 2.5,-4.1875 3.125,-4.1875 c 0.640625,0 0.75,0.53125 0.75,1.109375 V -0.75 c 0,0.4375 -0.109375,0.4375 -0.78125,0.4375 V 0 c 0.34375,-0.015625 0.859375,-0.03125 1.125,-0.03125 0.25,0 0.78125,0.015625 1.109375,0.03125 v -0.3125 c -0.65625,0 -0.765625,0 -0.765625,-0.4375 v -1.84375 c 0,-1.03125 0.703125,-1.59375 1.34375,-1.59375 0.625,0 0.734375,0.53125 0.734375,1.109375 V -0.75 c 0,0.4375 -0.109375,0.4375 -0.78125,0.4375 V 0 c 0.34375,-0.015625 0.859375,-0.03125 1.125,-0.03125 0.265625,0 0.78125,0.015625 1.125,0.03125 v -0.3125 c -0.515625,0 -0.765625,0 -0.78125,-0.296875 v -1.90625 c 0,-0.859375 0,-1.15625 -0.3125,-1.515625 -0.140625,-0.171875 -0.46875,-0.375 -1.046875,-0.375 -0.828125,0 -1.28125,0.59375 -1.4375,0.984375 C 4.390625,-4.296875 3.65625,-4.40625 3.203125,-4.40625 2.46875,-4.40625 2,-3.984375 1.71875,-3.359375 V -4.40625 L 0.3125,-4.296875 v 0.3125 c 0.703125,0 0.78125,0.0625 0.78125,0.5625 z m 0,0"
             id="id-0f835449-5937-4371-956c-33a3bddfe357" />
        </g>
      </g>
      <g
         style="fill:#000000;fill-opacity:1"
         id="id-4a41a7e9-5963-4e20-a2ae-351dadfe3755"
         transform="matrix(1.1814,0,0,1.1814,-120.84029,-26.812555)">
        <g
           transform="translate(174.651,134.765)"
           id="g24531">
          <path
             style="stroke:none"
             d="m 3.296875,2.390625 c 0,-0.03125 0,-0.046875 -0.171875,-0.21875 C 1.890625,0.921875 1.5625,-0.96875 1.5625,-2.5 c 0,-1.734375 0.375,-3.46875 1.609375,-4.703125 0.125,-0.125 0.125,-0.140625 0.125,-0.171875 0,-0.078125 -0.03125,-0.109375 -0.09375,-0.109375 -0.109375,0 -1,0.6875 -1.59375,1.953125 -0.5,1.09375 -0.625,2.203125 -0.625,3.03125 0,0.78125 0.109375,1.984375 0.65625,3.125 C 2.25,1.84375 3.09375,2.5 3.203125,2.5 c 0.0625,0 0.09375,-0.03125 0.09375,-0.109375 z m 0,0"
             id="id-fba500b2-623e-4532-b362-2b5af53dee48" />
        </g>
        <g
           transform="translate(178.525,134.765)"
           id="g24534">
          <path
             style="stroke:none"
             d="m 1.71875,-3.75 v -0.65625 l -1.4375,0.109375 v 0.3125 c 0.703125,0 0.78125,0.0625 0.78125,0.5 v 4.65625 C 1.0625,1.625 0.953125,1.625 0.28125,1.625 V 1.9375 C 0.625,1.921875 1.140625,1.90625 1.390625,1.90625 c 0.28125,0 0.78125,0.015625 1.125,0.03125 V 1.625 C 1.859375,1.625 1.75,1.625 1.75,1.171875 V -0.59375 c 0.046875,0.171875 0.46875,0.703125 1.21875,0.703125 1.1875,0 2.21875,-0.984375 2.21875,-2.265625 0,-1.265625 -0.953125,-2.25 -2.078125,-2.25 -0.78125,0 -1.203125,0.4375 -1.390625,0.65625 z M 1.75,-1.140625 v -2.21875 C 2.03125,-3.875 2.515625,-4.15625 3.03125,-4.15625 c 0.734375,0 1.328125,0.875 1.328125,2 0,1.203125 -0.6875,2.046875 -1.421875,2.046875 -0.40625,0 -0.78125,-0.203125 -1.046875,-0.609375 C 1.75,-0.921875 1.75,-0.9375 1.75,-1.140625 Z m 0,0"
             id="id-87c4bc66-23d0-4b18-9357-347ca327af8a" />
        </g>
        <g
           transform="translate(184.061,134.765)"
           id="g24537">
          <path
             style="stroke:none"
             d="M 1.09375,-3.421875 V -0.75 c 0,0.4375 -0.109375,0.4375 -0.78125,0.4375 V 0 c 0.359375,-0.015625 0.859375,-0.03125 1.140625,-0.03125 0.25,0 0.765625,0.015625 1.109375,0.03125 v -0.3125 c -0.671875,0 -0.78125,0 -0.78125,-0.4375 V -2.59375 C 1.78125,-3.625 2.5,-4.1875 3.125,-4.1875 c 0.640625,0 0.75,0.53125 0.75,1.109375 V -0.75 c 0,0.4375 -0.109375,0.4375 -0.78125,0.4375 V 0 c 0.34375,-0.015625 0.859375,-0.03125 1.125,-0.03125 0.25,0 0.78125,0.015625 1.109375,0.03125 v -0.3125 c -0.65625,0 -0.765625,0 -0.765625,-0.4375 v -1.84375 c 0,-1.03125 0.703125,-1.59375 1.34375,-1.59375 0.625,0 0.734375,0.53125 0.734375,1.109375 V -0.75 c 0,0.4375 -0.109375,0.4375 -0.78125,0.4375 V 0 c 0.34375,-0.015625 0.859375,-0.03125 1.125,-0.03125 0.265625,0 0.78125,0.015625 1.125,0.03125 v -0.3125 c -0.515625,0 -0.765625,0 -0.78125,-0.296875 v -1.90625 c 0,-0.859375 0,-1.15625 -0.3125,-1.515625 -0.140625,-0.171875 -0.46875,-0.375 -1.046875,-0.375 -0.828125,0 -1.28125,0.59375 -1.4375,0.984375 C 4.390625,-4.296875 3.65625,-4.40625 3.203125,-4.40625 2.46875,-4.40625 2,-3.984375 1.71875,-3.359375 V -4.40625 L 0.3125,-4.296875 v 0.3125 c 0.703125,0 0.78125,0.0625 0.78125,0.5625 z m 0,0"
             id="id-32372a3f-23df-4c0c-bc97-8ce813a0b882" />
        </g>
      </g>
      <g
         style="fill:#000000;fill-opacity:1"
         id="id-10a13929-9bea-42c4-8662-36a721ee83ad"
         transform="matrix(1.1814,0,0,1.1814,-120.84029,-26.812555)">
        <g
           transform="translate(192.363,131.15)"
           id="g24541">
          <path
             style="stroke:none"
             d="m 5.1875,-1.578125 c 0.109375,0 0.28125,0 0.28125,-0.15625 0,-0.1875 -0.171875,-0.1875 -0.28125,-0.1875 H 1.03125 c -0.109375,0 -0.28125,0 -0.28125,0.171875 0,0.171875 0.15625,0.171875 0.28125,0.171875 z m 0,0"
             id="id-4e3fa215-1d60-46b0-8d59-5de2a72f2d01" />
        </g>
      </g>
      <g
         style="fill:#000000;fill-opacity:1"
         id="id-9f63067a-1004-4105-98e0-f4f815dd023e"
         transform="matrix(1.1814,0,0,1.1814,-120.84029,-26.812555)">
        <g
           transform="translate(198.589,131.15)"
           id="g24545">
          <path
             style="stroke:none"
             d="m 2.328125,-4.4375 c 0,-0.1875 0,-0.1875 -0.203125,-0.1875 -0.453125,0.4375 -1.078125,0.4375 -1.359375,0.4375 v 0.25 c 0.15625,0 0.625,0 1,-0.1875 v 3.546875 c 0,0.234375 0,0.328125 -0.6875,0.328125 H 0.8125 V 0 c 0.125,0 0.984375,-0.03125 1.234375,-0.03125 0.21875,0 1.09375,0.03125 1.25,0.03125 V -0.25 H 3.03125 c -0.703125,0 -0.703125,-0.09375 -0.703125,-0.328125 z m 0,0"
             id="id-2332f69c-5a4f-45e9-8347-3ad03c6c2cc2" />
        </g>
      </g>
      <g
         style="fill:#000000;fill-opacity:1"
         id="id-c719d314-9a80-4a26-95df-b2ff6d66282d"
         transform="matrix(1.1814,0,0,1.1814,-120.84029,-26.812555)">
        <g
           transform="translate(203.059,134.765)"
           id="g24549">
          <path
             style="stroke:none"
             d="m 2.875,-2.5 c 0,-0.765625 -0.109375,-1.96875 -0.65625,-3.109375 -0.59375,-1.21875 -1.453125,-1.875 -1.546875,-1.875 -0.0625,0 -0.109375,0.046875 -0.109375,0.109375 0,0.03125 0,0.046875 0.1875,0.234375 0.984375,0.984375 1.546875,2.5625 1.546875,4.640625 0,1.71875 -0.359375,3.46875 -1.59375,4.71875 C 0.5625,2.34375 0.5625,2.359375 0.5625,2.390625 0.5625,2.453125 0.609375,2.5 0.671875,2.5 0.765625,2.5 1.671875,1.8125 2.25,0.546875 2.765625,-0.546875 2.875,-1.65625 2.875,-2.5 Z m 0,0"
             id="id-e53adcb2-934a-4b84-b744-fdf9e05d6529" />
        </g>
      </g>
    </g>
    <g
       id="g24805"
       transform="matrix(0.3844488,0,0,0.3844488,77.916939,58.676331)">
      <g
         style="fill:#000000;fill-opacity:1"
         id="id-96b56853-9fbf-4ae6-a883-b4d2457b312c"
         transform="matrix(1.1814,0,0,1.1814,-120.84029,-26.812555)">
        <g
           transform="translate(210.254,134.765)"
           id="g24553">
          <path
             style="stroke:none"
             d="m 2.046875,-3.984375 h 0.9375 c 0.203125,0 0.3125,0 0.3125,-0.203125 0,-0.109375 -0.109375,-0.109375 -0.28125,-0.109375 h -0.875 C 2.5,-5.71875 2.546875,-5.90625 2.546875,-5.96875 c 0,-0.171875 -0.125,-0.265625 -0.296875,-0.265625 -0.03125,0 -0.3125,0 -0.390625,0.359375 L 1.46875,-4.296875 h -0.9375 c -0.203125,0 -0.296875,0 -0.296875,0.1875 0,0.125 0.078125,0.125 0.28125,0.125 h 0.875 C 0.671875,-1.15625 0.625,-0.984375 0.625,-0.8125 0.625,-0.265625 1,0.109375 1.546875,0.109375 2.5625,0.109375 3.125,-1.34375 3.125,-1.421875 3.125,-1.53125 3.046875,-1.53125 3.015625,-1.53125 2.921875,-1.53125 2.90625,-1.5 2.859375,-1.390625 2.4375,-0.34375 1.90625,-0.109375 1.5625,-0.109375 c -0.203125,0 -0.3125,-0.125 -0.3125,-0.453125 0,-0.25 0.03125,-0.3125 0.0625,-0.484375 z m 0,0"
             id="id-3115a569-dcbd-47a1-8a1b-ef5e347d2041" />
        </g>
      </g>
      <g
         style="fill:#000000;fill-opacity:1"
         id="id-88c6f845-e7db-4847-8f2a-de082ad8ff4e"
         transform="matrix(1.1814,0,0,1.1814,-120.84029,-26.812555)">
        <g
           transform="translate(217.172,134.765)"
           id="g24557">
          <path
             style="stroke:none"
             d="m 3.296875,2.390625 c 0,-0.03125 0,-0.046875 -0.171875,-0.21875 C 1.890625,0.921875 1.5625,-0.96875 1.5625,-2.5 c 0,-1.734375 0.375,-3.46875 1.609375,-4.703125 0.125,-0.125 0.125,-0.140625 0.125,-0.171875 0,-0.078125 -0.03125,-0.109375 -0.09375,-0.109375 -0.109375,0 -1,0.6875 -1.59375,1.953125 -0.5,1.09375 -0.625,2.203125 -0.625,3.03125 0,0.78125 0.109375,1.984375 0.65625,3.125 C 2.25,1.84375 3.09375,2.5 3.203125,2.5 c 0.0625,0 0.09375,-0.03125 0.09375,-0.109375 z m 0,0"
             id="id-4d4e2d46-226e-4e07-a5e3-017bac1520df" />
        </g>
      </g>
      <g
         style="fill:#000000;fill-opacity:1"
         id="id-6e95e0dc-33ab-4f84-b137-6a5b384ac435"
         transform="matrix(1.1814,0,0,1.1814,-120.84029,-26.812555)">
        <g
           transform="translate(221.047,134.765)"
           id="g24561">
          <path
             style="stroke:none"
             d="m 2.296875,-3.5 c 0.0625,-0.203125 0.15625,-0.59375 0.15625,-0.640625 0,-0.171875 -0.125,-0.265625 -0.296875,-0.265625 -0.015625,0 -0.296875,0.015625 -0.390625,0.359375 l -1.4375,5.765625 c -0.03125,0.125 -0.03125,0.140625 -0.03125,0.171875 0,0.140625 0.109375,0.265625 0.28125,0.265625 0.203125,0 0.328125,-0.1875 0.34375,-0.21875 C 0.96875,1.859375 1.09375,1.328125 1.46875,-0.203125 1.796875,0.0625 2.25,0.109375 2.4375,0.109375 c 0.703125,0 1.09375,-0.453125 1.328125,-0.734375 0.09375,0.453125 0.46875,0.734375 0.90625,0.734375 0.34375,0 0.578125,-0.234375 0.734375,-0.546875 0.171875,-0.359375 0.296875,-0.96875 0.296875,-0.984375 0,-0.109375 -0.09375,-0.109375 -0.125,-0.109375 -0.09375,0 -0.109375,0.046875 -0.140625,0.1875 -0.15625,0.640625 -0.34375,1.234375 -0.75,1.234375 -0.265625,0 -0.296875,-0.265625 -0.296875,-0.453125 0,-0.21875 0.109375,-0.6875 0.1875,-1.046875 L 4.859375,-2.6875 C 4.890625,-2.828125 5,-3.203125 5.03125,-3.359375 5.078125,-3.59375 5.1875,-3.96875 5.1875,-4.03125 c 0,-0.171875 -0.140625,-0.265625 -0.296875,-0.265625 -0.046875,0 -0.3125,0.015625 -0.390625,0.34375 l -0.46875,1.875 c -0.109375,0.5 -0.21875,0.90625 -0.25,1.015625 -0.015625,0.046875 -0.484375,0.953125 -1.296875,0.953125 -0.5,0 -0.734375,-0.328125 -0.734375,-0.875 0,-0.28125 0.0625,-0.5625 0.140625,-0.84375 z m 0,0"
             id="id-b679a6b7-63e2-4e08-8865-4a9906e2c1f6" />
        </g>
      </g>
      <g
         style="fill:#000000;fill-opacity:1"
         id="id-a667f6fe-ca48-4708-9c92-c50e0fc8d5e3"
         transform="matrix(1.1814,0,0,1.1814,-120.84029,-26.812555)">
        <g
           transform="translate(227.05,134.765)"
           id="g24565">
          <path
             style="stroke:none"
             d="m 2.078125,-1.9375 c 0.21875,0.046875 1.03125,0.203125 1.03125,0.921875 0,0.5 -0.34375,0.90625 -1.125,0.90625 -0.84375,0 -1.203125,-0.5625 -1.390625,-1.421875 C 0.5625,-1.65625 0.5625,-1.6875 0.453125,-1.6875 c -0.125,0 -0.125,0.0625 -0.125,0.234375 V -0.125 c 0,0.171875 0,0.234375 0.109375,0.234375 0.046875,0 0.0625,-0.015625 0.25,-0.203125 0.015625,-0.015625 0.015625,-0.03125 0.203125,-0.21875 0.4375,0.40625 0.890625,0.421875 1.09375,0.421875 1.140625,0 1.609375,-0.671875 1.609375,-1.390625 0,-0.515625 -0.296875,-0.828125 -0.421875,-0.9375 C 2.84375,-2.546875 2.453125,-2.625 2.03125,-2.703125 1.46875,-2.8125 0.8125,-2.9375 0.8125,-3.515625 c 0,-0.359375 0.25,-0.765625 1.109375,-0.765625 1.09375,0 1.15625,0.90625 1.171875,1.203125 0,0.09375 0.09375,0.09375 0.109375,0.09375 0.140625,0 0.140625,-0.046875 0.140625,-0.234375 v -1.015625 c 0,-0.15625 0,-0.234375 -0.109375,-0.234375 -0.046875,0 -0.078125,0 -0.203125,0.125 -0.03125,0.03125 -0.125,0.125 -0.171875,0.15625 -0.375,-0.28125 -0.78125,-0.28125 -0.9375,-0.28125 -1.21875,0 -1.59375,0.671875 -1.59375,1.234375 0,0.34375 0.15625,0.625 0.421875,0.84375 0.328125,0.25 0.609375,0.3125 1.328125,0.453125 z m 0,0"
             id="id-c978e7b9-0b36-4784-a492-9be495b1448b" />
        </g>
        <g
           transform="translate(230.979,134.765)"
           id="g24568">
          <path
             style="stroke:none"
             d="m 2.875,-2.5 c 0,-0.765625 -0.109375,-1.96875 -0.65625,-3.109375 -0.59375,-1.21875 -1.453125,-1.875 -1.546875,-1.875 -0.0625,0 -0.109375,0.046875 -0.109375,0.109375 0,0.03125 0,0.046875 0.1875,0.234375 0.984375,0.984375 1.546875,2.5625 1.546875,4.640625 0,1.71875 -0.359375,3.46875 -1.59375,4.71875 C 0.5625,2.34375 0.5625,2.359375 0.5625,2.390625 0.5625,2.453125 0.609375,2.5 0.671875,2.5 0.765625,2.5 1.671875,1.8125 2.25,0.546875 2.765625,-0.546875 2.875,-1.65625 2.875,-2.5 Z m 0,0"
             id="id-ea74ac7c-3345-43d8-9698-323876f8845c" />
        </g>
      </g>
    </g>
  </g>
</svg>
