<?xml version="1.0" encoding="UTF-8" standalone="no"?>
<svg
   xmlns:ns16="http://www.iki.fi/pav/software/textext/"
   xmlns:dc="http://purl.org/dc/elements/1.1/"
   xmlns:cc="http://creativecommons.org/ns#"
   xmlns:rdf="http://www.w3.org/1999/02/22-rdf-syntax-ns#"
   xmlns:svg="http://www.w3.org/2000/svg"
   xmlns="http://www.w3.org/2000/svg"
   xmlns:sodipodi="http://sodipodi.sourceforge.net/DTD/sodipodi-0.dtd"
   xmlns:inkscape="http://www.inkscape.org/namespaces/inkscape"
   width="92.110275mm"
   height="69.882195mm"
   viewBox="0 0 92.110275 69.882195"
   version="1.1"
   id="svg8"
   sodipodi:docname="fig-quench2.svg"
   inkscape:version="1.0.1 (3bc2e813f5, 2020-09-07)">
  <defs
     id="defs2">
    <clipPath
       clipPathUnits="userSpaceOnUse"
       id="clipPath851">
      <path
         d="M 174,142 V 1945 H 2575 V 142 Z"
         id="path849" />
    </clipPath>
    <defs
       id="id-4312fcbc-4bcb-408e-8e9d-247a5a33126e">
      <g
         id="id-f0e28f84-f259-4df7-b105-b78f7f4f9194">
        <symbol
           overflow="visible"
           id="id-a0a1a97a-2cee-49b3-b705-defa77408bc3">
          <path
             style="stroke:none"
             d=""
             id="id-7149a58f-93bf-4e92-9965-0953ca0fd9a3" />
        </symbol>
        <symbol
           overflow="visible"
           id="id-0e4fb2f0-da60-4668-8a9b-882a052861ec">
          <path
             style="stroke:none"
             d="m 7.578125,-6.921875 c 0,-0.03125 -0.015625,-0.109375 -0.109375,-0.109375 -0.03125,0 -0.046875,0.015625 -0.15625,0.125 L 6.625,-6.140625 C 6.53125,-6.28125 6.078125,-7.03125 4.96875,-7.03125 2.734375,-7.03125 0.5,-4.828125 0.5,-2.515625 0.5,-0.875 1.671875,0.21875 3.203125,0.21875 c 0.859375,0 1.625,-0.390625 2.15625,-0.859375 0.921875,-0.8125 1.09375,-1.71875 1.09375,-1.75 C 6.453125,-2.5 6.34375,-2.5 6.328125,-2.5 c -0.0625,0 -0.109375,0.03125 -0.125,0.109375 -0.09375,0.28125 -0.328125,1 -1.015625,1.578125 -0.6875,0.546875 -1.3125,0.71875 -1.828125,0.71875 -0.890625,0 -1.953125,-0.515625 -1.953125,-2.0625 0,-0.578125 0.203125,-2.1875 1.203125,-3.359375 0.609375,-0.703125 1.546875,-1.203125 2.4375,-1.203125 1.015625,0 1.609375,0.765625 1.609375,1.921875 0,0.40625 -0.03125,0.40625 -0.03125,0.515625 0,0.09375 0.109375,0.09375 0.140625,0.09375 0.125,0 0.125,-0.015625 0.1875,-0.203125 z m 0,0"
             id="id-22ffd129-547c-4ed4-879e-b25c98d943ed" />
        </symbol>
        <symbol
           overflow="visible"
           id="id-89827823-98e1-41dd-817f-916b7a0c37fa">
          <path
             style="stroke:none"
             d="m 2.046875,-3.984375 h 0.9375 c 0.203125,0 0.3125,0 0.3125,-0.203125 0,-0.109375 -0.109375,-0.109375 -0.28125,-0.109375 h -0.875 C 2.5,-5.71875 2.546875,-5.90625 2.546875,-5.96875 c 0,-0.171875 -0.125,-0.265625 -0.296875,-0.265625 -0.03125,0 -0.3125,0 -0.390625,0.359375 L 1.46875,-4.296875 h -0.9375 c -0.203125,0 -0.296875,0 -0.296875,0.1875 0,0.125 0.078125,0.125 0.28125,0.125 h 0.875 C 0.671875,-1.15625 0.625,-0.984375 0.625,-0.8125 0.625,-0.265625 1,0.109375 1.546875,0.109375 2.5625,0.109375 3.125,-1.34375 3.125,-1.421875 3.125,-1.53125 3.046875,-1.53125 3.015625,-1.53125 2.921875,-1.53125 2.90625,-1.5 2.859375,-1.390625 2.4375,-0.34375 1.90625,-0.109375 1.5625,-0.109375 c -0.203125,0 -0.3125,-0.125 -0.3125,-0.453125 0,-0.25 0.03125,-0.3125 0.0625,-0.484375 z m 0,0"
             id="id-34254b5f-7769-4e1c-8f3d-b4e2ab2b1cdc" />
        </symbol>
        <symbol
           overflow="visible"
           id="id-f4a8457e-8c28-43d5-9184-cccfe8f353ca">
          <path
             style="stroke:none"
             d="m 2.296875,-3.5 c 0.0625,-0.203125 0.15625,-0.59375 0.15625,-0.640625 0,-0.171875 -0.125,-0.265625 -0.296875,-0.265625 -0.015625,0 -0.296875,0.015625 -0.390625,0.359375 l -1.4375,5.765625 c -0.03125,0.125 -0.03125,0.140625 -0.03125,0.171875 0,0.140625 0.109375,0.265625 0.28125,0.265625 0.203125,0 0.328125,-0.1875 0.34375,-0.21875 C 0.96875,1.859375 1.09375,1.328125 1.46875,-0.203125 1.796875,0.0625 2.25,0.109375 2.4375,0.109375 c 0.703125,0 1.09375,-0.453125 1.328125,-0.734375 0.09375,0.453125 0.46875,0.734375 0.90625,0.734375 0.34375,0 0.578125,-0.234375 0.734375,-0.546875 0.171875,-0.359375 0.296875,-0.96875 0.296875,-0.984375 0,-0.109375 -0.09375,-0.109375 -0.125,-0.109375 -0.09375,0 -0.109375,0.046875 -0.140625,0.1875 -0.15625,0.640625 -0.34375,1.234375 -0.75,1.234375 -0.265625,0 -0.296875,-0.265625 -0.296875,-0.453125 0,-0.21875 0.109375,-0.6875 0.1875,-1.046875 L 4.859375,-2.6875 C 4.890625,-2.828125 5,-3.203125 5.03125,-3.359375 5.078125,-3.59375 5.1875,-3.96875 5.1875,-4.03125 c 0,-0.171875 -0.140625,-0.265625 -0.296875,-0.265625 -0.046875,0 -0.3125,0.015625 -0.390625,0.34375 l -0.46875,1.875 c -0.109375,0.5 -0.21875,0.90625 -0.25,1.015625 -0.015625,0.046875 -0.484375,0.953125 -1.296875,0.953125 -0.5,0 -0.734375,-0.328125 -0.734375,-0.875 0,-0.28125 0.0625,-0.5625 0.140625,-0.84375 z m 0,0"
             id="id-d590d254-9055-4a52-ab08-5a88f317fca1" />
        </symbol>
        <symbol
           overflow="visible"
           id="id-400186ef-affe-4b92-84f0-8c7a8e5361c5">
          <path
             style="stroke:none"
             d=""
             id="id-92d2db36-a5e7-44d9-a2a8-c3dc6249ab02" />
        </symbol>
        <symbol
           overflow="visible"
           id="id-0a5f862e-7268-48db-bb8a-9ba3564c8034">
          <path
             style="stroke:none"
             d="m 3.296875,2.390625 c 0,-0.03125 0,-0.046875 -0.171875,-0.21875 C 1.890625,0.921875 1.5625,-0.96875 1.5625,-2.5 c 0,-1.734375 0.375,-3.46875 1.609375,-4.703125 0.125,-0.125 0.125,-0.140625 0.125,-0.171875 0,-0.078125 -0.03125,-0.109375 -0.09375,-0.109375 -0.109375,0 -1,0.6875 -1.59375,1.953125 -0.5,1.09375 -0.625,2.203125 -0.625,3.03125 0,0.78125 0.109375,1.984375 0.65625,3.125 C 2.25,1.84375 3.09375,2.5 3.203125,2.5 c 0.0625,0 0.09375,-0.03125 0.09375,-0.109375 z m 0,0"
             id="id-13b20b76-5533-4bda-a88b-d8fcf04bc4b5" />
        </symbol>
        <symbol
           overflow="visible"
           id="id-3bbeafb5-b336-4d69-b3f8-3e2f675f6ce1">
          <path
             style="stroke:none"
             d="m 1.71875,-3.75 v -0.65625 l -1.4375,0.109375 v 0.3125 c 0.703125,0 0.78125,0.0625 0.78125,0.5 v 4.65625 C 1.0625,1.625 0.953125,1.625 0.28125,1.625 V 1.9375 C 0.625,1.921875 1.140625,1.90625 1.390625,1.90625 c 0.28125,0 0.78125,0.015625 1.125,0.03125 V 1.625 C 1.859375,1.625 1.75,1.625 1.75,1.171875 V -0.59375 c 0.046875,0.171875 0.46875,0.703125 1.21875,0.703125 1.1875,0 2.21875,-0.984375 2.21875,-2.265625 0,-1.265625 -0.953125,-2.25 -2.078125,-2.25 -0.78125,0 -1.203125,0.4375 -1.390625,0.65625 z M 1.75,-1.140625 v -2.21875 C 2.03125,-3.875 2.515625,-4.15625 3.03125,-4.15625 c 0.734375,0 1.328125,0.875 1.328125,2 0,1.203125 -0.6875,2.046875 -1.421875,2.046875 -0.40625,0 -0.78125,-0.203125 -1.046875,-0.609375 C 1.75,-0.921875 1.75,-0.9375 1.75,-1.140625 Z m 0,0"
             id="id-b81baaae-5ce6-45ba-abac-d2fdc47084a5" />
        </symbol>
        <symbol
           overflow="visible"
           id="id-8003481c-037e-416c-8de7-f25ad62f698d">
          <path
             style="stroke:none"
             d="M 1.09375,-3.421875 V -0.75 c 0,0.4375 -0.109375,0.4375 -0.78125,0.4375 V 0 c 0.359375,-0.015625 0.859375,-0.03125 1.140625,-0.03125 0.25,0 0.765625,0.015625 1.109375,0.03125 v -0.3125 c -0.671875,0 -0.78125,0 -0.78125,-0.4375 V -2.59375 C 1.78125,-3.625 2.5,-4.1875 3.125,-4.1875 c 0.640625,0 0.75,0.53125 0.75,1.109375 V -0.75 c 0,0.4375 -0.109375,0.4375 -0.78125,0.4375 V 0 c 0.34375,-0.015625 0.859375,-0.03125 1.125,-0.03125 0.25,0 0.78125,0.015625 1.109375,0.03125 v -0.3125 c -0.65625,0 -0.765625,0 -0.765625,-0.4375 v -1.84375 c 0,-1.03125 0.703125,-1.59375 1.34375,-1.59375 0.625,0 0.734375,0.53125 0.734375,1.109375 V -0.75 c 0,0.4375 -0.109375,0.4375 -0.78125,0.4375 V 0 c 0.34375,-0.015625 0.859375,-0.03125 1.125,-0.03125 0.265625,0 0.78125,0.015625 1.125,0.03125 v -0.3125 c -0.515625,0 -0.765625,0 -0.78125,-0.296875 v -1.90625 c 0,-0.859375 0,-1.15625 -0.3125,-1.515625 -0.140625,-0.171875 -0.46875,-0.375 -1.046875,-0.375 -0.828125,0 -1.28125,0.59375 -1.4375,0.984375 C 4.390625,-4.296875 3.65625,-4.40625 3.203125,-4.40625 2.46875,-4.40625 2,-3.984375 1.71875,-3.359375 V -4.40625 L 0.3125,-4.296875 v 0.3125 c 0.703125,0 0.78125,0.0625 0.78125,0.5625 z m 0,0"
             id="id-e92d482b-ac18-48bb-a92d-101fc5535441" />
        </symbol>
        <symbol
           overflow="visible"
           id="id-8c14b02c-8ef8-4c66-bf65-684e68e243b5">
          <path
             style="stroke:none"
             d="m 2.875,-2.5 c 0,-0.765625 -0.109375,-1.96875 -0.65625,-3.109375 -0.59375,-1.21875 -1.453125,-1.875 -1.546875,-1.875 -0.0625,0 -0.109375,0.046875 -0.109375,0.109375 0,0.03125 0,0.046875 0.1875,0.234375 0.984375,0.984375 1.546875,2.5625 1.546875,4.640625 0,1.71875 -0.359375,3.46875 -1.59375,4.71875 C 0.5625,2.34375 0.5625,2.359375 0.5625,2.390625 0.5625,2.453125 0.609375,2.5 0.671875,2.5 0.765625,2.5 1.671875,1.8125 2.25,0.546875 2.765625,-0.546875 2.875,-1.65625 2.875,-2.5 Z m 0,0"
             id="id-f79d3cd5-d4c6-4928-85c3-c3a5210497c7" />
        </symbol>
        <symbol
           overflow="visible"
           id="id-cb705b8a-805c-443e-bab1-cad2c916b991">
          <path
             style="stroke:none"
             d="M 1.671875,-3.3125 V -4.40625 L 0.28125,-4.296875 v 0.3125 c 0.703125,0 0.78125,0.0625 0.78125,0.5625 V -0.75 c 0,0.4375 -0.109375,0.4375 -0.78125,0.4375 V 0 c 0.390625,-0.015625 0.859375,-0.03125 1.140625,-0.03125 0.390625,0 0.859375,0 1.265625,0.03125 V -0.3125 H 2.46875 c -0.734375,0 -0.75,-0.109375 -0.75,-0.46875 V -2.3125 c 0,-0.984375 0.421875,-1.875 1.171875,-1.875 0.0625,0 0.09375,0 0.109375,0.015625 -0.03125,0 -0.234375,0.125 -0.234375,0.390625 0,0.265625 0.21875,0.421875 0.4375,0.421875 0.171875,0 0.421875,-0.125 0.421875,-0.4375 0,-0.3125 -0.3125,-0.609375 -0.734375,-0.609375 -0.734375,0 -1.09375,0.671875 -1.21875,1.09375 z m 0,0"
             id="id-399856d4-ad11-41e4-b144-1955e2c5eeea" />
        </symbol>
        <symbol
           overflow="visible"
           id="id-420fe34d-3536-4144-971f-7f7284e40dad">
          <path
             style="stroke:none"
             d="m 3.3125,-0.75 c 0.046875,0.390625 0.3125,0.8125 0.78125,0.8125 0.21875,0 0.828125,-0.140625 0.828125,-0.953125 v -0.5625 h -0.25 v 0.5625 c 0,0.578125 -0.25,0.640625 -0.359375,0.640625 -0.328125,0 -0.375,-0.453125 -0.375,-0.5 v -1.984375 c 0,-0.421875 0,-0.8125 -0.359375,-1.1875 C 3.1875,-4.3125 2.6875,-4.46875 2.21875,-4.46875 c -0.828125,0 -1.515625,0.46875 -1.515625,1.125 0,0.296875 0.203125,0.46875 0.46875,0.46875 0.28125,0 0.453125,-0.203125 0.453125,-0.453125 0,-0.125 -0.046875,-0.453125 -0.515625,-0.453125 C 1.390625,-4.140625 1.875,-4.25 2.1875,-4.25 c 0.5,0 1.0625,0.390625 1.0625,1.28125 v 0.359375 c -0.515625,0.03125 -1.203125,0.0625 -1.828125,0.359375 -0.75,0.34375 -1,0.859375 -1,1.296875 0,0.8125 0.96875,1.0625 1.59375,1.0625 0.65625,0 1.109375,-0.40625 1.296875,-0.859375 z M 3.25,-2.390625 v 1 c 0,0.9375 -0.71875,1.28125 -1.171875,1.28125 -0.484375,0 -0.890625,-0.34375 -0.890625,-0.84375 0,-0.546875 0.421875,-1.375 2.0625,-1.4375 z m 0,0"
             id="id-c84f5a8b-90f1-4f93-ac4f-40f6bb730091" />
        </symbol>
        <symbol
           overflow="visible"
           id="id-c1486a90-ed4e-4bf7-aed1-47bd951a7439">
          <path
             style="stroke:none"
             d="m 2.078125,-1.9375 c 0.21875,0.046875 1.03125,0.203125 1.03125,0.921875 0,0.5 -0.34375,0.90625 -1.125,0.90625 -0.84375,0 -1.203125,-0.5625 -1.390625,-1.421875 C 0.5625,-1.65625 0.5625,-1.6875 0.453125,-1.6875 c -0.125,0 -0.125,0.0625 -0.125,0.234375 V -0.125 c 0,0.171875 0,0.234375 0.109375,0.234375 0.046875,0 0.0625,-0.015625 0.25,-0.203125 0.015625,-0.015625 0.015625,-0.03125 0.203125,-0.21875 0.4375,0.40625 0.890625,0.421875 1.09375,0.421875 1.140625,0 1.609375,-0.671875 1.609375,-1.390625 0,-0.515625 -0.296875,-0.828125 -0.421875,-0.9375 C 2.84375,-2.546875 2.453125,-2.625 2.03125,-2.703125 1.46875,-2.8125 0.8125,-2.9375 0.8125,-3.515625 c 0,-0.359375 0.25,-0.765625 1.109375,-0.765625 1.09375,0 1.15625,0.90625 1.171875,1.203125 0,0.09375 0.09375,0.09375 0.109375,0.09375 0.140625,0 0.140625,-0.046875 0.140625,-0.234375 v -1.015625 c 0,-0.15625 0,-0.234375 -0.109375,-0.234375 -0.046875,0 -0.078125,0 -0.203125,0.125 -0.03125,0.03125 -0.125,0.125 -0.171875,0.15625 -0.375,-0.28125 -0.78125,-0.28125 -0.9375,-0.28125 -1.21875,0 -1.59375,0.671875 -1.59375,1.234375 0,0.34375 0.15625,0.625 0.421875,0.84375 0.328125,0.25 0.609375,0.3125 1.328125,0.453125 z m 0,0"
             id="id-d26ba516-a3f0-4d50-8fe5-4b2b56782fde" />
        </symbol>
        <symbol
           overflow="visible"
           id="id-6cc8dfa8-949b-4d9d-93ff-6615ce9f2cbe">
          <path
             style="stroke:none"
             d=""
             id="id-402523b1-7bea-42cd-a188-044acd612173" />
        </symbol>
        <symbol
           overflow="visible"
           id="id-e82e4b0f-f15f-4642-9518-7419b0ab6696">
          <path
             style="stroke:none"
             d="m 5.1875,-1.578125 c 0.109375,0 0.28125,0 0.28125,-0.15625 0,-0.1875 -0.171875,-0.1875 -0.28125,-0.1875 H 1.03125 c -0.109375,0 -0.28125,0 -0.28125,0.171875 0,0.171875 0.15625,0.171875 0.28125,0.171875 z m 0,0"
             id="id-dead1736-3b29-4c27-b1ad-1995dbca85c5" />
        </symbol>
        <symbol
           overflow="visible"
           id="id-5573cdd3-c907-40c6-93f2-cc53ba14c479">
          <path
             style="stroke:none"
             d=""
             id="id-b24599b6-0c05-402f-a8d8-117fd1c24365" />
        </symbol>
        <symbol
           overflow="visible"
           id="id-c574626b-6560-41bf-a357-49847d5e09a3">
          <path
             style="stroke:none"
             d="m 2.328125,-4.4375 c 0,-0.1875 0,-0.1875 -0.203125,-0.1875 -0.453125,0.4375 -1.078125,0.4375 -1.359375,0.4375 v 0.25 c 0.15625,0 0.625,0 1,-0.1875 v 3.546875 c 0,0.234375 0,0.328125 -0.6875,0.328125 H 0.8125 V 0 c 0.125,0 0.984375,-0.03125 1.234375,-0.03125 0.21875,0 1.09375,0.03125 1.25,0.03125 V -0.25 H 3.03125 c -0.703125,0 -0.703125,-0.09375 -0.703125,-0.328125 z m 0,0"
             id="id-fb7d336f-28fe-4bfa-bc0c-494880ed000e" />
        </symbol>
      </g>
    </defs>
  </defs>
  <sodipodi:namedview
     id="base"
     pagecolor="#ffffff"
     bordercolor="#666666"
     borderopacity="1.0"
     inkscape:pageopacity="0.0"
     inkscape:pageshadow="2"
     inkscape:zoom="1.54068"
     inkscape:cx="292.33977"
     inkscape:cy="393.76103"
     inkscape:document-units="mm"
     inkscape:current-layer="layer1"
     inkscape:document-rotation="0"
     showgrid="false"
     inkscape:window-width="1918"
     inkscape:window-height="2088"
     inkscape:window-x="1913"
     inkscape:window-y="0"
     inkscape:window-maximized="0" />
  <metadata
     id="metadata5">
    <rdf:RDF>
      <cc:Work
         rdf:about="">
        <dc:format>image/svg+xml</dc:format>
        <dc:type
           rdf:resource="http://purl.org/dc/dcmitype/StillImage" />
        <dc:title></dc:title>
      </cc:Work>
    </rdf:RDF>
  </metadata>
  <g
     inkscape:label="Layer 1"
     inkscape:groupmode="layer"
     id="layer1"
     transform="translate(59.209567,55.208613)">
    <g
       id="g845"
       transform="matrix(0.03527778,0,0,-0.03527778,-57.939576,13.406669)">
      <g
         id="g847"
         clip-path="url(#clipPath851)">
        <path
           d="m 28.3594,38.2422 h 2717.05 v 2037.79 H 28.3594 Z"
           style="fill:#ffffff;fill-opacity:1;fill-rule:nonzero;stroke:none"
           id="path853" />
        <path
           d="m 28.3594,38.2422 h 2717.05 v 2037.79 H 28.3594 Z"
           style="fill:#ffffff;fill-opacity:1;fill-rule:nonzero;stroke:none"
           id="path855" />
        <path
           d="M 381.574,262.398 H 2487.29 L 381.574,1923.2"
           style="fill:#ffffff;fill-opacity:1;fill-rule:nonzero;stroke:none"
           id="path857" />
        <path
           d="M 2487.29,262.398 V 1923.2 H 381.574"
           style="fill:#ffffff;fill-opacity:1;fill-rule:nonzero;stroke:none"
           id="path859" />
        <path
           d="m 381.574,262.398 v 21.063"
           style="fill:none;stroke:#262626;stroke-width:4.71709;stroke-linecap:butt;stroke-linejoin:miter;stroke-miterlimit:10;stroke-dasharray:none;stroke-opacity:1"
           id="path861" />
        <path
           d="m 381.574,1923.2 v -21.07"
           style="fill:none;stroke:#262626;stroke-width:4.71709;stroke-linecap:butt;stroke-linejoin:miter;stroke-miterlimit:10;stroke-dasharray:none;stroke-opacity:1"
           id="path863" />
        <path
           d="m 732.527,262.398 v 21.063"
           style="fill:none;stroke:#262626;stroke-width:4.71709;stroke-linecap:butt;stroke-linejoin:miter;stroke-miterlimit:10;stroke-dasharray:none;stroke-opacity:1"
           id="path865" />
        <path
           d="m 732.527,1923.2 v -21.07"
           style="fill:none;stroke:#262626;stroke-width:4.71709;stroke-linecap:butt;stroke-linejoin:miter;stroke-miterlimit:10;stroke-dasharray:none;stroke-opacity:1"
           id="path867" />
        <path
           d="m 1083.48,262.398 v 21.063"
           style="fill:none;stroke:#262626;stroke-width:4.71709;stroke-linecap:butt;stroke-linejoin:miter;stroke-miterlimit:10;stroke-dasharray:none;stroke-opacity:1"
           id="path869" />
        <path
           d="m 1083.48,1923.2 v -21.07"
           style="fill:none;stroke:#262626;stroke-width:4.71709;stroke-linecap:butt;stroke-linejoin:miter;stroke-miterlimit:10;stroke-dasharray:none;stroke-opacity:1"
           id="path871" />
        <path
           d="m 1434.43,262.398 v 21.063"
           style="fill:none;stroke:#262626;stroke-width:4.71709;stroke-linecap:butt;stroke-linejoin:miter;stroke-miterlimit:10;stroke-dasharray:none;stroke-opacity:1"
           id="path873" />
        <path
           d="m 1434.43,1923.2 v -21.07"
           style="fill:none;stroke:#262626;stroke-width:4.71709;stroke-linecap:butt;stroke-linejoin:miter;stroke-miterlimit:10;stroke-dasharray:none;stroke-opacity:1"
           id="path875" />
        <path
           d="m 1785.38,262.398 v 21.063"
           style="fill:none;stroke:#262626;stroke-width:4.71709;stroke-linecap:butt;stroke-linejoin:miter;stroke-miterlimit:10;stroke-dasharray:none;stroke-opacity:1"
           id="path877" />
        <path
           d="m 1785.38,1923.2 v -21.07"
           style="fill:none;stroke:#262626;stroke-width:4.71709;stroke-linecap:butt;stroke-linejoin:miter;stroke-miterlimit:10;stroke-dasharray:none;stroke-opacity:1"
           id="path879" />
        <path
           d="m 2136.34,262.398 v 21.063"
           style="fill:none;stroke:#262626;stroke-width:4.71709;stroke-linecap:butt;stroke-linejoin:miter;stroke-miterlimit:10;stroke-dasharray:none;stroke-opacity:1"
           id="path881" />
        <path
           d="m 2136.34,1923.2 v -21.07"
           style="fill:none;stroke:#262626;stroke-width:4.71709;stroke-linecap:butt;stroke-linejoin:miter;stroke-miterlimit:10;stroke-dasharray:none;stroke-opacity:1"
           id="path883" />
        <path
           d="m 2487.29,262.398 v 21.063"
           style="fill:none;stroke:#262626;stroke-width:4.71709;stroke-linecap:butt;stroke-linejoin:miter;stroke-miterlimit:10;stroke-dasharray:none;stroke-opacity:1"
           id="path885" />
        <path
           d="m 2487.29,1923.2 v -21.07"
           style="fill:none;stroke:#262626;stroke-width:4.71709;stroke-linecap:butt;stroke-linejoin:miter;stroke-miterlimit:10;stroke-dasharray:none;stroke-opacity:1"
           id="path887" />
        <g
           id="g889"
           transform="scale(10)">
          <text
             transform="matrix(1,0,0,-1,35.5348,14.4469)"
             style="font-variant:normal;font-weight:normal;font-size:9.43419px;font-family:Helvetica;-inkscape-font-specification:Helvetica;writing-mode:lr-tb;fill:#262626;fill-opacity:1;fill-rule:nonzero;stroke:none"
             id="text893"><tspan
               x="0 28.538708 33.784119 36.406822 41.652233 63.634083 68.879494 71.502197 76.747604 98.728989 103.9744 106.5971 111.84251 133.82436 139.06978 141.69247 146.93788 168.91974 174.16515 176.78786 182.03326 204.01465 209.26006 211.88275 217.12816"
               y="0"
               sodipodi:role="line"
               id="tspan891">00.010.020.030.040.050.06</tspan></text>
        </g>
        <path
           d="m 381.574,262.398 h 21.078"
           style="fill:none;stroke:#262626;stroke-width:4.71709;stroke-linecap:butt;stroke-linejoin:miter;stroke-miterlimit:10;stroke-dasharray:none;stroke-opacity:1"
           id="path895" />
        <path
           d="m 2487.29,262.398 h -21.08"
           style="fill:none;stroke:#262626;stroke-width:4.71709;stroke-linecap:butt;stroke-linejoin:miter;stroke-miterlimit:10;stroke-dasharray:none;stroke-opacity:1"
           id="path897" />
        <path
           d="m 381.574,499.656 h 21.078"
           style="fill:none;stroke:#262626;stroke-width:4.71709;stroke-linecap:butt;stroke-linejoin:miter;stroke-miterlimit:10;stroke-dasharray:none;stroke-opacity:1"
           id="path899" />
        <path
           d="m 2487.29,499.656 h -21.08"
           style="fill:none;stroke:#262626;stroke-width:4.71709;stroke-linecap:butt;stroke-linejoin:miter;stroke-miterlimit:10;stroke-dasharray:none;stroke-opacity:1"
           id="path901" />
        <path
           d="m 381.574,736.91 h 21.078"
           style="fill:none;stroke:#262626;stroke-width:4.71709;stroke-linecap:butt;stroke-linejoin:miter;stroke-miterlimit:10;stroke-dasharray:none;stroke-opacity:1"
           id="path903" />
        <path
           d="m 2487.29,736.91 h -21.08"
           style="fill:none;stroke:#262626;stroke-width:4.71709;stroke-linecap:butt;stroke-linejoin:miter;stroke-miterlimit:10;stroke-dasharray:none;stroke-opacity:1"
           id="path905" />
        <path
           d="m 381.574,974.168 h 21.078"
           style="fill:none;stroke:#262626;stroke-width:4.71709;stroke-linecap:butt;stroke-linejoin:miter;stroke-miterlimit:10;stroke-dasharray:none;stroke-opacity:1"
           id="path907" />
        <path
           d="m 2487.29,974.168 h -21.08"
           style="fill:none;stroke:#262626;stroke-width:4.71709;stroke-linecap:butt;stroke-linejoin:miter;stroke-miterlimit:10;stroke-dasharray:none;stroke-opacity:1"
           id="path909" />
        <path
           d="m 381.574,1211.43 h 21.078"
           style="fill:none;stroke:#262626;stroke-width:4.71709;stroke-linecap:butt;stroke-linejoin:miter;stroke-miterlimit:10;stroke-dasharray:none;stroke-opacity:1"
           id="path911" />
        <path
           d="m 2487.29,1211.43 h -21.08"
           style="fill:none;stroke:#262626;stroke-width:4.71709;stroke-linecap:butt;stroke-linejoin:miter;stroke-miterlimit:10;stroke-dasharray:none;stroke-opacity:1"
           id="path913" />
        <path
           d="m 381.574,1448.68 h 21.078"
           style="fill:none;stroke:#262626;stroke-width:4.71709;stroke-linecap:butt;stroke-linejoin:miter;stroke-miterlimit:10;stroke-dasharray:none;stroke-opacity:1"
           id="path915" />
        <path
           d="m 2487.29,1448.68 h -21.08"
           style="fill:none;stroke:#262626;stroke-width:4.71709;stroke-linecap:butt;stroke-linejoin:miter;stroke-miterlimit:10;stroke-dasharray:none;stroke-opacity:1"
           id="path917" />
        <path
           d="m 381.574,1685.94 h 21.078"
           style="fill:none;stroke:#262626;stroke-width:4.71709;stroke-linecap:butt;stroke-linejoin:miter;stroke-miterlimit:10;stroke-dasharray:none;stroke-opacity:1"
           id="path919" />
        <path
           d="m 2487.29,1685.94 h -21.08"
           style="fill:none;stroke:#262626;stroke-width:4.71709;stroke-linecap:butt;stroke-linejoin:miter;stroke-miterlimit:10;stroke-dasharray:none;stroke-opacity:1"
           id="path921" />
        <path
           d="m 381.574,1923.2 h 21.078"
           style="fill:none;stroke:#262626;stroke-width:4.71709;stroke-linecap:butt;stroke-linejoin:miter;stroke-miterlimit:10;stroke-dasharray:none;stroke-opacity:1"
           id="path923" />
        <path
           d="m 2487.29,1923.2 h -21.08"
           style="fill:none;stroke:#262626;stroke-width:4.71709;stroke-linecap:butt;stroke-linejoin:miter;stroke-miterlimit:10;stroke-dasharray:none;stroke-opacity:1"
           id="path925" />
        <g
           id="g927"
           transform="scale(10)">
          <text
             transform="matrix(1,0,0,-1,17.4383,21.523)"
             style="font-variant:normal;font-weight:normal;font-size:9.43419px;font-family:Helvetica;-inkscape-font-specification:Helvetica;writing-mode:lr-tb;fill:#262626;fill-opacity:1;fill-rule:nonzero;stroke:none"
             id="text945"><tspan
               x="0 5.2454095 7.8681145 13.113524"
               y="0"
               sodipodi:role="line"
               id="tspan929">0.04</tspan><tspan
               x="0 5.2454095 7.8681145 13.113524"
               y="-23.725401"
               sodipodi:role="line"
               id="tspan931">0.06</tspan><tspan
               x="0 5.2454095 7.8681145 13.113524"
               y="-47.451199"
               sodipodi:role="line"
               id="tspan933">0.08</tspan><tspan
               x="5.2453098 10.49072 13.113424"
               y="-71.176598"
               sodipodi:role="line"
               id="tspan935">0.1</tspan><tspan
               x="0 5.2454095 7.8681145 13.113524"
               y="-94.902802"
               sodipodi:role="line"
               id="tspan937">0.12</tspan><tspan
               x="0 5.2454095 7.8681145 13.113524"
               y="-118.6282"
               sodipodi:role="line"
               id="tspan939">0.14</tspan><tspan
               x="0 5.2454095 7.8681145 13.113524"
               y="-142.354"
               sodipodi:role="line"
               id="tspan941">0.16</tspan><tspan
               x="0 5.2454095 7.8681145 13.113524"
               y="-166.07941"
               sodipodi:role="line"
               id="tspan943">0.18</tspan></text>
        </g>
        <path
           d="M 381.574,262.398 H 2487.29"
           style="fill:none;stroke:#262626;stroke-width:4.71709;stroke-linecap:butt;stroke-linejoin:miter;stroke-miterlimit:10;stroke-dasharray:75.4735, 0;stroke-dashoffset:0;stroke-opacity:1"
           id="path947" />
        <path
           d="M 381.574,1923.2 H 2487.29"
           style="fill:none;stroke:#262626;stroke-width:4.71709;stroke-linecap:butt;stroke-linejoin:miter;stroke-miterlimit:10;stroke-dasharray:75.4735, 0;stroke-dashoffset:0;stroke-opacity:1"
           id="path949" />
        <path
           d="M 381.574,262.398 V 1923.2"
           style="fill:none;stroke:#262626;stroke-width:4.71709;stroke-linecap:butt;stroke-linejoin:miter;stroke-miterlimit:10;stroke-dasharray:75.4735, 0;stroke-dashoffset:0;stroke-opacity:1"
           id="path951" />
        <path
           d="M 2487.29,262.398 V 1923.2"
           style="fill:none;stroke:#262626;stroke-width:4.71709;stroke-linecap:butt;stroke-linejoin:miter;stroke-miterlimit:10;stroke-dasharray:75.4735, 0;stroke-dashoffset:0;stroke-opacity:1"
           id="path953" />
        <path
           d="M 381.574,993.801 H 2487.29"
           style="fill:none;stroke:#000000;stroke-width:9.43419;stroke-linecap:butt;stroke-linejoin:miter;stroke-miterlimit:10;stroke-dasharray:37.7367, 37.7367, 37.7367, 37.7367;stroke-dashoffset:0;stroke-opacity:1"
           id="path955" />
        <path
           d="m 379.469,1869.85 h 19.656 -17.551 v -183.87 h -2.105 19.656"
           style="fill:none;stroke:#00b200;stroke-width:7.07564;stroke-linecap:butt;stroke-linejoin:miter;stroke-miterlimit:10;stroke-dasharray:none;stroke-opacity:1"
           id="path957" />
        <path
           d="m 714.98,1426.42 h 35.094 -17.547 v -205.5 h -17.547 35.094"
           style="fill:none;stroke:#00b200;stroke-width:7.07564;stroke-linecap:butt;stroke-linejoin:miter;stroke-miterlimit:10;stroke-dasharray:none;stroke-opacity:1"
           id="path959" />
        <path
           d="m 890.457,1291.23 h 35.094 -17.547 v -140.6 h -17.547 35.094"
           style="fill:none;stroke:#00b200;stroke-width:7.07564;stroke-linecap:butt;stroke-linejoin:miter;stroke-miterlimit:10;stroke-dasharray:none;stroke-opacity:1"
           id="path961" />
        <path
           d="m 1065.93,1172.26 h 35.1 -17.55 v -162.23 h -17.55 35.1"
           style="fill:none;stroke:#00b200;stroke-width:7.07564;stroke-linecap:butt;stroke-linejoin:miter;stroke-miterlimit:10;stroke-dasharray:none;stroke-opacity:1"
           id="path963" />
        <path
           d="m 1171.22,1042.47 h 35.09 -17.54 V 912.684 h -17.55 35.09"
           style="fill:none;stroke:#00b200;stroke-width:7.07564;stroke-linecap:butt;stroke-linejoin:miter;stroke-miterlimit:10;stroke-dasharray:none;stroke-opacity:1"
           id="path965" />
        <path
           d="m 1241.41,982.988 h 35.09 -17.54 V 853.203 h -17.55 35.09"
           style="fill:none;stroke:#00b200;stroke-width:7.07564;stroke-linecap:butt;stroke-linejoin:miter;stroke-miterlimit:10;stroke-dasharray:none;stroke-opacity:1"
           id="path967" />
        <path
           d="m 1416.88,788.309 h 35.1 -17.55 V 734.23 h -17.55 35.1"
           style="fill:none;stroke:#00b200;stroke-width:7.07564;stroke-linecap:butt;stroke-linejoin:miter;stroke-miterlimit:10;stroke-dasharray:none;stroke-opacity:1"
           id="path969" />
        <path
           d="m 1767.84,653.117 h 35.09 -17.55 v -86.519 h -17.54 35.09"
           style="fill:none;stroke:#00b200;stroke-width:7.07564;stroke-linecap:butt;stroke-linejoin:miter;stroke-miterlimit:10;stroke-dasharray:none;stroke-opacity:1"
           id="path971" />
        <path
           d="m 2118.79,680.156 h 35.09 -17.54 V 550.371 h -17.55 35.09"
           style="fill:none;stroke:#00b200;stroke-width:7.07564;stroke-linecap:butt;stroke-linejoin:miter;stroke-miterlimit:10;stroke-dasharray:none;stroke-opacity:1"
           id="path973" />
        <path
           d="m 383.82,1777.92 -0.429,-1.32 -1.121,-0.82 h -1.387 l -1.121,0.82 -0.43,1.32 0.43,1.32 1.121,0.81 h 1.387 l 1.121,-0.81 0.429,-1.32"
           style="fill:none;stroke:#b2e8b2;stroke-width:40.298;stroke-linecap:butt;stroke-linejoin:miter;stroke-miterlimit:10;stroke-dasharray:none;stroke-opacity:1"
           id="path975" />
        <path
           d="m 734.773,1323.67 -0.429,-1.32 -1.121,-0.81 h -1.387 l -1.125,0.81 -0.43,1.32 0.43,1.32 1.125,0.82 h 1.387 l 1.121,-0.82 0.429,-1.32"
           style="fill:none;stroke:#b2e8b2;stroke-width:40.298;stroke-linecap:butt;stroke-linejoin:miter;stroke-miterlimit:10;stroke-dasharray:none;stroke-opacity:1"
           id="path977" />
        <path
           d="m 910.25,1220.92 -0.43,-1.31 -1.125,-0.82 h -1.386 l -1.121,0.82 -0.43,1.31 0.43,1.32 1.121,0.82 h 1.386 l 1.125,-0.82 0.43,-1.32"
           style="fill:none;stroke:#b2e8b2;stroke-width:40.298;stroke-linecap:butt;stroke-linejoin:miter;stroke-miterlimit:10;stroke-dasharray:none;stroke-opacity:1"
           id="path979" />
        <path
           d="m 1085.73,1091.14 -0.43,-1.32 -1.13,-0.82 h -1.38 l -1.13,0.82 -0.43,1.32 0.43,1.32 1.13,0.81 h 1.38 l 1.13,-0.81 0.43,-1.32"
           style="fill:none;stroke:#b2e8b2;stroke-width:40.298;stroke-linecap:butt;stroke-linejoin:miter;stroke-miterlimit:10;stroke-dasharray:none;stroke-opacity:1"
           id="path981" />
        <path
           d="m 1191.01,977.578 -0.43,-1.316 -1.12,-0.817 h -1.39 l -1.12,0.817 -0.43,1.316 0.43,1.32 1.12,0.817 h 1.39 l 1.12,-0.817 0.43,-1.32"
           style="fill:none;stroke:#b2e8b2;stroke-width:40.298;stroke-linecap:butt;stroke-linejoin:miter;stroke-miterlimit:10;stroke-dasharray:none;stroke-opacity:1"
           id="path983" />
        <path
           d="m 1261.2,918.094 -0.43,-1.321 -1.12,-0.816 h -1.39 l -1.12,0.816 -0.43,1.321 0.43,1.32 1.12,0.813 h 1.39 l 1.12,-0.813 0.43,-1.32"
           style="fill:none;stroke:#b2e8b2;stroke-width:40.298;stroke-linecap:butt;stroke-linejoin:miter;stroke-miterlimit:10;stroke-dasharray:none;stroke-opacity:1"
           id="path985" />
        <path
           d="m 1436.68,761.27 -0.43,-1.317 -1.12,-0.816 h -1.39 l -1.13,0.816 -0.42,1.317 0.42,1.32 1.13,0.816 h 1.39 l 1.12,-0.816 0.43,-1.32"
           style="fill:none;stroke:#b2e8b2;stroke-width:40.298;stroke-linecap:butt;stroke-linejoin:miter;stroke-miterlimit:10;stroke-dasharray:none;stroke-opacity:1"
           id="path987" />
        <path
           d="m 1787.63,609.855 -0.43,-1.32 -1.12,-0.816 h -1.39 l -1.12,0.816 -0.43,1.32 0.43,1.321 1.12,0.812 h 1.39 l 1.12,-0.812 0.43,-1.321"
           style="fill:none;stroke:#b2e8b2;stroke-width:40.298;stroke-linecap:butt;stroke-linejoin:miter;stroke-miterlimit:10;stroke-dasharray:none;stroke-opacity:1"
           id="path989" />
        <path
           d="m 2138.58,615.262 -0.43,-1.317 -1.12,-0.816 h -1.39 l -1.12,0.816 -0.43,1.317 0.43,1.32 1.12,0.816 h 1.39 l 1.12,-0.816 0.43,-1.32"
           style="fill:none;stroke:#b2e8b2;stroke-width:40.298;stroke-linecap:butt;stroke-linejoin:miter;stroke-miterlimit:10;stroke-dasharray:none;stroke-opacity:1"
           id="path991" />
        <path
           d="m 391.375,1777.92 -1.871,-5.76 -4.899,-3.56 h -6.058 l -4.899,3.56 -1.871,5.76 1.871,5.76 4.899,3.56 h 6.058 l 4.899,-3.56 1.871,-5.76"
           style="fill:none;stroke:#b2e8b2;stroke-width:26.8653;stroke-linecap:butt;stroke-linejoin:miter;stroke-miterlimit:10;stroke-dasharray:none;stroke-opacity:1"
           id="path993" />
        <path
           d="m 742.328,1323.67 -1.871,-5.76 -4.902,-3.56 H 729.5 l -4.902,3.56 -1.871,5.76 1.871,5.76 4.902,3.56 h 6.055 l 4.902,-3.56 1.871,-5.76"
           style="fill:none;stroke:#b2e8b2;stroke-width:26.8653;stroke-linecap:butt;stroke-linejoin:miter;stroke-miterlimit:10;stroke-dasharray:none;stroke-opacity:1"
           id="path995" />
        <path
           d="m 917.805,1220.92 -1.871,-5.76 -4.903,-3.56 h -6.054 l -4.903,3.56 -1.871,5.76 1.871,5.77 4.903,3.55 h 6.054 l 4.903,-3.55 1.871,-5.77"
           style="fill:none;stroke:#b2e8b2;stroke-width:26.8653;stroke-linecap:butt;stroke-linejoin:miter;stroke-miterlimit:10;stroke-dasharray:none;stroke-opacity:1"
           id="path997" />
        <path
           d="m 1093.28,1091.14 -1.87,-5.76 -4.9,-3.56 h -6.06 l -4.9,3.56 -1.87,5.76 1.87,5.76 4.9,3.56 h 6.06 l 4.9,-3.56 1.87,-5.76"
           style="fill:none;stroke:#b2e8b2;stroke-width:26.8653;stroke-linecap:butt;stroke-linejoin:miter;stroke-miterlimit:10;stroke-dasharray:none;stroke-opacity:1"
           id="path999" />
        <path
           d="m 1198.57,977.578 -1.87,-5.762 -4.91,-3.558 h -6.05 l -4.9,3.558 -1.88,5.762 1.88,5.758 4.9,3.562 h 6.05 l 4.91,-3.562 1.87,-5.758"
           style="fill:none;stroke:#b2e8b2;stroke-width:26.8653;stroke-linecap:butt;stroke-linejoin:miter;stroke-miterlimit:10;stroke-dasharray:none;stroke-opacity:1"
           id="path1001" />
        <path
           d="m 1268.76,918.094 -1.88,-5.758 -4.9,-3.563 h -6.05 l -4.9,3.563 -1.88,5.758 1.88,5.761 4.9,3.559 h 6.05 l 4.9,-3.559 1.88,-5.761"
           style="fill:none;stroke:#b2e8b2;stroke-width:26.8653;stroke-linecap:butt;stroke-linejoin:miter;stroke-miterlimit:10;stroke-dasharray:none;stroke-opacity:1"
           id="path1003" />
        <path
           d="m 1444.23,761.27 -1.87,-5.758 -4.9,-3.563 h -6.06 l -4.9,3.563 -1.87,5.758 1.87,5.761 4.9,3.559 h 6.06 l 4.9,-3.559 1.87,-5.761"
           style="fill:none;stroke:#b2e8b2;stroke-width:26.8653;stroke-linecap:butt;stroke-linejoin:miter;stroke-miterlimit:10;stroke-dasharray:none;stroke-opacity:1"
           id="path1005" />
        <path
           d="m 1795.18,609.855 -1.87,-5.757 -4.9,-3.563 h -6.05 l -4.91,3.563 -1.87,5.757 1.87,5.762 4.91,3.559 h 6.05 l 4.9,-3.559 1.87,-5.762"
           style="fill:none;stroke:#b2e8b2;stroke-width:26.8653;stroke-linecap:butt;stroke-linejoin:miter;stroke-miterlimit:10;stroke-dasharray:none;stroke-opacity:1"
           id="path1007" />
        <path
           d="m 2146.14,615.262 -1.87,-5.758 -4.91,-3.563 h -6.06 l -4.89,3.563 -1.88,5.758 1.88,5.765 4.89,3.555 h 6.06 l 4.91,-3.555 1.87,-5.765"
           style="fill:none;stroke:#b2e8b2;stroke-width:26.8653;stroke-linecap:butt;stroke-linejoin:miter;stroke-miterlimit:10;stroke-dasharray:none;stroke-opacity:1"
           id="path1009" />
        <path
           d="m 396.414,1777.92 -2.832,-8.72 -7.422,-5.4 h -9.168 l -7.422,5.4 -2.832,8.72 2.832,8.72 7.422,5.39 h 9.168 l 7.422,-5.39 2.832,-8.72"
           style="fill:none;stroke:#b2e8b2;stroke-width:17.9102;stroke-linecap:butt;stroke-linejoin:miter;stroke-miterlimit:10;stroke-dasharray:none;stroke-opacity:1"
           id="path1011" />
        <path
           d="m 747.367,1323.67 -2.836,-8.72 -7.418,-5.39 h -9.172 l -7.418,5.39 -2.835,8.72 2.835,8.72 7.418,5.4 h 9.172 l 7.418,-5.4 2.836,-8.72"
           style="fill:none;stroke:#b2e8b2;stroke-width:17.9102;stroke-linecap:butt;stroke-linejoin:miter;stroke-miterlimit:10;stroke-dasharray:none;stroke-opacity:1"
           id="path1013" />
        <path
           d="m 922.844,1220.92 -2.836,-8.71 -7.418,-5.4 h -9.172 l -7.418,5.4 -2.836,8.71 2.836,8.72 7.418,5.4 h 9.172 l 7.418,-5.4 2.836,-8.72"
           style="fill:none;stroke:#b2e8b2;stroke-width:17.9102;stroke-linecap:butt;stroke-linejoin:miter;stroke-miterlimit:10;stroke-dasharray:none;stroke-opacity:1"
           id="path1015" />
        <path
           d="m 1098.32,1091.14 -2.84,-8.72 -7.42,-5.39 h -9.17 l -7.42,5.39 -2.83,8.72 2.83,8.72 7.42,5.39 h 9.17 l 7.42,-5.39 2.84,-8.72"
           style="fill:none;stroke:#b2e8b2;stroke-width:17.9102;stroke-linecap:butt;stroke-linejoin:miter;stroke-miterlimit:10;stroke-dasharray:none;stroke-opacity:1"
           id="path1017" />
        <path
           d="m 1203.61,977.578 -2.84,-8.723 -7.42,-5.386 h -9.17 l -7.42,5.386 -2.83,8.723 2.83,8.723 7.42,5.39 h 9.17 l 7.42,-5.39 2.84,-8.723"
           style="fill:none;stroke:#b2e8b2;stroke-width:17.9102;stroke-linecap:butt;stroke-linejoin:miter;stroke-miterlimit:10;stroke-dasharray:none;stroke-opacity:1"
           id="path1019" />
        <path
           d="m 1273.8,918.094 -2.84,-8.719 -7.42,-5.395 h -9.17 l -7.42,5.395 -2.83,8.719 2.83,8.722 7.42,5.387 h 9.17 l 7.42,-5.387 2.84,-8.722"
           style="fill:none;stroke:#b2e8b2;stroke-width:17.9102;stroke-linecap:butt;stroke-linejoin:miter;stroke-miterlimit:10;stroke-dasharray:none;stroke-opacity:1"
           id="path1021" />
        <path
           d="m 1449.27,761.27 -2.83,-8.723 -7.42,-5.387 h -9.17 l -7.42,5.387 -2.84,8.723 2.84,8.722 7.42,5.391 h 9.17 l 7.42,-5.391 2.83,-8.722"
           style="fill:none;stroke:#b2e8b2;stroke-width:17.9102;stroke-linecap:butt;stroke-linejoin:miter;stroke-miterlimit:10;stroke-dasharray:none;stroke-opacity:1"
           id="path1023" />
        <path
           d="m 1800.22,609.855 -2.83,-8.722 -7.42,-5.391 h -9.17 l -7.42,5.391 -2.83,8.722 2.83,8.723 7.42,5.387 h 9.17 l 7.42,-5.387 2.83,-8.723"
           style="fill:none;stroke:#b2e8b2;stroke-width:17.9102;stroke-linecap:butt;stroke-linejoin:miter;stroke-miterlimit:10;stroke-dasharray:none;stroke-opacity:1"
           id="path1025" />
        <path
           d="m 2151.18,615.262 -2.84,-8.723 -7.42,-5.387 h -9.17 l -7.42,5.387 -2.83,8.723 2.83,8.722 7.42,5.391 h 9.17 l 7.42,-5.391 2.84,-8.722"
           style="fill:none;stroke:#b2e8b2;stroke-width:17.9102;stroke-linecap:butt;stroke-linejoin:miter;stroke-miterlimit:10;stroke-dasharray:none;stroke-opacity:1"
           id="path1027" />
        <path
           d="m 399.773,1777.92 -1.804,-7.9 -5.047,-6.33 -7.297,-3.51 h -8.098 l -7.297,3.51 -5.046,6.33 -1.805,7.9 1.805,7.89 5.046,6.33 7.297,3.52 h 8.098 l 7.297,-3.52 5.047,-6.33 1.804,-7.89"
           style="fill:none;stroke:#b2e8b2;stroke-width:11.9401;stroke-linecap:butt;stroke-linejoin:miter;stroke-miterlimit:10;stroke-dasharray:none;stroke-opacity:1"
           id="path1029" />
        <path
           d="m 750.723,1323.67 -1.805,-7.9 -5.047,-6.32 -7.297,-3.52 h -8.094 l -7.296,3.52 -5.047,6.32 -1.805,7.9 1.805,7.9 5.047,6.33 7.296,3.51 h 8.094 l 7.297,-3.51 5.047,-6.33 1.805,-7.9"
           style="fill:none;stroke:#b2e8b2;stroke-width:11.9401;stroke-linecap:butt;stroke-linejoin:miter;stroke-miterlimit:10;stroke-dasharray:none;stroke-opacity:1"
           id="path1031" />
        <path
           d="m 926.199,1220.92 -1.804,-7.89 -5.047,-6.33 -7.297,-3.51 h -8.094 l -7.297,3.51 -5.047,6.33 -1.804,7.89 1.804,7.9 5.047,6.33 7.297,3.51 h 8.094 l 7.297,-3.51 5.047,-6.33 1.804,-7.9"
           style="fill:none;stroke:#b2e8b2;stroke-width:11.9401;stroke-linecap:butt;stroke-linejoin:miter;stroke-miterlimit:10;stroke-dasharray:none;stroke-opacity:1"
           id="path1033" />
        <path
           d="m 1101.67,1091.14 -1.8,-7.89 -5.05,-6.34 -7.29,-3.51 h -8.1 l -7.29,3.51 -5.05,6.34 -1.8,7.89 1.8,7.9 5.05,6.33 7.29,3.51 h 8.1 l 7.29,-3.51 5.05,-6.33 1.8,-7.9"
           style="fill:none;stroke:#b2e8b2;stroke-width:11.9401;stroke-linecap:butt;stroke-linejoin:miter;stroke-miterlimit:10;stroke-dasharray:none;stroke-opacity:1"
           id="path1035" />
        <path
           d="m 1206.96,977.578 -1.8,-7.89 -5.05,-6.336 -7.3,-3.512 h -8.09 l -7.3,3.512 -5.05,6.336 -1.8,7.89 1.8,7.895 5.05,6.332 7.3,3.515 h 8.09 l 7.3,-3.515 5.05,-6.332 1.8,-7.895"
           style="fill:none;stroke:#b2e8b2;stroke-width:11.9401;stroke-linecap:butt;stroke-linejoin:miter;stroke-miterlimit:10;stroke-dasharray:none;stroke-opacity:1"
           id="path1037" />
        <path
           d="m 1277.15,918.094 -1.8,-7.895 -5.05,-6.332 -7.3,-3.512 h -8.09 l -7.3,3.512 -5.05,6.332 -1.8,7.895 1.8,7.898 5.05,6.328 7.3,3.516 h 8.09 l 7.3,-3.516 5.05,-6.328 1.8,-7.898"
           style="fill:none;stroke:#b2e8b2;stroke-width:11.9401;stroke-linecap:butt;stroke-linejoin:miter;stroke-miterlimit:10;stroke-dasharray:none;stroke-opacity:1"
           id="path1039" />
        <path
           d="m 1452.63,761.27 -1.81,-7.891 -5.04,-6.336 -7.3,-3.512 h -8.1 l -7.29,3.512 -5.05,6.336 -1.8,7.891 1.8,7.898 5.05,6.328 7.29,3.516 h 8.1 l 7.3,-3.516 5.04,-6.328 1.81,-7.898"
           style="fill:none;stroke:#b2e8b2;stroke-width:11.9401;stroke-linecap:butt;stroke-linejoin:miter;stroke-miterlimit:10;stroke-dasharray:none;stroke-opacity:1"
           id="path1041" />
        <path
           d="m 1803.58,609.855 -1.81,-7.894 -5.04,-6.332 -7.3,-3.512 h -8.09 l -7.3,3.512 -5.05,6.332 -1.8,7.894 1.8,7.899 5.05,6.328 7.3,3.516 h 8.09 l 7.3,-3.516 5.04,-6.328 1.81,-7.899"
           style="fill:none;stroke:#b2e8b2;stroke-width:11.9401;stroke-linecap:butt;stroke-linejoin:miter;stroke-miterlimit:10;stroke-dasharray:none;stroke-opacity:1"
           id="path1043" />
        <path
           d="m 2154.53,615.262 -1.8,-7.891 -5.05,-6.336 -7.3,-3.508 h -8.09 l -7.3,3.508 -5.05,6.336 -1.8,7.891 1.8,7.898 5.05,6.328 7.3,3.516 h 8.09 l 7.3,-3.516 5.05,-6.328 1.8,-7.898"
           style="fill:none;stroke:#b2e8b2;stroke-width:11.9401;stroke-linecap:butt;stroke-linejoin:miter;stroke-miterlimit:10;stroke-dasharray:none;stroke-opacity:1"
           id="path1045" />
        <path
           d="m 402.012,1777.92 -2.024,-8.87 -5.672,-7.11 -8.191,-3.95 h -9.098 l -8.191,3.95 -5.672,7.11 -2.023,8.87 2.023,8.87 5.672,7.1 8.191,3.95 h 9.098 l 8.191,-3.95 5.672,-7.1 2.024,-8.87"
           style="fill:none;stroke:#b2e8b2;stroke-width:7.96009;stroke-linecap:butt;stroke-linejoin:miter;stroke-miterlimit:10;stroke-dasharray:none;stroke-opacity:1"
           id="path1047" />
        <path
           d="m 752.961,1323.67 -2.023,-8.87 -5.668,-7.1 -8.196,-3.95 h -9.094 l -8.195,3.95 -5.668,7.1 -2.023,8.87 2.023,8.87 5.668,7.11 8.195,3.94 h 9.094 l 8.196,-3.94 5.668,-7.11 2.023,-8.87"
           style="fill:none;stroke:#b2e8b2;stroke-width:7.96009;stroke-linecap:butt;stroke-linejoin:miter;stroke-miterlimit:10;stroke-dasharray:none;stroke-opacity:1"
           id="path1049" />
        <path
           d="m 928.438,1220.92 -2.024,-8.86 -5.668,-7.11 -8.195,-3.95 h -9.094 l -8.195,3.95 -5.668,7.11 -2.024,8.86 2.024,8.87 5.668,7.11 8.195,3.95 h 9.094 l 8.195,-3.95 5.668,-7.11 2.024,-8.87"
           style="fill:none;stroke:#b2e8b2;stroke-width:7.96009;stroke-linecap:butt;stroke-linejoin:miter;stroke-miterlimit:10;stroke-dasharray:none;stroke-opacity:1"
           id="path1051" />
        <path
           d="m 1103.91,1091.14 -2.02,-8.87 -5.67,-7.11 -8.19,-3.95 h -9.1 l -8.19,3.95 -5.67,7.11 -2.02,8.87 2.02,8.86 5.67,7.12 8.19,3.94 h 9.1 l 8.19,-3.94 5.67,-7.12 2.02,-8.86"
           style="fill:none;stroke:#b2e8b2;stroke-width:7.96009;stroke-linecap:butt;stroke-linejoin:miter;stroke-miterlimit:10;stroke-dasharray:none;stroke-opacity:1"
           id="path1053" />
        <path
           d="m 1209.2,977.578 -2.02,-8.863 -5.68,-7.113 -8.19,-3.946 h -9.09 l -8.2,3.946 -5.66,7.113 -2.03,8.863 2.03,8.867 5.66,7.11 8.2,3.949 h 9.09 l 8.19,-3.949 5.68,-7.11 2.02,-8.867"
           style="fill:none;stroke:#b2e8b2;stroke-width:7.96009;stroke-linecap:butt;stroke-linejoin:miter;stroke-miterlimit:10;stroke-dasharray:none;stroke-opacity:1"
           id="path1055" />
        <path
           d="m 1279.39,918.094 -2.02,-8.867 -5.67,-7.11 -8.2,-3.945 h -9.09 l -8.2,3.945 -5.67,7.11 -2.02,8.867 2.02,8.863 5.67,7.113 8.2,3.946 h 9.09 l 8.2,-3.946 5.67,-7.113 2.02,-8.863"
           style="fill:none;stroke:#b2e8b2;stroke-width:7.96009;stroke-linecap:butt;stroke-linejoin:miter;stroke-miterlimit:10;stroke-dasharray:none;stroke-opacity:1"
           id="path1057" />
        <path
           d="m 1454.87,761.27 -2.03,-8.864 -5.67,-7.113 -8.19,-3.941 h -9.1 l -8.19,3.941 -5.67,7.113 -2.02,8.864 2.02,8.871 5.67,7.105 8.19,3.949 h 9.1 l 8.19,-3.949 5.67,-7.105 2.03,-8.871"
           style="fill:none;stroke:#b2e8b2;stroke-width:7.96009;stroke-linecap:butt;stroke-linejoin:miter;stroke-miterlimit:10;stroke-dasharray:none;stroke-opacity:1"
           id="path1059" />
        <path
           d="m 1805.82,609.855 -2.03,-8.867 -5.66,-7.109 -8.2,-3.941 h -9.09 l -8.2,3.941 -5.67,7.109 -2.02,8.867 2.02,8.872 5.67,7.105 8.2,3.945 h 9.09 l 8.2,-3.945 5.66,-7.105 2.03,-8.872"
           style="fill:none;stroke:#b2e8b2;stroke-width:7.96009;stroke-linecap:butt;stroke-linejoin:miter;stroke-miterlimit:10;stroke-dasharray:none;stroke-opacity:1"
           id="path1061" />
        <path
           d="m 2156.77,615.262 -2.02,-8.864 -5.68,-7.113 -8.19,-3.941 h -9.09 l -8.2,3.941 -5.67,7.113 -2.02,8.864 2.02,8.867 5.67,7.109 8.2,3.95 h 9.09 l 8.19,-3.95 5.68,-7.109 2.02,-8.867"
           style="fill:none;stroke:#b2e8b2;stroke-width:7.96009;stroke-linecap:butt;stroke-linejoin:miter;stroke-miterlimit:10;stroke-dasharray:none;stroke-opacity:1"
           id="path1063" />
        <path
           d="m 405.16,1777.92 -2.336,-10.24 -6.543,-8.2 -9.457,-4.56 h -10.496 l -9.457,4.56 -6.543,8.2 -2.336,10.24 2.336,10.23 6.543,8.21 9.457,4.55 h 10.496 l 9.457,-4.55 6.543,-8.21 2.336,-10.23"
           style="fill:none;stroke:#00b200;stroke-width:2.35855;stroke-linecap:butt;stroke-linejoin:miter;stroke-miterlimit:10;stroke-dasharray:none;stroke-opacity:1"
           id="path1065" />
        <path
           d="m 756.113,1323.67 -2.336,-10.23 -6.547,-8.21 -9.453,-4.55 h -10.5 l -9.453,4.55 -6.547,8.21 -2.336,10.23 2.336,10.23 6.547,8.21 9.453,4.56 h 10.5 l 9.453,-4.56 6.547,-8.21 2.336,-10.23"
           style="fill:none;stroke:#00b200;stroke-width:2.35855;stroke-linecap:butt;stroke-linejoin:miter;stroke-miterlimit:10;stroke-dasharray:none;stroke-opacity:1"
           id="path1067" />
        <path
           d="m 931.59,1220.92 -2.336,-10.23 -6.547,-8.21 -9.453,-4.55 h -10.5 l -9.453,4.55 -6.547,8.21 -2.336,10.23 2.336,10.24 6.547,8.21 9.453,4.55 h 10.5 l 9.453,-4.55 6.547,-8.21 2.336,-10.24"
           style="fill:none;stroke:#00b200;stroke-width:2.35855;stroke-linecap:butt;stroke-linejoin:miter;stroke-miterlimit:10;stroke-dasharray:none;stroke-opacity:1"
           id="path1069" />
        <path
           d="m 1107.07,1091.14 -2.34,-10.23 -6.55,-8.21 -9.45,-4.56 h -10.5 l -9.45,4.56 -6.55,8.21 -2.34,10.23 2.34,10.23 6.55,8.21 9.45,4.55 h 10.5 l 9.45,-4.55 6.55,-8.21 2.34,-10.23"
           style="fill:none;stroke:#00b200;stroke-width:2.35855;stroke-linecap:butt;stroke-linejoin:miter;stroke-miterlimit:10;stroke-dasharray:none;stroke-opacity:1"
           id="path1071" />
        <path
           d="m 1212.35,977.578 -2.33,-10.23 -6.55,-8.211 -9.45,-4.551 h -10.5 l -9.46,4.551 -6.54,8.211 -2.34,10.23 2.34,10.235 6.54,8.203 9.46,4.554 h 10.5 l 9.45,-4.554 6.55,-8.203 2.33,-10.235"
           style="fill:none;stroke:#00b200;stroke-width:2.35855;stroke-linecap:butt;stroke-linejoin:miter;stroke-miterlimit:10;stroke-dasharray:none;stroke-opacity:1"
           id="path1073" />
        <path
           d="m 1282.54,918.094 -2.33,-10.235 -6.55,-8.203 -9.45,-4.558 h -10.5 l -9.46,4.558 -6.55,8.203 -2.33,10.235 2.33,10.234 6.55,8.207 9.46,4.551 h 10.5 l 9.45,-4.551 6.55,-8.207 2.33,-10.234"
           style="fill:none;stroke:#00b200;stroke-width:2.35855;stroke-linecap:butt;stroke-linejoin:miter;stroke-miterlimit:10;stroke-dasharray:none;stroke-opacity:1"
           id="path1075" />
        <path
           d="m 1458.02,761.27 -2.34,-10.231 -6.55,-8.207 -9.45,-4.551 h -10.5 l -9.45,4.551 -6.55,8.207 -2.34,10.231 2.34,10.238 6.55,8.203 9.45,4.555 h 10.5 l 9.45,-4.555 6.55,-8.203 2.34,-10.238"
           style="fill:none;stroke:#00b200;stroke-width:2.35855;stroke-linecap:butt;stroke-linejoin:miter;stroke-miterlimit:10;stroke-dasharray:none;stroke-opacity:1"
           id="path1077" />
        <path
           d="m 1808.97,609.855 -2.34,-10.23 -6.54,-8.207 -9.46,-4.559 h -10.5 l -9.45,4.559 -6.55,8.207 -2.33,10.23 2.33,10.235 6.55,8.207 9.45,4.555 h 10.5 l 9.46,-4.555 6.54,-8.207 2.34,-10.235"
           style="fill:none;stroke:#00b200;stroke-width:2.35855;stroke-linecap:butt;stroke-linejoin:miter;stroke-miterlimit:10;stroke-dasharray:none;stroke-opacity:1"
           id="path1079" />
        <path
           d="m 2159.92,615.262 -2.33,-10.231 -6.55,-8.207 -9.45,-4.554 h -10.5 l -9.46,4.554 -6.54,8.207 -2.34,10.231 2.34,10.238 6.54,8.203 9.46,4.555 h 10.5 l 9.45,-4.555 6.55,-8.203 2.33,-10.238"
           style="fill:none;stroke:#00b200;stroke-width:2.35855;stroke-linecap:butt;stroke-linejoin:miter;stroke-miterlimit:10;stroke-dasharray:none;stroke-opacity:1"
           id="path1081" />
        <path
           d="m 404.5,1777.92 -2.273,-9.95 -6.36,-7.97 -9.191,-4.43 h -10.199 l -9.192,4.43 -6.359,7.97 -2.274,9.95 2.274,9.94 6.359,7.98 9.192,4.42 h 10.199 l 9.191,-4.42 6.36,-7.98 2.273,-9.94"
           style="fill:none;stroke:#00b200;stroke-width:3.53782;stroke-linecap:butt;stroke-linejoin:miter;stroke-miterlimit:10;stroke-dasharray:none;stroke-opacity:1"
           id="path1083" />
        <path
           d="m 755.449,1323.67 -2.269,-9.94 -6.36,-7.98 -9.195,-4.43 H 727.43 l -9.196,4.43 -6.359,7.98 -2.27,9.94 2.27,9.94 6.359,7.98 9.196,4.43 h 10.195 l 9.195,-4.43 6.36,-7.98 2.269,-9.94"
           style="fill:none;stroke:#00b200;stroke-width:3.53782;stroke-linecap:butt;stroke-linejoin:miter;stroke-miterlimit:10;stroke-dasharray:none;stroke-opacity:1"
           id="path1085" />
        <path
           d="m 930.926,1220.92 -2.27,-9.94 -6.359,-7.98 -9.195,-4.42 h -10.196 l -9.195,4.42 -6.359,7.98 -2.27,9.94 2.27,9.95 6.359,7.98 9.195,4.42 h 10.196 l 9.195,-4.42 6.359,-7.98 2.27,-9.95"
           style="fill:none;stroke:#00b200;stroke-width:3.53782;stroke-linecap:butt;stroke-linejoin:miter;stroke-miterlimit:10;stroke-dasharray:none;stroke-opacity:1"
           id="path1087" />
        <path
           d="m 1106.4,1091.14 -2.27,-9.95 -6.36,-7.97 -9.19,-4.43 h -10.2 l -9.19,4.43 -6.36,7.97 -2.27,9.95 2.27,9.95 6.36,7.97 9.19,4.43 h 10.2 l 9.19,-4.43 6.36,-7.97 2.27,-9.95"
           style="fill:none;stroke:#00b200;stroke-width:3.53782;stroke-linecap:butt;stroke-linejoin:miter;stroke-miterlimit:10;stroke-dasharray:none;stroke-opacity:1"
           id="path1089" />
        <path
           d="m 1211.68,977.578 -2.26,-9.945 -6.36,-7.977 -9.2,-4.422 h -10.2 l -9.19,4.422 -6.36,7.977 -2.27,9.945 2.27,9.949 6.36,7.977 9.19,4.422 h 10.2 l 9.2,-4.422 6.36,-7.977 2.26,-9.949"
           style="fill:none;stroke:#00b200;stroke-width:3.53782;stroke-linecap:butt;stroke-linejoin:miter;stroke-miterlimit:10;stroke-dasharray:none;stroke-opacity:1"
           id="path1091" />
        <path
           d="m 1281.88,918.094 -2.27,-9.946 -6.36,-7.972 -9.2,-4.43 h -10.19 l -9.2,4.43 -6.36,7.972 -2.26,9.946 2.26,9.945 6.36,7.977 9.2,4.425 h 10.19 l 9.2,-4.425 6.36,-7.977 2.27,-9.945"
           style="fill:none;stroke:#00b200;stroke-width:3.53782;stroke-linecap:butt;stroke-linejoin:miter;stroke-miterlimit:10;stroke-dasharray:none;stroke-opacity:1"
           id="path1093" />
        <path
           d="m 1457.35,761.27 -2.27,-9.942 -6.36,-7.976 -9.19,-4.426 h -10.2 l -9.19,4.426 -6.36,7.976 -2.27,9.942 2.27,9.949 6.36,7.972 9.19,4.43 h 10.2 l 9.19,-4.43 6.36,-7.972 2.27,-9.949"
           style="fill:none;stroke:#00b200;stroke-width:3.53782;stroke-linecap:butt;stroke-linejoin:miter;stroke-miterlimit:10;stroke-dasharray:none;stroke-opacity:1"
           id="path1095" />
        <path
           d="m 1808.3,609.855 -2.26,-9.941 -6.36,-7.976 -9.2,-4.43 h -10.19 l -9.2,4.43 -6.36,7.976 -2.27,9.941 2.27,9.946 6.36,7.976 9.2,4.426 h 10.19 l 9.2,-4.426 6.36,-7.976 2.26,-9.946"
           style="fill:none;stroke:#00b200;stroke-width:3.53782;stroke-linecap:butt;stroke-linejoin:miter;stroke-miterlimit:10;stroke-dasharray:none;stroke-opacity:1"
           id="path1097" />
        <path
           d="m 2159.25,615.262 -2.27,-9.942 -6.35,-7.976 -9.2,-4.426 h -10.2 l -9.19,4.426 -6.36,7.976 -2.27,9.942 2.27,9.949 6.36,7.977 9.19,4.425 h 10.2 l 9.2,-4.425 6.35,-7.977 2.27,-9.949"
           style="fill:none;stroke:#00b200;stroke-width:3.53782;stroke-linecap:butt;stroke-linejoin:miter;stroke-miterlimit:10;stroke-dasharray:none;stroke-opacity:1"
           id="path1099" />
        <path
           d="m 403.504,1777.92 -2.172,-9.52 -6.086,-7.63 -8.789,-4.23 h -9.762 l -8.789,4.23 -6.086,7.63 -2.172,9.52 2.172,9.51 6.086,7.63 8.789,4.24 h 9.762 l 8.789,-4.24 6.086,-7.63 2.172,-9.51"
           style="fill:none;stroke:#00b200;stroke-width:5.30673;stroke-linecap:butt;stroke-linejoin:miter;stroke-miterlimit:10;stroke-dasharray:none;stroke-opacity:1"
           id="path1101" />
        <path
           d="m 754.453,1323.67 -2.172,-9.51 -6.082,-7.63 -8.793,-4.24 h -9.758 l -8.789,4.24 -6.086,7.63 -2.171,9.51 2.171,9.51 6.086,7.63 8.789,4.24 h 9.758 l 8.793,-4.24 6.082,-7.63 2.172,-9.51"
           style="fill:none;stroke:#00b200;stroke-width:5.30673;stroke-linecap:butt;stroke-linejoin:miter;stroke-miterlimit:10;stroke-dasharray:none;stroke-opacity:1"
           id="path1103" />
        <path
           d="m 929.93,1220.92 -2.172,-9.51 -6.086,-7.63 -8.789,-4.23 h -9.758 l -8.793,4.23 -6.082,7.63 -2.172,9.51 2.172,9.52 6.082,7.63 8.793,4.23 h 9.758 l 8.789,-4.23 6.086,-7.63 2.172,-9.52"
           style="fill:none;stroke:#00b200;stroke-width:5.30673;stroke-linecap:butt;stroke-linejoin:miter;stroke-miterlimit:10;stroke-dasharray:none;stroke-opacity:1"
           id="path1105" />
        <path
           d="m 1105.41,1091.14 -2.18,-9.51 -6.08,-7.63 -8.79,-4.23 h -9.76 l -8.79,4.23 -6.09,7.63 -2.17,9.51 2.17,9.52 6.09,7.63 8.79,4.23 h 9.76 l 8.79,-4.23 6.08,-7.63 2.18,-9.52"
           style="fill:none;stroke:#00b200;stroke-width:5.30673;stroke-linecap:butt;stroke-linejoin:miter;stroke-miterlimit:10;stroke-dasharray:none;stroke-opacity:1"
           id="path1107" />
        <path
           d="m 1210.69,977.578 -2.17,-9.515 -6.09,-7.625 -8.79,-4.239 h -9.75 l -8.8,4.239 -6.08,7.625 -2.17,9.515 2.17,9.516 6.08,7.629 8.8,4.234 h 9.75 l 8.79,-4.234 6.09,-7.629 2.17,-9.516"
           style="fill:none;stroke:#00b200;stroke-width:5.30673;stroke-linecap:butt;stroke-linejoin:miter;stroke-miterlimit:10;stroke-dasharray:none;stroke-opacity:1"
           id="path1109" />
        <path
           d="m 1280.88,918.094 -2.17,-9.512 -6.08,-7.629 -8.8,-4.234 h -9.75 l -8.79,4.234 -6.09,7.629 -2.17,9.512 2.17,9.515 6.09,7.629 8.79,4.235 h 9.75 l 8.8,-4.235 6.08,-7.629 2.17,-9.515"
           style="fill:none;stroke:#00b200;stroke-width:5.30673;stroke-linecap:butt;stroke-linejoin:miter;stroke-miterlimit:10;stroke-dasharray:none;stroke-opacity:1"
           id="path1111" />
        <path
           d="m 1456.36,761.27 -2.17,-9.512 -6.09,-7.629 -8.79,-4.234 h -9.76 l -8.79,4.234 -6.08,7.629 -2.17,9.512 2.17,9.515 6.08,7.633 8.79,4.23 h 9.76 l 8.79,-4.23 6.09,-7.633 2.17,-9.515"
           style="fill:none;stroke:#00b200;stroke-width:5.30673;stroke-linecap:butt;stroke-linejoin:miter;stroke-miterlimit:10;stroke-dasharray:none;stroke-opacity:1"
           id="path1113" />
        <path
           d="m 1807.31,609.855 -2.17,-9.511 -6.09,-7.629 -8.79,-4.235 h -9.76 l -8.79,4.235 -6.08,7.629 -2.17,9.511 2.17,9.516 6.08,7.629 8.79,4.234 h 9.76 l 8.79,-4.234 6.09,-7.629 2.17,-9.516"
           style="fill:none;stroke:#00b200;stroke-width:5.30673;stroke-linecap:butt;stroke-linejoin:miter;stroke-miterlimit:10;stroke-dasharray:none;stroke-opacity:1"
           id="path1115" />
        <path
           d="m 2158.26,615.262 -2.17,-9.516 -6.09,-7.625 -8.79,-4.238 h -9.75 l -8.8,4.238 -6.08,7.625 -2.17,9.516 2.17,9.515 6.08,7.633 8.8,4.231 h 9.75 l 8.79,-4.231 6.09,-7.633 2.17,-9.515"
           style="fill:none;stroke:#00b200;stroke-width:5.30673;stroke-linecap:butt;stroke-linejoin:miter;stroke-miterlimit:10;stroke-dasharray:none;stroke-opacity:1"
           id="path1117" />
        <path
           d="m 1171.22,1042.47 h 35.09 -17.54 V 912.684 h -17.55 35.09"
           style="fill:none;stroke:#0000ff;stroke-width:7.07564;stroke-linecap:butt;stroke-linejoin:miter;stroke-miterlimit:10;stroke-dasharray:none;stroke-opacity:1"
           id="path1119" />
        <path
           d="m 1191.01,977.578 -0.43,-1.316 -1.12,-0.817 h -1.39 l -1.12,0.817 -0.43,1.316 0.43,1.32 1.12,0.817 h 1.39 l 1.12,-0.817 0.43,-1.32"
           style="fill:none;stroke:#b2b2ff;stroke-width:40.298;stroke-linecap:butt;stroke-linejoin:miter;stroke-miterlimit:10;stroke-dasharray:none;stroke-opacity:1"
           id="path1121" />
        <path
           d="m 1198.57,977.578 -1.87,-5.762 -4.91,-3.558 h -6.05 l -4.9,3.558 -1.88,5.762 1.88,5.758 4.9,3.562 h 6.05 l 4.91,-3.562 1.87,-5.758"
           style="fill:none;stroke:#b2b2ff;stroke-width:26.8653;stroke-linecap:butt;stroke-linejoin:miter;stroke-miterlimit:10;stroke-dasharray:none;stroke-opacity:1"
           id="path1123" />
        <path
           d="m 1203.61,977.578 -2.84,-8.723 -7.42,-5.386 h -9.17 l -7.42,5.386 -2.83,8.723 2.83,8.723 7.42,5.39 h 9.17 l 7.42,-5.39 2.84,-8.723"
           style="fill:none;stroke:#b2b2ff;stroke-width:17.9102;stroke-linecap:butt;stroke-linejoin:miter;stroke-miterlimit:10;stroke-dasharray:none;stroke-opacity:1"
           id="path1125" />
        <path
           d="m 1206.96,977.578 -1.8,-7.89 -5.05,-6.336 -7.3,-3.512 h -8.09 l -7.3,3.512 -5.05,6.336 -1.8,7.89 1.8,7.895 5.05,6.332 7.3,3.515 h 8.09 l 7.3,-3.515 5.05,-6.332 1.8,-7.895"
           style="fill:none;stroke:#b2b2ff;stroke-width:11.9401;stroke-linecap:butt;stroke-linejoin:miter;stroke-miterlimit:10;stroke-dasharray:none;stroke-opacity:1"
           id="path1127" />
        <path
           d="m 1209.2,977.578 -2.02,-8.863 -5.68,-7.113 -8.19,-3.946 h -9.09 l -8.2,3.946 -5.66,7.113 -2.03,8.863 2.03,8.867 5.66,7.11 8.2,3.949 h 9.09 l 8.19,-3.949 5.68,-7.11 2.02,-8.867"
           style="fill:none;stroke:#b2b2ff;stroke-width:7.96009;stroke-linecap:butt;stroke-linejoin:miter;stroke-miterlimit:10;stroke-dasharray:none;stroke-opacity:1"
           id="path1129" />
        <path
           d="m 1212.35,977.578 -2.33,-10.23 -6.55,-8.211 -9.45,-4.551 h -10.5 l -9.46,4.551 -6.54,8.211 -2.34,10.23 2.34,10.235 6.54,8.203 9.46,4.554 h 10.5 l 9.45,-4.554 6.55,-8.203 2.33,-10.235"
           style="fill:none;stroke:#0000ff;stroke-width:2.35855;stroke-linecap:butt;stroke-linejoin:miter;stroke-miterlimit:10;stroke-dasharray:none;stroke-opacity:1"
           id="path1131" />
        <path
           d="m 1211.68,977.578 -2.26,-9.945 -6.36,-7.977 -9.2,-4.422 h -10.2 l -9.19,4.422 -6.36,7.977 -2.27,9.945 2.27,9.949 6.36,7.977 9.19,4.422 h 10.2 l 9.2,-4.422 6.36,-7.977 2.26,-9.949"
           style="fill:none;stroke:#0000ff;stroke-width:3.53782;stroke-linecap:butt;stroke-linejoin:miter;stroke-miterlimit:10;stroke-dasharray:none;stroke-opacity:1"
           id="path1133" />
        <path
           d="m 1210.69,977.578 -2.17,-9.515 -6.09,-7.625 -8.79,-4.239 h -9.75 l -8.8,4.239 -6.08,7.625 -2.17,9.515 2.17,9.516 6.08,7.629 8.8,4.234 h 9.75 l 8.79,-4.234 6.09,-7.629 2.17,-9.516"
           style="fill:none;stroke:#0000ff;stroke-width:5.30673;stroke-linecap:butt;stroke-linejoin:miter;stroke-miterlimit:10;stroke-dasharray:none;stroke-opacity:1"
           id="path1135" />
      </g>
    </g>
    <g
       id="g2022"
       transform="matrix(0.32937433,0,0,0.32937433,-13.049439,-6.0539904)">
      <g
         style="fill:#000000;fill-opacity:1"
         id="id-4262c646-fc8d-486f-ab54-c10971e80f6b"
         transform="matrix(1.1814,0,0,1.1814,-173.92786,-114.45884)">
        <g
           transform="translate(133.768,146.72)"
           id="g1745">
          <path
             style="stroke:none"
             d="m 2.046875,-3.984375 h 0.9375 c 0.203125,0 0.3125,0 0.3125,-0.203125 0,-0.109375 -0.109375,-0.109375 -0.28125,-0.109375 h -0.875 C 2.5,-5.71875 2.546875,-5.90625 2.546875,-5.96875 c 0,-0.171875 -0.125,-0.265625 -0.296875,-0.265625 -0.03125,0 -0.3125,0 -0.390625,0.359375 L 1.46875,-4.296875 h -0.9375 c -0.203125,0 -0.296875,0 -0.296875,0.1875 0,0.125 0.078125,0.125 0.28125,0.125 h 0.875 C 0.671875,-1.15625 0.625,-0.984375 0.625,-0.8125 0.625,-0.265625 1,0.109375 1.546875,0.109375 2.5625,0.109375 3.125,-1.34375 3.125,-1.421875 3.125,-1.53125 3.046875,-1.53125 3.015625,-1.53125 2.921875,-1.53125 2.90625,-1.5 2.859375,-1.390625 2.4375,-0.34375 1.90625,-0.109375 1.5625,-0.109375 c -0.203125,0 -0.3125,-0.125 -0.3125,-0.453125 0,-0.25 0.03125,-0.3125 0.0625,-0.484375 z m 0,0"
             id="id-de89eaad-be4b-45be-92b9-f5eb81a20b27" />
        </g>
      </g>
      <g
         style="fill:#000000;fill-opacity:1"
         id="id-b7ce4e70-c60d-4bb5-bd1f-4b930106dd0d"
         transform="matrix(1.1814,0,0,1.1814,-173.92786,-114.45884)">
        <g
           transform="translate(137.366,148.214)"
           id="g1749">
          <path
             style="stroke:none"
             d="M 1.671875,-3.3125 V -4.40625 L 0.28125,-4.296875 v 0.3125 c 0.703125,0 0.78125,0.0625 0.78125,0.5625 V -0.75 c 0,0.4375 -0.109375,0.4375 -0.78125,0.4375 V 0 c 0.390625,-0.015625 0.859375,-0.03125 1.140625,-0.03125 0.390625,0 0.859375,0 1.265625,0.03125 V -0.3125 H 2.46875 c -0.734375,0 -0.75,-0.109375 -0.75,-0.46875 V -2.3125 c 0,-0.984375 0.421875,-1.875 1.171875,-1.875 0.0625,0 0.09375,0 0.109375,0.015625 -0.03125,0 -0.234375,0.125 -0.234375,0.390625 0,0.265625 0.21875,0.421875 0.4375,0.421875 0.171875,0 0.421875,-0.125 0.421875,-0.4375 0,-0.3125 -0.3125,-0.609375 -0.734375,-0.609375 -0.734375,0 -1.09375,0.671875 -1.21875,1.09375 z m 0,0"
             id="id-3467030d-4882-4428-92b7-c55f3ce88e27" />
        </g>
        <g
           transform="translate(141.268,148.214)"
           id="g1752">
          <path
             style="stroke:none"
             d="m 3.3125,-0.75 c 0.046875,0.390625 0.3125,0.8125 0.78125,0.8125 0.21875,0 0.828125,-0.140625 0.828125,-0.953125 v -0.5625 h -0.25 v 0.5625 c 0,0.578125 -0.25,0.640625 -0.359375,0.640625 -0.328125,0 -0.375,-0.453125 -0.375,-0.5 v -1.984375 c 0,-0.421875 0,-0.8125 -0.359375,-1.1875 C 3.1875,-4.3125 2.6875,-4.46875 2.21875,-4.46875 c -0.828125,0 -1.515625,0.46875 -1.515625,1.125 0,0.296875 0.203125,0.46875 0.46875,0.46875 0.28125,0 0.453125,-0.203125 0.453125,-0.453125 0,-0.125 -0.046875,-0.453125 -0.515625,-0.453125 C 1.390625,-4.140625 1.875,-4.25 2.1875,-4.25 c 0.5,0 1.0625,0.390625 1.0625,1.28125 v 0.359375 c -0.515625,0.03125 -1.203125,0.0625 -1.828125,0.359375 -0.75,0.34375 -1,0.859375 -1,1.296875 0,0.8125 0.96875,1.0625 1.59375,1.0625 0.65625,0 1.109375,-0.40625 1.296875,-0.859375 z M 3.25,-2.390625 v 1 c 0,0.9375 -0.71875,1.28125 -1.171875,1.28125 -0.484375,0 -0.890625,-0.34375 -0.890625,-0.84375 0,-0.546875 0.421875,-1.375 2.0625,-1.4375 z m 0,0"
             id="id-5954a665-14df-4d7c-8605-364c34064a39" />
        </g>
        <g
           transform="translate(146.25,148.214)"
           id="g1755">
          <path
             style="stroke:none"
             d="M 1.09375,-3.421875 V -0.75 c 0,0.4375 -0.109375,0.4375 -0.78125,0.4375 V 0 c 0.359375,-0.015625 0.859375,-0.03125 1.140625,-0.03125 0.25,0 0.765625,0.015625 1.109375,0.03125 v -0.3125 c -0.671875,0 -0.78125,0 -0.78125,-0.4375 V -2.59375 C 1.78125,-3.625 2.5,-4.1875 3.125,-4.1875 c 0.640625,0 0.75,0.53125 0.75,1.109375 V -0.75 c 0,0.4375 -0.109375,0.4375 -0.78125,0.4375 V 0 c 0.34375,-0.015625 0.859375,-0.03125 1.125,-0.03125 0.25,0 0.78125,0.015625 1.109375,0.03125 v -0.3125 c -0.65625,0 -0.765625,0 -0.765625,-0.4375 v -1.84375 c 0,-1.03125 0.703125,-1.59375 1.34375,-1.59375 0.625,0 0.734375,0.53125 0.734375,1.109375 V -0.75 c 0,0.4375 -0.109375,0.4375 -0.78125,0.4375 V 0 c 0.34375,-0.015625 0.859375,-0.03125 1.125,-0.03125 0.265625,0 0.78125,0.015625 1.125,0.03125 v -0.3125 c -0.515625,0 -0.765625,0 -0.78125,-0.296875 v -1.90625 c 0,-0.859375 0,-1.15625 -0.3125,-1.515625 -0.140625,-0.171875 -0.46875,-0.375 -1.046875,-0.375 -0.828125,0 -1.28125,0.59375 -1.4375,0.984375 C 4.390625,-4.296875 3.65625,-4.40625 3.203125,-4.40625 2.46875,-4.40625 2,-3.984375 1.71875,-3.359375 V -4.40625 L 0.3125,-4.296875 v 0.3125 c 0.703125,0 0.78125,0.0625 0.78125,0.5625 z m 0,0"
             id="id-2667c83c-9436-4467-a78e-60f9b2120cf2" />
        </g>
        <g
           transform="translate(154.551,148.214)"
           id="g1758">
          <path
             style="stroke:none"
             d="m 1.71875,-3.75 v -0.65625 l -1.4375,0.109375 v 0.3125 c 0.703125,0 0.78125,0.0625 0.78125,0.5 v 4.65625 C 1.0625,1.625 0.953125,1.625 0.28125,1.625 V 1.9375 C 0.625,1.921875 1.140625,1.90625 1.390625,1.90625 c 0.28125,0 0.78125,0.015625 1.125,0.03125 V 1.625 C 1.859375,1.625 1.75,1.625 1.75,1.171875 V -0.59375 c 0.046875,0.171875 0.46875,0.703125 1.21875,0.703125 1.1875,0 2.21875,-0.984375 2.21875,-2.265625 0,-1.265625 -0.953125,-2.25 -2.078125,-2.25 -0.78125,0 -1.203125,0.4375 -1.390625,0.65625 z M 1.75,-1.140625 v -2.21875 C 2.03125,-3.875 2.515625,-4.15625 3.03125,-4.15625 c 0.734375,0 1.328125,0.875 1.328125,2 0,1.203125 -0.6875,2.046875 -1.421875,2.046875 -0.40625,0 -0.78125,-0.203125 -1.046875,-0.609375 C 1.75,-0.921875 1.75,-0.9375 1.75,-1.140625 Z m 0,0"
             id="id-e310a9c6-78e9-4f93-a890-de300953bc2a" />
        </g>
      </g>
      <g
         style="fill:#000000;fill-opacity:1"
         id="id-521760ce-f5cd-4550-aeae-eea22455155a"
         transform="matrix(1.1814,0,0,1.1814,-173.92786,-114.45884)">
        <g
           transform="translate(163.905,146.72)"
           id="g1762">
          <path
             style="stroke:none"
             d="m 3.296875,2.390625 c 0,-0.03125 0,-0.046875 -0.171875,-0.21875 C 1.890625,0.921875 1.5625,-0.96875 1.5625,-2.5 c 0,-1.734375 0.375,-3.46875 1.609375,-4.703125 0.125,-0.125 0.125,-0.140625 0.125,-0.171875 0,-0.078125 -0.03125,-0.109375 -0.09375,-0.109375 -0.109375,0 -1,0.6875 -1.59375,1.953125 -0.5,1.09375 -0.625,2.203125 -0.625,3.03125 0,0.78125 0.109375,1.984375 0.65625,3.125 C 2.25,1.84375 3.09375,2.5 3.203125,2.5 c 0.0625,0 0.09375,-0.03125 0.09375,-0.109375 z m 0,0"
             id="id-5421842f-328f-4bfb-94b4-0104224b8a2f" />
        </g>
      </g>
      <g
         style="fill:#000000;fill-opacity:1"
         id="id-ab1222bc-adc5-4eea-9602-2bc95e652fd6"
         transform="matrix(1.1814,0,0,1.1814,-173.92786,-114.45884)">
        <g
           transform="translate(167.78,146.72)"
           id="g1766">
          <path
             style="stroke:none"
             d="m 2.296875,-3.5 c 0.0625,-0.203125 0.15625,-0.59375 0.15625,-0.640625 0,-0.171875 -0.125,-0.265625 -0.296875,-0.265625 -0.015625,0 -0.296875,0.015625 -0.390625,0.359375 l -1.4375,5.765625 c -0.03125,0.125 -0.03125,0.140625 -0.03125,0.171875 0,0.140625 0.109375,0.265625 0.28125,0.265625 0.203125,0 0.328125,-0.1875 0.34375,-0.21875 C 0.96875,1.859375 1.09375,1.328125 1.46875,-0.203125 1.796875,0.0625 2.25,0.109375 2.4375,0.109375 c 0.703125,0 1.09375,-0.453125 1.328125,-0.734375 0.09375,0.453125 0.46875,0.734375 0.90625,0.734375 0.34375,0 0.578125,-0.234375 0.734375,-0.546875 0.171875,-0.359375 0.296875,-0.96875 0.296875,-0.984375 0,-0.109375 -0.09375,-0.109375 -0.125,-0.109375 -0.09375,0 -0.109375,0.046875 -0.140625,0.1875 -0.15625,0.640625 -0.34375,1.234375 -0.75,1.234375 -0.265625,0 -0.296875,-0.265625 -0.296875,-0.453125 0,-0.21875 0.109375,-0.6875 0.1875,-1.046875 L 4.859375,-2.6875 C 4.890625,-2.828125 5,-3.203125 5.03125,-3.359375 5.078125,-3.59375 5.1875,-3.96875 5.1875,-4.03125 c 0,-0.171875 -0.140625,-0.265625 -0.296875,-0.265625 -0.046875,0 -0.3125,0.015625 -0.390625,0.34375 l -0.46875,1.875 c -0.109375,0.5 -0.21875,0.90625 -0.25,1.015625 -0.015625,0.046875 -0.484375,0.953125 -1.296875,0.953125 -0.5,0 -0.734375,-0.328125 -0.734375,-0.875 0,-0.28125 0.0625,-0.5625 0.140625,-0.84375 z m 0,0"
             id="id-96eb2f7b-6179-4d21-8efc-ce0c4869952c" />
        </g>
      </g>
      <g
         style="fill:#000000;fill-opacity:1"
         id="id-54a86e05-aa47-4f53-b4d8-dc7daa3d85f8"
         transform="matrix(1.1814,0,0,1.1814,-173.92786,-114.45884)">
        <g
           transform="translate(173.783,146.72)"
           id="g1770">
          <path
             style="stroke:none"
             d="m 2.078125,-1.9375 c 0.21875,0.046875 1.03125,0.203125 1.03125,0.921875 0,0.5 -0.34375,0.90625 -1.125,0.90625 -0.84375,0 -1.203125,-0.5625 -1.390625,-1.421875 C 0.5625,-1.65625 0.5625,-1.6875 0.453125,-1.6875 c -0.125,0 -0.125,0.0625 -0.125,0.234375 V -0.125 c 0,0.171875 0,0.234375 0.109375,0.234375 0.046875,0 0.0625,-0.015625 0.25,-0.203125 0.015625,-0.015625 0.015625,-0.03125 0.203125,-0.21875 0.4375,0.40625 0.890625,0.421875 1.09375,0.421875 1.140625,0 1.609375,-0.671875 1.609375,-1.390625 0,-0.515625 -0.296875,-0.828125 -0.421875,-0.9375 C 2.84375,-2.546875 2.453125,-2.625 2.03125,-2.703125 1.46875,-2.8125 0.8125,-2.9375 0.8125,-3.515625 c 0,-0.359375 0.25,-0.765625 1.109375,-0.765625 1.09375,0 1.15625,0.90625 1.171875,1.203125 0,0.09375 0.09375,0.09375 0.109375,0.09375 0.140625,0 0.140625,-0.046875 0.140625,-0.234375 v -1.015625 c 0,-0.15625 0,-0.234375 -0.109375,-0.234375 -0.046875,0 -0.078125,0 -0.203125,0.125 -0.03125,0.03125 -0.125,0.125 -0.171875,0.15625 -0.375,-0.28125 -0.78125,-0.28125 -0.9375,-0.28125 -1.21875,0 -1.59375,0.671875 -1.59375,1.234375 0,0.34375 0.15625,0.625 0.421875,0.84375 0.328125,0.25 0.609375,0.3125 1.328125,0.453125 z m 0,0"
             id="id-f8aeeec2-1103-4374-92bc-5e47a2b93e9f" />
        </g>
        <g
           transform="translate(177.712,146.72)"
           id="g1773">
          <path
             style="stroke:none"
             d="m 2.875,-2.5 c 0,-0.765625 -0.109375,-1.96875 -0.65625,-3.109375 -0.59375,-1.21875 -1.453125,-1.875 -1.546875,-1.875 -0.0625,0 -0.109375,0.046875 -0.109375,0.109375 0,0.03125 0,0.046875 0.1875,0.234375 0.984375,0.984375 1.546875,2.5625 1.546875,4.640625 0,1.71875 -0.359375,3.46875 -1.59375,4.71875 C 0.5625,2.34375 0.5625,2.359375 0.5625,2.390625 0.5625,2.453125 0.609375,2.5 0.671875,2.5 0.765625,2.5 1.671875,1.8125 2.25,0.546875 2.765625,-0.546875 2.875,-1.65625 2.875,-2.5 Z m 0,0"
             id="id-c58f3225-69b2-43c5-ac33-2d6e05558e09" />
        </g>
      </g>
    </g>
    <g
       transform="matrix(0,-0.39660517,0.39660517,0,-59.209567,-11.711682)"
       ns16:version="1.1.0"
       ns16:texconverter="pdflatex"
       ns16:pdfconverter="inkscape"
       ns16:text="$C_\\textrm{sim}~(\\textrm{pm}^{-1})$\n"
       ns16:preamble="default_packages.tex"
       ns16:scale="3.3488585654508696"
       ns16:alignment="middle center"
       ns16:jacobian_sqrt="1.1814"
       id="g2646">
      <defs
         id="id-6590fcc4-6a84-4501-9d5c-801ba52be08e">
        <g
           id="id-3fa576f5-b949-46cc-8666-52a71ce0f241">
          <symbol
             overflow="visible"
             id="id-c6c66df1-cbb9-4f83-a77f-648966ca5adb">
            <path
               style="stroke:none"
               d=""
               id="id-cc538987-f6b2-4c8b-b07f-e0c6e6dda005" />
          </symbol>
          <symbol
             overflow="visible"
             id="id-7e24fd82-8895-4ac7-a4d4-79a5facfb4d6">
            <path
               style="stroke:none"
               d="m 7.578125,-6.921875 c 0,-0.03125 -0.015625,-0.109375 -0.109375,-0.109375 -0.03125,0 -0.046875,0.015625 -0.15625,0.125 L 6.625,-6.140625 C 6.53125,-6.28125 6.078125,-7.03125 4.96875,-7.03125 2.734375,-7.03125 0.5,-4.828125 0.5,-2.515625 0.5,-0.875 1.671875,0.21875 3.203125,0.21875 c 0.859375,0 1.625,-0.390625 2.15625,-0.859375 0.921875,-0.8125 1.09375,-1.71875 1.09375,-1.75 C 6.453125,-2.5 6.34375,-2.5 6.328125,-2.5 c -0.0625,0 -0.109375,0.03125 -0.125,0.109375 -0.09375,0.28125 -0.328125,1 -1.015625,1.578125 -0.6875,0.546875 -1.3125,0.71875 -1.828125,0.71875 -0.890625,0 -1.953125,-0.515625 -1.953125,-2.0625 0,-0.578125 0.203125,-2.1875 1.203125,-3.359375 0.609375,-0.703125 1.546875,-1.203125 2.4375,-1.203125 1.015625,0 1.609375,0.765625 1.609375,1.921875 0,0.40625 -0.03125,0.40625 -0.03125,0.515625 0,0.09375 0.109375,0.09375 0.140625,0.09375 0.125,0 0.125,-0.015625 0.1875,-0.203125 z m 0,0"
               id="id-7f21525b-3d46-4a7a-8d9d-b6ec4219368d" />
          </symbol>
          <symbol
             overflow="visible"
             id="id-6608da06-f4f1-41c9-af58-30c431029164">
            <path
               style="stroke:none"
               d=""
               id="id-eee18440-962c-48cc-93e8-269299d55051" />
          </symbol>
          <symbol
             overflow="visible"
             id="id-bed1a929-637d-47ea-8d14-680e0f0141fc">
            <path
               style="stroke:none"
               d="m 2.078125,-1.9375 c 0.21875,0.046875 1.03125,0.203125 1.03125,0.921875 0,0.5 -0.34375,0.90625 -1.125,0.90625 -0.84375,0 -1.203125,-0.5625 -1.390625,-1.421875 C 0.5625,-1.65625 0.5625,-1.6875 0.453125,-1.6875 c -0.125,0 -0.125,0.0625 -0.125,0.234375 V -0.125 c 0,0.171875 0,0.234375 0.109375,0.234375 0.046875,0 0.0625,-0.015625 0.25,-0.203125 0.015625,-0.015625 0.015625,-0.03125 0.203125,-0.21875 0.4375,0.40625 0.890625,0.421875 1.09375,0.421875 1.140625,0 1.609375,-0.671875 1.609375,-1.390625 0,-0.515625 -0.296875,-0.828125 -0.421875,-0.9375 C 2.84375,-2.546875 2.453125,-2.625 2.03125,-2.703125 1.46875,-2.8125 0.8125,-2.9375 0.8125,-3.515625 c 0,-0.359375 0.25,-0.765625 1.109375,-0.765625 1.09375,0 1.15625,0.90625 1.171875,1.203125 0,0.09375 0.09375,0.09375 0.109375,0.09375 0.140625,0 0.140625,-0.046875 0.140625,-0.234375 v -1.015625 c 0,-0.15625 0,-0.234375 -0.109375,-0.234375 -0.046875,0 -0.078125,0 -0.203125,0.125 -0.03125,0.03125 -0.125,0.125 -0.171875,0.15625 -0.375,-0.28125 -0.78125,-0.28125 -0.9375,-0.28125 -1.21875,0 -1.59375,0.671875 -1.59375,1.234375 0,0.34375 0.15625,0.625 0.421875,0.84375 0.328125,0.25 0.609375,0.3125 1.328125,0.453125 z m 0,0"
               id="id-0d9ac523-2250-4269-87d7-264f9f094308" />
          </symbol>
          <symbol
             overflow="visible"
             id="id-e6cc0a9b-d299-4bfb-a036-cae8af6821dc">
            <path
               style="stroke:none"
               d="M 1.765625,-4.40625 0.375,-4.296875 v 0.3125 c 0.640625,0 0.734375,0.0625 0.734375,0.546875 V -0.75 c 0,0.4375 -0.109375,0.4375 -0.78125,0.4375 V 0 C 0.640625,-0.015625 1.1875,-0.03125 1.421875,-0.03125 1.78125,-0.03125 2.125,-0.015625 2.46875,0 v -0.3125 c -0.671875,0 -0.703125,-0.046875 -0.703125,-0.4375 z m 0.03125,-1.734375 c 0,-0.3125 -0.234375,-0.53125 -0.515625,-0.53125 -0.3125,0 -0.53125,0.265625 -0.53125,0.53125 0,0.265625 0.21875,0.53125 0.53125,0.53125 0.28125,0 0.515625,-0.21875 0.515625,-0.53125 z m 0,0"
               id="id-8ec04741-8df6-48a9-9bfb-e76e31488b8e" />
          </symbol>
          <symbol
             overflow="visible"
             id="id-b127f58a-3339-4e8a-bee6-bb299c53a23a">
            <path
               style="stroke:none"
               d="M 1.09375,-3.421875 V -0.75 c 0,0.4375 -0.109375,0.4375 -0.78125,0.4375 V 0 c 0.359375,-0.015625 0.859375,-0.03125 1.140625,-0.03125 0.25,0 0.765625,0.015625 1.109375,0.03125 v -0.3125 c -0.671875,0 -0.78125,0 -0.78125,-0.4375 V -2.59375 C 1.78125,-3.625 2.5,-4.1875 3.125,-4.1875 c 0.640625,0 0.75,0.53125 0.75,1.109375 V -0.75 c 0,0.4375 -0.109375,0.4375 -0.78125,0.4375 V 0 c 0.34375,-0.015625 0.859375,-0.03125 1.125,-0.03125 0.25,0 0.78125,0.015625 1.109375,0.03125 v -0.3125 c -0.65625,0 -0.765625,0 -0.765625,-0.4375 v -1.84375 c 0,-1.03125 0.703125,-1.59375 1.34375,-1.59375 0.625,0 0.734375,0.53125 0.734375,1.109375 V -0.75 c 0,0.4375 -0.109375,0.4375 -0.78125,0.4375 V 0 c 0.34375,-0.015625 0.859375,-0.03125 1.125,-0.03125 0.265625,0 0.78125,0.015625 1.125,0.03125 v -0.3125 c -0.515625,0 -0.765625,0 -0.78125,-0.296875 v -1.90625 c 0,-0.859375 0,-1.15625 -0.3125,-1.515625 -0.140625,-0.171875 -0.46875,-0.375 -1.046875,-0.375 -0.828125,0 -1.28125,0.59375 -1.4375,0.984375 C 4.390625,-4.296875 3.65625,-4.40625 3.203125,-4.40625 2.46875,-4.40625 2,-3.984375 1.71875,-3.359375 V -4.40625 L 0.3125,-4.296875 v 0.3125 c 0.703125,0 0.78125,0.0625 0.78125,0.5625 z m 0,0"
               id="id-4ecad334-818b-4436-bc2a-ae222a93eef9" />
          </symbol>
          <symbol
             overflow="visible"
             id="id-abd0628b-eed4-4ba9-a759-e7417f49c2a2">
            <path
               style="stroke:none"
               d="m 3.296875,2.390625 c 0,-0.03125 0,-0.046875 -0.171875,-0.21875 C 1.890625,0.921875 1.5625,-0.96875 1.5625,-2.5 c 0,-1.734375 0.375,-3.46875 1.609375,-4.703125 0.125,-0.125 0.125,-0.140625 0.125,-0.171875 0,-0.078125 -0.03125,-0.109375 -0.09375,-0.109375 -0.109375,0 -1,0.6875 -1.59375,1.953125 -0.5,1.09375 -0.625,2.203125 -0.625,3.03125 0,0.78125 0.109375,1.984375 0.65625,3.125 C 2.25,1.84375 3.09375,2.5 3.203125,2.5 c 0.0625,0 0.09375,-0.03125 0.09375,-0.109375 z m 0,0"
               id="id-27b2bd8a-8c9b-4283-a213-9556d018ee96" />
          </symbol>
          <symbol
             overflow="visible"
             id="id-c5896299-d1a7-412b-9b9a-80e07f09a48b">
            <path
               style="stroke:none"
               d="m 1.71875,-3.75 v -0.65625 l -1.4375,0.109375 v 0.3125 c 0.703125,0 0.78125,0.0625 0.78125,0.5 v 4.65625 C 1.0625,1.625 0.953125,1.625 0.28125,1.625 V 1.9375 C 0.625,1.921875 1.140625,1.90625 1.390625,1.90625 c 0.28125,0 0.78125,0.015625 1.125,0.03125 V 1.625 C 1.859375,1.625 1.75,1.625 1.75,1.171875 V -0.59375 c 0.046875,0.171875 0.46875,0.703125 1.21875,0.703125 1.1875,0 2.21875,-0.984375 2.21875,-2.265625 0,-1.265625 -0.953125,-2.25 -2.078125,-2.25 -0.78125,0 -1.203125,0.4375 -1.390625,0.65625 z M 1.75,-1.140625 v -2.21875 C 2.03125,-3.875 2.515625,-4.15625 3.03125,-4.15625 c 0.734375,0 1.328125,0.875 1.328125,2 0,1.203125 -0.6875,2.046875 -1.421875,2.046875 -0.40625,0 -0.78125,-0.203125 -1.046875,-0.609375 C 1.75,-0.921875 1.75,-0.9375 1.75,-1.140625 Z m 0,0"
               id="id-1d84455a-c5f6-4b30-b693-31e8810f9399" />
          </symbol>
          <symbol
             overflow="visible"
             id="id-39543001-a186-4014-a0b5-a691566caaa9">
            <path
               style="stroke:none"
               d="m 2.875,-2.5 c 0,-0.765625 -0.109375,-1.96875 -0.65625,-3.109375 -0.59375,-1.21875 -1.453125,-1.875 -1.546875,-1.875 -0.0625,0 -0.109375,0.046875 -0.109375,0.109375 0,0.03125 0,0.046875 0.1875,0.234375 0.984375,0.984375 1.546875,2.5625 1.546875,4.640625 0,1.71875 -0.359375,3.46875 -1.59375,4.71875 C 0.5625,2.34375 0.5625,2.359375 0.5625,2.390625 0.5625,2.453125 0.609375,2.5 0.671875,2.5 0.765625,2.5 1.671875,1.8125 2.25,0.546875 2.765625,-0.546875 2.875,-1.65625 2.875,-2.5 Z m 0,0"
               id="id-5da50eb5-a2c3-43cc-b69e-3d5b306857e9" />
          </symbol>
          <symbol
             overflow="visible"
             id="id-26b6665e-0bb9-4f93-8910-c110fd11b6c7">
            <path
               style="stroke:none"
               d=""
               id="id-bf8f9eb9-bd64-4c9f-a312-b3b6eed1537d" />
          </symbol>
          <symbol
             overflow="visible"
             id="id-b744a1f5-59c0-4eb5-a1ed-0805aa155815">
            <path
               style="stroke:none"
               d="m 5.1875,-1.578125 c 0.109375,0 0.28125,0 0.28125,-0.15625 0,-0.1875 -0.171875,-0.1875 -0.28125,-0.1875 H 1.03125 c -0.109375,0 -0.28125,0 -0.28125,0.171875 0,0.171875 0.15625,0.171875 0.28125,0.171875 z m 0,0"
               id="id-61d0e045-3559-46fe-b589-a033f9fbbf05" />
          </symbol>
          <symbol
             overflow="visible"
             id="id-f994304c-8862-429e-8e92-1bbbe1479edb">
            <path
               style="stroke:none"
               d=""
               id="id-293ddc18-f1a8-42b0-8166-ff7495d9619f" />
          </symbol>
          <symbol
             overflow="visible"
             id="id-2135ee00-cd81-4508-964b-3ef05084db85">
            <path
               style="stroke:none"
               d="m 2.328125,-4.4375 c 0,-0.1875 0,-0.1875 -0.203125,-0.1875 -0.453125,0.4375 -1.078125,0.4375 -1.359375,0.4375 v 0.25 c 0.15625,0 0.625,0 1,-0.1875 v 3.546875 c 0,0.234375 0,0.328125 -0.6875,0.328125 H 0.8125 V 0 c 0.125,0 0.984375,-0.03125 1.234375,-0.03125 0.21875,0 1.09375,0.03125 1.25,0.03125 V -0.25 H 3.03125 c -0.703125,0 -0.703125,-0.09375 -0.703125,-0.328125 z m 0,0"
               id="id-63f51af2-e1ed-4e18-932b-e45fb86db2a0" />
          </symbol>
        </g>
      </defs>
      <g
         id="id-7b999f0b-2d19-436a-84fc-8f1e66ef2f31"
         transform="translate(-149.212,-126.525)">
        <g
           style="fill:#000000;fill-opacity:1"
           id="id-d35223e3-ff96-4481-947b-3fce98c72af4">
          <g
             transform="translate(148.712,134.765)"
             id="g2610">
            <path
               style="stroke:none"
               d="m 7.578125,-6.921875 c 0,-0.03125 -0.015625,-0.109375 -0.109375,-0.109375 -0.03125,0 -0.046875,0.015625 -0.15625,0.125 L 6.625,-6.140625 C 6.53125,-6.28125 6.078125,-7.03125 4.96875,-7.03125 2.734375,-7.03125 0.5,-4.828125 0.5,-2.515625 0.5,-0.875 1.671875,0.21875 3.203125,0.21875 c 0.859375,0 1.625,-0.390625 2.15625,-0.859375 0.921875,-0.8125 1.09375,-1.71875 1.09375,-1.75 C 6.453125,-2.5 6.34375,-2.5 6.328125,-2.5 c -0.0625,0 -0.109375,0.03125 -0.125,0.109375 -0.09375,0.28125 -0.328125,1 -1.015625,1.578125 -0.6875,0.546875 -1.3125,0.71875 -1.828125,0.71875 -0.890625,0 -1.953125,-0.515625 -1.953125,-2.0625 0,-0.578125 0.203125,-2.1875 1.203125,-3.359375 0.609375,-0.703125 1.546875,-1.203125 2.4375,-1.203125 1.015625,0 1.609375,0.765625 1.609375,1.921875 0,0.40625 -0.03125,0.40625 -0.03125,0.515625 0,0.09375 0.109375,0.09375 0.140625,0.09375 0.125,0 0.125,-0.015625 0.1875,-0.203125 z m 0,0"
               id="id-10447457-6e38-4f22-8cfa-2829ad5b9bdb" />
          </g>
        </g>
        <g
           style="fill:#000000;fill-opacity:1"
           id="id-18559fc0-8c42-4eb1-b29e-c7eb7065ce4b">
          <g
             transform="translate(155.833,137.987)"
             id="g2614">
            <path
               style="stroke:none"
               d="m 2.078125,-1.9375 c 0.21875,0.046875 1.03125,0.203125 1.03125,0.921875 0,0.5 -0.34375,0.90625 -1.125,0.90625 -0.84375,0 -1.203125,-0.5625 -1.390625,-1.421875 C 0.5625,-1.65625 0.5625,-1.6875 0.453125,-1.6875 c -0.125,0 -0.125,0.0625 -0.125,0.234375 V -0.125 c 0,0.171875 0,0.234375 0.109375,0.234375 0.046875,0 0.0625,-0.015625 0.25,-0.203125 0.015625,-0.015625 0.015625,-0.03125 0.203125,-0.21875 0.4375,0.40625 0.890625,0.421875 1.09375,0.421875 1.140625,0 1.609375,-0.671875 1.609375,-1.390625 0,-0.515625 -0.296875,-0.828125 -0.421875,-0.9375 C 2.84375,-2.546875 2.453125,-2.625 2.03125,-2.703125 1.46875,-2.8125 0.8125,-2.9375 0.8125,-3.515625 c 0,-0.359375 0.25,-0.765625 1.109375,-0.765625 1.09375,0 1.15625,0.90625 1.171875,1.203125 0,0.09375 0.09375,0.09375 0.109375,0.09375 0.140625,0 0.140625,-0.046875 0.140625,-0.234375 v -1.015625 c 0,-0.15625 0,-0.234375 -0.109375,-0.234375 -0.046875,0 -0.078125,0 -0.203125,0.125 -0.03125,0.03125 -0.125,0.125 -0.171875,0.15625 -0.375,-0.28125 -0.78125,-0.28125 -0.9375,-0.28125 -1.21875,0 -1.59375,0.671875 -1.59375,1.234375 0,0.34375 0.15625,0.625 0.421875,0.84375 0.328125,0.25 0.609375,0.3125 1.328125,0.453125 z m 0,0"
               id="id-a1615080-0e7d-4e36-8013-13d9638928f9" />
          </g>
          <g
             transform="translate(159.762,137.987)"
             id="g2617">
            <path
               style="stroke:none"
               d="M 1.765625,-4.40625 0.375,-4.296875 v 0.3125 c 0.640625,0 0.734375,0.0625 0.734375,0.546875 V -0.75 c 0,0.4375 -0.109375,0.4375 -0.78125,0.4375 V 0 C 0.640625,-0.015625 1.1875,-0.03125 1.421875,-0.03125 1.78125,-0.03125 2.125,-0.015625 2.46875,0 v -0.3125 c -0.671875,0 -0.703125,-0.046875 -0.703125,-0.4375 z m 0.03125,-1.734375 c 0,-0.3125 -0.234375,-0.53125 -0.515625,-0.53125 -0.3125,0 -0.53125,0.265625 -0.53125,0.53125 0,0.265625 0.21875,0.53125 0.53125,0.53125 0.28125,0 0.515625,-0.21875 0.515625,-0.53125 z m 0,0"
               id="id-899d1268-cbea-48dc-aee7-97b73dd1d328" />
          </g>
          <g
             transform="translate(162.53,137.987)"
             id="g2620">
            <path
               style="stroke:none"
               d="M 1.09375,-3.421875 V -0.75 c 0,0.4375 -0.109375,0.4375 -0.78125,0.4375 V 0 c 0.359375,-0.015625 0.859375,-0.03125 1.140625,-0.03125 0.25,0 0.765625,0.015625 1.109375,0.03125 v -0.3125 c -0.671875,0 -0.78125,0 -0.78125,-0.4375 V -2.59375 C 1.78125,-3.625 2.5,-4.1875 3.125,-4.1875 c 0.640625,0 0.75,0.53125 0.75,1.109375 V -0.75 c 0,0.4375 -0.109375,0.4375 -0.78125,0.4375 V 0 c 0.34375,-0.015625 0.859375,-0.03125 1.125,-0.03125 0.25,0 0.78125,0.015625 1.109375,0.03125 v -0.3125 c -0.65625,0 -0.765625,0 -0.765625,-0.4375 v -1.84375 c 0,-1.03125 0.703125,-1.59375 1.34375,-1.59375 0.625,0 0.734375,0.53125 0.734375,1.109375 V -0.75 c 0,0.4375 -0.109375,0.4375 -0.78125,0.4375 V 0 c 0.34375,-0.015625 0.859375,-0.03125 1.125,-0.03125 0.265625,0 0.78125,0.015625 1.125,0.03125 v -0.3125 c -0.515625,0 -0.765625,0 -0.78125,-0.296875 v -1.90625 c 0,-0.859375 0,-1.15625 -0.3125,-1.515625 -0.140625,-0.171875 -0.46875,-0.375 -1.046875,-0.375 -0.828125,0 -1.28125,0.59375 -1.4375,0.984375 C 4.390625,-4.296875 3.65625,-4.40625 3.203125,-4.40625 2.46875,-4.40625 2,-3.984375 1.71875,-3.359375 V -4.40625 L 0.3125,-4.296875 v 0.3125 c 0.703125,0 0.78125,0.0625 0.78125,0.5625 z m 0,0"
               id="id-0f7be8b9-86b0-4d80-9055-98c0d99d3fa1" />
          </g>
        </g>
        <g
           style="fill:#000000;fill-opacity:1"
           id="id-5f1e4849-96b6-4ab8-a371-22ac658d7cb3">
          <g
             transform="translate(174.651,134.765)"
             id="g2624">
            <path
               style="stroke:none"
               d="m 3.296875,2.390625 c 0,-0.03125 0,-0.046875 -0.171875,-0.21875 C 1.890625,0.921875 1.5625,-0.96875 1.5625,-2.5 c 0,-1.734375 0.375,-3.46875 1.609375,-4.703125 0.125,-0.125 0.125,-0.140625 0.125,-0.171875 0,-0.078125 -0.03125,-0.109375 -0.09375,-0.109375 -0.109375,0 -1,0.6875 -1.59375,1.953125 -0.5,1.09375 -0.625,2.203125 -0.625,3.03125 0,0.78125 0.109375,1.984375 0.65625,3.125 C 2.25,1.84375 3.09375,2.5 3.203125,2.5 c 0.0625,0 0.09375,-0.03125 0.09375,-0.109375 z m 0,0"
               id="id-2480a355-943e-48f3-9558-1808ef62ef99" />
          </g>
          <g
             transform="translate(178.525,134.765)"
             id="g2627">
            <path
               style="stroke:none"
               d="m 1.71875,-3.75 v -0.65625 l -1.4375,0.109375 v 0.3125 c 0.703125,0 0.78125,0.0625 0.78125,0.5 v 4.65625 C 1.0625,1.625 0.953125,1.625 0.28125,1.625 V 1.9375 C 0.625,1.921875 1.140625,1.90625 1.390625,1.90625 c 0.28125,0 0.78125,0.015625 1.125,0.03125 V 1.625 C 1.859375,1.625 1.75,1.625 1.75,1.171875 V -0.59375 c 0.046875,0.171875 0.46875,0.703125 1.21875,0.703125 1.1875,0 2.21875,-0.984375 2.21875,-2.265625 0,-1.265625 -0.953125,-2.25 -2.078125,-2.25 -0.78125,0 -1.203125,0.4375 -1.390625,0.65625 z M 1.75,-1.140625 v -2.21875 C 2.03125,-3.875 2.515625,-4.15625 3.03125,-4.15625 c 0.734375,0 1.328125,0.875 1.328125,2 0,1.203125 -0.6875,2.046875 -1.421875,2.046875 -0.40625,0 -0.78125,-0.203125 -1.046875,-0.609375 C 1.75,-0.921875 1.75,-0.9375 1.75,-1.140625 Z m 0,0"
               id="id-ea1ebf2f-9b37-4d12-a0d9-e951d8159c84" />
          </g>
          <g
             transform="translate(184.061,134.765)"
             id="g2630">
            <path
               style="stroke:none"
               d="M 1.09375,-3.421875 V -0.75 c 0,0.4375 -0.109375,0.4375 -0.78125,0.4375 V 0 c 0.359375,-0.015625 0.859375,-0.03125 1.140625,-0.03125 0.25,0 0.765625,0.015625 1.109375,0.03125 v -0.3125 c -0.671875,0 -0.78125,0 -0.78125,-0.4375 V -2.59375 C 1.78125,-3.625 2.5,-4.1875 3.125,-4.1875 c 0.640625,0 0.75,0.53125 0.75,1.109375 V -0.75 c 0,0.4375 -0.109375,0.4375 -0.78125,0.4375 V 0 c 0.34375,-0.015625 0.859375,-0.03125 1.125,-0.03125 0.25,0 0.78125,0.015625 1.109375,0.03125 v -0.3125 c -0.65625,0 -0.765625,0 -0.765625,-0.4375 v -1.84375 c 0,-1.03125 0.703125,-1.59375 1.34375,-1.59375 0.625,0 0.734375,0.53125 0.734375,1.109375 V -0.75 c 0,0.4375 -0.109375,0.4375 -0.78125,0.4375 V 0 c 0.34375,-0.015625 0.859375,-0.03125 1.125,-0.03125 0.265625,0 0.78125,0.015625 1.125,0.03125 v -0.3125 c -0.515625,0 -0.765625,0 -0.78125,-0.296875 v -1.90625 c 0,-0.859375 0,-1.15625 -0.3125,-1.515625 -0.140625,-0.171875 -0.46875,-0.375 -1.046875,-0.375 -0.828125,0 -1.28125,0.59375 -1.4375,0.984375 C 4.390625,-4.296875 3.65625,-4.40625 3.203125,-4.40625 2.46875,-4.40625 2,-3.984375 1.71875,-3.359375 V -4.40625 L 0.3125,-4.296875 v 0.3125 c 0.703125,0 0.78125,0.0625 0.78125,0.5625 z m 0,0"
               id="id-a53d7ca6-5ba8-4180-a9aa-a4c1fea14063" />
          </g>
        </g>
        <g
           style="fill:#000000;fill-opacity:1"
           id="id-adbbeb5d-6c46-4e3c-8d63-d7f30f45e882">
          <g
             transform="translate(192.363,131.15)"
             id="g2634">
            <path
               style="stroke:none"
               d="m 5.1875,-1.578125 c 0.109375,0 0.28125,0 0.28125,-0.15625 0,-0.1875 -0.171875,-0.1875 -0.28125,-0.1875 H 1.03125 c -0.109375,0 -0.28125,0 -0.28125,0.171875 0,0.171875 0.15625,0.171875 0.28125,0.171875 z m 0,0"
               id="id-c36054c6-f995-45f5-82e5-de603e082d7f" />
          </g>
        </g>
        <g
           style="fill:#000000;fill-opacity:1"
           id="id-0c7daeab-69fd-43f7-9156-6d78af2ff4b9">
          <g
             transform="translate(198.589,131.15)"
             id="g2638">
            <path
               style="stroke:none"
               d="m 2.328125,-4.4375 c 0,-0.1875 0,-0.1875 -0.203125,-0.1875 -0.453125,0.4375 -1.078125,0.4375 -1.359375,0.4375 v 0.25 c 0.15625,0 0.625,0 1,-0.1875 v 3.546875 c 0,0.234375 0,0.328125 -0.6875,0.328125 H 0.8125 V 0 c 0.125,0 0.984375,-0.03125 1.234375,-0.03125 0.21875,0 1.09375,0.03125 1.25,0.03125 V -0.25 H 3.03125 c -0.703125,0 -0.703125,-0.09375 -0.703125,-0.328125 z m 0,0"
               id="id-25d86b35-b270-4163-86cb-0c3b6ce4ded3" />
          </g>
        </g>
        <g
           style="fill:#000000;fill-opacity:1"
           id="id-e1e4cfe5-8866-486f-b621-21ede75c753c">
          <g
             transform="translate(203.059,134.765)"
             id="g2642">
            <path
               style="stroke:none"
               d="m 2.875,-2.5 c 0,-0.765625 -0.109375,-1.96875 -0.65625,-3.109375 -0.59375,-1.21875 -1.453125,-1.875 -1.546875,-1.875 -0.0625,0 -0.109375,0.046875 -0.109375,0.109375 0,0.03125 0,0.046875 0.1875,0.234375 0.984375,0.984375 1.546875,2.5625 1.546875,4.640625 0,1.71875 -0.359375,3.46875 -1.59375,4.71875 C 0.5625,2.34375 0.5625,2.359375 0.5625,2.390625 0.5625,2.453125 0.609375,2.5 0.671875,2.5 0.765625,2.5 1.671875,1.8125 2.25,0.546875 2.765625,-0.546875 2.875,-1.65625 2.875,-2.5 Z m 0,0"
               id="id-90f3acaf-698d-435a-836e-e2e35a6612c8" />
          </g>
        </g>
      </g>
    </g>
  </g>
</svg>
