<?xml version="1.0" encoding="UTF-8" standalone="no"?>
<svg
   xmlns:dc="http://purl.org/dc/elements/1.1/"
   xmlns:cc="http://creativecommons.org/ns#"
   xmlns:rdf="http://www.w3.org/1999/02/22-rdf-syntax-ns#"
   xmlns:svg="http://www.w3.org/2000/svg"
   xmlns="http://www.w3.org/2000/svg"
   xmlns:sodipodi="http://sodipodi.sourceforge.net/DTD/sodipodi-0.dtd"
   xmlns:inkscape="http://www.inkscape.org/namespaces/inkscape"
   width="92.096794mm"
   height="69.84053mm"
   viewBox="0 0 92.096794 69.84053"
   version="1.1"
   id="svg8"
   inkscape:version="1.0.1 (3bc2e813f5, 2020-09-07)"
   sodipodi:docname="fig-quench.svg">
  <defs
     id="defs2">
    <clipPath
       clipPathUnits="userSpaceOnUse"
       id="clipPath851">
      <path
         d="M 210,186 V 1990 H 2612 V 186 Z"
         id="path849" />
    </clipPath>
  </defs>
  <sodipodi:namedview
     id="base"
     pagecolor="#ffffff"
     bordercolor="#666666"
     borderopacity="1.0"
     inkscape:pageopacity="0.0"
     inkscape:pageshadow="2"
     inkscape:zoom="0.68149425"
     inkscape:cx="411.71768"
     inkscape:cy="298.84325"
     inkscape:document-units="mm"
     inkscape:current-layer="layer1"
     inkscape:document-rotation="0"
     showgrid="false"
     inkscape:window-width="1920"
     inkscape:window-height="1017"
     inkscape:window-x="-8"
     inkscape:window-y="-8"
     inkscape:window-maximized="1" />
  <metadata
     id="metadata5">
    <rdf:RDF>
      <cc:Work
         rdf:about="">
        <dc:format>image/svg+xml</dc:format>
        <dc:type
           rdf:resource="http://purl.org/dc/dcmitype/StillImage" />
        <dc:title></dc:title>
      </cc:Work>
    </rdf:RDF>
  </metadata>
  <g
     inkscape:label="Layer 1"
     inkscape:groupmode="layer"
     id="layer1"
     transform="translate(-50.742851,-118.66996)">
    <path
       style="fill:none;stroke:#0000ff;stroke-width:0.264583px;stroke-linecap:butt;stroke-linejoin:miter;stroke-opacity:1"
       d="m 93.950014,150.46838 v 4.57768"
       id="path1972" />
    <path
       style="fill:none;stroke:#00b200;stroke-width:0.264583px;stroke-linecap:butt;stroke-linejoin:miter;stroke-opacity:1"
       d="m 65.39967,121.28025 v 6.45071"
       id="path1964" />
    <path
       style="fill:none;stroke:#00b200;stroke-width:0.264583px;stroke-linecap:butt;stroke-linejoin:miter;stroke-opacity:1"
       d="M 77.854526,136.92347 V 144.172"
       id="path1966" />
    <path
       style="fill:none;stroke:#00b200;stroke-width:0.264583px;stroke-linecap:butt;stroke-linejoin:miter;stroke-opacity:1"
       d="m 84.044366,141.69303 v 4.9597"
       id="path1968"
       sodipodi:nodetypes="cc" />
    <path
       style="fill:none;stroke:#00b200;stroke-width:0.264583px;stroke-linecap:butt;stroke-linejoin:miter;stroke-opacity:1"
       d="m 90.235967,145.88897 v 5.72311"
       id="path1970" />
    <path
       style="fill:none;stroke:#00b200;stroke-width:0.264583px;stroke-linecap:butt;stroke-linejoin:miter;stroke-opacity:1"
       d="m 96.426159,152.56705 v 4.57803"
       id="path1974" />
    <path
       style="fill:none;stroke:#00b200;stroke-width:0.264583px;stroke-linecap:butt;stroke-linejoin:miter;stroke-opacity:1"
       d="m 102.61635,159.43387 v 1.90856"
       id="path1976" />
    <path
       style="fill:none;stroke:#00b200;stroke-width:0.264583px;stroke-linecap:butt;stroke-linejoin:miter;stroke-opacity:1"
       d="m 114.99674,164.20339 v 3.0522"
       id="path1978" />
    <path
       style="fill:none;stroke:#00b200;stroke-width:0.264583px;stroke-linecap:butt;stroke-linejoin:miter;stroke-opacity:1"
       d="m 127.37818,163.24952 v 4.57933"
       id="path1980" />
    <path
       d="M 139.75856,177.9879 V 119.39782 H 65.474072"
       style="fill:#ffffff;fill-opacity:1;fill-rule:nonzero;stroke:none;stroke-width:0.0352778"
       id="path859" />
    <path
       d="m 65.474072,177.9879 v -0.7444"
       style="fill:none;stroke:#262626;stroke-width:0.166408;stroke-linecap:butt;stroke-linejoin:miter;stroke-miterlimit:10;stroke-dasharray:none;stroke-opacity:1"
       id="path861" />
    <path
       d="m 65.474072,119.39782 v 0.7426"
       style="fill:none;stroke:#262626;stroke-width:0.166408;stroke-linecap:butt;stroke-linejoin:miter;stroke-miterlimit:10;stroke-dasharray:none;stroke-opacity:1"
       id="path863" />
    <path
       d="m 77.854526,177.9879 v -0.7444"
       style="fill:none;stroke:#262626;stroke-width:0.166408;stroke-linecap:butt;stroke-linejoin:miter;stroke-miterlimit:10;stroke-dasharray:none;stroke-opacity:1"
       id="path865" />
    <path
       d="m 77.854526,119.39782 v 0.7426"
       style="fill:none;stroke:#262626;stroke-width:0.166408;stroke-linecap:butt;stroke-linejoin:miter;stroke-miterlimit:10;stroke-dasharray:none;stroke-opacity:1"
       id="path867" />
    <path
       d="m 90.235969,177.9879 v -0.7444"
       style="fill:none;stroke:#262626;stroke-width:0.166408;stroke-linecap:butt;stroke-linejoin:miter;stroke-miterlimit:10;stroke-dasharray:none;stroke-opacity:1"
       id="path869" />
    <path
       d="m 90.235969,119.39782 v 0.7426"
       style="fill:none;stroke:#262626;stroke-width:0.166408;stroke-linecap:butt;stroke-linejoin:miter;stroke-miterlimit:10;stroke-dasharray:none;stroke-opacity:1"
       id="path871" />
    <path
       d="m 102.61635,177.9879 v -0.7444"
       style="fill:none;stroke:#262626;stroke-width:0.166408;stroke-linecap:butt;stroke-linejoin:miter;stroke-miterlimit:10;stroke-dasharray:none;stroke-opacity:1"
       id="path873" />
    <path
       d="m 102.61635,119.39782 v 0.7426"
       style="fill:none;stroke:#262626;stroke-width:0.166408;stroke-linecap:butt;stroke-linejoin:miter;stroke-miterlimit:10;stroke-dasharray:none;stroke-opacity:1"
       id="path875" />
    <path
       d="m 114.99674,177.9879 v -0.7444"
       style="fill:none;stroke:#262626;stroke-width:0.166408;stroke-linecap:butt;stroke-linejoin:miter;stroke-miterlimit:10;stroke-dasharray:none;stroke-opacity:1"
       id="path877" />
    <path
       d="m 114.99674,119.39782 v 0.7426"
       style="fill:none;stroke:#262626;stroke-width:0.166408;stroke-linecap:butt;stroke-linejoin:miter;stroke-miterlimit:10;stroke-dasharray:none;stroke-opacity:1"
       id="path879" />
    <path
       d="m 127.37818,177.9879 v -0.7444"
       style="fill:none;stroke:#262626;stroke-width:0.166408;stroke-linecap:butt;stroke-linejoin:miter;stroke-miterlimit:10;stroke-dasharray:none;stroke-opacity:1"
       id="path881" />
    <path
       d="m 127.37818,119.39782 v 0.7426"
       style="fill:none;stroke:#262626;stroke-width:0.166408;stroke-linecap:butt;stroke-linejoin:miter;stroke-miterlimit:10;stroke-dasharray:none;stroke-opacity:1"
       id="path883" />
    <path
       d="m 139.75856,177.9879 v -0.7444"
       style="fill:none;stroke:#262626;stroke-width:0.166408;stroke-linecap:butt;stroke-linejoin:miter;stroke-miterlimit:10;stroke-dasharray:none;stroke-opacity:1"
       id="path885" />
    <path
       d="m 139.75856,119.39782 v 0.7426"
       style="fill:none;stroke:#262626;stroke-width:0.166408;stroke-linecap:butt;stroke-linejoin:miter;stroke-miterlimit:10;stroke-dasharray:none;stroke-opacity:1"
       id="path887" />
    <text
       style="font-variant:normal;font-weight:normal;font-size:3.32817px;font-family:Arial;-inkscape-font-specification:ArialMT;writing-mode:lr-tb;fill:#262626;fill-opacity:1;fill-rule:nonzero;stroke:none;stroke-width:0.352778"
       id="text893"
       x="64.548737"
       y="182.14751"><tspan
         x="64.548737 74.616463 76.466919 77.392159 79.242615 86.997292 88.847755 89.772995 91.623459 99.37484 101.2253 102.15054 104.00099 111.75567 113.60613 114.53137 116.38183 124.13651 125.98698 126.9122 128.76266 136.51527 138.36575 139.29097 141.14143"
         y="182.14751"
         sodipodi:role="line"
         id="tspan891"
         style="stroke-width:0.352778">00.010.020.030.040.050.06</tspan></text>
    <path
       d="m 65.474072,177.9879 h 0.742632"
       style="fill:none;stroke:#262626;stroke-width:0.166408;stroke-linecap:butt;stroke-linejoin:miter;stroke-miterlimit:10;stroke-dasharray:none;stroke-opacity:1"
       id="path895" />
    <path
       d="m 139.75856,177.9879 h -0.74259"
       style="fill:none;stroke:#262626;stroke-width:0.166408;stroke-linecap:butt;stroke-linejoin:miter;stroke-miterlimit:10;stroke-dasharray:none;stroke-opacity:1"
       id="path897" />
    <path
       d="m 65.474072,169.61758 h 0.742632"
       style="fill:none;stroke:#262626;stroke-width:0.166408;stroke-linecap:butt;stroke-linejoin:miter;stroke-miterlimit:10;stroke-dasharray:none;stroke-opacity:1"
       id="path899" />
    <path
       d="m 139.75856,169.61758 h -0.74259"
       style="fill:none;stroke:#262626;stroke-width:0.166408;stroke-linecap:butt;stroke-linejoin:miter;stroke-miterlimit:10;stroke-dasharray:none;stroke-opacity:1"
       id="path901" />
    <path
       d="m 65.474072,161.2475 h 0.742632"
       style="fill:none;stroke:#262626;stroke-width:0.166408;stroke-linecap:butt;stroke-linejoin:miter;stroke-miterlimit:10;stroke-dasharray:none;stroke-opacity:1"
       id="path903" />
    <path
       d="m 139.75856,161.2475 h -0.74259"
       style="fill:none;stroke:#262626;stroke-width:0.166408;stroke-linecap:butt;stroke-linejoin:miter;stroke-miterlimit:10;stroke-dasharray:none;stroke-opacity:1"
       id="path905" />
    <path
       d="m 65.474072,152.87714 h 0.742632"
       style="fill:none;stroke:#262626;stroke-width:0.166408;stroke-linecap:butt;stroke-linejoin:miter;stroke-miterlimit:10;stroke-dasharray:none;stroke-opacity:1"
       id="path907" />
    <path
       d="m 139.75856,152.87714 h -0.74259"
       style="fill:none;stroke:#262626;stroke-width:0.166408;stroke-linecap:butt;stroke-linejoin:miter;stroke-miterlimit:10;stroke-dasharray:none;stroke-opacity:1"
       id="path909" />
    <path
       d="m 65.474072,144.50678 h 0.742632"
       style="fill:none;stroke:#262626;stroke-width:0.166408;stroke-linecap:butt;stroke-linejoin:miter;stroke-miterlimit:10;stroke-dasharray:none;stroke-opacity:1"
       id="path911" />
    <path
       d="m 139.75856,144.50678 h -0.74259"
       style="fill:none;stroke:#262626;stroke-width:0.166408;stroke-linecap:butt;stroke-linejoin:miter;stroke-miterlimit:10;stroke-dasharray:none;stroke-opacity:1"
       id="path913" />
    <path
       d="m 65.474072,136.13819 h 0.742632"
       style="fill:none;stroke:#262626;stroke-width:0.166408;stroke-linecap:butt;stroke-linejoin:miter;stroke-miterlimit:10;stroke-dasharray:none;stroke-opacity:1"
       id="path915" />
    <path
       d="m 139.75856,136.13819 h -0.74259"
       style="fill:none;stroke:#262626;stroke-width:0.166408;stroke-linecap:butt;stroke-linejoin:miter;stroke-miterlimit:10;stroke-dasharray:none;stroke-opacity:1"
       id="path917" />
    <path
       d="m 65.474072,127.76783 h 0.742632"
       style="fill:none;stroke:#262626;stroke-width:0.166408;stroke-linecap:butt;stroke-linejoin:miter;stroke-miterlimit:10;stroke-dasharray:none;stroke-opacity:1"
       id="path919" />
    <path
       d="m 139.75856,127.76783 h -0.74259"
       style="fill:none;stroke:#262626;stroke-width:0.166408;stroke-linecap:butt;stroke-linejoin:miter;stroke-miterlimit:10;stroke-dasharray:none;stroke-opacity:1"
       id="path921" />
    <path
       d="m 65.474072,119.39782 h 0.742632"
       style="fill:none;stroke:#262626;stroke-width:0.166408;stroke-linecap:butt;stroke-linejoin:miter;stroke-miterlimit:10;stroke-dasharray:none;stroke-opacity:1"
       id="path923" />
    <path
       d="m 139.75856,119.39782 h -0.74259"
       style="fill:none;stroke:#262626;stroke-width:0.166408;stroke-linecap:butt;stroke-linejoin:miter;stroke-miterlimit:10;stroke-dasharray:none;stroke-opacity:1"
       id="path925" />
    <text
       style="font-variant:normal;font-weight:normal;font-size:3.32817px;font-family:Arial;-inkscape-font-specification:ArialMT;writing-mode:lr-tb;fill:#262626;fill-opacity:1;fill-rule:nonzero;stroke:none;stroke-width:0.352778"
       id="text945"
       x="58.164692"
       y="179.65121"><tspan
         x="58.164692 60.015156 60.940388 62.790852"
         y="179.65121"
         sodipodi:role="line"
         id="tspan929"
         style="stroke-width:0.352778">0.04</tspan><tspan
         x="58.164692 60.015156 60.940388 62.790852"
         y="171.28142"
         sodipodi:role="line"
         id="tspan931"
         style="stroke-width:0.352778">0.06</tspan><tspan
         x="58.164692 60.015156 60.940388 62.790852"
         y="162.91148"
         sodipodi:role="line"
         id="tspan933"
         style="stroke-width:0.352778">0.08</tspan><tspan
         x="60.015121 61.865585 62.790817"
         y="154.54169"
         sodipodi:role="line"
         id="tspan935"
         style="stroke-width:0.352778">0.1</tspan><tspan
         x="58.164692 60.015156 60.940388 62.790852"
         y="146.17162"
         sodipodi:role="line"
         id="tspan937"
         style="stroke-width:0.352778">0.12</tspan><tspan
         x="58.164692 60.015156 60.940388 62.790852"
         y="137.80182"
         sodipodi:role="line"
         id="tspan939"
         style="stroke-width:0.352778">0.14</tspan><tspan
         x="58.164692 60.015156 60.940388 62.790852"
         y="129.43188"
         sodipodi:role="line"
         id="tspan941"
         style="stroke-width:0.352778">0.16</tspan><tspan
         x="58.164692 60.015156 60.940388 62.790852"
         y="121.06208"
         sodipodi:role="line"
         id="tspan943"
         style="stroke-width:0.352778">0.18</tspan></text>
    <path
       d="M 65.474072,177.9879 H 139.75856"
       style="fill:none;stroke:#262626;stroke-width:0.166408;stroke-linecap:butt;stroke-linejoin:miter;stroke-miterlimit:10;stroke-dasharray:none;stroke-opacity:1"
       id="path947" />
    <path
       d="M 65.474072,119.39782 H 139.75856"
       style="fill:none;stroke:#262626;stroke-width:0.166408;stroke-linecap:butt;stroke-linejoin:miter;stroke-miterlimit:10;stroke-dasharray:none;stroke-opacity:1"
       id="path949" />
    <path
       d="M 65.474072,177.9879 V 119.39782"
       style="fill:none;stroke:#262626;stroke-width:0.166408;stroke-linecap:butt;stroke-linejoin:miter;stroke-miterlimit:10;stroke-dasharray:none;stroke-opacity:1"
       id="path951" />
    <path
       d="M 139.75856,177.9879 V 119.39782"
       style="fill:none;stroke:#262626;stroke-width:0.166408;stroke-linecap:butt;stroke-linejoin:miter;stroke-miterlimit:10;stroke-dasharray:none;stroke-opacity:1"
       id="path953" />
    <path
       d="M 65.474072,152.18534 H 139.75856"
       style="fill:none;stroke:#000000;stroke-width:0.332817;stroke-linecap:butt;stroke-linejoin:miter;stroke-miterlimit:10;stroke-dasharray:1.33127, 1.33127, 1.33127, 1.33127;stroke-dashoffset:0;stroke-opacity:1"
       id="path955" />
    <path
       d="m 65.552494,124.52263 -0.01489,0.0469 -0.03873,0.0289 h -0.04946 l -0.03874,-0.0289 -0.01665,-0.0469 0.01665,-0.0469 0.03874,-0.0275 h 0.04946 l 0.03873,0.0275 0.01489,0.0469"
       style="fill:none;stroke:#b2e8b2;stroke-width:1.42162;stroke-linecap:butt;stroke-linejoin:miter;stroke-miterlimit:10;stroke-dasharray:none;stroke-opacity:1"
       id="path975" />
    <path
       d="m 77.93429,140.54791 -0.01514,0.0469 -0.03997,0.0289 h -0.04823 l -0.03997,-0.0289 -0.01517,-0.0469 0.01517,-0.0469 0.03997,-0.0289 h 0.04823 l 0.03997,0.0289 0.01514,0.0469"
       style="fill:none;stroke:#b2e8b2;stroke-width:1.42162;stroke-linecap:butt;stroke-linejoin:miter;stroke-miterlimit:10;stroke-dasharray:none;stroke-opacity:1"
       id="path977" />
    <path
       d="m 84.124446,144.172 -0.01517,0.0469 -0.03983,0.0289 h -0.04837 l -0.03983,-0.0289 -0.01513,-0.0469 0.01513,-0.0455 0.03983,-0.0289 h 0.04837 l 0.03983,0.0289 0.01517,0.0455"
       style="fill:none;stroke:#b2e8b2;stroke-width:1.42162;stroke-linecap:butt;stroke-linejoin:miter;stroke-miterlimit:10;stroke-dasharray:none;stroke-opacity:1"
       id="path979" />
    <path
       d="m 90.314638,148.75141 -0.01517,0.0469 -0.03986,0.0289 h -0.04833 l -0.03986,-0.0289 -0.01517,-0.0469 0.01517,-0.0469 0.03986,-0.0289 h 0.04833 l 0.03986,0.0289 0.01517,0.0469"
       style="fill:none;stroke:#b2e8b2;stroke-width:1.42162;stroke-linecap:butt;stroke-linejoin:miter;stroke-miterlimit:10;stroke-dasharray:none;stroke-opacity:1"
       id="path981" />
    <path
       d="m 94.02833,152.7572 -0.01517,0.0469 -0.03845,0.0289 h -0.04974 l -0.03845,-0.0289 -0.01517,-0.0469 0.01517,-0.0469 0.03845,-0.0289 h 0.04974 l 0.03845,0.0289 0.01517,0.0469"
       style="fill:none;stroke:#b2e8b2;stroke-width:1.42162;stroke-linecap:butt;stroke-linejoin:miter;stroke-miterlimit:10;stroke-dasharray:none;stroke-opacity:1"
       id="path983" />
    <path
       d="m 96.50483,154.85587 -0.01517,0.0468 -0.03881,0.029 h -0.04939 l -0.03986,-0.029 -0.01517,-0.0468 0.01517,-0.0466 0.03986,-0.0289 h 0.04939 l 0.03881,0.0289 0.01517,0.0466"
       style="fill:none;stroke:#b2e8b2;stroke-width:1.42162;stroke-linecap:butt;stroke-linejoin:miter;stroke-miterlimit:10;stroke-dasharray:none;stroke-opacity:1"
       id="path985" />
    <path
       d="m 102.69643,160.38746 -0.0152,0.0469 -0.0402,0.0289 h -0.0494 l -0.0402,-0.0289 -0.0138,-0.0469 0.0138,-0.0456 0.0402,-0.0288 h 0.0494 l 0.0402,0.0288 0.0152,0.0456"
       style="fill:none;stroke:#b2e8b2;stroke-width:1.42162;stroke-linecap:butt;stroke-linejoin:miter;stroke-miterlimit:10;stroke-dasharray:none;stroke-opacity:1"
       id="path987" />
    <path
       d="m 115.07646,165.73025 -0.0152,0.0466 -0.0399,0.0279 h -0.0483 l -0.0399,-0.0279 -0.0152,-0.0466 0.0152,-0.047 0.0399,-0.0288 h 0.0483 l 0.0399,0.0288 0.0152,0.047"
       style="fill:none;stroke:#b2e8b2;stroke-width:1.42162;stroke-linecap:butt;stroke-linejoin:miter;stroke-miterlimit:10;stroke-dasharray:none;stroke-opacity:1"
       id="path989" />
    <path
       d="m 127.45685,165.53869 -0.0152,0.0466 -0.0385,0.0292 h -0.0497 l -0.0399,-0.0292 -0.0152,-0.0466 0.0152,-0.0455 0.0399,-0.0289 h 0.0497 l 0.0385,0.0289 0.0152,0.0455"
       style="fill:none;stroke:#b2e8b2;stroke-width:1.42162;stroke-linecap:butt;stroke-linejoin:miter;stroke-miterlimit:10;stroke-dasharray:none;stroke-opacity:1"
       id="path991" />
    <path
       d="m 65.819829,124.52263 -0.06586,0.2039 -0.173638,0.12559 H 65.36658 l -0.172261,-0.12559 -0.06625,-0.2039 0.06625,-0.2025 0.172261,-0.12559 h 0.213748 l 0.173638,0.12559 0.06586,0.2025"
       style="fill:none;stroke:#b2e8b2;stroke-width:0.947748;stroke-linecap:butt;stroke-linejoin:miter;stroke-miterlimit:10;stroke-dasharray:none;stroke-opacity:1"
       id="path993" />
    <path
       d="m 78.200249,140.54791 -0.06601,0.20391 -0.172508,0.12523 h -0.213325 l -0.173637,-0.12523 -0.06629,-0.20391 0.06629,-0.20249 0.173637,-0.127 h 0.213325 l 0.172508,0.127 0.06601,0.20249"
       style="fill:none;stroke:#b2e8b2;stroke-width:0.947748;stroke-linecap:butt;stroke-linejoin:miter;stroke-miterlimit:10;stroke-dasharray:none;stroke-opacity:1"
       id="path995" />
    <path
       d="m 84.390406,144.172 -0.06491,0.2039 -0.173496,0.12559 h -0.213466 l -0.173884,-0.12559 -0.06463,-0.2039 0.06463,-0.2025 0.173884,-0.12523 H 84.152 l 0.173496,0.12523 0.06491,0.2025"
       style="fill:none;stroke:#b2e8b2;stroke-width:0.947748;stroke-linecap:butt;stroke-linejoin:miter;stroke-miterlimit:10;stroke-dasharray:none;stroke-opacity:1"
       id="path997" />
    <path
       d="m 90.582044,148.75141 -0.06632,0.20249 -0.173567,0.12524 h -0.213431 l -0.172508,-0.12524 -0.06597,-0.20249 0.06597,-0.20391 0.172508,-0.12559 h 0.213431 l 0.173567,0.12559 0.06632,0.20391"
       style="fill:none;stroke:#b2e8b2;stroke-width:0.947748;stroke-linecap:butt;stroke-linejoin:miter;stroke-miterlimit:10;stroke-dasharray:none;stroke-opacity:1"
       id="path999" />
    <path
       d="m 94.295736,152.7572 -0.06597,0.2039 -0.173919,0.12559 h -0.21202 l -0.173566,-0.12559 -0.06632,-0.2039 0.06632,-0.2025 0.173566,-0.12664 h 0.21202 l 0.173919,0.12664 0.06597,0.2025"
       style="fill:none;stroke:#b2e8b2;stroke-width:0.947748;stroke-linecap:butt;stroke-linejoin:miter;stroke-miterlimit:10;stroke-dasharray:none;stroke-opacity:1"
       id="path1001" />
    <path
       d="m 96.772236,154.85587 -0.06632,0.20285 -0.173567,0.12527 h -0.213783 l -0.172156,-0.12527 -0.06597,-0.20285 0.06597,-0.20394 0.172156,-0.12527 h 0.213783 l 0.173567,0.12527 0.06632,0.20394"
       style="fill:none;stroke:#b2e8b2;stroke-width:0.947748;stroke-linecap:butt;stroke-linejoin:miter;stroke-miterlimit:10;stroke-dasharray:none;stroke-opacity:1"
       id="path1003" />
    <path
       d="m 102.96208,160.38746 -0.066,0.2038 -0.17216,0.1257 h -0.21519 l -0.17216,-0.1257 -0.066,-0.2038 0.066,-0.20256 0.17216,-0.12555 h 0.21519 l 0.17216,0.12555 0.066,0.20256"
       style="fill:none;stroke:#b2e8b2;stroke-width:0.947748;stroke-linecap:butt;stroke-linejoin:miter;stroke-miterlimit:10;stroke-dasharray:none;stroke-opacity:1"
       id="path1005" />
    <path
       d="m 115.34246,165.73025 -0.066,0.20242 -0.17251,0.12527 h -0.21343 l -0.17357,-0.12527 -0.0663,-0.20242 0.0663,-0.20394 0.17357,-0.12556 h 0.21343 l 0.17251,0.12556 0.066,0.20394"
       style="fill:none;stroke:#b2e8b2;stroke-width:0.947748;stroke-linecap:butt;stroke-linejoin:miter;stroke-miterlimit:10;stroke-dasharray:none;stroke-opacity:1"
       id="path1007" />
    <path
       d="m 127.72425,165.53869 -0.0663,0.20398 -0.17356,0.12513 h -0.21343 l -0.17251,-0.12513 -0.066,-0.20398 0.066,-0.20285 0.17251,-0.12523 h 0.21343 l 0.17356,0.12523 0.0663,0.20285"
       style="fill:none;stroke:#b2e8b2;stroke-width:0.947748;stroke-linecap:butt;stroke-linejoin:miter;stroke-miterlimit:10;stroke-dasharray:none;stroke-opacity:1"
       id="path1009" />
    <path
       d="m 65.997735,124.52263 -0.100612,0.30727 -0.261832,0.19155 h -0.322298 l -0.261831,-0.19155 -0.100895,-0.30727 0.100895,-0.30727 0.261831,-0.19015 h 0.322298 l 0.261832,0.19015 0.100612,0.30727"
       style="fill:none;stroke:#b2e8b2;stroke-width:0.631832;stroke-linecap:butt;stroke-linejoin:miter;stroke-miterlimit:10;stroke-dasharray:none;stroke-opacity:1"
       id="path1011" />
    <path
       d="m 78.378013,140.54791 -0.09906,0.30727 -0.261831,0.19015 h -0.32385 l -0.262079,-0.19015 -0.100471,-0.30727 0.100471,-0.30727 0.262079,-0.19015 h 0.32385 l 0.261831,0.19015 0.09906,0.30727"
       style="fill:none;stroke:#b2e8b2;stroke-width:0.631832;stroke-linecap:butt;stroke-linejoin:miter;stroke-miterlimit:10;stroke-dasharray:none;stroke-opacity:1"
       id="path1013" />
    <path
       d="m 84.56817,144.172 -0.09906,0.30727 -0.262114,0.19155 h -0.32385 l -0.261831,-0.19155 -0.09906,-0.30727 0.09906,-0.30727 0.261831,-0.19015 h 0.32385 l 0.262114,0.19015 0.09906,0.30727"
       style="fill:none;stroke:#b2e8b2;stroke-width:0.631832;stroke-linecap:butt;stroke-linejoin:miter;stroke-miterlimit:10;stroke-dasharray:none;stroke-opacity:1"
       id="path1015" />
    <path
       d="m 90.759844,148.75141 -0.100894,0.30727 -0.261762,0.19014 h -0.32385 l -0.261761,-0.19014 -0.09913,-0.30727 0.09913,-0.30727 0.261761,-0.19015 h 0.32385 l 0.261762,0.19015 0.100894,0.30727"
       style="fill:none;stroke:#b2e8b2;stroke-width:0.631832;stroke-linecap:butt;stroke-linejoin:miter;stroke-miterlimit:10;stroke-dasharray:none;stroke-opacity:1"
       id="path1017" />
    <path
       d="m 94.473536,152.7572 -0.100542,0.30727 -0.261761,0.19014 h -0.322439 l -0.262114,-0.19014 -0.100541,-0.30727 0.100541,-0.30727 0.262114,-0.19015 h 0.322439 l 0.261761,0.19015 0.100542,0.30727"
       style="fill:none;stroke:#b2e8b2;stroke-width:0.631832;stroke-linecap:butt;stroke-linejoin:miter;stroke-miterlimit:10;stroke-dasharray:none;stroke-opacity:1"
       id="path1019" />
    <path
       d="m 96.949683,154.85587 -0.100541,0.30759 -0.261762,0.19018 h -0.32385 l -0.26035,-0.19018 -0.100541,-0.30759 0.100541,-0.3073 0.26035,-0.19015 h 0.32385 l 0.261762,0.19015 0.100541,0.3073"
       style="fill:none;stroke:#b2e8b2;stroke-width:0.631832;stroke-linecap:butt;stroke-linejoin:miter;stroke-miterlimit:10;stroke-dasharray:none;stroke-opacity:1"
       id="path1021" />
    <path
       d="m 103.13988,160.38746 -0.10055,0.30868 -0.26035,0.19019 h -0.32385 l -0.26176,-0.19019 -0.10054,-0.30868 0.10054,-0.3073 0.26176,-0.19018 h 0.32385 l 0.26035,0.19018 0.10055,0.3073"
       style="fill:none;stroke:#b2e8b2;stroke-width:0.631832;stroke-linecap:butt;stroke-linejoin:miter;stroke-miterlimit:10;stroke-dasharray:none;stroke-opacity:1"
       id="path1023" />
    <path
       d="m 115.52026,165.73025 -0.0991,0.3073 -0.26176,0.19019 h -0.32385 l -0.26176,-0.19019 -0.0995,-0.3073 0.0995,-0.30868 0.26176,-0.19015 h 0.32385 l 0.26176,0.19015 0.0991,0.30868"
       style="fill:none;stroke:#b2e8b2;stroke-width:0.631832;stroke-linecap:butt;stroke-linejoin:miter;stroke-miterlimit:10;stroke-dasharray:none;stroke-opacity:1"
       id="path1025" />
    <path
       d="m 127.90205,165.53869 -0.10054,0.30868 -0.26211,0.19018 h -0.32385 l -0.26176,-0.19018 -0.0991,-0.30868 0.0991,-0.30727 0.26176,-0.19018 h 0.32385 l 0.26211,0.19018 0.10054,0.30727"
       style="fill:none;stroke:#b2e8b2;stroke-width:0.631832;stroke-linecap:butt;stroke-linejoin:miter;stroke-miterlimit:10;stroke-dasharray:none;stroke-opacity:1"
       id="path1027" />
    <path
       d="m 66.116233,124.52263 -0.06353,0.27834 -0.178858,0.22472 -0.256435,0.12241 h -0.28649 l -0.257846,-0.12241 -0.177764,-0.22472 -0.06325,-0.27834 0.06325,-0.27835 0.177764,-0.2233 0.257846,-0.12383 h 0.28649 l 0.256435,0.12383 0.178858,0.2233 0.06353,0.27835"
       style="fill:none;stroke:#b2e8b2;stroke-width:0.42122;stroke-linecap:butt;stroke-linejoin:miter;stroke-miterlimit:10;stroke-dasharray:none;stroke-opacity:1"
       id="path1029" />
    <path
       d="m 78.496547,140.54791 -0.06339,0.27834 -0.177906,0.22331 -0.257563,0.12383 H 77.71229 l -0.257421,-0.12383 -0.177906,-0.22331 -0.06488,-0.27834 0.06488,-0.27834 0.177906,-0.22331 0.257421,-0.12418 h 0.285398 l 0.257563,0.12418 0.177906,0.22331 0.06339,0.27834"
       style="fill:none;stroke:#b2e8b2;stroke-width:0.42122;stroke-linecap:butt;stroke-linejoin:miter;stroke-miterlimit:10;stroke-dasharray:none;stroke-opacity:1"
       id="path1031" />
    <path
       d="m 84.686809,144.172 -0.0635,0.27834 -0.177764,0.22331 -0.257563,0.12418 h -0.285398 l -0.257563,-0.12418 -0.177764,-0.22331 -0.06354,-0.27834 0.06354,-0.27834 0.177764,-0.22331 0.257563,-0.12383 h 0.285398 l 0.257563,0.12383 0.177764,0.22331 0.0635,0.27834"
       style="fill:none;stroke:#b2e8b2;stroke-width:0.42122;stroke-linecap:butt;stroke-linejoin:miter;stroke-miterlimit:10;stroke-dasharray:none;stroke-opacity:1"
       id="path1033" />
    <path
       d="m 90.876966,148.75141 -0.0635,0.27834 -0.1778,0.22331 -0.257528,0.12382 h -0.285397 l -0.257528,-0.12382 -0.1778,-0.22331 -0.0635,-0.27834 0.0635,-0.27835 0.1778,-0.2233 0.257528,-0.12418 h 0.285397 l 0.257528,0.12418 0.1778,0.2233 0.0635,0.27835"
       style="fill:none;stroke:#b2e8b2;stroke-width:0.42122;stroke-linecap:butt;stroke-linejoin:miter;stroke-miterlimit:10;stroke-dasharray:none;stroke-opacity:1"
       id="path1035" />
    <path
       d="m 94.592069,152.7572 -0.0635,0.27834 -0.179211,0.22331 -0.256117,0.12418 h -0.286808 l -0.256117,-0.12418 -0.179211,-0.22331 -0.0635,-0.27834 0.0635,-0.27834 0.179211,-0.22331 0.256117,-0.12383 h 0.286808 l 0.256117,0.12383 0.179211,0.22331 0.0635,0.27834"
       style="fill:none;stroke:#b2e8b2;stroke-width:0.42122;stroke-linecap:butt;stroke-linejoin:miter;stroke-miterlimit:10;stroke-dasharray:none;stroke-opacity:1"
       id="path1037" />
    <path
       d="m 97.068217,154.85587 -0.06315,0.27838 -0.179211,0.22324 -0.25788,0.12414 h -0.285045 l -0.25788,-0.12414 -0.1778,-0.22324 -0.06315,-0.27838 0.06315,-0.27834 0.1778,-0.22299 0.25788,-0.12414 h 0.285045 l 0.25788,0.12414 0.179211,0.22299 0.06315,0.27834"
       style="fill:none;stroke:#b2e8b2;stroke-width:0.42122;stroke-linecap:butt;stroke-linejoin:miter;stroke-miterlimit:10;stroke-dasharray:none;stroke-opacity:1"
       id="path1039" />
    <path
       d="m 103.25841,160.38746 -0.0631,0.27838 -0.1778,0.22461 -0.25788,0.12386 h -0.28645 l -0.25647,-0.12386 -0.17922,-0.22461 -0.0631,-0.27838 0.0631,-0.27837 0.17922,-0.22338 0.25647,-0.12376 h 0.28645 l 0.25788,0.12376 0.1778,0.22338 0.0631,0.27837"
       style="fill:none;stroke:#b2e8b2;stroke-width:0.42122;stroke-linecap:butt;stroke-linejoin:miter;stroke-miterlimit:10;stroke-dasharray:none;stroke-opacity:1"
       id="path1041" />
    <path
       d="m 115.63879,165.73025 -0.0635,0.27838 -0.1778,0.22323 -0.25753,0.1239 h -0.28539 l -0.25753,-0.1239 -0.1778,-0.22323 -0.0635,-0.27838 0.0635,-0.27975 0.1778,-0.22187 0.25753,-0.12566 h 0.28539 l 0.25753,0.12566 0.1778,0.22187 0.0635,0.27975"
       style="fill:none;stroke:#b2e8b2;stroke-width:0.42122;stroke-linecap:butt;stroke-linejoin:miter;stroke-miterlimit:10;stroke-dasharray:none;stroke-opacity:1"
       id="path1043" />
    <path
       d="m 128.02059,165.53869 -0.0649,0.27838 -0.1778,0.22433 -0.25753,0.1228 h -0.2854 l -0.25753,-0.1228 -0.1778,-0.22433 -0.0635,-0.27838 0.0635,-0.27834 0.1778,-0.22324 0.25753,-0.12432 h 0.2854 l 0.25753,0.12432 0.1778,0.22324 0.0649,0.27834"
       style="fill:none;stroke:#b2e8b2;stroke-width:0.42122;stroke-linecap:butt;stroke-linejoin:miter;stroke-miterlimit:10;stroke-dasharray:none;stroke-opacity:1"
       id="path1045" />
    <path
       d="m 66.194938,124.52263 -0.07168,0.31291 -0.200061,0.25083 -0.289278,0.13899 h -0.320922 l -0.28829,-0.13899 -0.199672,-0.25083 -0.07168,-0.31291 0.07168,-0.31292 0.199672,-0.25082 0.28829,-0.139 h 0.320922 l 0.289278,0.139 0.200061,0.25082 0.07168,0.31292"
       style="fill:none;stroke:#b2e8b2;stroke-width:0.280814;stroke-linecap:butt;stroke-linejoin:miter;stroke-miterlimit:10;stroke-dasharray:none;stroke-opacity:1"
       id="path1047" />
    <path
       d="m 78.575216,140.54791 -0.07055,0.31291 -0.199673,0.25048 -0.289242,0.13934 H 77.69437 l -0.289242,-0.13934 -0.199672,-0.25048 -0.07165,-0.31291 0.07165,-0.31291 0.199672,-0.25083 0.289242,-0.13899 h 0.321381 l 0.289242,0.13899 0.199673,0.25083 0.07055,0.31291"
       style="fill:none;stroke:#b2e8b2;stroke-width:0.280814;stroke-linecap:butt;stroke-linejoin:miter;stroke-miterlimit:10;stroke-dasharray:none;stroke-opacity:1"
       id="path1049" />
    <path
       d="m 84.766467,144.172 -0.07151,0.31291 -0.199673,0.25083 -0.289666,0.13899 H 83.88452 l -0.289242,-0.13899 -0.199673,-0.25083 -0.07193,-0.31291 0.07193,-0.31256 0.199673,-0.25083 0.289242,-0.13935 h 0.321098 l 0.289666,0.13935 0.199673,0.25083 0.07151,0.31256"
       style="fill:none;stroke:#b2e8b2;stroke-width:0.280814;stroke-linecap:butt;stroke-linejoin:miter;stroke-miterlimit:10;stroke-dasharray:none;stroke-opacity:1"
       id="path1051" />
    <path
       d="m 90.956694,148.75141 -0.07161,0.31256 -0.199672,0.25082 -0.289631,0.13935 h -0.321028 l -0.287866,-0.13935 -0.201436,-0.25082 -0.0702,-0.31256 0.0702,-0.31292 0.201436,-0.25082 0.287866,-0.139 h 0.321028 l 0.289631,0.139 0.199672,0.25082 0.07161,0.31292"
       style="fill:none;stroke:#b2e8b2;stroke-width:0.280814;stroke-linecap:butt;stroke-linejoin:miter;stroke-miterlimit:10;stroke-dasharray:none;stroke-opacity:1"
       id="path1053" />
    <path
       d="m 94.670739,152.7572 -0.07197,0.31291 -0.199672,0.25083 -0.289278,0.13899 h -0.31997 l -0.289277,-0.13899 -0.199673,-0.25083 -0.07161,-0.31291 0.07161,-0.31292 0.199673,-0.25047 0.289277,-0.13935 h 0.31997 l 0.289278,0.13935 0.199672,0.25047 0.07197,0.31292"
       style="fill:none;stroke:#b2e8b2;stroke-width:0.280814;stroke-linecap:butt;stroke-linejoin:miter;stroke-miterlimit:10;stroke-dasharray:none;stroke-opacity:1"
       id="path1055" />
    <path
       d="m 97.146886,154.85587 -0.07161,0.31295 -0.199672,0.25083 -0.289631,0.13931 h -0.321027 l -0.287867,-0.13931 -0.201436,-0.25083 -0.0702,-0.31295 0.0702,-0.31252 0.201436,-0.25083 0.287867,-0.13945 h 0.321027 l 0.289631,0.13945 0.199672,0.25083 0.07161,0.31252"
       style="fill:none;stroke:#b2e8b2;stroke-width:0.280814;stroke-linecap:butt;stroke-linejoin:miter;stroke-miterlimit:10;stroke-dasharray:none;stroke-opacity:1"
       id="path1057" />
    <path
       d="m 103.33708,160.38746 -0.0716,0.31281 -0.20002,0.25231 -0.28928,0.13755 h -0.31962 l -0.28927,-0.13755 -0.20003,-0.25231 -0.0716,-0.31281 0.0716,-0.31295 0.20003,-0.24941 0.28927,-0.14044 h 0.31962 l 0.28928,0.14044 0.20002,0.24941 0.0716,0.31295"
       style="fill:none;stroke:#b2e8b2;stroke-width:0.280814;stroke-linecap:butt;stroke-linejoin:miter;stroke-miterlimit:10;stroke-dasharray:none;stroke-opacity:1"
       id="path1059" />
    <path
       d="m 115.71887,165.73025 -0.072,0.31256 -0.19968,0.25079 -0.28927,0.13931 h -0.32103 l -0.28963,-0.13931 -0.19967,-0.25079 -0.0716,-0.31256 0.0716,-0.31295 0.19967,-0.25079 0.28963,-0.13935 h 0.32103 l 0.28927,0.13935 0.19968,0.25079 0.072,0.31295"
       style="fill:none;stroke:#b2e8b2;stroke-width:0.280814;stroke-linecap:butt;stroke-linejoin:miter;stroke-miterlimit:10;stroke-dasharray:none;stroke-opacity:1"
       id="path1061" />
    <path
       d="m 128.0989,165.53869 -0.0716,0.31256 -0.19967,0.25079 -0.28928,0.13931 h -0.32138 l -0.28787,-0.13931 -0.20108,-0.25079 -0.0706,-0.31256 0.0706,-0.31295 0.20108,-0.25079 0.28787,-0.13931 h 0.32138 l 0.28928,0.13931 0.19967,0.25079 0.0716,0.31295"
       style="fill:none;stroke:#b2e8b2;stroke-width:0.280814;stroke-linecap:butt;stroke-linejoin:miter;stroke-miterlimit:10;stroke-dasharray:none;stroke-opacity:1"
       id="path1063" />
    <path
       d="m 66.306416,124.52263 -0.08269,0.36089 -0.231352,0.28963 -0.333763,0.16122 h -0.369323 l -0.334716,-0.16122 -0.230152,-0.28963 -0.08283,-0.36089 0.08283,-0.3609 0.230152,-0.28963 0.334716,-0.1598 h 0.369323 l 0.333763,0.1598 0.231352,0.28963 0.08269,0.3609"
       style="fill:none;stroke:#00b200;stroke-width:0.0832044;stroke-linecap:butt;stroke-linejoin:miter;stroke-miterlimit:10;stroke-dasharray:none;stroke-opacity:1"
       id="path1065" />
    <path
       d="m 78.686694,140.54791 -0.08252,0.36089 -0.230434,0.28963 -0.33334,0.16122 h -0.370699 l -0.333481,-0.16122 -0.231351,-0.28963 -0.08283,-0.36089 0.08283,-0.36124 0.231351,-0.28928 0.333481,-0.16122 H 78.0404 l 0.33334,0.16122 0.230434,0.28928 0.08252,0.36124"
       style="fill:none;stroke:#00b200;stroke-width:0.0832044;stroke-linecap:butt;stroke-linejoin:miter;stroke-miterlimit:10;stroke-dasharray:none;stroke-opacity:1"
       id="path1067" />
    <path
       d="m 84.876851,144.172 -0.08283,0.36124 -0.229976,0.29069 -0.33334,0.15981 h -0.37084 l -0.33334,-0.15981 -0.23181,-0.29069 -0.08114,-0.36124 0.08114,-0.36089 0.23181,-0.28928 0.33334,-0.16016 h 0.37084 l 0.33334,0.16016 0.229976,0.28928 0.08283,0.36089"
       style="fill:none;stroke:#00b200;stroke-width:0.0832044;stroke-linecap:butt;stroke-linejoin:miter;stroke-miterlimit:10;stroke-dasharray:none;stroke-opacity:1"
       id="path1069" />
    <path
       d="m 91.068525,148.75141 -0.0829,0.36089 -0.231422,0.28928 -0.333376,0.16157 h -0.370769 l -0.333375,-0.16157 -0.230364,-0.28928 -0.08255,-0.36089 0.08255,-0.36125 0.230364,-0.28928 0.333375,-0.16122 h 0.370769 l 0.333376,0.16122 0.231422,0.28928 0.0829,0.36125"
       style="fill:none;stroke:#00b200;stroke-width:0.0832044;stroke-linecap:butt;stroke-linejoin:miter;stroke-miterlimit:10;stroke-dasharray:none;stroke-opacity:1"
       id="path1071" />
    <path
       d="m 94.782216,152.7572 -0.08255,0.36124 -0.231775,0.28928 -0.331963,0.16122 h -0.37077 l -0.333375,-0.16122 -0.231422,-0.28928 -0.0829,-0.36124 0.0829,-0.36089 0.231422,-0.28963 0.333375,-0.16122 h 0.37077 l 0.331963,0.16122 0.231775,0.28963 0.08255,0.36089"
       style="fill:none;stroke:#00b200;stroke-width:0.0832044;stroke-linecap:butt;stroke-linejoin:miter;stroke-miterlimit:10;stroke-dasharray:none;stroke-opacity:1"
       id="path1073" />
    <path
       d="m 97.258364,154.85587 -0.08255,0.36118 -0.231422,0.28942 -0.333375,0.1597 h -0.369359 l -0.335139,-0.1597 -0.230011,-0.28942 -0.08255,-0.36118 0.08255,-0.36089 0.230011,-0.28928 0.335139,-0.16122 h 0.369359 l 0.333375,0.16122 0.231422,0.28928 0.08255,0.36089"
       style="fill:none;stroke:#00b200;stroke-width:0.0832044;stroke-linecap:butt;stroke-linejoin:miter;stroke-miterlimit:10;stroke-dasharray:none;stroke-opacity:1"
       id="path1075" />
    <path
       d="m 103.44856,160.38746 -0.0825,0.36118 -0.23143,0.29076 -0.33372,0.15974 h -0.36901 l -0.33373,-0.15974 -0.23142,-0.29076 -0.0825,-0.36118 0.0825,-0.36092 0.23142,-0.28963 0.33373,-0.15988 h 0.36901 l 0.33372,0.15988 0.23143,0.28963 0.0825,0.36092"
       style="fill:none;stroke:#00b200;stroke-width:0.0832044;stroke-linecap:butt;stroke-linejoin:miter;stroke-miterlimit:10;stroke-dasharray:none;stroke-opacity:1"
       id="path1077" />
    <path
       d="m 115.82894,165.73025 -0.0825,0.36093 -0.23036,0.28924 -0.33338,0.16012 h -0.37077 l -0.33337,-0.16012 -0.23143,-0.28924 -0.0815,-0.36093 0.0815,-0.36118 0.23143,-0.28938 0.33337,-0.16125 h 0.37077 l 0.33338,0.16125 0.23036,0.28938 0.0825,0.36118"
       style="fill:none;stroke:#00b200;stroke-width:0.0832044;stroke-linecap:butt;stroke-linejoin:miter;stroke-miterlimit:10;stroke-dasharray:none;stroke-opacity:1"
       id="path1079" />
    <path
       d="m 128.21074,165.53869 -0.0829,0.36093 -0.23142,0.28924 -0.33337,0.16122 h -0.36936 l -0.33479,-0.16122 -0.23036,-0.28924 -0.0825,-0.36093 0.0825,-0.36131 0.23036,-0.28925 0.33479,-0.1597 h 0.36936 l 0.33337,0.1597 0.23142,0.28925 0.0829,0.36131"
       style="fill:none;stroke:#00b200;stroke-width:0.0832044;stroke-linecap:butt;stroke-linejoin:miter;stroke-miterlimit:10;stroke-dasharray:none;stroke-opacity:1"
       id="path1081" />
    <path
       d="m 66.283132,124.52263 -0.08022,0.35136 -0.224332,0.28117 -0.325226,0.15557 h -0.359798 l -0.32385,-0.15557 -0.224754,-0.28117 -0.0798,-0.35136 0.0798,-0.34996 0.224754,-0.28257 0.32385,-0.15558 h 0.359798 l 0.325226,0.15558 0.224332,0.28257 0.08022,0.34996"
       style="fill:none;stroke:#00b200;stroke-width:0.124806;stroke-linecap:butt;stroke-linejoin:miter;stroke-miterlimit:10;stroke-dasharray:none;stroke-opacity:1"
       id="path1083" />
    <path
       d="m 78.663411,140.54791 -0.08005,0.35137 -0.224754,0.28116 -0.32385,0.15558 h -0.35941 l -0.325332,-0.15558 -0.223238,-0.28116 -0.08117,-0.35137 0.08117,-0.34995 0.223238,-0.28258 0.325332,-0.15593 h 0.35941 l 0.32385,0.15593 0.224754,0.28258 0.08005,0.34995"
       style="fill:none;stroke:#00b200;stroke-width:0.124806;stroke-linecap:butt;stroke-linejoin:miter;stroke-miterlimit:10;stroke-dasharray:none;stroke-opacity:1"
       id="path1085" />
    <path
       d="m 84.853285,144.172 -0.0798,0.35136 -0.224614,0.28117 -0.323814,0.15593 h -0.359552 l -0.32385,-0.15593 -0.224754,-0.28117 -0.08005,-0.35136 0.08005,-0.34996 0.224754,-0.28257 0.32385,-0.15558 h 0.359552 l 0.323814,0.15558 0.224614,0.28257 0.0798,0.34996"
       style="fill:none;stroke:#00b200;stroke-width:0.124806;stroke-linecap:butt;stroke-linejoin:miter;stroke-miterlimit:10;stroke-dasharray:none;stroke-opacity:1"
       id="path1087" />
    <path
       d="m 91.043477,148.75141 -0.07973,0.35136 -0.223309,0.28117 -0.325261,0.15557 h -0.359481 l -0.32385,-0.15557 -0.224719,-0.28117 -0.08008,-0.35136 0.08008,-0.35137 0.224719,-0.28116 0.32385,-0.15593 h 0.359481 l 0.325261,0.15593 0.223309,0.28116 0.07973,0.35137"
       style="fill:none;stroke:#00b200;stroke-width:0.124806;stroke-linecap:butt;stroke-linejoin:miter;stroke-miterlimit:10;stroke-dasharray:none;stroke-opacity:1"
       id="path1089" />
    <path
       d="m 94.758933,152.7572 -0.08008,0.35136 -0.22472,0.28117 -0.325261,0.15593 h -0.359481 l -0.32385,-0.15593 -0.224719,-0.28117 -0.07973,-0.35136 0.07973,-0.35137 0.224719,-0.28116 0.32385,-0.15558 h 0.359481 l 0.325261,0.15558 0.22472,0.28116 0.08008,0.35137"
       style="fill:none;stroke:#00b200;stroke-width:0.124806;stroke-linecap:butt;stroke-linejoin:miter;stroke-miterlimit:10;stroke-dasharray:none;stroke-opacity:1"
       id="path1091" />
    <path
       d="m 97.23508,154.85587 -0.07973,0.35031 -0.22472,0.28085 -0.325261,0.15737 h -0.359833 l -0.32385,-0.15737 -0.224367,-0.28085 -0.08008,-0.35031 0.08008,-0.3514 0.224367,-0.28113 0.32385,-0.15557 h 0.359833 l 0.325261,0.15557 0.22472,0.28113 0.07973,0.3514"
       style="fill:none;stroke:#00b200;stroke-width:0.124806;stroke-linecap:butt;stroke-linejoin:miter;stroke-miterlimit:10;stroke-dasharray:none;stroke-opacity:1"
       id="path1093" />
    <path
       d="m 103.42527,160.38746 -0.0801,0.35126 -0.22436,0.28127 -0.32385,0.15558 h -0.36125 l -0.32385,-0.15558 -0.22437,-0.28127 -0.0801,-0.35126 0.0801,-0.35002 0.22437,-0.28113 0.32385,-0.15695 h 0.36125 l 0.32385,0.15695 0.22436,0.28113 0.0801,0.35002"
       style="fill:none;stroke:#00b200;stroke-width:0.124806;stroke-linecap:butt;stroke-linejoin:miter;stroke-miterlimit:10;stroke-dasharray:none;stroke-opacity:1"
       id="path1095" />
    <path
       d="m 115.80566,165.73025 -0.0801,0.34988 -0.22472,0.28127 -0.32385,0.15695 h -0.35948 l -0.32385,-0.15695 -0.22472,-0.28127 -0.0797,-0.34988 0.0797,-0.3514 0.22472,-0.28113 0.32385,-0.15597 h 0.35948 l 0.32385,0.15597 0.22472,0.28113 0.0801,0.3514"
       style="fill:none;stroke:#00b200;stroke-width:0.124806;stroke-linecap:butt;stroke-linejoin:miter;stroke-miterlimit:10;stroke-dasharray:none;stroke-opacity:1"
       id="path1097" />
    <path
       d="m 128.18569,165.53869 -0.0797,0.3514 -0.22331,0.28113 -0.32526,0.15558 h -0.35948 l -0.32385,-0.15558 -0.22472,-0.28113 -0.0801,-0.3514 0.0801,-0.35027 0.22472,-0.28223 0.32385,-0.15599 h 0.35948 l 0.32526,0.15599 0.22331,0.28223 0.0797,0.35027"
       style="fill:none;stroke:#00b200;stroke-width:0.124806;stroke-linecap:butt;stroke-linejoin:miter;stroke-miterlimit:10;stroke-dasharray:none;stroke-opacity:1"
       id="path1099" />
    <path
       d="m 66.247008,124.52263 -0.07578,0.33619 -0.214841,0.26882 -0.310057,0.15028 h -0.344381 l -0.310057,-0.15028 -0.21523,-0.26882 -0.07581,-0.33619 0.07581,-0.33479 0.21523,-0.27023 0.310057,-0.14887 h 0.344381 l 0.310057,0.14887 0.214841,0.27023 0.07578,0.33479"
       style="fill:none;stroke:#00b200;stroke-width:0.18721;stroke-linecap:butt;stroke-linejoin:miter;stroke-miterlimit:10;stroke-dasharray:none;stroke-opacity:1"
       id="path1101" />
    <path
       d="m 78.628838,140.54791 -0.07719,0.3362 -0.214842,0.26881 -0.310198,0.14888 H 77.68198 l -0.310057,-0.14888 -0.213465,-0.26881 -0.07715,-0.3362 0.07715,-0.33479 0.213465,-0.27022 0.310057,-0.14888 h 0.344628 l 0.310198,0.14888 0.214842,0.27022 0.07719,0.33479"
       style="fill:none;stroke:#00b200;stroke-width:0.18721;stroke-linecap:butt;stroke-linejoin:miter;stroke-miterlimit:10;stroke-dasharray:none;stroke-opacity:1"
       id="path1103" />
    <path
       d="m 84.819101,144.172 -0.07729,0.33619 -0.214841,0.26882 -0.310057,0.15028 h -0.343252 l -0.311574,-0.15028 -0.213325,-0.26882 -0.07733,-0.33619 0.07733,-0.33479 0.213325,-0.27023 0.311574,-0.14852 h 0.343252 l 0.310057,0.14852 0.214841,0.27023 0.07729,0.33479"
       style="fill:none;stroke:#00b200;stroke-width:0.18721;stroke-linecap:butt;stroke-linejoin:miter;stroke-miterlimit:10;stroke-dasharray:none;stroke-opacity:1"
       id="path1105" />
    <path
       d="m 91.009258,148.75141 -0.07726,0.33478 -0.213784,0.27023 -0.309739,0.14852 h -0.344664 l -0.310091,-0.14852 -0.214842,-0.27023 -0.07726,-0.33478 0.07726,-0.3362 0.214842,-0.26882 0.310091,-0.15028 h 0.344664 l 0.309739,0.15028 0.213784,0.26882 0.07726,0.3362"
       style="fill:none;stroke:#00b200;stroke-width:0.18721;stroke-linecap:butt;stroke-linejoin:miter;stroke-miterlimit:10;stroke-dasharray:none;stroke-opacity:1"
       id="path1107" />
    <path
       d="m 94.72295,152.7572 -0.07585,0.33619 -0.214842,0.26882 -0.310092,0.14887 h -0.344664 l -0.310091,-0.14887 -0.214842,-0.26882 -0.07585,-0.33619 0.07585,-0.3362 0.214842,-0.26882 0.310091,-0.14887 h 0.344664 l 0.310092,0.14887 0.214842,0.26882 0.07585,0.3362"
       style="fill:none;stroke:#00b200;stroke-width:0.18721;stroke-linecap:butt;stroke-linejoin:miter;stroke-miterlimit:10;stroke-dasharray:none;stroke-opacity:1"
       id="path1109" />
    <path
       d="m 97.19945,154.85587 -0.07585,0.33514 -0.215195,0.26984 -0.310091,0.14894 h -0.344312 l -0.310091,-0.14894 -0.214842,-0.26984 -0.07585,-0.33514 0.07585,-0.33623 0.214842,-0.26843 0.310091,-0.15021 h 0.344312 l 0.310091,0.15021 0.215195,0.26843 0.07585,0.33623"
       style="fill:none;stroke:#00b200;stroke-width:0.18721;stroke-linecap:butt;stroke-linejoin:miter;stroke-miterlimit:10;stroke-dasharray:none;stroke-opacity:1"
       id="path1111" />
    <path
       d="m 103.38929,160.38746 -0.0755,0.3361 -0.21519,0.26885 -0.31009,0.15035 h -0.34431 l -0.31009,-0.15035 -0.2152,-0.26885 -0.0755,-0.3361 0.0755,-0.33485 0.2152,-0.26871 0.31009,-0.15036 h 0.34431 l 0.31009,0.15036 0.21519,0.26871 0.0755,0.33485"
       style="fill:none;stroke:#00b200;stroke-width:0.18721;stroke-linecap:butt;stroke-linejoin:miter;stroke-miterlimit:10;stroke-dasharray:none;stroke-opacity:1"
       id="path1113" />
    <path
       d="m 115.77108,165.73025 -0.0772,0.33471 -0.21485,0.26889 -0.31009,0.14993 h -0.34466 l -0.30974,-0.14993 -0.21378,-0.26889 -0.0773,-0.33471 0.0773,-0.33623 0.21378,-0.26871 0.30974,-0.15036 h 0.34466 l 0.31009,0.15036 0.21485,0.26871 0.0772,0.33623"
       style="fill:none;stroke:#00b200;stroke-width:0.18721;stroke-linecap:butt;stroke-linejoin:miter;stroke-miterlimit:10;stroke-dasharray:none;stroke-opacity:1"
       id="path1115" />
    <path
       d="m 128.15147,165.53869 -0.0759,0.33627 -0.21484,0.26871 -0.31009,0.14993 h -0.34467 l -0.31009,-0.14993 -0.21484,-0.26871 -0.0773,-0.33627 0.0773,-0.33514 0.21484,-0.26994 0.31009,-0.14884 h 0.34467 l 0.31009,0.14884 0.21484,0.26994 0.0759,0.33514"
       style="fill:none;stroke:#00b200;stroke-width:0.18721;stroke-linecap:butt;stroke-linejoin:miter;stroke-miterlimit:10;stroke-dasharray:none;stroke-opacity:1"
       id="path1117" />
    <path
       d="m 94.02833,152.7572 -0.01517,0.0469 -0.03845,0.0289 h -0.04974 l -0.03845,-0.0289 -0.01517,-0.0469 0.01517,-0.0469 0.03845,-0.0289 h 0.04974 l 0.03845,0.0289 0.01517,0.0469"
       style="fill:none;stroke:#b2b2ff;stroke-width:1.42162;stroke-linecap:butt;stroke-linejoin:miter;stroke-miterlimit:10;stroke-dasharray:none;stroke-opacity:1"
       id="path1121" />
    <path
       d="m 94.295736,152.7572 -0.06597,0.2039 -0.173919,0.12559 h -0.21202 l -0.173566,-0.12559 -0.06632,-0.2039 0.06632,-0.2025 0.173566,-0.12664 h 0.21202 l 0.173919,0.12664 0.06597,0.2025"
       style="fill:none;stroke:#b2b2ff;stroke-width:0.947748;stroke-linecap:butt;stroke-linejoin:miter;stroke-miterlimit:10;stroke-dasharray:none;stroke-opacity:1"
       id="path1123" />
    <path
       d="m 94.473536,152.7572 -0.100542,0.30727 -0.261761,0.19014 h -0.322439 l -0.262114,-0.19014 -0.100541,-0.30727 0.100541,-0.30727 0.262114,-0.19015 h 0.322439 l 0.261761,0.19015 0.100542,0.30727"
       style="fill:none;stroke:#b2b2ff;stroke-width:0.631832;stroke-linecap:butt;stroke-linejoin:miter;stroke-miterlimit:10;stroke-dasharray:none;stroke-opacity:1"
       id="path1125" />
    <path
       d="m 94.592069,152.7572 -0.0635,0.27834 -0.179211,0.22331 -0.256117,0.12418 h -0.286808 l -0.256117,-0.12418 -0.179211,-0.22331 -0.0635,-0.27834 0.0635,-0.27834 0.179211,-0.22331 0.256117,-0.12383 h 0.286808 l 0.256117,0.12383 0.179211,0.22331 0.0635,0.27834"
       style="fill:none;stroke:#b2b2ff;stroke-width:0.42122;stroke-linecap:butt;stroke-linejoin:miter;stroke-miterlimit:10;stroke-dasharray:none;stroke-opacity:1"
       id="path1127" />
    <path
       d="m 94.670739,152.7572 -0.07197,0.31291 -0.199672,0.25083 -0.289278,0.13899 h -0.31997 l -0.289277,-0.13899 -0.199673,-0.25083 -0.07161,-0.31291 0.07161,-0.31292 0.199673,-0.25047 0.289277,-0.13935 h 0.31997 l 0.289278,0.13935 0.199672,0.25047 0.07197,0.31292"
       style="fill:none;stroke:#b2b2ff;stroke-width:0.280814;stroke-linecap:butt;stroke-linejoin:miter;stroke-miterlimit:10;stroke-dasharray:none;stroke-opacity:1"
       id="path1129" />
    <path
       d="m 94.782216,152.7572 -0.08255,0.36124 -0.231775,0.28928 -0.331963,0.16122 h -0.37077 l -0.333375,-0.16122 -0.231422,-0.28928 -0.0829,-0.36124 0.0829,-0.36089 0.231422,-0.28963 0.333375,-0.16122 h 0.37077 l 0.331963,0.16122 0.231775,0.28963 0.08255,0.36089"
       style="fill:none;stroke:#0000ff;stroke-width:0.0832044;stroke-linecap:butt;stroke-linejoin:miter;stroke-miterlimit:10;stroke-dasharray:none;stroke-opacity:1"
       id="path1131" />
    <path
       d="m 94.758933,152.7572 -0.08008,0.35136 -0.22472,0.28117 -0.325261,0.15593 h -0.359481 l -0.32385,-0.15593 -0.224719,-0.28117 -0.07973,-0.35136 0.07973,-0.35137 0.224719,-0.28116 0.32385,-0.15558 h 0.359481 l 0.325261,0.15558 0.22472,0.28116 0.08008,0.35137"
       style="fill:none;stroke:#0000ff;stroke-width:0.124806;stroke-linecap:butt;stroke-linejoin:miter;stroke-miterlimit:10;stroke-dasharray:none;stroke-opacity:1"
       id="path1133" />
    <path
       d="m 94.72295,152.7572 -0.07585,0.33619 -0.214842,0.26882 -0.310092,0.14887 h -0.344664 l -0.310091,-0.14887 -0.214842,-0.26882 -0.07585,-0.33619 0.07585,-0.3362 0.214842,-0.26882 0.310091,-0.14887 h 0.344664 l 0.310092,0.14887 0.214842,0.26882 0.07585,0.3362"
       style="fill:none;stroke:#0000ff;stroke-width:0.18721;stroke-linecap:butt;stroke-linejoin:miter;stroke-miterlimit:10;stroke-dasharray:none;stroke-opacity:1"
       id="path1135" />
    <path
       d="m 92.464466,185.62486 h 0.365125 c 0.07832,0 0.121356,0 0.121356,-0.0784 0,-0.043 -0.04304,-0.043 -0.109008,-0.043 h -0.341842 c 0.140758,-0.55246 0.158397,-0.62548 0.158397,-0.65018 0,-0.0678 -0.04798,-0.10332 -0.115711,-0.10332 -0.01235,0 -0.121003,0 -0.151342,0.13888 l -0.151694,0.61462 h -0.365125 c -0.07867,0 -0.115711,0 -0.115711,0.073 0,0.0484 0.03034,0.0484 0.110066,0.0484 h 0.340431 c -0.279753,1.10091 -0.299156,1.16733 -0.299156,1.23472 0,0.21235 0.14605,0.35842 0.359834,0.35842 0.395464,0 0.613128,-0.56527 0.613128,-0.59558 0,-0.0426 -0.03034,-0.0426 -0.04127,-0.0426 -0.03739,0 -0.04269,0.0123 -0.06209,0.055 -0.164042,0.4068 -0.37077,0.49912 -0.504473,0.49912 -0.07832,0 -0.121002,-0.0497 -0.121002,-0.17638 0,-0.098 0.01235,-0.12279 0.02469,-0.18907 z"
       style="fill:#000000;fill-opacity:1;fill-rule:nonzero;stroke:none;stroke-width:0.0352778"
       id="path1137" />
    <path
       d="m 93.718239,186.46835 v -0.42581 l -0.541514,0.0426 v 0.1214 c 0.274461,0 0.304447,0.0247 0.304447,0.21911 v 1.03891 c 0,0.17073 -0.04269,0.17073 -0.304447,0.17073 v 0.12141 c 0.153105,-0.005 0.334786,-0.0124 0.443794,-0.0124 0.153106,0 0.334786,0 0.493184,0.0124 v -0.12141 h -0.08537 c -0.285044,0 -0.2921,-0.0427 -0.2921,-0.18162 v -0.59697 c 0,-0.38309 0.164042,-0.72884 0.456142,-0.72884 0.02469,0 0.03739,0 0.04269,0.006 -0.01235,0 -0.09102,0.0495 -0.09102,0.15282 0,0.10335 0.08572,0.16399 0.169687,0.16399 0.06738,0 0.165452,-0.0497 0.165452,-0.17074 0,-0.12141 -0.122766,-0.23702 -0.286808,-0.23702 -0.285397,0 -0.425803,0.26169 -0.474133,0.42581 z"
       style="fill:#000000;fill-opacity:1;fill-rule:nonzero;stroke:none;stroke-width:0.0352778"
       id="path1139" />
    <path
       d="m 95.875122,187.46454 c 0.01764,0.15309 0.121003,0.31681 0.304447,0.31681 0.08537,0 0.322439,-0.055 0.322439,-0.37042 v -0.21911 h -0.09772 v 0.21911 c 0,0.22434 -0.09807,0.24943 -0.139347,0.24943 -0.128059,0 -0.14605,-0.17639 -0.14605,-0.19582 v -0.77157 c 0,-0.16398 0,-0.31571 -0.140406,-0.46178 -0.151694,-0.15172 -0.346075,-0.21373 -0.529167,-0.21373 -0.322439,0 -0.589844,0.18342 -0.589844,0.43849 0,0.11575 0.07973,0.18163 0.183091,0.18163 0.109009,0 0.176389,-0.0783 0.176389,-0.17639 0,-0.048 -0.01905,-0.17488 -0.201083,-0.17488 0.109008,-0.14042 0.297744,-0.18314 0.418747,-0.18314 0.195792,0 0.413456,0.15131 0.413456,0.49885 v 0.13891 c -0.199672,0.0124 -0.467078,0.0251 -0.710847,0.14083 -0.291042,0.13367 -0.388762,0.33473 -0.388762,0.50409 0,0.31722 0.376414,0.41341 0.620184,0.41341 0.255058,0 0.431447,-0.15834 0.504473,-0.33472 z m -0.02505,-0.63817 v 0.39012 c 0,0.3638 -0.278342,0.49747 -0.454731,0.49747 -0.188736,0 -0.347133,-0.13367 -0.347133,-0.32811 0,-0.21194 0.164042,-0.5344 0.801864,-0.55948 z"
       style="fill:#000000;fill-opacity:1;fill-rule:nonzero;stroke:none;stroke-width:0.0352778"
       id="path1141" />
    <path
       d="m 96.949683,186.42563 v 1.03891 c 0,0.17073 -0.04127,0.17073 -0.303036,0.17073 v 0.12141 c 0.139347,-0.005 0.333375,-0.0124 0.443795,-0.0124 0.09631,0 0.297744,0.007 0.431447,0.0124 v -0.12141 c -0.262114,0 -0.303389,0 -0.303389,-0.17073 v -0.71645 c 0,-0.40114 0.279753,-0.62025 0.522464,-0.62025 0.249414,0 0.2921,0.2067 0.2921,0.43146 v 0.90524 c 0,0.17073 -0.04269,0.17073 -0.304447,0.17073 v 0.12141 c 0.13335,-0.005 0.334786,-0.0124 0.43815,-0.0124 0.09631,0 0.303036,0.007 0.431094,0.0124 v -0.12141 c -0.254705,0 -0.297392,0 -0.297392,-0.17073 v -0.71645 c 0,-0.40114 0.272698,-0.62025 0.522112,-0.62025 0.243769,0 0.286808,0.2067 0.286808,0.43146 v 0.90524 c 0,0.17073 -0.04304,0.17073 -0.3048,0.17073 v 0.12141 c 0.133703,-0.005 0.335139,-0.0124 0.43815,-0.0124 0.103364,0 0.303389,0.007 0.437092,0.0124 v -0.12141 c -0.200025,0 -0.297745,0 -0.303389,-0.11575 v -0.74111 c 0,-0.33514 0,-0.45089 -0.121003,-0.58994 -0.05539,-0.0677 -0.183445,-0.14593 -0.408164,-0.14593 -0.322439,0 -0.498828,0.23137 -0.559506,0.38309 -0.05503,-0.34051 -0.340077,-0.38309 -0.516466,-0.38309 -0.285398,0 -0.468842,0.16398 -0.577498,0.40776 v -0.40776 l -0.547158,0.0426 v 0.1214 c 0.27305,0 0.303036,0.0247 0.303036,0.21911 z"
       style="fill:#000000;fill-opacity:1;fill-rule:nonzero;stroke:none;stroke-width:0.0352778"
       id="path1143" />
    <path
       d="m 100.42384,186.2972 v -0.25466 l -0.559507,0.0426 v 0.1214 c 0.274457,0 0.304447,0.0247 0.304447,0.19403 v 1.81226 c 0,0.17639 -0.0427,0.17639 -0.304447,0.17639 v 0.12127 c 0.133703,-0.006 0.334787,-0.0109 0.431447,-0.0109 0.11007,0 0.30445,0.005 0.43815,0.0109 v -0.12127 c -0.25506,0 -0.29774,0 -0.29774,-0.17639 v -0.68613 c 0.018,0.0659 0.18203,0.27258 0.47413,0.27258 0.46179,0 0.86254,-0.38309 0.86254,-0.88194 0,-0.49169 -0.37042,-0.87478 -0.80751,-0.87478 -0.30444,0 -0.46849,0.17074 -0.54151,0.25466 z m 0.0123,1.01561 v -0.86251 c 0.109,-0.20106 0.29774,-0.31006 0.49882,-0.31006 0.2854,0 0.51682,0.34038 0.51682,0.77708 0,0.46853 -0.26881,0.79664 -0.55386,0.79664 -0.15839,0 -0.30444,-0.0787 -0.40781,-0.23702 -0.054,-0.0784 -0.054,-0.0841 -0.054,-0.16413 z"
       style="fill:#000000;fill-opacity:1;fill-rule:nonzero;stroke:none;stroke-width:0.0352778"
       id="path1145" />
    <path
       d="m 104.67799,188.10519 c 0,-0.0109 0,-0.0176 -0.0677,-0.0839 -0.47942,-0.48658 -0.60748,-1.22245 -0.60748,-1.81901 0,-0.67372 0.14605,-1.34898 0.62689,-1.83016 0.0483,-0.048 0.0483,-0.0536 0.0483,-0.066 0,-0.0303 -0.0123,-0.0426 -0.0374,-0.0426 -0.0427,0 -0.38841,0.26734 -0.62018,0.76052 -0.19403,0.42445 -0.24236,0.85729 -0.24236,1.17823 0,0.30455 0.0427,0.77294 0.25506,1.21681 0.23671,0.47404 0.5648,0.72912 0.60748,0.72912 0.025,0 0.0374,-0.0113 0.0374,-0.043 z"
       style="fill:#000000;fill-opacity:1;fill-rule:nonzero;stroke:none;stroke-width:0.0352778"
       id="path1147" />
    <path
       d="m 105.797,185.81351 c 0.0233,-0.0783 0.0603,-0.23138 0.0603,-0.24943 0,-0.0659 -0.0494,-0.10335 -0.11571,-0.10335 -0.005,0 -0.11571,0.007 -0.15134,0.14084 l -0.55951,2.2433 c -0.0123,0.0482 -0.0123,0.0536 -0.0123,0.0663 0,0.055 0.0427,0.10335 0.10865,0.10335 0.0801,0 0.12806,-0.073 0.13371,-0.0857 0.0194,-0.0303 0.0674,-0.23675 0.21378,-0.8322 0.12665,0.10335 0.30303,0.1214 0.37606,0.1214 0.27411,0 0.4258,-0.17638 0.51682,-0.28539 0.037,0.17639 0.18309,0.28539 0.35278,0.28539 0.1337,0 0.22577,-0.0911 0.28645,-0.21249 0.0663,-0.14028 0.11571,-0.37744 0.11571,-0.38309 0,-0.0426 -0.037,-0.0426 -0.0494,-0.0426 -0.036,0 -0.0427,0.0179 -0.054,0.0729 -0.0617,0.24943 -0.13476,0.48121 -0.2921,0.48121 -0.10336,0 -0.11571,-0.10335 -0.11571,-0.17638 0,-0.0857 0.0427,-0.26872 0.073,-0.40818 l 0.10901,-0.41865 c 0.0123,-0.0551 0.055,-0.20147 0.0674,-0.26183 0.018,-0.0909 0.0607,-0.23702 0.0607,-0.2621 0,-0.066 -0.055,-0.10335 -0.11571,-0.10335 -0.018,0 -0.12136,0.006 -0.1517,0.13367 l -0.18309,0.73064 c -0.0413,0.19402 -0.0843,0.3514 -0.0967,0.39398 -0.007,0.0194 -0.18873,0.3722 -0.50412,0.3722 -0.19579,0 -0.28681,-0.12843 -0.28681,-0.34175 0,-0.109 0.0247,-0.21773 0.055,-0.32811 z"
       style="fill:#000000;fill-opacity:1;fill-rule:nonzero;stroke:none;stroke-width:0.0352778"
       id="path1149" />
    <path
       d="m 108.04737,186.42136 c 0.0854,0.0194 0.40075,0.0801 0.40075,0.35981 0,0.19402 -0.1337,0.35277 -0.43674,0.35277 -0.32949,0 -0.46848,-0.21938 -0.54151,-0.5541 -0.0123,-0.0484 -0.0123,-0.0608 -0.055,-0.0608 -0.0483,0 -0.0483,0.0251 -0.0483,0.0911 v 0.51677 c 0,0.0674 0,0.0911 0.0427,0.0911 0.018,0 0.0233,-0.006 0.0963,-0.0787 0.007,-0.005 0.007,-0.0124 0.0801,-0.0854 0.16933,0.15848 0.34572,0.16412 0.4258,0.16412 0.4438,0 0.62548,-0.26044 0.62548,-0.54019 0,-0.20146 -0.11571,-0.32273 -0.16369,-0.36545 -0.12841,-0.12802 -0.27975,-0.15834 -0.44379,-0.18879 -0.21908,-0.0426 -0.47414,-0.0909 -0.47414,-0.3153 0,-0.14083 0.0963,-0.29917 0.43145,-0.29917 0.4258,0 0.44909,0.35278 0.45614,0.46853 0,0.0374 0.0356,0.0374 0.0427,0.0374 0.0536,0 0.0536,-0.0194 0.0536,-0.0911 v -0.39536 c 0,-0.0608 0,-0.0911 -0.0427,-0.0911 -0.018,0 -0.0303,0 -0.0787,0.0484 -0.0123,0.0124 -0.048,0.048 -0.066,0.0606 -0.14605,-0.109 -0.30444,-0.109 -0.36512,-0.109 -0.47413,0 -0.62018,0.26045 -0.62018,0.47942 0,0.13381 0.0607,0.24419 0.16404,0.32811 0.12806,0.0977 0.23706,0.12279 0.51682,0.17639 z"
       style="fill:#000000;fill-opacity:1;fill-rule:nonzero;stroke:none;stroke-width:0.0352778"
       id="path1151" />
    <path
       d="m 109.88534,186.20225 c 0,-0.29766 -0.0413,-0.76481 -0.25471,-1.20991 -0.23142,-0.4742 -0.56515,-0.72884 -0.60219,-0.72884 -0.0236,0 -0.0427,0.0179 -0.0427,0.0426 0,0.0124 0,0.018 0.073,0.0911 0.38312,0.38308 0.60219,0.99755 0.60219,1.80508 0,0.66959 -0.13934,1.35048 -0.62018,1.83693 -0.055,0.0484 -0.055,0.0551 -0.055,0.066 0,0.0251 0.0191,0.043 0.0427,0.043 0.037,0 0.38982,-0.26734 0.61454,-0.75943 0.20108,-0.42582 0.24236,-0.85728 0.24236,-1.1865 z"
       style="fill:#000000;fill-opacity:1;fill-rule:nonzero;stroke:none;stroke-width:0.0352778"
       id="path1153" />
    <path
       d="m 51.264986,159.31809 c -0.0124,0 -0.04272,0.007 -0.04272,0.0441 0,0.0124 0.0057,0.0181 0.04975,0.0622 l 0.303029,0.27273 c -0.05498,0.0373 -0.352778,0.21622 -0.352778,0.65578 0,0.88624 0.873816,1.77232 1.790347,1.77232 0.651539,0 1.084379,-0.46454 1.084379,-1.07213 0,-0.34036 -0.154478,-0.6434 -0.340374,-0.85439 -0.32246,-0.36502 -0.682269,-0.4342 -0.694669,-0.4342 -0.04258,0 -0.04258,0.0441 -0.04258,0.0497 0,0.0247 0.01226,0.0441 0.04258,0.0497 0.111898,0.0369 0.396875,0.1294 0.627282,0.40213 0.216214,0.27312 0.285118,0.52102 0.285118,0.72496 0,0.35416 -0.205327,0.77572 -0.818557,0.77572 -0.22889,0 -0.868162,-0.081 -1.332424,-0.4779 -0.278638,-0.24144 -0.476938,-0.61324 -0.476938,-0.96601 0,-0.4039 0.303029,-0.63818 0.762053,-0.63818 0.161233,0 0.161233,0.0124 0.203813,0.0124 0.03748,0 0.03748,-0.0441 0.03748,-0.0565 0,-0.0497 -0.0057,-0.0497 -0.08006,-0.0744 z"
       style="fill:#000000;fill-opacity:1;fill-rule:nonzero;stroke:none;stroke-width:0.0352778"
       id="path1155" />
    <path
       d="m 54.520039,158.67607 c 0.01944,-0.0871 0.08146,-0.40954 0.366571,-0.40954 0.197203,0 0.358423,0.13656 0.358423,0.44662 0,0.33471 -0.223379,0.47695 -0.563739,0.55135 -0.04978,0.0124 -0.06216,0.0124 -0.06216,0.0551 0,0.0493 0.02508,0.0493 0.09384,0.0493 h 0.526415 c 0.06766,0 0.09232,0 0.09232,-0.0427 0,-0.019 -0.0055,-0.0247 -0.08004,-0.0991 -0.0066,-0.007 -0.01228,-0.007 -0.08668,-0.08 0.16122,-0.17364 0.166723,-0.35387 0.166723,-0.43395 0,-0.45339 -0.265959,-0.63818 -0.551356,-0.63818 -0.2038,0 -0.327696,0.11712 -0.371793,0.1669 -0.129822,0.1294 -0.161226,0.28536 -0.191541,0.45184 -0.0441,0.22338 -0.09385,0.48369 -0.322463,0.48369 -0.142212,0 -0.303442,-0.0991 -0.303442,-0.4396 0,-0.43395 0.358426,-0.45861 0.477076,-0.46563 0.03693,0 0.03693,-0.0371 0.03693,-0.0427 0,-0.0564 -0.01902,-0.0564 -0.09343,-0.0564 h -0.402526 c -0.06215,0 -0.09247,0 -0.09247,0.0441 0,0.0179 0,0.0303 0.04975,0.0796 0.0124,0.0124 0.04975,0.0497 0.06215,0.0692 -0.111898,0.14884 -0.111898,0.31006 -0.111898,0.37179 0,0.4826 0.2661,0.63116 0.489342,0.63116 0.136563,0 0.248048,-0.0617 0.334715,-0.16648 0.09924,-0.12954 0.124319,-0.2413 0.179282,-0.52641 z"
       style="fill:#000000;fill-opacity:1;fill-rule:nonzero;stroke:none;stroke-width:0.0352778"
       id="path1157" />
    <path
       d="m 53.541779,157.24139 0.04272,0.55136 h 0.123748 c 0,-0.25368 0.02508,-0.29104 0.216627,-0.29104 h 1.066475 c 0.173637,0 0.173637,0.043 0.173637,0.31005 h 0.124143 c -0.007,-0.12375 -0.01238,-0.34145 -0.01238,-0.43395 0,-0.14316 0.0054,-0.27972 0.01238,-0.41476 h -0.124143 c 0,0.26596 -0.01944,0.27834 -0.173637,0.27834 z m -0.687917,-0.0124 c -0.123885,0 -0.210562,0.0925 -0.210562,0.20394 0,0.12414 0.104729,0.21096 0.210562,0.21096 0.104733,0 0.209603,-0.0868 0.209603,-0.21096 0,-0.11148 -0.08682,-0.20394 -0.209603,-0.20394 z"
       style="fill:#000000;fill-opacity:1;fill-rule:nonzero;stroke:none;stroke-width:0.0352778"
       id="path1159" />
    <path
       d="m 53.931627,156.41056 h 1.059723 c 0.173637,0 0.173637,0.0427 0.173637,0.30869 h 0.124143 c -0.007,-0.14221 -0.01238,-0.34051 -0.01238,-0.45227 0,-0.0991 0.0054,-0.30303 0.01238,-0.43959 h -0.124143 c 0,0.26596 0,0.31005 -0.173637,0.31005 h -0.731612 c -0.407899,0 -0.63114,-0.28497 -0.63114,-0.53301 0,-0.25357 0.210562,-0.29767 0.439593,-0.29767 h 0.923159 c 0.173637,0 0.173637,0.0441 0.173637,0.31005 h 0.124143 c -0.007,-0.13656 -0.01238,-0.3405 -0.01238,-0.44661 0,-0.0991 0.0054,-0.31006 0.01238,-0.4396 h -0.124143 c 0,0.26032 0,0.30304 -0.173637,0.30304 h -0.731612 c -0.407899,0 -0.63114,-0.27834 -0.63114,-0.53164 0,-0.24832 0.210562,-0.29242 0.439593,-0.29242 h 0.923159 c 0.173637,0 0.173637,0.0441 0.173637,0.31006 h 0.124143 c -0.007,-0.13614 -0.01238,-0.34039 -0.01238,-0.44623 0,-0.1047 0.0054,-0.31005 0.01238,-0.44661 h -0.124143 c 0,0.20535 0,0.30441 -0.118674,0.31005 h -0.754874 c -0.341898,0 -0.459031,0 -0.601105,0.12418 -0.06876,0.0565 -0.148555,0.18588 -0.148555,0.41603 0,0.32798 0.235645,0.50726 0.389848,0.569 -0.347127,0.0568 -0.389848,0.34738 -0.389848,0.52807 0,0.29076 0.166469,0.47664 0.414514,0.5884 h -0.414514 l 0.04272,0.55672 h 0.123748 c 0,-0.27835 0.02508,-0.30869 0.22338,-0.30869 z"
       style="fill:#000000;fill-opacity:1;fill-rule:nonzero;stroke:none;stroke-width:0.0352778"
       id="path1161" />
    <path
       d="m 54.959635,150.72873 c -0.01238,0 -0.01944,0 -0.08682,0.0691 -0.495935,0.48895 -1.245599,0.61842 -1.853449,0.61842 -0.687642,0 -1.375145,-0.14852 -1.865866,-0.63782 -0.04975,-0.0497 -0.05512,-0.0497 -0.06739,-0.0497 -0.03183,0 -0.0441,0.0123 -0.0441,0.0374 0,0.0441 0.272713,0.39687 0.7757,0.63253 0.432565,0.19826 0.873537,0.248 1.201649,0.248 0.310056,0 0.786994,-0.0441 1.238853,-0.2607 0.48368,-0.24236 0.743995,-0.57573 0.743995,-0.61983 0,-0.025 -0.01224,-0.0374 -0.04258,-0.0374 z"
       style="fill:#000000;fill-opacity:1;fill-rule:nonzero;stroke:none;stroke-width:0.0352778"
       id="path1163" />
    <path
       d="m 52.523274,149.81785 h -0.260315 l 0.0441,0.57044 h 0.123888 c 0,-0.27834 0.02467,-0.31009 0.198575,-0.31009 h 1.846422 c 0.17914,0 0.17914,0.0441 0.17914,0.31009 h 0.123896 c -0.0052,-0.13617 -0.01238,-0.34007 -0.01238,-0.43956 0,-0.11147 0.0072,-0.31009 0.01238,-0.44626 h -0.123896 c 0,0.26035 0,0.30304 -0.17914,0.30304 H 53.77605 c 0.06738,-0.018 0.278363,-0.18592 0.278363,-0.48225 0,-0.47131 -0.39026,-0.88053 -0.89862,-0.88053 -0.501604,0 -0.892832,0.37747 -0.892832,0.82408 0,0.3101 0.173634,0.47661 0.260315,0.55104 z m 1.034768,-0.0123 h -0.879189 c -0.205328,-0.11148 -0.316812,-0.30304 -0.316812,-0.50695 0,-0.29245 0.347129,-0.5281 0.79375,-0.5281 0.476666,0 0.811805,0.27305 0.811805,0.56515 0,0.1598 -0.08007,0.30868 -0.241297,0.41486 -0.08117,0.055 -0.08681,0.055 -0.168257,0.055 z"
       style="fill:#000000;fill-opacity:1;fill-rule:nonzero;stroke:none;stroke-width:0.0352778"
       id="path1165" />
    <path
       d="m 52.654187,147.87087 h 1.059712 c 0.17363,0 0.17363,0.0427 0.17363,0.31009 h 0.124164 c -0.007,-0.14358 -0.01268,-0.34184 -0.01268,-0.45367 0,-0.0977 0.0056,-0.30303 0.01268,-0.43956 h -0.124164 c 0,0.26741 0,0.31009 -0.17363,0.31009 h -0.731601 c -0.409279,0 -0.63252,-0.28504 -0.63252,-0.5334 0,-0.25329 0.210563,-0.29739 0.440972,-0.29739 h 0.923149 c 0.17363,0 0.17363,0.0441 0.17363,0.31009 h 0.124164 c -0.007,-0.13652 -0.01268,-0.34043 -0.01268,-0.4452 0,-0.0991 0.0056,-0.31009 0.01268,-0.44098 h -0.124164 c 0,0.26035 0,0.30445 -0.17363,0.30445 h -0.731601 c -0.409279,0 -0.63252,-0.27975 -0.63252,-0.5334 0,-0.248 0.210563,-0.2921 0.440972,-0.2921 h 0.923149 c 0.17363,0 0.17363,0.0441 0.17363,0.31009 h 0.124164 c -0.007,-0.13617 -0.01268,-0.34043 -0.01268,-0.44485 0,-0.10619 0.0056,-0.31009 0.01268,-0.44662 h -0.124164 c 0,0.20391 0,0.30304 -0.118508,0.3101 h -0.756409 c -0.340374,0 -0.457507,0 -0.601098,0.12382 -0.06739,0.0554 -0.148555,0.18486 -0.148555,0.41487 0,0.32808 0.235645,0.5087 0.391228,0.57044 -0.34713,0.0554 -0.391228,0.34607 -0.391228,0.5267 0,0.29069 0.167986,0.4766 0.415894,0.58843 h -0.415894 l 0.0441,0.55809 h 0.123888 c 0,-0.27975 0.02467,-0.31009 0.223242,-0.31009 z"
       style="fill:#000000;fill-opacity:1;fill-rule:nonzero;stroke:none;stroke-width:0.0352778"
       id="path1167" />
    <path
       d="m 51.951524,142.95386 c 0,-0.0427 0,-0.11148 -0.06215,-0.11148 -0.07442,0 -0.07442,0.0688 -0.07442,0.11148 v 1.64958 c 0,0.0427 0,0.11007 0.06739,0.11007 0.06918,0 0.06918,-0.0603 0.06918,-0.11007 z"
       style="fill:#000000;fill-opacity:1;fill-rule:nonzero;stroke:none;stroke-width:0.0352778"
       id="path1169" />
    <path
       d="m 50.817261,141.61859 c -0.07441,0 -0.07441,0 -0.07441,0.0811 0.173633,0.17921 0.173633,0.42721 0.173633,0.53904 h 0.09908 c 0,-0.0621 0,-0.248 -0.07414,-0.39687 h 1.406977 c 0.09233,0 0.129399,0 0.129399,0.2727 v 0.10618 h 0.09908 c 0,-0.0497 -0.01227,-0.39123 -0.01227,-0.49071 0,-0.0868 0.01227,-0.43251 0.01227,-0.4946 H 52.4778 v 0.10478 c 0,0.27834 -0.03707,0.27834 -0.129399,0.27834 z"
       style="fill:#000000;fill-opacity:1;fill-rule:nonzero;stroke:none;stroke-width:0.0352778"
       id="path1171" />
    <path
       d="m 53.019368,139.62998 c -0.303033,0 -0.781487,0.0427 -1.233346,0.25929 -0.483691,0.23566 -0.744003,0.57715 -0.744003,0.61454 0,0.0247 0.01902,0.0427 0.0441,0.0427 0.01226,0 0.01764,0 0.09205,-0.0744 0.39164,-0.38982 1.017132,-0.61312 1.8412,-0.61312 0.682265,0 1.375435,0.14181 1.87137,0.63253 0.04946,0.055 0.05652,0.055 0.0689,0.055 0.02466,0 0.04258,-0.018 0.04258,-0.0427 0,-0.0374 -0.272557,-0.39687 -0.774309,-0.62724 -0.43422,-0.2039 -0.873816,-0.24659 -1.208539,-0.24659 z"
       style="fill:#000000;fill-opacity:1;fill-rule:nonzero;stroke:none;stroke-width:0.0352778"
       id="path1173" />
  </g>
</svg>
